<svg width="55" height="69" viewBox="0 0 55 69" fill="none" xmlns="http://www.w3.org/2000/svg">
    <rect x="3" width="49" height="69" rx="10" fill="#9475C6" />
    <rect y="43" width="55" height="17" rx="4" fill="#19251E" />
    <path
        d="M13.2676 53.2168H14.6855C14.6582 53.834 14.5332 54.3594 14.3105 54.793C14.0879 55.2227 13.7676 55.5508 13.3496 55.7773C12.9355 56.0039 12.4297 56.1172 11.832 56.1172C11.3789 56.1172 10.9727 56.0352 10.6133 55.8711C10.2578 55.707 9.95508 55.4707 9.70508 55.1621C9.45508 54.8496 9.26367 54.4688 9.13086 54.0195C9.00195 53.5703 8.9375 53.0605 8.9375 52.4902V50.9785C8.9375 50.4082 9.00391 49.8984 9.13672 49.4492C9.27344 49 9.46875 48.6191 9.72266 48.3066C9.97656 47.9941 10.2852 47.7578 10.6484 47.5977C11.0156 47.4336 11.4297 47.3516 11.8906 47.3516C12.4805 47.3516 12.9766 47.4648 13.3789 47.6914C13.7812 47.918 14.0918 48.25 14.3105 48.6875C14.5293 49.125 14.6562 49.6582 14.6914 50.2871H13.2734C13.2539 49.8613 13.1953 49.5215 13.0977 49.2676C13.0039 49.0098 12.8594 48.8242 12.6641 48.7109C12.4727 48.5977 12.2148 48.541 11.8906 48.541C11.6211 48.541 11.3887 48.5918 11.1934 48.6934C11.002 48.7949 10.8438 48.9473 10.7188 49.1504C10.5977 49.3496 10.5059 49.6016 10.4434 49.9062C10.3848 50.207 10.3555 50.5605 10.3555 50.9668V52.4902C10.3555 52.8809 10.3809 53.2266 10.4316 53.5273C10.4824 53.8281 10.5645 54.084 10.6777 54.2949C10.791 54.502 10.9414 54.6602 11.1289 54.7695C11.3164 54.875 11.5508 54.9277 11.832 54.9277C12.168 54.9277 12.4355 54.875 12.6348 54.7695C12.8379 54.6641 12.9883 54.4863 13.0859 54.2363C13.1836 53.9863 13.2441 53.6465 13.2676 53.2168ZM18.8633 47.4688V56H17.4453V47.4688H18.8633ZM21.0371 47.4688V48.6641H15.2949V47.4688H21.0371ZM24.5059 48.6406L22.4434 56H20.9551L23.6621 47.4688H24.5879L24.5059 48.6406ZM26.1523 56L24.084 48.6406L23.9844 47.4688H24.9277L27.6465 56H26.1523ZM26.1875 52.8301V54.0254H22.2148V52.8301H26.1875ZM30.9922 47.4688V56H29.5742V47.4688H30.9922ZM33.166 47.4688V48.6641H27.4238V47.4688H33.166ZM35.3809 50.7207H37.1504C37.7012 50.7207 38.1738 50.8301 38.5684 51.0488C38.9629 51.2676 39.2637 51.5723 39.4707 51.9629C39.6816 52.3535 39.7871 52.8125 39.7871 53.3398C39.7871 53.7305 39.7266 54.0879 39.6055 54.4121C39.4883 54.7363 39.3145 55.0176 39.084 55.2559C38.8574 55.4941 38.582 55.6777 38.2578 55.8066C37.9336 55.9355 37.5645 56 37.1504 56H34.3672V47.4688H35.791V54.8105H37.1504C37.4316 54.8105 37.6602 54.7422 37.8359 54.6055C38.0156 54.4648 38.1484 54.2832 38.2344 54.0605C38.3242 53.834 38.3691 53.5898 38.3691 53.3281C38.3691 53.0664 38.3242 52.8301 38.2344 52.6191C38.1484 52.4043 38.0156 52.2344 37.8359 52.1094C37.6602 51.9805 37.4316 51.916 37.1504 51.916H35.3809V50.7207ZM44.8379 52.8125H43.0508L42.4766 52.5723C41.9219 52.3652 41.4961 52.0547 41.1992 51.6406C40.9023 51.2266 40.7539 50.7031 40.7539 50.0703C40.7539 49.5078 40.8594 49.0332 41.0703 48.6465C41.2852 48.2598 41.5898 47.9668 41.9844 47.7676C42.3828 47.5684 42.8516 47.4688 43.3906 47.4688H45.8574V56H44.4336V48.6641H43.3906C42.9766 48.6641 42.6699 48.7969 42.4707 49.0625C42.2715 49.3242 42.1719 49.6855 42.1719 50.1465C42.1719 50.4668 42.2168 50.7402 42.3066 50.9668C42.4004 51.1934 42.541 51.3672 42.7285 51.4883C42.916 51.6055 43.1504 51.6641 43.4316 51.6641H44.8379V52.8125ZM43.543 52.1504L41.8965 56H40.373L42.043 52.1504H43.543Z"
        fill="white" />
    <path
        d="M14 36.0854C14.6831 36.6567 16.377 37.5422 17.6885 36.5139C19.3279 35.2285 21.377 37.3708 24.2459 36.9423C27.1148 36.5139 32.4426 36.5139 33.2623 36.0854C33.918 35.7426 37.3607 36.5139 39 36.9423"
        stroke="white" stroke-width="2" stroke-linecap="round" stroke-linejoin="round" />
    <g clip-path="url(#clip0_1453_37428)">
        <path
            d="M29.2218 20.8967C31.9865 20.78 33.4002 20.1288 34.9462 19.6261C37.4336 16.0202 38.6277 14.4651 42.342 11.2652C42.342 11.2652 32.7908 7.80514 23.7292 15.0259C23.0683 16.4687 22.7328 18.0346 22.3069 21.0017C21.3884 19.8873 21.0788 18.6919 20.8564 17.6874C14.6386 24.3981 17.1394 28.6542 18.6902 29.1605C20.2694 29.6785 22.4678 30.9495 28.2255 25.9193C29.8514 24.4979 30.7397 23.6579 32.133 22.3177C30.9967 22.0541 30.0158 21.5614 29.2218 20.8967Z"
            stroke="white" stroke-width="1.96" stroke-linejoin="round" />
        <path d="M33 15C28.0007 18 18 27.5 14 36.5" stroke="white" stroke-width="2" stroke-linecap="round"
            stroke-linejoin="round" />
    </g>
    <defs>
        <clipPath id="clip0_1453_37428">
            <rect width="37.908" height="19.9707" fill="white" transform="translate(7 19.5702) rotate(-22.6042)" />
        </clipPath>
    </defs>
</svg>