<svg id="Layer_1" data-name="Layer 1" xmlns="http://www.w3.org/2000/svg" viewBox="0 0 55 69" width="55" height="69">
  <defs>
    <style>
      .cls-1 {
        fill: #fff;
      }

      .cls-2 {
        fill: #19251e;
      }

      .cls-3 {
        fill: #27afc1;
      }

      .cls-4 {
        fill: none;
        stroke: #fff;
        stroke-width: 2px;
      }
    </style>
  </defs>
  <rect class="cls-3" x="3" width="49" height="69" rx="10" ry="10" />
  <rect class="cls-2" y="43" width="55" height="17" rx="4" ry="4" />
  <path class="cls-4" d="M10,12H44" />
  <path class="cls-4" d="M10,19.33H44" />
  <path class="cls-4" d="M10,26.67H44" />
  <path class="cls-4" d="M10,34h22.67" />
  <path class="cls-1"
    d="M16.61,56h-1.48v-1.19h1.48c.46,0,.82-.08,1.1-.25,.27-.17,.47-.43,.59-.79,.12-.35,.18-.8,.18-1.35v-1.39c0-.42-.04-.78-.11-1.08-.07-.3-.17-.54-.32-.73-.14-.19-.33-.33-.56-.42-.23-.09-.51-.14-.83-.14h-1.57v-1.2h1.57c.49,0,.93,.08,1.32,.23,.39,.16,.73,.39,1.01,.69,.29,.3,.5,.67,.66,1.12,.15,.45,.23,.96,.23,1.54v1.38c0,.58-.08,1.09-.23,1.54-.15,.44-.37,.81-.66,1.12-.29,.3-.63,.53-1.03,.69-.4,.16-.86,.23-1.37,.23Zm-.67-8.53v8.53h-1.42v-8.53h1.42Zm11.19,3.57v1.45c0,.6-.07,1.13-.21,1.58-.14,.45-.34,.83-.6,1.14-.26,.3-.57,.53-.94,.68-.36,.15-.77,.23-1.22,.23s-.85-.08-1.22-.23c-.36-.15-.68-.38-.94-.68-.26-.3-.46-.68-.61-1.14-.14-.45-.21-.98-.21-1.58v-1.45c0-.61,.07-1.14,.21-1.6,.14-.46,.34-.85,.6-1.15,.27-.31,.58-.54,.94-.7,.37-.16,.77-.23,1.21-.23s.86,.08,1.22,.23c.37,.16,.68,.39,.94,.7,.26,.31,.46,.69,.6,1.15,.14,.46,.21,.99,.21,1.6Zm-1.41,1.45v-1.46c0-.43-.04-.8-.11-1.11-.07-.31-.17-.57-.3-.76-.13-.2-.3-.35-.49-.44-.19-.1-.41-.15-.67-.15s-.47,.05-.66,.15c-.19,.09-.36,.24-.49,.44-.13,.2-.23,.45-.3,.76-.07,.31-.1,.68-.1,1.11v1.46c0,.43,.04,.79,.11,1.1,.07,.3,.17,.55,.3,.75,.14,.19,.3,.33,.5,.43,.2,.09,.42,.14,.66,.14s.47-.05,.67-.14c.2-.09,.36-.24,.49-.43,.13-.2,.23-.45,.3-.75,.07-.31,.1-.68,.1-1.1Zm7.01,.73h1.42c-.03,.62-.15,1.14-.38,1.58-.22,.43-.54,.76-.96,.98-.41,.23-.92,.34-1.52,.34-.45,0-.86-.08-1.22-.25-.36-.16-.66-.4-.91-.71-.25-.31-.44-.69-.57-1.14-.13-.45-.19-.96-.19-1.53v-1.51c0-.57,.07-1.08,.2-1.53,.14-.45,.33-.83,.59-1.14s.56-.55,.93-.71c.37-.16,.78-.25,1.24-.25,.59,0,1.09,.11,1.49,.34,.4,.23,.71,.56,.93,1,.22,.44,.35,.97,.38,1.6h-1.42c-.02-.43-.08-.77-.18-1.02-.09-.26-.24-.44-.43-.56-.19-.11-.45-.17-.77-.17-.27,0-.5,.05-.7,.15-.19,.1-.35,.25-.47,.46-.12,.2-.21,.45-.28,.76-.06,.3-.09,.65-.09,1.06v1.52c0,.39,.03,.74,.08,1.04,.05,.3,.13,.56,.25,.77,.11,.21,.26,.37,.45,.47,.19,.11,.42,.16,.7,.16,.34,0,.6-.05,.8-.16,.2-.11,.35-.28,.45-.53,.1-.25,.16-.59,.18-1.02Zm3.85-5.75l1.4,3.04,1.37-3.04h1.6l-2.13,4.22,2.18,4.31h-1.65l-1.41-3.11-1.41,3.11h-1.62l2.2-4.32-2.15-4.21h1.63Z" />
</svg>