<svg xmlns="http://www.w3.org/2000/svg" viewBox="0 0 55 69" width="55" height="69">
  <defs>
    <style>
      .cls-1 {
        fill: #fff;
      }

      .cls-2 {
        fill: #ff4646;
      }

      .cls-3 {
        fill: #19251e;
      }

      .cls-4 {
        fill: none;
        stroke: #fff;
        stroke-width: 2px;
      }
    </style>
  </defs>
  <rect class="cls-2" x="3" width="49" height="69" rx="10" ry="10" />
  <rect class="cls-3" y="43" width="55" height="17" rx="4" ry="4" />
  <path class="cls-4" d="M10,12H44" />
  <path class="cls-4" d="M10,19.33H44" />
  <path class="cls-4" d="M10,26.67H44" />
  <path class="cls-4" d="M10,34h22.67" />
  <path class="cls-1"
    d="M21.46,52.84h-1.8v-1.19h1.8c.29,0,.53-.06,.71-.19,.18-.12,.32-.3,.4-.52,.09-.22,.13-.47,.13-.74s-.04-.52-.13-.75c-.08-.23-.21-.42-.39-.57-.18-.14-.42-.22-.71-.22h-1.4v7.34h-1.42v-8.53h2.82c.56,0,1.04,.12,1.44,.35,.4,.23,.7,.56,.91,.97,.21,.41,.32,.87,.32,1.4s-.11,1.02-.32,1.42c-.21,.39-.52,.7-.91,.91-.4,.21-.88,.32-1.44,.32Zm6.02,3.16h-1.48v-1.19h1.48c.46,0,.82-.08,1.1-.25,.27-.17,.47-.43,.59-.79,.12-.35,.18-.8,.18-1.35v-1.39c0-.42-.04-.78-.11-1.08-.07-.3-.17-.54-.32-.73-.14-.19-.33-.33-.56-.42-.23-.09-.51-.14-.83-.14h-1.57v-1.2h1.57c.49,0,.93,.08,1.32,.23,.39,.16,.73,.39,1.01,.69,.29,.3,.5,.67,.66,1.12,.15,.45,.23,.96,.23,1.54v1.38c0,.58-.08,1.09-.23,1.54-.15,.44-.37,.81-.66,1.12-.29,.3-.63,.53-1.03,.69-.4,.16-.86,.23-1.37,.23Zm-.67-8.53v8.53h-1.42v-8.53h1.42Zm6.82,0v8.53h-1.42v-8.53h1.42Zm2.77,3.72v1.2h-3.09v-1.2h3.09Zm.4-3.72v1.2h-3.49v-1.2h3.49Z" />
</svg>