<svg width="55" height="69" viewBox="0 0 55 69" fill="none" xmlns="http://www.w3.org/2000/svg">
<rect x="3" width="49" height="69" rx="10" fill="#F1D024"/>
<rect y="43" width="55" height="17" rx="4" fill="#19251E"/>
<path d="M13.4375 52.1562H11.6973L11.6914 51.0664H13.2324C13.4707 51.0664 13.6738 51.0195 13.8418 50.9258C14.0098 50.832 14.1367 50.6953 14.2227 50.5156C14.3125 50.3359 14.3574 50.1191 14.3574 49.8652C14.3574 49.584 14.3184 49.3555 14.2402 49.1797C14.1621 49 14.0391 48.8691 13.8711 48.7871C13.707 48.7051 13.4961 48.6641 13.2383 48.6641H12.1191V56H10.6953V47.4688H13.2383C13.6367 47.4688 13.9922 47.5156 14.3047 47.6094C14.6211 47.6992 14.8887 47.8379 15.1074 48.0254C15.3262 48.2129 15.4922 48.4531 15.6055 48.7461C15.7227 49.0352 15.7812 49.3789 15.7812 49.7773C15.7812 50.125 15.707 50.4453 15.5586 50.7383C15.4102 51.0273 15.1895 51.2656 14.8965 51.4531C14.6074 51.6367 14.248 51.7461 13.8184 51.7812L13.4375 52.1562ZM13.3848 56H11.2285L11.8848 54.8105H13.3848C13.6387 54.8105 13.8477 54.7559 14.0117 54.6465C14.1758 54.5371 14.2988 54.3848 14.3809 54.1895C14.4629 53.9941 14.5039 53.7656 14.5039 53.5039C14.5039 53.2305 14.4688 52.9922 14.3984 52.7891C14.3281 52.5859 14.2148 52.4297 14.0586 52.3203C13.9023 52.2109 13.6953 52.1562 13.4375 52.1562H12.002L12.0137 51.0664H13.8477L14.1758 51.4824C14.5859 51.4902 14.9199 51.5918 15.1777 51.7871C15.4355 51.9785 15.625 52.2266 15.7461 52.5312C15.8672 52.8359 15.9277 53.1621 15.9277 53.5098C15.9277 54.0527 15.8262 54.5098 15.623 54.8809C15.4199 55.248 15.1289 55.5273 14.75 55.7188C14.375 55.9062 13.9199 56 13.3848 56ZM18.7344 53.4043L21.7051 47.4688H23.082V56H21.6875V50.0996L18.7344 56H17.3457V47.4688H18.7344V53.4043ZM30.5469 54.8105V56H25.373V54.8105H30.5469ZM25.707 54.8105V58.0977H24.3477L24.2891 54.8105H25.707ZM31.6484 54.8105L31.5605 58.0918H30.2188V54.8105H31.6484ZM29.6035 47.4688V48.6641H26.3223V47.4688H29.6035ZM30.7051 47.4688V56H29.2871V47.4688H30.7051ZM26.041 47.4688H27.459L27.2773 50.9375C27.25 51.4844 27.2031 51.9766 27.1367 52.4141C27.0703 52.8516 26.9883 53.2422 26.8906 53.5859C26.793 53.9297 26.6836 54.2324 26.5625 54.4941C26.4414 54.752 26.3105 54.9766 26.1699 55.168C26.0332 55.3594 25.8887 55.5234 25.7363 55.6602C25.5879 55.7969 25.4395 55.9102 25.291 56H24.5762V54.8105H24.8926C24.9824 54.709 25.0762 54.5684 25.1738 54.3887C25.2754 54.2051 25.3711 53.9648 25.4609 53.668C25.5547 53.3672 25.6348 52.9941 25.7012 52.5488C25.7715 52.1035 25.8223 51.5664 25.8535 50.9375L26.041 47.4688ZM37.4902 54.8105V56H33.7871V54.8105H37.4902ZM34.1621 47.4688V56H32.7383V47.4688H34.1621ZM36.9922 51.0195V52.1914H33.7871V51.0195H36.9922ZM37.4551 47.4688V48.6641H33.7871V47.4688H37.4551ZM44.457 51.0371V52.4902C44.457 53.0918 44.3867 53.6191 44.2461 54.0723C44.1094 54.5254 43.9102 54.9043 43.6484 55.209C43.3906 55.5098 43.0781 55.7363 42.7109 55.8887C42.3477 56.041 41.9414 56.1172 41.4922 56.1172C41.0469 56.1172 40.6406 56.041 40.2734 55.8887C39.9102 55.7363 39.5957 55.5098 39.3301 55.209C39.0684 54.9043 38.8652 54.5254 38.7207 54.0723C38.5801 53.6191 38.5098 53.0918 38.5098 52.4902V51.0371C38.5098 50.4277 38.5801 49.8945 38.7207 49.4375C38.8613 48.9766 39.0625 48.5918 39.3242 48.2832C39.5898 47.9746 39.9043 47.7422 40.2676 47.5859C40.6348 47.4297 41.0391 47.3516 41.4805 47.3516C41.9297 47.3516 42.3359 47.4297 42.6992 47.5859C43.0664 47.7422 43.3809 47.9746 43.6426 48.2832C43.9043 48.5918 44.1055 48.9766 44.2461 49.4375C44.3867 49.8945 44.457 50.4277 44.457 51.0371ZM43.0449 52.4902V51.0254C43.0449 50.5918 43.0098 50.2207 42.9395 49.9121C42.873 49.5996 42.7734 49.3457 42.6406 49.1504C42.5078 48.9512 42.3438 48.8047 42.1484 48.7109C41.957 48.6133 41.7344 48.5645 41.4805 48.5645C41.2344 48.5645 41.0137 48.6133 40.8184 48.7109C40.627 48.8047 40.4629 48.9512 40.3262 49.1504C40.1934 49.3457 40.0918 49.5996 40.0215 49.9121C39.9551 50.2207 39.9219 50.5918 39.9219 51.0254V52.4902C39.9219 52.916 39.957 53.2832 40.0273 53.5918C40.0977 53.8965 40.1992 54.1465 40.332 54.3418C40.4688 54.5332 40.6348 54.6758 40.8301 54.7695C41.0254 54.8633 41.2461 54.9102 41.4922 54.9102C41.7422 54.9102 41.9648 54.8633 42.1602 54.7695C42.3555 54.6758 42.5176 54.5332 42.6465 54.3418C42.7793 54.1465 42.8789 53.8965 42.9453 53.5918C43.0117 53.2832 43.0449 52.916 43.0449 52.4902Z" fill="white"/>
<mask id="path-4-outside-1_1453_37420" maskUnits="userSpaceOnUse" x="13" y="8" width="29" height="29" fill="black">
<rect fill="white" x="13" y="8" width="29" height="29"/>
<path d="M40 22.5C40 29.4036 34.4036 35 27.5 35V35C20.5964 35 15 29.4036 15 22.5V22.5C15 15.5964 20.5965 10 27.5 10V10C34.4036 10 40 15.5965 40 22.5V22.5Z"/>
</mask>
<path d="M27.5 35L27.5 37L27.5 35ZM27.5 12C33.299 12 38 16.701 38 22.5L42 22.5C42 14.4919 35.5081 8 27.5 8L27.5 12ZM17 22.5C17 16.701 21.701 12 27.5 12L27.5 8C19.4919 8 13 14.4919 13 22.5L17 22.5ZM27.5 33C21.701 33 17 28.299 17 22.5L13 22.5C13 30.5081 19.4919 37 27.5 37L27.5 33ZM27.5 37C35.5081 37 42 30.5081 42 22.5L38 22.5C38 28.299 33.299 33 27.5 33L27.5 37Z" fill="white" mask="url(#path-4-outside-1_1453_37420)"/>
<path d="M32.9062 22.4999L24.3242 17.8358L24.3242 27.1641L32.9062 22.4999Z" fill="white"/>
</svg>
