<svg width="55" height="69" viewBox="0 0 55 69" fill="none" xmlns="http://www.w3.org/2000/svg">
<rect x="3" width="49" height="69" rx="10" fill="#58A458"/>
<rect y="43" width="55" height="17" rx="4" fill="#19251E"/>
<path d="M10 12H44" stroke="white" stroke-width="2"/>
<path d="M10 19.3333H44" stroke="white" stroke-width="2"/>
<path d="M10 26.6666H44" stroke="white" stroke-width="2"/>
<path d="M10 34.0001H32.6667" stroke="white" stroke-width="2"/>
<path d="M20.0938 47.4688L21.4941 50.5098L22.8594 47.4688H24.459L22.3262 51.6934L24.5059 56H22.8535L21.4473 52.8945L20.0352 56H18.4121L20.6094 51.6758L18.459 47.4688H20.0938ZM30.1777 54.8105V56H26.6328V54.8105H30.1777ZM27.0078 47.4688V56H25.584V47.4688H27.0078ZM34.9824 53.7969C34.9824 53.6211 34.9629 53.4648 34.9238 53.3281C34.8887 53.1875 34.8203 53.0605 34.7188 52.9473C34.6172 52.834 34.4727 52.7227 34.2852 52.6133C34.1016 52.5039 33.8633 52.3926 33.5703 52.2793C33.2344 52.1504 32.9199 52.0098 32.627 51.8574C32.3379 51.7012 32.082 51.5254 31.8594 51.3301C31.6406 51.1309 31.4688 50.8984 31.3438 50.6328C31.2188 50.3672 31.1562 50.0586 31.1562 49.707C31.1562 49.3594 31.2168 49.043 31.3379 48.7578C31.4629 48.4688 31.6387 48.2207 31.8652 48.0137C32.0957 47.8027 32.3691 47.6406 32.6855 47.5273C33.002 47.4102 33.3516 47.3516 33.7344 47.3516C34.2852 47.3516 34.7559 47.4688 35.1465 47.7031C35.541 47.9375 35.8418 48.252 36.0488 48.6465C36.2598 49.041 36.3652 49.4785 36.3652 49.959H34.9473C34.9473 49.6816 34.9043 49.4355 34.8184 49.2207C34.7324 49.0059 34.5996 48.8379 34.4199 48.7168C34.2402 48.5957 34.0078 48.5352 33.7227 48.5352C33.4609 48.5352 33.2441 48.5859 33.0723 48.6875C32.9043 48.7891 32.7793 48.9277 32.6973 49.1035C32.6191 49.2793 32.5801 49.4805 32.5801 49.707C32.5801 49.8633 32.6133 50.0059 32.6797 50.1348C32.7461 50.2598 32.8418 50.375 32.9668 50.4805C33.0918 50.5859 33.2441 50.6855 33.4238 50.7793C33.6035 50.873 33.8105 50.9629 34.0449 51.0488C34.4434 51.1934 34.791 51.3535 35.0879 51.5293C35.3848 51.7051 35.6289 51.9023 35.8203 52.1211C36.0156 52.3359 36.1602 52.5801 36.2539 52.8535C36.3516 53.127 36.4004 53.4375 36.4004 53.7852C36.4004 54.1367 36.3398 54.457 36.2188 54.7461C36.1016 55.0312 35.9297 55.2754 35.7031 55.4785C35.4766 55.6816 35.2031 55.8398 34.8828 55.9531C34.5625 56.0625 34.2031 56.1172 33.8047 56.1172C33.4375 56.1172 33.084 56.0625 32.7441 55.9531C32.4082 55.8438 32.1074 55.6777 31.8418 55.4551C31.5762 55.2285 31.3652 54.9453 31.209 54.6055C31.0566 54.2656 30.9805 53.8672 30.9805 53.4102H32.4043C32.4043 53.6836 32.4375 53.918 32.5039 54.1133C32.5703 54.3047 32.666 54.4629 32.791 54.5879C32.9199 54.709 33.0703 54.7988 33.2422 54.8574C33.418 54.9121 33.6133 54.9395 33.8281 54.9395C34.0938 54.9395 34.3105 54.8926 34.4785 54.7988C34.6504 54.7012 34.7773 54.5664 34.8594 54.3945C34.9414 54.2227 34.9824 54.0234 34.9824 53.7969Z" fill="white"/>
</svg>
