<?xml version="1.0" encoding="UTF-8"?>
<svg id="Layer_1" data-name="Layer 1" xmlns="http://www.w3.org/2000/svg" viewBox="0 0 20 20">

  <path class="cls-1"
    d="M1.37,6.56v9.82c0,.8,.32,1.56,.88,2.12,.56,.56,1.33,.88,2.12,.88H15.63c.8,0,1.56-.32,2.12-.88s.88-1.33,.88-2.12V6.56H1.37ZM6.18,15.93c0,.16-.06,.31-.18,.42-.11,.11-.27,.18-.42,.18h-1.42c-.16,0-.31-.06-.42-.18-.11-.11-.18-.27-.18-.42v-1.43c0-.16,.06-.31,.18-.42,.11-.11,.27-.18,.42-.18h1.42c.16,0,.31,.06,.42,.18,.11,.11,.18,.27,.18,.42v1.43Zm0-5.1c0,.08-.02,.16-.05,.23-.03,.07-.07,.14-.13,.19-.06,.06-.12,.1-.19,.13-.07,.03-.15,.05-.23,.05h-1.42c-.08,0-.16-.02-.23-.05-.07-.03-.14-.07-.19-.13-.06-.06-.1-.12-.13-.19-.03-.07-.05-.15-.05-.23v-1.42c0-.08,.02-.16,.05-.23,.03-.07,.07-.14,.13-.19,.06-.06,.12-.1,.19-.13,.07-.03,.15-.05,.23-.05h1.42c.08,0,.16,.02,.23,.05,.07,.03,.14,.07,.19,.13,.06,.06,.1,.12,.13,.19,.03,.07,.05,.15,.05,.23v1.42Zm5.13,5.1c0,.16-.06,.31-.18,.42s-.27,.18-.42,.18h-1.43c-.16,0-.31-.06-.42-.18-.11-.11-.18-.27-.18-.42v-1.43c0-.16,.06-.31,.18-.42,.11-.11,.27-.18,.42-.18h1.43c.16,0,.31,.06,.42,.18,.11,.11,.18,.27,.18,.42v1.43Zm0-5.1c0,.08-.02,.16-.05,.23-.03,.07-.07,.14-.13,.19-.06,.06-.12,.1-.19,.13-.07,.03-.15,.05-.23,.05h-1.43c-.08,0-.16-.02-.23-.05-.07-.03-.14-.07-.19-.13-.06-.06-.1-.12-.13-.19-.03-.07-.05-.15-.05-.23v-1.42c0-.08,.02-.16,.05-.23,.03-.07,.07-.14,.13-.19,.06-.06,.12-.1,.19-.13,.07-.03,.15-.05,.23-.05h1.43c.08,0,.16,.02,.23,.05,.07,.03,.14,.07,.19,.13,.06,.06,.1,.12,.13,.19,.03,.07,.05,.15,.05,.23v1.42Zm5.13,5.1c0,.16-.06,.31-.18,.42-.11,.11-.27,.18-.42,.18h-1.42c-.16,0-.31-.06-.42-.18-.11-.11-.18-.27-.18-.42v-1.43c0-.16,.06-.31,.18-.42,.11-.11,.27-.18,.42-.18h1.42c.16,0,.31,.06,.42,.18,.11,.11,.18,.27,.18,.42v1.43Zm0-5.1c0,.08-.02,.16-.05,.23-.03,.07-.07,.14-.13,.19-.06,.06-.12,.1-.19,.13-.07,.03-.15,.05-.23,.05h-1.42c-.08,0-.16-.02-.23-.05-.07-.03-.14-.07-.19-.13-.06-.06-.1-.12-.13-.19-.03-.07-.05-.15-.05-.23v-1.42c0-.08,.02-.16,.05-.23,.03-.07,.07-.14,.13-.19,.06-.06,.12-.1,.19-.13,.07-.03,.15-.05,.23-.05h1.42c.08,0,.16,.02,.23,.05,.07,.03,.14,.07,.19,.13,.06,.06,.1,.12,.13,.19,.03,.07,.05,.15,.05,.23v1.42Z" />
  <path class="cls-1"
    d="M15.63,2.12h-.38v-.75c0-.2-.08-.39-.22-.53-.14-.14-.33-.22-.53-.22s-.39,.08-.53,.22c-.14,.14-.22,.33-.22,.53v.75H6.25v-.75c0-.2-.08-.39-.22-.53-.14-.14-.33-.22-.53-.22s-.39,.08-.53,.22c-.14,.14-.22,.33-.22,.53v.75h-.38c-.78,0-1.54,.31-2.1,.86-.56,.55-.89,1.29-.9,2.08H18.63c-.02-.78-.34-1.53-.9-2.08-.56-.55-1.31-.86-2.1-.86Z" />
</svg>