<?xml version="1.0" encoding="UTF-8"?>
<svg id="Layer_1" data-name="Layer 1" xmlns="http://www.w3.org/2000/svg" xmlns:xlink="http://www.w3.org/1999/xlink" viewBox="0 0 22 19.1">
  <defs>
    <style>
      .cls-1 {
        fill: none;
      }

      .cls-2 {
        clip-path: url(#clippath);
      }
    </style>
    <clipPath id="clippath">
      <rect class="cls-1" width="22" height="19.09"/>
    </clipPath>
  </defs>
  <g class="cls-2">
    <g>
      <path d="M20.95,.93h-.05c-1.15,.19-1.85,.95-1.85,1.8v1.25h2.94v-.63c0-.96-.41-1.82-1.05-2.44v.02Z"/>
      <path d="M11.82,16.35v-1.25H0v.63c0,1.86,1.51,3.37,3.37,3.37H14.56c-1.52,0-2.75-1.23-2.75-2.75h0Z"/>
      <path d="M13.02,13.9v2.45c0,.61,.58,1.77,2.73,2.37,1.12,.31,2.11-.64,2.11-1.8V2.75c0-1.52,1.23-2.75,2.75-2.75H6.62c-1.86,0-3.37,1.51-3.37,3.37V13.9H13.02ZM6.08,3.17h4.06c.33,0,.6,.27,.6,.6s-.27,.6-.6,.6H6.08c-.33,0-.6-.27-.6-.6s.27-.6,.6-.6Zm0,3.96H15.03c.33,0,.6,.27,.6,.6s-.27,.6-.6,.6H6.08c-.33,0-.6-.27-.6-.6s.27-.6,.6-.6Zm0,3.14H15.03c.33,0,.6,.27,.6,.6s-.27,.6-.6,.6H6.08c-.33,0-.6-.27-.6-.6s.27-.6,.6-.6Z"/>
    </g>
  </g>
</svg>