<?xml version="1.0" encoding="UTF-8"?>
<svg id="Layer_1" data-name="Layer 1" xmlns="http://www.w3.org/2000/svg" xmlns:xlink="http://www.w3.org/1999/xlink" viewBox="0 0 16 16">
  <defs>
    <style>
      .cls-1 {
        fill: none;
      }

      .cls-2 {
        clip-path: url(#clippath);
      }
    </style>
    <clipPath id="clippath">
      <rect class="cls-1" width="16" height="16"/>
    </clipPath>
  </defs>
  <g class="cls-2">
    <path d="M12,0H4C1.79,0,0,1.79,0,4V12c0,2.21,1.79,4,4,4H12c2.21,0,4-1.79,4-4V4c0-2.21-1.79-4-4-4Zm-2.75,13.67c-.36,.27-.8,.42-1.25,.41-.45,0-.89-.14-1.25-.41-.36-.27-.62-.65-.75-1.09h4c-.12,.43-.39,.82-.75,1.09Zm3.52-1.74c-.12,.14-.29,.22-.47,.24H3.69c-.18-.02-.35-.11-.47-.24-.12-.14-.19-.31-.19-.49s.07-.36,.19-.49c.12-.14,.29-.22,.47-.24h.58V6.24c0-.82,.31-1.61,.87-2.21,.56-.6,1.32-.97,2.13-1.03v-.35c0-.19,.08-.38,.21-.52s.32-.21,.52-.21,.38,.08,.52,.21,.21,.32,.21,.52v.35c.83,.05,1.61,.42,2.18,1.03s.88,1.42,.87,2.25v4.46h.53v-.04c.18,.02,.35,.11,.47,.24s.19,.31,.19,.49-.07,.36-.19,.49Z"/>
  </g>
</svg>