<?xml version="1.0" encoding="UTF-8"?>
<svg id="Layer_1" data-name="Layer 1" xmlns="http://www.w3.org/2000/svg" viewBox="0 0 9 9">
  <path d="M8.36,7.39v-1.93c0-.18,.14-.32,.32-.32s.32,.14,.32,.32v1.93c0,.89-.72,1.61-1.61,1.61H1.61c-.89,0-1.61-.72-1.61-1.61V1.61C0,.72,.72,0,1.61,0h1.93c.18,0,.32,.14,.32,.32s-.14,.32-.32,.32H1.61c-.53,0-.96,.43-.96,.96V7.39c0,.53,.43,.96,.96,.96H7.39c.53,0,.96-.43,.96-.96Z"/>
  <path d="M7.89,.65L3.56,4.98c-.13,.13-.13,.33,0,.46,.13,.13,.34,.13,.46,0L8.35,1.11v1.82c0,.18,.15,.33,.33,.33s.33-.15,.33-.33V.33h0c0-.09-.03-.17-.09-.23-.08-.08-.19-.11-.29-.09h-2.55c-.18,0-.33,.14-.33,.32s.15,.33,.33,.33h1.82Z"/>
</svg>