<?xml version="1.0" encoding="UTF-8"?>
<svg id="Layer_1" data-name="Layer 1" xmlns="http://www.w3.org/2000/svg" viewBox="0 0 22 22">
  <defs>
    <style>
      .cls-1 {
        fill-rule: evenodd;
      }
    </style>
  </defs>
  <path class="cls-1" d="M10.88,10.78c-1.15,0-2.26-.47-3.07-1.29-.81-.82-1.27-1.92-1.27-3.08,0-1.16,.46-2.27,1.27-3.1,.81-.83,1.92-1.3,3.07-1.32,.87,0,1.72,.26,2.43,.75,.72,.49,1.27,1.18,1.6,1.98,.21,.54,.32,1.11,.31,1.69,0,.57-.1,1.14-.31,1.68-.21,.53-.53,1.02-.94,1.42-.4,.41-.89,.73-1.42,.95-.53,.22-1.1,.33-1.67,.32Zm0-6.18c-.24,0-.48,.05-.71,.14-.34,.14-.62,.39-.82,.7-.2,.31-.3,.67-.28,1.04,0,.24,.04,.47,.13,.69,.09,.22,.23,.42,.4,.58,.17,.16,.37,.29,.59,.38,.22,.08,.46,.12,.69,.11,.23,0,.47-.04,.69-.13,.22-.09,.42-.22,.58-.38,.17-.16,.3-.36,.4-.57,.09-.21,.14-.44,.14-.67,0-.24-.03-.49-.12-.71-.13-.34-.36-.64-.66-.84-.3-.21-.66-.32-1.03-.32h0Zm1.75,9.8l2.47,2.43c.23,.23,.36,.55,.36,.88s-.13,.64-.36,.88c-.1,.13-.23,.23-.38,.3-.15,.07-.32,.11-.48,.11s-.33-.04-.48-.11c-.15-.07-.28-.18-.38-.3l-2.48-2.42-2.42,2.42c-.12,.12-.26,.22-.41,.28-.16,.06-.32,.09-.49,.09-.33-.01-.65-.14-.9-.36-.12-.11-.21-.25-.27-.4-.13-.31-.13-.65,0-.95,.06-.15,.15-.29,.27-.4l2.54-2.42c-.9-.28-1.77-.67-2.59-1.15-.28-.18-.48-.47-.56-.79-.08-.33-.03-.67,.14-.96,.09-.15,.21-.27,.35-.37,.14-.1,.3-.17,.47-.2,.17-.04,.34-.04,.51,0,.17,.03,.33,.1,.47,.2,.88,.53,1.89,.82,2.92,.82s2.04-.28,2.92-.82c.14-.1,.3-.17,.47-.2,.17-.04,.34-.04,.51,0,.17,.03,.33,.1,.47,.2,.14,.1,.26,.23,.35,.37,.17,.28,.23,.62,.16,.95-.07,.33-.25,.62-.53,.81-.84,.48-1.73,.86-2.65,1.15Z"/>
</svg>