<?xml version="1.0" encoding="UTF-8"?>
<svg id="Layer_1" data-name="Layer 1" xmlns="http://www.w3.org/2000/svg" viewBox="0 0 20 20">
  <path d="M18.24,16.84l-4.25-4.25c.85-1.17,1.31-2.57,1.31-4.01,0-1.57-.53-3.09-1.5-4.32s-2.34-2.08-3.87-2.43c-1.53-.35-3.13-.16-4.54,.53-1.41,.69-2.54,1.83-3.21,3.25-.67,1.42-.84,3.02-.48,4.55,.36,1.53,1.23,2.88,2.47,3.85,1.24,.96,2.77,1.48,4.33,1.46,1.57-.02,3.08-.58,4.29-1.57l4.2,4.2c.08,.08,.18,.15,.29,.19,.11,.04,.22,.07,.34,.07s.23-.02,.34-.07c.11-.04,.21-.11,.29-.19,.16-.17,.25-.39,.25-.62s-.09-.45-.25-.62ZM3.28,8.57c0-1.01,.3-2.01,.86-2.85s1.36-1.5,2.3-1.89c.94-.39,1.97-.49,2.96-.3,1,.2,1.91,.68,2.63,1.4,.72,.72,1.21,1.63,1.41,2.63,.2,1,.1,2.03-.29,2.96-.39,.94-1.05,1.74-1.89,2.3s-1.84,.86-2.85,.86c-1.36,0-2.66-.54-3.62-1.5-.96-.96-1.5-2.26-1.51-3.62Z"/>
</svg>