<?xml version="1.0" encoding="UTF-8"?>
<svg id="Layer_1" data-name="Layer 1" xmlns="http://www.w3.org/2000/svg" xmlns:xlink="http://www.w3.org/1999/xlink" viewBox="0 0 15 16">
  <defs>
    <style>
      .cls-1 {
        fill: none;
      }

      .cls-2 {
        clip-path: url(#clippath);
      }
    </style>
    <clipPath id="clippath">
      <rect class="cls-1" width="14.82" height="16"/>
    </clipPath>
  </defs>
  <g class="cls-2">
    <g>
      <path d="M1.42,1.9v.06c0,.99,.78,1.8,1.74,1.8s1.74-.81,1.74-1.8v-.06c.08-.02,.14-.09,.14-.18l-.02-.42c0-.09-.08-.17-.17-.17l-.15-.49c-.07-.23-.25-.4-.46-.46l-.05-.14s-.08-.06-.17-.06S3.87,0,3.86,.04l-.02,.06c-.2-.05-.43-.08-.67-.08s-.46,.03-.67,.08l-.02-.06s-.08-.06-.17-.06S2.14,0,2.13,.04l-.05,.14c-.21,.06-.39,.23-.46,.46l-.15,.49c-.09,0-.17,.08-.17,.17l-.02,.42c0,.09,.06,.16,.14,.18Z"/>
      <path d="M9.91,1.9v.06c0,.99,.78,1.8,1.74,1.8s1.74-.81,1.74-1.8v-.06c.08-.02,.14-.09,.14-.18l-.02-.42c0-.09-.08-.17-.17-.17l-.15-.49c-.07-.23-.25-.4-.46-.46l-.05-.14s-.08-.06-.17-.06-.16,.02-.17,.06l-.02,.06c-.2-.05-.43-.08-.67-.08s-.46,.03-.67,.08l-.02-.06s-.08-.06-.17-.06-.16,.02-.17,.06l-.05,.14c-.21,.06-.39,.23-.46,.46l-.15,.49c-.09,0-.17,.08-.17,.17l-.02,.42c0,.09,.06,.16,.14,.18Z"/>
      <path d="M10.11,9.19h-.35l-.03,.03c-.12,.17-.26,.34-.42,.48,0,0-.02,.01-.02,.02-.15,.13-.31,.24-.48,.34-.05,.03-.1,.05-.15,.08-.14,.07-.28,.12-.43,.17-.06,.02-.11,.04-.17,.05-.21,.05-.42,.08-.64,.08s-.43-.03-.64-.08c-.06-.01-.12-.03-.17-.05-.15-.05-.29-.1-.43-.17-.05-.03-.1-.05-.15-.08-.17-.1-.33-.21-.48-.34,0,0-.02-.01-.02-.02-.16-.14-.3-.3-.42-.48,0-.01-.02-.02-.02-.03h-.35c-.55,0-.91,.52-.83,1.13l.73,5.02c.05,.37,.42,.66,.82,.66h3.95c.4,0,.77-.29,.82-.66l.73-5.02c.09-.61-.28-1.13-.83-1.13h-.01Z"/>
      <path d="M14.07,3.49h-.32s-.02,.02-.02,.03c-.11,.16-.24,.3-.38,.43,0,0,0,.01-.02,.02-.13,.12-.27,.21-.43,.3-.05,.03-.09,.05-.14,.07-.12,.06-.25,.11-.39,.15-.05,.02-.1,.03-.16,.05-.18,.04-.37,.07-.57,.07s-.39-.03-.57-.07c-.05-.01-.1-.03-.16-.05-.13-.04-.26-.09-.39-.15-.05-.02-.09-.04-.14-.07-.15-.09-.3-.19-.43-.3,0,0-.01,0-.02-.02-.14-.13-.27-.27-.38-.43,0,0-.02-.02-.02-.03h-.32c-.43,0-.71,.36-.73,.81,.42,.02,.76,.2,.96,.49,.34,.23,.6,.57,.73,.97l.07,.22c.21,.21,.35,.49,.36,.81l.02,.5c0,.25-.06,.48-.18,.67-.02,.16-.06,.32-.1,.48,.51,.02,.98,.24,1.32,.63,.13,.14,.22,.31,.3,.49h1.43c.36,0,.69-.26,.73-.59l.65-4.5c.08-.55-.25-1.01-.74-1.01l.04,.02Z"/>
      <path d="M5.46,7.41v.07c0,1.11,.87,2.01,1.95,2.01s1.95-.9,1.95-2.01v-.07c.09-.02,.16-.1,.15-.2l-.02-.47c0-.1-.09-.18-.19-.19l-.17-.54c-.08-.25-.28-.44-.51-.51l-.05-.15s-.09-.06-.19-.06-.18,.03-.19,.06l-.02,.07c-.23-.06-.48-.09-.75-.09s-.52,.03-.75,.09l-.02-.07s-.09-.06-.19-.06-.18,.03-.19,.06l-.05,.15c-.23,.07-.43,.26-.51,.51l-.17,.54c-.11,0-.19,.09-.19,.19l-.02,.47c0,.1,.06,.17,.15,.2h-.02Z"/>
      <path d="M3.14,9.1c.34-.39,.8-.61,1.32-.63-.04-.16-.08-.31-.1-.48-.12-.2-.19-.43-.18-.67l.02-.5c.01-.32,.15-.6,.36-.81l.07-.22c.12-.4,.39-.74,.73-.97,.2-.3,.54-.47,.96-.49-.02-.45-.3-.82-.73-.82h-.32s-.02,.02-.02,.03c-.11,.16-.24,.3-.38,.43,0,0-.01,0-.02,.02-.13,.12-.27,.21-.43,.3-.05,.03-.09,.05-.14,.07-.12,.06-.25,.11-.39,.15-.05,.02-.1,.03-.16,.05-.18,.04-.37,.07-.57,.07s-.39-.03-.57-.07c-.05-.01-.1-.03-.16-.05-.13-.04-.26-.09-.39-.15-.05-.02-.09-.04-.14-.07-.15-.09-.3-.19-.43-.3,0,0-.01,0-.02-.02-.14-.13-.27-.27-.38-.43,0,0-.02-.02-.02-.03h-.32c-.46-.01-.79,.46-.71,1l.65,4.5c.05,.33,.38,.59,.73,.59h1.43c.08-.17,.17-.34,.3-.49h.01Z"/>
    </g>
  </g>
</svg>