<?xml version="1.0" encoding="UTF-8"?>
<svg id="Layer_1" data-name="Layer 1" xmlns="http://www.w3.org/2000/svg" viewBox="0 0 22 22">
  <defs>
    <style>
      .cls-1 {
        fill-rule: evenodd;
      }
    </style>
  </defs>
  <path class="cls-1" d="M3.17,10.03c4.53-1.98,7.56-3.28,9.07-3.91,4.32-1.8,5.22-2.12,5.8-2.12,.22,0,.43,.06,.6,.18,.12,.11,.2,.26,.22,.42,.03,.2,.04,.41,.03,.61-.22,2.46-1.25,8.43-1.77,11.19-.22,1.16-.65,1.55-1.07,1.59-.9,.09-1.59-.6-2.46-1.16-1.37-.9-2.14-1.46-3.49-2.32-1.55-1.01-.54-1.55,.33-2.48,.23-.24,4.21-3.87,4.29-4.18,.01-.05,.01-.1,0-.15-.01-.05-.04-.09-.07-.13-.05-.03-.1-.05-.16-.05-.06,0-.11,0-.17,.02-.14,.03-2.32,1.48-6.56,4.34-.48,.38-1.07,.59-1.69,.62-.82-.1-1.64-.3-2.42-.57-.95-.33-1.72-.5-1.66-1.04,.04-.28,.43-.57,1.16-.86Z"/>
</svg>