<?xml version="1.0" encoding="UTF-8"?>
<svg id="Layer_1" data-name="Layer 1" xmlns="http://www.w3.org/2000/svg" xmlns:xlink="http://www.w3.org/1999/xlink" viewBox="0 0 16.01 16">
  <defs>
    <style>
      .cls-1 {
        fill: none;
      }

      .cls-2 {
        clip-path: url(#clippath);
      }
    </style>
    <clipPath id="clippath">
      <rect class="cls-1" width="16.01" height="16"/>
    </clipPath>
  </defs>
  <g class="cls-2">
    <path d="M14.41,8.58c-.36,0-.65-.29-.65-.65s.29-.65,.65-.65h1.6c-.35-3.88-3.46-6.96-7.34-7.27V1.64c0,.36-.29,.65-.65,.65s-.65-.29-.65-.65V0C3.47,.31,.36,3.39,0,7.27H1.6c.36,0,.65,.29,.65,.65s-.29,.65-.65,.65H0c.28,3.95,3.41,7.11,7.35,7.42v-1.64c0-.36,.29-.65,.65-.65s.65,.29,.65,.65v1.64c3.94-.32,7.07-3.48,7.35-7.42h-1.6Zm-3.15,.08h-3.39c-.17,0-.33-.07-.46-.19L3.12,4.24c-.26-.25-.26-.66,0-.92,.25-.26,.66-.26,.92,0l4.09,4.04h3.12c.36,0,.65,.29,.65,.65s-.29,.65-.65,.65Z"/>
  </g>
</svg>