<?xml version="1.0" encoding="UTF-8"?>
<svg id="Layer_1" data-name="Layer 1" xmlns="http://www.w3.org/2000/svg" viewBox="0 0 22 22">
  <defs>
    <style>
      .cls-1 {
        fill-rule: evenodd;
      }
    </style>
  </defs>
  <path class="cls-1" d="M20.7,7.4s-.19-1.36-.79-1.96c-.26-.26-.57-.47-.91-.62-.34-.14-.71-.22-1.08-.22-2.76-.2-6.91-.2-6.91-.2,0,0-4.14,0-6.91,.2-.38,0-.75,.07-1.1,.21-.35,.14-.66,.36-.93,.62-.59,.6-.78,1.96-.78,1.96-.13,1.07-.19,2.15-.2,3.22v1.5c0,1.08,.08,2.15,.2,3.22,0,0,.19,1.38,.79,1.97,.75,.79,1.74,.77,2.18,.84,1.58,.16,6.73,.2,6.73,.2,0,0,4.14,0,6.91-.21,.37,0,.74-.08,1.09-.22,.34-.15,.66-.36,.92-.63,.6-.6,.79-1.97,.79-1.97,.12-1.07,.19-2.14,.19-3.21v-1.5c-.01-1.07-.08-2.15-.2-3.21Zm-11.74,6.53v-5.57l5.35,2.79-5.35,2.77Z"/>
</svg>