<svg width="24" height="24" viewBox="0 0 24 24" fill="none" xmlns="http://www.w3.org/2000/svg">
<path d="M12.0007 1C5.6707 1 4.2207 6.18 4.2207 8.96C4.2207 9.12 4.2207 9.29 4.2407 9.46C4.2407 9.42 4.2407 9.38 4.2507 9.34C4.5707 15.15 12.0007 23 12.0007 23C12.0007 23 19.4307 15.15 19.7507 9.34C19.7507 9.38 19.7507 9.42 19.7607 9.46C19.7707 9.29 19.7807 9.13 19.7807 8.96C19.7807 6.19 18.3307 1 12.0007 1V1ZM12.0007 12.55C9.9207 12.55 8.2407 10.87 8.2407 8.79C8.2407 8.62 8.2707 8.46 8.2907 8.3C8.3107 8.16 8.3307 8.03 8.3607 7.89C8.3807 7.8 8.4107 7.72 8.4407 7.63C8.4907 7.48 8.5407 7.33 8.6007 7.19C8.6307 7.13 8.6607 7.08 8.6907 7.02C8.7707 6.86 8.8607 6.71 8.9707 6.57C8.9907 6.54 9.0107 6.52 9.0307 6.49C9.7207 5.6 10.7907 5.03 12.0007 5.03C13.2107 5.03 14.2807 5.61 14.9707 6.49C14.9907 6.52 15.0107 6.54 15.0307 6.57C15.1307 6.71 15.2207 6.87 15.3107 7.02C15.3407 7.08 15.3707 7.13 15.4007 7.19C15.4707 7.33 15.5207 7.48 15.5607 7.63C15.5907 7.72 15.6207 7.8 15.6407 7.89C15.6707 8.02 15.6907 8.16 15.7107 8.3C15.7307 8.46 15.7607 8.62 15.7607 8.79C15.7607 10.87 14.0807 12.55 12.0007 12.55V12.55Z" stroke="#CFFFBD" stroke-linecap="round" stroke-linejoin="round"/>
</svg>
