<svg width="24" height="24" viewBox="0 0 24 24" fill="none" xmlns="http://www.w3.org/2000/svg">
<path d="M17.7493 14.59L17.4493 14.89C16.7493 15.59 15.8793 16.11 14.8993 16.3C14.1093 16.45 13.2293 16.4 12.5593 15.73C10.9793 14.15 9.82926 13 8.24926 11.42C7.58926 10.76 7.52926 9.87 7.67926 9.08C7.85926 8.11 8.38926 7.23 9.08926 6.53L9.38926 6.23L5.15926 2C0.709255 6.45 1.59926 10.61 3.89926 12.91C6.23926 15.25 8.74926 17.76 11.0893 20.1C13.3893 22.4 17.5493 23.29 21.9993 18.84L17.7493 14.59Z" stroke="#CFFFBD" stroke-linecap="round" stroke-linejoin="round"/>
<path d="M17.9984 11.05C17.9784 10.04 17.4184 8.81995 16.3984 7.79995C15.3784 6.77995 14.1584 6.21995 13.1484 6.19995" stroke="#CFFFBD" stroke-linecap="round" stroke-linejoin="round"/>
<path d="M21.7191 10.33C21.6791 8.68998 20.7691 6.71998 19.1291 5.06998C17.4891 3.42998 15.5091 2.51998 13.8691 2.47998" stroke="#CFFFBD" stroke-linecap="round" stroke-linejoin="round"/>
</svg>
