<svg width="338" height="97" viewBox="0 0 338 97" fill="none" xmlns="http://www.w3.org/2000/svg">
<path fill-rule="evenodd" clip-rule="evenodd" d="M24.4157 0C30.5981 15.66 20.526 25.7111 10.5011 35.7804C1.16907 46.0837 -7.04926 56.7729 9.48925 76.0243C3.30079 60.3597 13.3728 50.3054 23.4053 40.2422C32.7282 29.942 40.9542 19.2454 24.4157 0Z" fill="#00966A"/>
<path fill-rule="evenodd" clip-rule="evenodd" d="M38.797 19.5257C44.9718 35.4059 34.9105 45.5882 24.8872 55.783C15.5567 66.2348 7.33085 77.0669 23.8692 96.5712C17.6899 80.6941 27.7527 70.5086 37.7851 60.317C47.1171 49.8698 55.3339 39.0392 38.797 19.5195" fill="#D81E23"/>
<path fill-rule="evenodd" clip-rule="evenodd" d="M269.164 62.6689V94.5154H282.699V82.8575H297.57V75.8809H282.699V69.639H312.203V94.517H325.731V69.639H337.997V62.6705L269.164 62.6689Z" fill="#00966A"/>
<path fill-rule="evenodd" clip-rule="evenodd" d="M240.391 87.6044V82.0813H257.785V75.1044H240.391V69.6395H262.739V62.6689H227.047V94.517H263.004V87.6044H240.391Z" fill="#00966A"/>
<path fill-rule="evenodd" clip-rule="evenodd" d="M210.653 62.6753V78.5883L189.176 62.6689H178.758V94.517H187.935V77.0002L210.003 94.517H219.852V62.6689L210.653 62.6753Z" fill="#00966A"/>
<path fill-rule="evenodd" clip-rule="evenodd" d="M97.602 62.6689H60.6172V69.6378H72.437V94.517H85.7822V69.6378H97.602V62.6689Z" fill="#D81E23"/>
<path fill-rule="evenodd" clip-rule="evenodd" d="M108.409 82.4485L114.667 70.1235L120.666 82.4485H108.409ZM124.88 62.6689H110.38L93.4922 94.517H102.288L105.065 89.0443H124.033L126.788 94.517H141.778L124.88 62.6689Z" fill="#D81E23"/>
<path fill-rule="evenodd" clip-rule="evenodd" d="M173.622 62.6689H137.664V69.6378H149.394V94.517H162.657V69.6378H173.622V62.6689Z" fill="#D81E23"/>
<path d="M60.6172 33.9786H69.3969V35.5441H62.4082V39.6345H65.6394C66.8334 39.6345 67.7813 39.7461 68.4829 39.9693C69.1907 40.1926 69.7569 40.6149 70.1816 41.2363C70.6063 41.8516 70.8186 42.5696 70.8186 43.3901C70.8186 44.0597 70.6647 44.6872 70.357 45.2724C70.0554 45.8515 69.603 46.3251 68.9999 46.6931C68.3967 47.0611 67.3689 47.2451 65.9164 47.2451H60.6172V33.9786ZM62.4082 45.752H65.9902C66.9565 45.752 67.6797 45.5589 68.1598 45.1728C68.646 44.7867 68.8891 44.2075 68.8891 43.4353C68.8891 42.8863 68.7506 42.4278 68.4737 42.0598C68.1967 41.6918 67.812 41.4474 67.3197 41.3268C66.8273 41.2061 65.9872 41.1458 64.7993 41.1458H62.4082V45.752Z" fill="#00966A"/>
<path d="M73.9298 33.9786H82.4048V47.2451H80.6138V35.5441H75.7208V42.3765C75.7208 43.7641 75.6531 44.7807 75.5177 45.4262C75.3885 46.0717 75.1115 46.5755 74.6868 46.9375C74.2621 47.2934 73.7236 47.4714 73.0712 47.4714C72.6773 47.4714 72.2034 47.399 71.6495 47.2542L71.9541 45.6977C72.2496 45.8183 72.5019 45.8787 72.7112 45.8787C73.1174 45.8787 73.422 45.7309 73.6251 45.4352C73.8282 45.1336 73.9298 44.4277 73.9298 43.3177V33.9786Z" fill="#00966A"/>
<path d="M83.8635 47.2451L89.0611 33.9786H90.9906L96.5298 47.2451H94.4896L92.9109 43.2272H87.2516L85.7653 47.2451H83.8635ZM87.7686 41.7973H92.357L90.9445 38.1233C90.5136 37.0071 90.1936 36.0901 89.9843 35.3722C89.812 36.2229 89.5689 37.0675 89.255 37.9061L87.7686 41.7973Z" fill="#00966A"/>
<path d="M97.9885 33.9786H106.74V35.5441H99.7795V47.2451H97.9885V33.9786Z" fill="#00966A"/>
<path d="M106.593 40.7838C106.593 38.5818 107.196 36.8593 108.402 35.6165C109.609 34.3677 111.166 33.7433 113.074 33.7433C114.323 33.7433 115.449 34.0359 116.453 34.6211C117.456 35.2063 118.219 36.0238 118.742 37.0735C119.271 38.1172 119.536 39.3027 119.536 40.63C119.536 41.9753 119.259 43.1789 118.705 44.2407C118.151 45.3025 117.367 46.1079 116.351 46.6569C115.336 47.1999 114.24 47.4714 113.064 47.4714C111.79 47.4714 110.652 47.1697 109.649 46.5664C108.645 45.9631 107.885 45.1396 107.368 44.0959C106.851 43.0522 106.593 41.9482 106.593 40.7838ZM108.439 40.811C108.439 42.4097 108.876 43.6706 109.75 44.5936C110.63 45.5107 111.732 45.9692 113.055 45.9692C114.403 45.9692 115.511 45.5046 116.379 44.5755C117.253 43.6465 117.69 42.3283 117.69 40.6209C117.69 39.541 117.502 38.5999 117.127 37.7975C116.757 36.9891 116.213 36.3646 115.492 35.9242C114.779 35.4778 113.975 35.2546 113.083 35.2546C111.815 35.2546 110.723 35.6829 109.806 36.5396C108.895 37.3902 108.439 38.814 108.439 40.811Z" fill="#00966A"/>
<path d="M125.297 47.2451V35.5441H120.838V33.9786H131.565V35.5441H127.088V47.2451H125.297Z" fill="#00966A"/>
<path d="M133.338 47.2451V33.9786H138.416C139.45 33.9786 140.277 34.1143 140.899 34.3858C141.527 34.6513 142.016 35.0645 142.367 35.6256C142.724 36.1806 142.902 36.7628 142.902 37.3721C142.902 37.9392 142.745 38.4732 142.432 38.9739C142.118 39.4746 141.644 39.8789 141.01 40.1865C141.828 40.4218 142.456 40.823 142.893 41.3901C143.336 41.9572 143.558 42.6269 143.558 43.3991C143.558 44.0205 143.422 44.5997 143.152 45.1366C142.887 45.6675 142.558 46.0778 142.164 46.3673C141.77 46.6569 141.274 46.8771 140.677 47.028C140.087 47.1727 139.36 47.2451 138.499 47.2451H133.338ZM135.129 39.5531H138.056C138.85 39.5531 139.419 39.5018 139.764 39.3992C140.219 39.2665 140.561 39.0463 140.788 38.7386C141.022 38.4309 141.139 38.0448 141.139 37.5803C141.139 37.1399 141.031 36.7538 140.816 36.4219C140.601 36.0841 140.293 35.8548 139.893 35.7342C139.493 35.6075 138.806 35.5441 137.834 35.5441H135.129V39.5531ZM135.129 45.6796H138.499C139.077 45.6796 139.483 45.6585 139.717 45.6162C140.13 45.5438 140.474 45.4232 140.751 45.2543C141.028 45.0853 141.256 44.841 141.435 44.5212C141.613 44.1955 141.702 43.8214 141.702 43.3991C141.702 42.9044 141.573 42.4761 141.314 42.1141C141.056 41.7461 140.696 41.4897 140.234 41.3449C139.779 41.194 139.12 41.1186 138.259 41.1186H135.129V45.6796Z" fill="#00966A"/>
<path d="M144.85 40.7838C144.85 38.5818 145.454 36.8593 146.66 35.6165C147.866 34.3677 149.423 33.7433 151.331 33.7433C152.581 33.7433 153.707 34.0359 154.71 34.6211C155.713 35.2063 156.477 36.0238 157 37.0735C157.529 38.1172 157.794 39.3027 157.794 40.63C157.794 41.9753 157.517 43.1789 156.963 44.2407C156.409 45.3025 155.624 46.1079 154.609 46.6569C153.593 47.1999 152.498 47.4714 151.322 47.4714C150.048 47.4714 148.909 47.1697 147.906 46.5664C146.903 45.9631 146.143 45.1396 145.626 44.0959C145.109 43.0522 144.85 41.9482 144.85 40.7838ZM146.697 40.811C146.697 42.4097 147.134 43.6706 148.008 44.5936C148.888 45.5107 149.99 45.9692 151.313 45.9692C152.661 45.9692 153.769 45.5046 154.636 44.5755C155.51 43.6465 155.947 42.3283 155.947 40.6209C155.947 39.541 155.76 38.5999 155.384 37.7975C155.015 36.9891 154.47 36.3646 153.75 35.9242C153.036 35.4778 152.233 35.2546 151.34 35.2546C150.073 35.2546 148.98 35.6829 148.063 36.5396C147.152 37.3902 146.697 38.814 146.697 40.811Z" fill="#00966A"/>
<path d="M160.111 47.2451V33.9786H165.216C166.115 33.9786 166.801 34.0208 167.275 34.1053C167.94 34.2139 168.497 34.422 168.946 34.7297C169.395 35.0313 169.755 35.4567 170.026 36.0057C170.303 36.5547 170.442 37.158 170.442 37.8156C170.442 38.9437 170.075 39.9 169.343 40.6843C168.611 41.4625 167.287 41.8516 165.373 41.8516H161.902V47.2451H160.111ZM161.902 40.2861H165.401C166.558 40.2861 167.38 40.0749 167.866 39.6526C168.352 39.2303 168.595 38.6361 168.595 37.8699C168.595 37.3148 168.451 36.8412 168.161 36.4491C167.878 36.0509 167.503 35.7885 167.035 35.6618C166.733 35.5834 166.176 35.5441 165.364 35.5441H161.902V40.2861Z" fill="#00966A"/>
<path d="M172.75 33.9786H174.374V44.485L181.575 33.9786H183.376V47.2451H181.751V36.7658L174.541 47.2451H172.75V33.9786Z" fill="#00966A"/>
<path d="M189.755 47.2451V35.5441H185.296V33.9786H196.024V35.5441H191.546V47.2451H189.755Z" fill="#00966A"/>
<path d="M197.907 47.2451V33.9786H207.693V35.5441H199.698V39.6074H207.185V41.1639H199.698V45.6796H208.007V47.2451H197.907Z" fill="#00966A"/>
<path d="M211.469 33.9786H219.944V47.2451H218.153V35.5441H213.26V42.3765C213.26 43.7641 213.192 44.7807 213.057 45.4262C212.927 46.0717 212.65 46.5755 212.226 46.9375C211.801 47.2934 211.263 47.4714 210.61 47.4714C210.216 47.4714 209.742 47.399 209.188 47.2542L209.493 45.6977C209.789 45.8183 210.041 45.8787 210.25 45.8787C210.656 45.8787 210.961 45.7309 211.164 45.4352C211.367 45.1336 211.469 44.4277 211.469 43.3177V33.9786Z" fill="#00966A"/>
<path d="M222.953 33.9786H224.744V39.6436H227.976C229.484 39.6436 230.576 39.8155 231.253 40.1594C231.93 40.5033 232.416 40.9708 232.712 41.5621C233.007 42.1533 233.155 42.7626 233.155 43.3901C233.155 44.4157 232.798 45.3146 232.084 46.0868C231.37 46.859 230.041 47.2451 228.096 47.2451H222.953V33.9786ZM224.744 45.752H228.022C229.351 45.752 230.216 45.5227 230.616 45.0642C231.022 44.5997 231.225 44.0416 231.225 43.3901C231.225 42.8592 231.078 42.4097 230.782 42.0417C230.493 41.6676 230.105 41.4263 229.619 41.3177C229.133 41.2091 228.308 41.1548 227.145 41.1548H224.744V45.752Z" fill="#00966A"/>
<path d="M235.352 47.2451V33.9786H237.143V39.4264H244.178V33.9786H245.969V47.2451H244.178V40.9919H237.143V47.2451H235.352Z" fill="#00966A"/>
<path d="M249.052 33.9786H250.843V39.6436H254.075C256.192 39.6436 257.583 40.0267 258.248 40.7929C258.918 41.559 259.254 42.4278 259.254 43.3991C259.254 44.4247 258.897 45.3236 258.183 46.0959C257.469 46.862 256.143 47.2451 254.204 47.2451H249.052V33.9786ZM250.843 45.752H254.121C255.247 45.752 256.063 45.568 256.567 45.2C257.078 44.8259 257.334 44.2317 257.334 43.4172C257.334 42.8622 257.18 42.3976 256.872 42.0236C256.564 41.6495 256.167 41.4112 255.681 41.3087C255.195 41.2061 254.382 41.1548 253.244 41.1548H250.843V45.752ZM260.879 33.9786H262.67V47.2451H260.879V33.9786Z" fill="#00966A"/>
<path d="M265.735 33.9786H267.36V44.485L274.561 33.9786H276.361V47.2451H274.736V36.7658L267.526 47.2451H265.735V33.9786ZM272.465 30.8203H273.6C273.508 31.5744 273.225 32.1536 272.751 32.5578C272.283 32.962 271.659 33.1641 270.877 33.1641C270.089 33.1641 269.458 32.965 268.984 32.5669C268.517 32.1627 268.237 31.5805 268.144 30.8203H269.28C269.366 31.2306 269.535 31.5382 269.788 31.7434C270.046 31.9424 270.391 32.042 270.822 32.042C271.32 32.042 271.696 31.9455 271.948 31.7524C272.206 31.5533 272.379 31.2426 272.465 30.8203Z" fill="#00966A"/>
<path d="M289.452 35.5713V33.87H291.132V35.5713C292.855 35.6618 294.216 36.1716 295.213 37.1007C296.21 38.0237 296.708 39.173 296.708 40.5485C296.708 41.8939 296.225 43.0371 295.259 43.9783C294.293 44.9194 292.917 45.4383 291.132 45.5348V47.2451H289.452V45.5348C287.852 45.4745 286.519 44.9979 285.454 44.105C284.39 43.2061 283.857 42.0206 283.857 40.5485C283.857 39.0704 284.387 37.888 285.445 37.0011C286.51 36.1143 287.846 35.6377 289.452 35.5713ZM291.132 37.0735V44.0235C292.289 43.9692 293.2 43.6404 293.865 43.0371C294.53 42.4338 294.862 41.6043 294.862 40.5485C294.862 39.5108 294.536 38.6904 293.883 38.0871C293.231 37.4777 292.314 37.1399 291.132 37.0735ZM289.452 37.0826C288.338 37.1308 287.436 37.4536 286.747 38.0509C286.058 38.6481 285.713 39.4807 285.713 40.5485C285.713 41.6043 286.051 42.4338 286.728 43.0371C287.412 43.6404 288.319 43.9662 289.452 44.0145V37.0826Z" fill="#00966A"/>
<path d="M298.398 40.7838C298.398 38.5818 299.001 36.8593 300.207 35.6165C301.414 34.3677 302.971 33.7433 304.879 33.7433C306.128 33.7433 307.254 34.0359 308.258 34.6211C309.261 35.2063 310.024 36.0238 310.547 37.0735C311.076 38.1172 311.341 39.3027 311.341 40.63C311.341 41.9753 311.064 43.1789 310.51 44.2407C309.956 45.3025 309.172 46.1079 308.156 46.6569C307.14 47.1999 306.045 47.4714 304.869 47.4714C303.595 47.4714 302.457 47.1697 301.454 46.5664C300.45 45.9631 299.69 45.1396 299.173 44.0959C298.656 43.0522 298.398 41.9482 298.398 40.7838ZM300.244 40.811C300.244 42.4097 300.681 43.6706 301.555 44.5936C302.435 45.5107 303.537 45.9692 304.86 45.9692C306.208 45.9692 307.316 45.5046 308.184 44.5755C309.058 43.6465 309.495 42.3283 309.495 40.6209C309.495 39.541 309.307 38.5999 308.931 37.7975C308.562 36.9891 308.018 36.3646 307.297 35.9242C306.583 35.4778 305.78 35.2546 304.888 35.2546C303.62 35.2546 302.528 35.6829 301.61 36.5396C300.7 37.3902 300.244 38.814 300.244 40.811Z" fill="#00966A"/>
<path d="M313.714 47.2451V33.9786H315.505V39.4264H322.54V33.9786H324.331V47.2451H322.54V40.9919H315.505V47.2451H313.714Z" fill="#00966A"/>
<path d="M328.55 33.9786H336.785V45.6796H338.003V50.3401H336.406V47.2451H327.46V50.3401H325.863V45.6796H326.916C328.005 44.0688 328.55 40.814 328.55 35.9152V33.9786ZM334.994 35.5441H330.276V36.2229C330.276 37.351 330.171 38.8955 329.962 40.8562C329.759 42.8109 329.356 44.4187 328.753 45.6796H334.994V35.5441Z" fill="#00966A"/>
</svg>
