<svg width="316" height="35" viewBox="0 0 316 35" fill="none" xmlns="http://www.w3.org/2000/svg">
<path fill-rule="evenodd" clip-rule="evenodd" d="M61.5681 34.7811L71.5375 13.6891H71.5813V13.6453H108.978L110.802 9.85022H73.3621C75.7705 4.79982 83.5505 1.00473 93.7826 1.00473H131.179L121.209 22.0967C121.209 22.0967 121.793 20.8852 119.385 25.9356C117.02 30.986 109.197 34.7811 99.0082 34.7811L104.905 22.3156H83.7256L77.8286 34.7811H61.5681ZM246.389 34.7811L256.359 13.6453H272.575L266.722 26.1107H287.902L295.579 9.85022H258.183C261.394 3.73428 270.152 0.960938 278.604 1.00473L316 0.960938L304.118 26.1107H312.074C309.578 31.0736 301.841 34.7811 291.784 34.7811H246.389ZM40.8411 0.960938H69.567L62.692 15.5721L53.6714 17.4988L60.6339 19.9072L57.7292 26.1107C55.2332 31.0736 47.4971 34.7811 37.3963 34.7811H0L5.89699 22.3156L20.2892 26.1107H41.5125L43.2933 22.3156H22.1137L8.17405 17.4842L26.1716 13.6453H47.3511L49.1757 9.85022H27.9523L9.99861 13.6453C10.13 13.3388 10.5825 12.39 11.7794 9.85022C14.2024 4.79982 22.0261 1.00473 32.2145 1.00473H40.8411V0.960938ZM254.403 0.960938H225.633V1.00473H217.006C206.774 1.00473 199.009 4.79982 196.586 9.85022H233.982L232.201 13.6453H194.805L190.733 22.3156H206.906L179.785 34.7811H207.402L226.348 26.0669L222.232 34.7811C232.201 34.7811 239.879 31.1173 242.477 26.2421L248.418 13.6453L250.199 9.85022L251.221 7.66074L254.388 0.960938H254.403ZM164.021 0.960938H192.791L186.762 13.7767C184.164 18.6519 176.486 22.3156 166.517 22.3156H145.338L139.441 34.7811H123.18L133.193 13.6453H170.589L172.414 9.85022H134.974C137.382 4.79982 145.148 1.00473 155.38 1.00473H163.963L164.006 0.960938H164.021Z" fill="black"/>
</svg>
