<?xml version="1.0" encoding="UTF-8"?>
<svg id="Layer_1" data-name="Layer 1" xmlns="http://www.w3.org/2000/svg" xmlns:xlink="http://www.w3.org/1999/xlink" viewBox="0 0 153 39">
  <defs>
    <style>
      .cls-1 {
        fill: none;
      }

      .cls-2 {
        clip-path: url(#clippath);
      }

      .cls-3 {
        fill: #4e524e;
      }
    </style>
    <clipPath id="clippath">
      <rect class="cls-1" x=".91" y=".73" width="152.09" height="37.3"/>
    </clipPath>
  </defs>
  <g class="cls-2">
    <g>
      <path class="cls-3" d="M52.97,15s0-.01,0-.02v1.91s0-1.89,0-1.89Zm0-.45v0Zm6.37-4.17h-12.52c-.56-.03-1.12,.06-1.64,.25-.52,.2-1,.5-1.4,.89-.4,.39-.72,.86-.93,1.38-.21,.52-.31,1.08-.3,1.64h6.26c0,3.14,0,10.53,0,14.18h4.17V14.97c0-.15-.01-.29-.02-.44h2.12c.56,.03,1.12-.06,1.64-.25,.52-.2,1-.5,1.4-.89,.4-.39,.72-.86,.93-1.38,.21-.52,.31-1.08,.3-1.64m14.14,9.01c0,1.02-.3,2.02-.87,2.87-.57,.85-1.37,1.51-2.32,1.9-.94,.39-1.98,.49-2.98,.29-1-.2-1.92-.69-2.64-1.41-.72-.72-1.21-1.64-1.41-2.64-.2-1-.1-2.04,.29-2.98,.39-.94,1.05-1.75,1.9-2.32s1.85-.87,2.87-.87c1.37,0,2.68,.54,3.65,1.51,.97,.97,1.51,2.28,1.51,3.65Zm4.16,9.33v-9.33c0-2.11-.71-4.16-2.02-5.81-1.31-1.65-3.15-2.81-5.2-3.29-2.06-.48-4.21-.25-6.12,.66-1.91,.91-3.45,2.43-4.38,4.33-.93,1.9-1.19,4.05-.74,6.11,.45,2.06,1.59,3.91,3.23,5.24,1.64,1.33,3.68,2.07,5.79,2.09,2.11,.02,4.17-.67,5.83-1.96,.38,.61,.91,1.12,1.54,1.46,.63,.34,1.35,.52,2.07,.5Zm19.55,0V10.38h-4.17v11.47c-1.28-1.68-3-5.97-4.92-8.54-1.67-2.25-3.26-3.12-7.17-3.04V28.72h4.16v-11.93c1.17,.56,2.68,4.41,4.58,7.36,1.92,2.99,3.63,4.64,7.51,4.57m18.47-16.05c-1.01-.97-2.22-1.7-3.55-2.13-1.33-.44-2.74-.57-4.12-.39-1.39,.18-2.71,.67-3.88,1.43-1.17,.76-2.16,1.78-2.88,2.97-.72,1.19-1.17,2.54-1.31,3.93-.14,1.39,.04,2.79,.52,4.11,.48,1.31,1.25,2.5,2.24,3.48,1,.98,2.21,1.72,3.53,2.16,.97,.31,1.97,.47,2.99,.46,2.41,0,4.73-.93,6.46-2.6-.61-.74-1.42-1.29-2.33-1.6-.91-.31-1.89-.35-2.82-.13-.43,.11-.87,.17-1.32,.17-.54,0-1.07-.08-1.59-.25-.91-.33-1.73-.88-2.39-1.6-.62-.75-1.02-1.67-1.14-2.64-.12-.97,.04-1.96,.45-2.84,.42-.88,1.08-1.63,1.9-2.16,.83-.52,1.78-.8,2.76-.8,.44,0,.89,.05,1.32,.16,.93,.22,1.91,.17,2.82-.13,.91-.31,1.71-.86,2.33-1.6m.06,4.44h-4.78c-.57-.02-1.14,.07-1.68,.28-.53,.21-1.02,.52-1.42,.93-.41,.4-.72,.89-.93,1.42-.21,.53-.31,1.1-.28,1.67h4.78c.57,.02,1.14-.07,1.67-.28,.53-.21,1.02-.52,1.42-.93,.4-.4,.72-.89,.93-1.42,.21-.53,.31-1.1,.29-1.67m9.63,7.16c-.91-.33-1.73-.88-2.39-1.6-.62-.76-1.01-1.67-1.14-2.64-.12-.97,.04-1.96,.45-2.84,.42-.88,1.08-1.63,1.9-2.16,.83-.52,1.78-.8,2.76-.8,.44,0,.88,.05,1.31,.16,.93,.22,1.91,.18,2.82-.13,.91-.31,1.72-.86,2.33-1.6-1.01-.97-2.22-1.7-3.55-2.13s-2.73-.57-4.12-.39c-1.38,.18-2.71,.67-3.88,1.43-1.17,.76-2.15,1.78-2.88,2.97-.73,1.19-1.17,2.53-1.31,3.92-.14,1.39,.04,2.79,.52,4.11,.48,1.31,1.24,2.5,2.24,3.48,1,.98,2.2,1.72,3.53,2.16,.97,.31,1.98,.47,2.99,.46,2.41,0,4.73-.93,6.46-2.6-.61-.74-1.42-1.29-2.33-1.6-.91-.31-1.89-.35-2.82-.13-.43,.11-.87,.17-1.31,.17-.54,0-1.08-.09-1.59-.25m23.5-4.88c0,1.02-.3,2.02-.87,2.87-.57,.85-1.37,1.51-2.32,1.9-.94,.39-1.98,.49-2.98,.3-1-.2-1.92-.69-2.64-1.41s-1.21-1.64-1.41-2.64c-.2-1-.1-2.04,.29-2.98,.39-.94,1.05-1.75,1.9-2.32,.85-.57,1.85-.87,2.87-.87,1.37,0,2.68,.54,3.65,1.51s1.51,2.28,1.51,3.65Zm4.15-.16c-.04-2.46-1.06-4.8-2.82-6.52-1.76-1.72-4.13-2.67-6.59-2.65-2.46,.02-4.81,1.01-6.54,2.76-1.73,1.75-2.7,4.11-2.7,6.57s.97,4.82,2.7,6.57c1.73,1.75,4.08,2.74,6.54,2.76,2.46,.02,4.83-.93,6.59-2.65,1.76-1.72,2.77-4.06,2.82-6.52v-.32Z"/>
      <path class="cls-3" d="M25.87,11.6c-.66,.54-1.19,1.22-1.55,1.99s-.53,1.62-.52,2.47h4.98c-.83,.13-1.62,.45-2.31,.94-.69,.49-1.25,1.13-1.65,1.87,4.35,2.57,1.09,.64,4.31,2.55-.78-.32-1.62-.44-2.45-.37-.84,.07-1.64,.34-2.36,.78,2.52,4.45,.63,1.11,2.49,4.4-.51-.67-1.18-1.21-1.93-1.57-.76-.37-1.59-.55-2.43-.54v5.09c-.12-.84-.43-1.64-.9-2.34-.48-.7-1.11-1.28-1.85-1.7-2.52,4.44-.63,1.11-2.49,4.4,.31-.8,.43-1.65,.36-2.5s-.33-1.67-.76-2.41c-4.36,2.57-1.09,.64-4.31,2.54,.66-.54,1.19-1.22,1.55-1.99,.36-.77,.53-1.62,.52-2.47h-4.98c.83-.13,1.63-.45,2.32-.93,.69-.49,1.26-1.13,1.65-1.87-4.36-2.57-1.09-.64-4.31-2.54,.78,.31,1.62,.44,2.46,.37,.84-.07,1.64-.34,2.36-.78-2.51-4.45-.63-1.12-2.49-4.41,.51,.67,1.17,1.21,1.93,1.57,.76,.37,1.59,.55,2.43,.53v-5.09c.12,.84,.43,1.64,.91,2.35,.48,.7,1.11,1.29,1.85,1.71,2.51-4.45,.63-1.12,2.49-4.41-.31,.8-.43,1.65-.36,2.5s.33,1.68,.76,2.41c4.35-2.57,1.1-.64,4.31-2.54m3.37-1.08c-.81-.01-1.62,.15-2.37,.48,.62-.36,1.17-.84,1.6-1.42,.43-.57,.75-1.23,.93-1.93,.18-.7,.21-1.43,.1-2.14-.11-.71-.36-1.4-.74-2.01-4.71,2.77-.52,.3-5.22,3.07-.71,.41-1.33,.96-1.82,1.63,.37-.62,.61-1.31,.7-2.02,.1-.71,.05-1.44-.14-2.14-.19-.7-.52-1.35-.96-1.91-.45-.57-1-1.04-1.63-1.39l-3.01,5.33c-.42,.72-.68,1.51-.78,2.33,.02-.72-.1-1.43-.37-2.1-.26-.67-.66-1.27-1.17-1.78-.51-.51-1.11-.91-1.78-1.17-.67-.27-1.38-.39-2.1-.37v6.15c-.01,.83,.15,1.65,.47,2.42-.33-.63-.79-1.19-1.35-1.63-.56-.44-1.21-.77-1.9-.95-.69-.18-1.41-.22-2.12-.11-.71,.11-1.38,.37-1.98,.76,2.72,4.8,.3,.52,3.01,5.32,.4,.72,.94,1.36,1.6,1.86-.61-.37-1.29-.62-2-.71-.71-.1-1.43-.05-2.12,.15-.69,.2-1.33,.53-1.88,.99-.55,.45-1,1.02-1.32,1.66,4.71,2.77,.52,.3,5.22,3.08,.7,.42,1.48,.7,2.29,.8-.72,0-1.43,.13-2.09,.41-.66,.28-1.26,.69-1.76,1.21-.5,.52-.88,1.13-1.13,1.8s-.36,1.39-.33,2.11h6.02c.81,0,1.62-.15,2.37-.48-.62,.36-1.17,.84-1.6,1.42-.43,.58-.75,1.23-.93,1.93-.18,.7-.21,1.43-.1,2.14,.11,.71,.36,1.4,.74,2.01,4.71-2.77,.52-.3,5.22-3.07,.71-.41,1.33-.96,1.82-1.62-.37,.62-.61,1.31-.7,2.02-.1,.71-.05,1.44,.14,2.14,.19,.7,.52,1.35,.96,1.91,.45,.57,1,1.04,1.63,1.39l3.01-5.32c.41-.72,.68-1.52,.77-2.34-.02,.72,.1,1.43,.37,2.1,.26,.67,.66,1.27,1.17,1.78,.51,.51,1.11,.91,1.78,1.17,.67,.27,1.38,.39,2.1,.37v-6.17c.01-.83-.15-1.65-.47-2.42,.33,.63,.8,1.18,1.35,1.63,.56,.44,1.2,.77,1.89,.95,.69,.18,1.41,.22,2.12,.11,.7-.11,1.38-.37,1.98-.75-2.71-4.81-.29-.53-3.01-5.33-.39-.72-.94-1.36-1.59-1.86,.61,.37,1.29,.61,2,.71,.71,.1,1.43,.05,2.11-.15,.69-.2,1.33-.53,1.88-.99,.55-.45,1-1.02,1.32-1.66l-5.21-3.07c-.7-.43-1.48-.7-2.29-.8,.72,0,1.43-.14,2.09-.42,.66-.28,1.26-.69,1.75-1.21,.5-.52,.88-1.13,1.14-1.8,.25-.67,.37-1.39,.34-2.1h-6.02Z"/>
    </g>
  </g>
</svg>