<?xml version="1.0" encoding="UTF-8"?>
<svg id="Layer_1" data-name="Layer 1" xmlns="http://www.w3.org/2000/svg" xmlns:xlink="http://www.w3.org/1999/xlink" viewBox="0 0 178 51">
  <defs>
    <style>
      .cls-1 {
        fill: none;
      }

      .cls-2 {
        clip-path: url(#clippath);
      }

      .cls-3 {
        fill: #4e524e;
        fill-rule: evenodd;
      }
    </style>
    <clipPath id="clippath">
      <rect class="cls-1" x=".36" y=".35" width="177.43" height="50.52"/>
    </clipPath>
  </defs>
  <g class="cls-2">
    <g>
      <path class="cls-3" d="M13.19,.35c3.25,8.24-2.05,13.52-7.32,18.82-4.91,5.42-9.23,11.04-.53,21.16-3.25-8.24,2.04-13.53,7.32-18.82,4.9-5.42,9.23-11.04,.53-21.16Z"/>
      <path class="cls-3" d="M20.97,10.89c3.25,8.24-2.04,13.53-7.31,18.82-4.91,5.42-9.23,11.05-.54,21.17-3.25-8.24,2.04-13.53,7.32-18.82,4.91-5.42,9.23-11.04,.53-21.17"/>
      <path class="cls-3" d="M141.76,33.73v16.18h7.08v-5.92h7.78v-3.54h-7.78v-3.17h15.44v12.64h7.08v-12.64h6.42v-3.54h-36.02Z"/>
      <path class="cls-3" d="M126.57,46.39v-2.8h9.23v-3.54h-9.23v-2.77h11.86v-3.54h-18.94v16.17h19.08v-3.51h-12Z"/>
      <path class="cls-3" d="M110.79,33.73v8.08l-11.32-8.08h-5.49v16.17h4.84v-8.89l11.64,8.89h5.19v-16.17h-4.85Z"/>
      <path class="cls-3" d="M51.87,33.73h-19.63v3.54h6.27v12.64h7.08v-12.64h6.27v-3.54Z"/>
      <path class="cls-3" d="M57.23,43.77l3.28-6.26,3.14,6.26h-6.42Zm8.62-10.05h-7.59l-8.84,16.18h4.6l1.45-2.78h9.93l1.44,2.78h7.85l-8.85-16.18Z"/>
      <path class="cls-3" d="M91.57,33.73h-19.21v3.54h6.27v12.64h7.09v-12.64h5.86v-3.54Z"/>
    </g>
  </g>
</svg>