<?xml version="1.0" encoding="UTF-8"?>
<svg id="Layer_1" data-name="Layer 1" xmlns="http://www.w3.org/2000/svg" xmlns:xlink="http://www.w3.org/1999/xlink" viewBox="0 0 153 67">
  <defs>
    <style>
      .cls-1 {
        fill: none;
      }

      .cls-2 {
        clip-path: url(#clippath);
      }

      .cls-3, .cls-4 {
        fill: #4e524e;
      }

      .cls-4 {
        fill-rule: evenodd;
      }
    </style>
    <clipPath id="clippath">
      <rect class="cls-1" x=".03" y=".35" width="152.19" height="66.4"/>
    </clipPath>
  </defs>
  <g class="cls-2">
    <g>
      <path class="cls-4" d="M17.76,9.38c2.8,7.06-1.76,11.59-6.27,16.14-4.21,4.65-7.91,9.47-.46,18.14-2.78-7.05,1.77-11.59,6.27-16.14,4.21-4.63,7.91-9.47,.46-18.14Z"/>
      <path class="cls-4" d="M11.04,.35c2.8,7.06-1.76,11.59-6.27,16.14-4.21,4.63-7.93,9.43-.46,18.14-2.78-7.07,1.76-11.6,6.28-16.14,4.2-4.63,7.91-9.47,.46-18.14ZM121.33,28.96v13.87h6.07v-5.08h6.67v-3.04h-6.67v-2.72h13.25v10.83h6.07v-10.83h5.5v-3.04h-30.89Zm-13.02,10.87v-2.4h7.91v-3.04h-7.91v-2.4h10.17v-3.04h-16.24v13.87h16.36v-3h-10.29Zm-13.52-10.85v6.93l-9.71-6.93h-4.71v13.86h4.15v-7.63l9.97,7.63h4.46v-13.86h-4.16Z"/>
      <path class="cls-4" d="M44.27,28.96H27.43v3.04h5.38v10.83h6.07v-10.83h5.38v-3.04h0Zm4.59,8.63l2.81-5.35,2.68,5.35h-5.5Zm7.39-8.6h-6.51l-7.57,13.86h3.95l1.25-2.4h8.52l1.24,2.4h6.73l-7.59-13.86Zm22.05-.02h-16.48v3.04h5.38v10.83h6.07v-10.83h5.03v-3.04Z"/>
      <path class="cls-3" d="M152.22,61.21v.91l-1.68,1.44v-.89l1.2-1.01-1.2-1.01v-.93l1.68,1.49Zm-1.97,0v.9l-1.61,1.49v-.93l1.15-1.01-1.15-.96v-.91l1.61,1.41Zm-7.4,.64c-.01,.44,.07,.88,.24,1.29,.13,.32,.36,.6,.65,.8,.25,.17,.55,.26,.85,.26,.23,0,.46-.04,.67-.15,.21-.1,.39-.25,.53-.44,.33-.52,.49-1.13,.44-1.74,.01-.44-.06-.89-.22-1.3-.12-.32-.33-.6-.61-.8-.32-.21-.71-.31-1.09-.26-.38,.05-.73,.23-.99,.52-.39,.53-.56,1.19-.49,1.85v-.02Zm-.91-2.85h.94v.8c.2-.31,.48-.56,.81-.74,.33-.17,.69-.26,1.06-.25,.36,0,.72,.06,1.06,.2,.31,.14,.58,.34,.8,.6,.23,.28,.41,.61,.51,.97,.12,.42,.18,.85,.18,1.29,.02,.57-.09,1.14-.33,1.66-.19,.43-.5,.79-.89,1.04-.39,.24-.84,.36-1.3,.35-.38,0-.76-.1-1.09-.27-.35-.17-.63-.45-.8-.8v2.88h-.97l.05-7.72Zm-3.89,.69h-1.96v-.69h4.9v.69h-1.94v4.97h-.98l-.02-4.97Zm-6.68,2.33v2.64h-.97v-5.62h.97v2.32h2.8v-2.32h.98v5.66h-.98v-2.64l-2.8-.03Zm-6.61-.66h3.32c-.01-.46-.13-.91-.36-1.31-.13-.2-.31-.36-.52-.47-.21-.1-.46-.14-.69-.12-.36-.02-.71,.09-1.01,.29-.26,.17-.45,.42-.57,.7-.12,.3-.17,.62-.17,.93v-.03Zm3.35,1.65h.93c-.05,.3-.16,.59-.32,.85-.2,.3-.47,.54-.8,.7-.42,.22-.9,.32-1.38,.3-.67-.01-1.33-.21-1.91-.56-.64-.38-.96-1.2-.96-2.48,0-.55,.1-1.09,.3-1.6,.19-.44,.51-.82,.93-1.06,.47-.26,1-.39,1.53-.38,.54-.03,1.08,.11,1.54,.4,.38,.28,.66,.67,.8,1.12,.17,.57,.26,1.16,.26,1.76h-4.35c0,.52,.14,1.03,.42,1.47,.15,.22,.35,.4,.6,.51,.24,.12,.51,.17,.77,.15,.38,.02,.75-.1,1.05-.32,.15-.1,.27-.22,.37-.37,.1-.15,.16-.31,.19-.49v-.02Zm-11.1,.75h4v-6.87h1.04v6.91h1.02l-.08,2.64h-.88v-1.76h-6.15v-7.8h1.04l.02,6.88Zm-7.37-1.66h1.04c-.06,.44-.19,.86-.38,1.25-.23,.45-.58,.83-1.01,1.09-.58,.34-1.24,.5-1.91,.47-.72,.02-1.43-.16-2.05-.52-.55-.33-.98-.83-1.25-1.41-.29-.65-.43-1.35-.42-2.06,0-.38,.03-.76,.09-1.13,.07-.47,.21-.93,.42-1.35,.25-.52,.64-.95,1.12-1.26,.61-.37,1.33-.55,2.04-.52,.62-.02,1.23,.1,1.79,.36,.43,.21,.79,.53,1.03,.94,.23,.41,.37,.87,.41,1.34h-1.04c-.04-.46-.24-.89-.56-1.22-.22-.19-.47-.34-.74-.44s-.57-.13-.85-.11c-.43-.01-.86,.09-1.24,.3-.33,.19-.61,.47-.8,.8-.2,.33-.33,.69-.4,1.06-.08,.4-.12,.8-.12,1.21,0,.4,.05,.8,.16,1.19,.11,.36,.27,.71,.5,1.01,.23,.31,.53,.55,.87,.72,.34,.17,.72,.25,1.11,.24,.4,.01,.79-.08,1.14-.27,.31-.16,.58-.41,.76-.71,.17-.3,.27-.63,.28-.97Zm-13.38,.18h1.04c.02,.48,.22,.93,.57,1.26,.47,.36,1.06,.53,1.65,.49,.41,.02,.82-.07,1.18-.25,.26-.13,.47-.33,.6-.59,.11-.22,.17-.46,.17-.71,0-.97-.59-1.46-1.78-1.46h-1.02v-.88h.93c.41,.03,.81-.08,1.15-.3,.14-.11,.25-.25,.33-.41,.07-.16,.1-.34,.09-.52,.02-.2-.01-.4-.09-.58-.08-.18-.2-.34-.36-.46-.39-.25-.84-.37-1.29-.34-.27-.03-.54,0-.79,.08-.26,.08-.49,.21-.69,.39-.26,.29-.42,.65-.45,1.04h-1.04c.11-1.6,1.12-2.4,3.05-2.4,.4,0,.79,.05,1.17,.15,.42,.1,.81,.32,1.12,.63,.25,.3,.41,.67,.47,1.06s0,.79-.15,1.15c-.11,.23-.27,.42-.47,.58-.2,.15-.43,.26-.68,.3,.36,.07,.69,.22,.98,.44,.23,.18,.41,.42,.51,.7,.1,.29,.15,.6,.15,.9,0,.37-.08,.74-.25,1.07-.2,.38-.51,.69-.9,.89-.56,.27-1.18,.4-1.81,.37-.52,0-1.04-.06-1.53-.21-.38-.11-.73-.3-1.02-.56-.24-.22-.44-.49-.57-.8-.13-.33-.22-.67-.24-1.02h0Zm-5.32-.51h2.72l-1.36-3.84-1.36,3.84Zm-.29,.88l-.74,2.01h-1.12l2.96-7.8h1.12l2.96,7.8h-1.12l-.74-2.01h-3.32Zm-5.63-.5v-.93h2.93v.94h-2.93Zm-4.79-.22v2.02h1.29c.88,0,1.32-.35,1.32-1.06,.01-.12,0-.24-.04-.35-.04-.11-.1-.21-.18-.3-.14-.14-.33-.23-.53-.26-.24-.03-.48-.05-.73-.05h-1.13Zm-.97-2.94h.97v2.25h1.41c.55-.01,1.09,.09,1.6,.3,.24,.13,.44,.32,.56,.57,.12,.24,.17,.52,.13,.78,0,.3-.06,.59-.18,.86-.12,.27-.33,.5-.6,.64-.36,.19-.76,.27-1.17,.26h-2.76l.03-5.66Zm-3.88,.69h-2v-.69h4.9v.69h-1.96v4.97h-.97l.03-4.97Zm-6.04-.13v4.55c.42,.02,.85-.06,1.24-.23,.3-.13,.55-.33,.74-.59,.17-.22,.28-.47,.35-.74,.06-.25,.09-.5,.09-.76,.04-.33,0-.66-.13-.96s-.32-.57-.58-.78c-.52-.33-1.13-.5-1.74-.47l.03-.02Zm-.97,4.55v-4.54c-.61-.02-1.2,.15-1.71,.48-.25,.21-.45,.48-.57,.78-.12,.3-.17,.63-.13,.96-.04,.53,.1,1.06,.4,1.49,.24,.32,.58,.55,.96,.67,.33,.1,.68,.16,1.02,.16h.03Zm0,2.6v-1.92c-.73,.02-1.45-.14-2.09-.47-.46-.25-.83-.63-1.06-1.1-.2-.43-.32-.9-.33-1.38,0-.43,.08-.86,.22-1.26,.19-.47,.52-.88,.94-1.16,.62-.37,1.33-.55,2.05-.51h.24v-2.05h.97v2c.35,0,.7,.03,1.04,.09,.38,.06,.75,.19,1.09,.38,.39,.21,.71,.53,.93,.92,.27,.49,.4,1.04,.36,1.6,.01,.43-.06,.85-.21,1.25-.14,.36-.36,.67-.64,.93-.31,.27-.68,.48-1.08,.6-.5,.14-1.01,.22-1.53,.22v1.92l-.93-.05Zm-8.79-5.35h3.32c-.01-.46-.14-.91-.36-1.31-.12-.21-.31-.37-.52-.48-.22-.11-.46-.15-.7-.13-.36-.02-.72,.09-1.01,.29-.25,.17-.45,.42-.56,.7-.12,.3-.18,.61-.18,.93h0Zm3.36,1.65h.93c-.06,.3-.17,.59-.33,.85-.2,.3-.47,.55-.8,.7-.42,.22-.9,.32-1.37,.3-.68-.01-1.33-.21-1.91-.56-.64-.38-.96-1.2-.96-2.48,0-.55,.1-1.09,.3-1.6,.19-.44,.51-.82,.93-1.06,.46-.26,.99-.39,1.53-.38,.55-.03,1.09,.11,1.55,.4,.38,.28,.66,.67,.8,1.12,.18,.57,.27,1.16,.27,1.76h-4.31c0,.52,.15,1.03,.43,1.47,.15,.22,.35,.4,.59,.52,.24,.12,.51,.17,.77,.15,.38,.02,.75-.1,1.05-.32,.14-.11,.26-.24,.34-.39,.09-.15,.14-.32,.17-.49h0Zm-9.44-.99v2.64h-.97v-5.66h.97v2.32h2.8v-2.32h.98v5.66h-.98v-2.64h-2.8Zm-4.87-2.33h-1.96v-.69h4.9v.69h-1.98v4.97h-.96v-4.97Zm-3.99,2.56v-.48c-.08,.07-.18,.12-.28,.15l-.46,.06-1.17,.16c-.26,.05-.49,.16-.69,.34-.09,.09-.16,.19-.21,.31-.05,.12-.07,.24-.06,.36,0,.25,.09,.49,.23,.7,.1,.13,.23,.23,.39,.29,.15,.06,.32,.08,.48,.06,.41,.03,.81-.09,1.13-.34,.24-.21,.42-.49,.5-.8,.07-.26,.12-.53,.14-.81Zm-2.72-1.6h-.93c0-.32,.08-.64,.23-.92,.18-.31,.46-.56,.8-.7,.44-.2,.92-.29,1.41-.27,1.5,0,2.25,.64,2.25,1.92l-.08,2.64c-.02,.14-.02,.27,0,.41,0,.04,.03,.08,.06,.12,.03,.03,.06,.06,.1,.08,.13,.05,.26,.08,.4,.06v.7c-.15,.01-.3,.01-.45,0-.24,.02-.48-.04-.7-.15-.1-.08-.18-.18-.23-.3-.06-.12-.08-.24-.09-.37-.19,.37-.51,.66-.9,.8-.33,.12-.68,.19-1.04,.2-.29,.04-.59,0-.87-.09-.28-.1-.53-.26-.73-.47-.22-.33-.34-.71-.35-1.1,0-.22,.04-.44,.11-.65,.08-.21,.21-.38,.39-.51,.26-.18,.55-.31,.85-.39,.46-.13,.94-.21,1.41-.24,.36,0,.59-.06,.72-.08,.06,0,.11-.03,.16-.06,.05-.03,.09-.07,.12-.12,.09-.16,.13-.33,.11-.51,0-.48-.14-.8-.42-.93-.27-.14-.56-.22-.86-.23-.34,0-.67,.08-.97,.22-.18,.09-.32,.24-.41,.42-.09,.18-.12,.38-.09,.58v-.03Zm-5.28-2.92h-2.54v-.85h6.11v.88h-2.52v6.91h-1.04v-6.94Zm-5.16,3.44l1.6-1.44v.91l-1.08,1,1.12,1.01v.91l-1.6-1.47-.04-.92Zm-1.96,0l1.68-1.45v.92l-1.17,.99,1.17,1.02v.88l-1.65-1.44-.02-.92Zm-8.79,2.84c.4,0,.8-.07,1.16-.24,.32-.15,.59-.38,.8-.67,.23-.31,.39-.65,.48-1.02,.11-.43,.16-.87,.15-1.32,.02-.59-.08-1.18-.3-1.73-.15-.39-.4-.74-.73-1-.25-.2-.53-.34-.84-.42-.24-.06-.49-.1-.74-.1-.68,0-1.33,.25-1.82,.72-.3,.35-.52,.75-.66,1.18-.14,.44-.18,.89-.14,1.35,0,.48,.07,.96,.19,1.43,.13,.49,.41,.94,.8,1.27,.44,.39,1.02,.59,1.61,.57l.03-.02Zm0,.88c-.55,.01-1.09-.09-1.6-.29-.45-.17-.85-.45-1.17-.8-.33-.38-.58-.82-.72-1.3-.17-.55-.26-1.13-.25-1.71-.01-.63,.09-1.26,.3-1.86,.17-.48,.44-.92,.8-1.29,.34-.33,.74-.58,1.18-.74,.93-.32,1.93-.32,2.86,0,.45,.15,.85,.4,1.18,.74,.36,.36,.64,.81,.8,1.29,.21,.6,.31,1.23,.3,1.86,0,.58-.07,1.16-.24,1.71-.15,.48-.39,.92-.72,1.3-.33,.35-.73,.63-1.18,.8-.5,.2-1.03,.31-1.57,.3l.03-.02Zm-8.44-.88c.4,0,.8-.07,1.16-.24,.32-.15,.59-.38,.8-.67,.23-.31,.39-.65,.48-1.02,.11-.43,.16-.87,.15-1.32,.02-.59-.08-1.18-.3-1.73-.15-.39-.4-.74-.73-1-.25-.2-.53-.34-.84-.42-.24-.06-.49-.1-.74-.1-.68,0-1.33,.25-1.82,.72-.3,.35-.52,.75-.66,1.18-.14,.44-.18,.89-.14,1.35,0,.48,.07,.96,.19,1.43,.13,.49,.41,.94,.8,1.27,.44,.39,1.02,.59,1.61,.57l.03-.02Zm0,.88c-.55,.01-1.09-.09-1.6-.29-.44-.17-.84-.45-1.17-.8-.33-.38-.58-.82-.72-1.3-.17-.55-.26-1.13-.25-1.71-.03-.64,.06-1.27,.26-1.88,.17-.48,.44-.92,.8-1.29,.33-.33,.74-.59,1.18-.74,.46-.16,.94-.24,1.42-.24,.49,0,.98,.08,1.44,.24,.44,.15,.85,.4,1.18,.73,.36,.36,.64,.81,.8,1.29,.23,.59,.36,1.22,.37,1.86,0,.58-.07,1.16-.24,1.71-.15,.48-.39,.92-.72,1.3-.33,.35-.73,.63-1.18,.8-.51,.21-1.05,.32-1.61,.32l.03-.02Zm-8.47-.86c.4,0,.8-.07,1.16-.24,.32-.15,.59-.38,.8-.67,.23-.31,.39-.65,.48-1.02,.11-.43,.16-.87,.16-1.32,.02-.59-.08-1.18-.3-1.73-.15-.39-.4-.74-.73-1-.25-.2-.53-.34-.84-.42-.24-.06-.49-.1-.74-.1-.68,0-1.33,.25-1.82,.72-.3,.35-.52,.75-.66,1.18-.14,.44-.18,.89-.14,1.35,0,.48,.07,.96,.19,1.43,.13,.49,.41,.94,.8,1.27,.45,.39,1.04,.59,1.64,.55Zm0,.88c-.55,.01-1.09-.09-1.6-.29-.45-.17-.84-.45-1.17-.8-.33-.39-.57-.84-.71-1.33-.17-.55-.25-1.13-.24-1.71-.01-.63,.09-1.26,.3-1.86,.17-.48,.44-.92,.8-1.29,.35-.34,.77-.59,1.23-.74,.46-.16,.94-.24,1.42-.24,.49,0,.98,.08,1.44,.24,.43,.16,.82,.41,1.13,.73,.36,.37,.63,.81,.8,1.29,.21,.6,.31,1.23,.3,1.86,0,.58-.07,1.16-.24,1.71-.15,.48-.4,.92-.73,1.3-.33,.35-.73,.62-1.17,.8-.49,.21-1.02,.31-1.55,.32h0Z"/>
    </g>
  </g>
</svg>