<?xml version="1.0" encoding="UTF-8"?>
<svg id="Layer_1" data-name="Layer 1" xmlns="http://www.w3.org/2000/svg" xmlns:xlink="http://www.w3.org/1999/xlink" viewBox="0 0 60 69">
  <defs>
    <style>
      .cls-1 {
        fill: none;
      }

      .cls-2 {
        clip-path: url(#clippath);
      }

      .cls-3 {
        fill: #fff;
      }

      .cls-4 {
        fill: #c1c6c8;
      }

      .cls-5 {
        fill: #c8102e;
      }

      .cls-6 {
        fill: #154734;
      }
    </style>
    <clipPath id="clippath">
      <rect class="cls-1" width="60" height="69"/>
    </clipPath>
  </defs>
  <g class="cls-2">
    <g>
      <path class="cls-6" d="M42.51,9.43c-3.59-3.81-7.82-7-12.51-9.43-4.69,2.43-8.92,5.62-12.51,9.43C11.94,7.23,6,6.11,0,6.11V49.03c8.51,8.58,18.72,15.37,30,19.98,11.28-4.6,21.49-11.4,30-19.98V6.11c-6,0-11.94,1.12-17.49,3.32Z"/>
      <path class="cls-4" d="M50,28.07v-10.84c-3.35,.93-6.54,2.32-9.49,4.13-.82-.34-1.65-.65-2.51-.92l-1.1,1.63c-1.35-.48-2.74-.81-4.16-.99l.4-1.65c-2.09-.24-4.2-.24-6.29,0l.4,1.65c-1.42,.18-2.81,.52-4.16,.99l-1.1-1.63c-.86,.26-1.69,.57-2.51,.92-2.95-1.81-6.14-3.2-9.49-4.13v10.84c.78-.86,1.61-1.67,2.5-2.42v-4.19l3.16,5.33c-2.69,2.75-4.59,6.14-5.51,9.83l3.22,1.81-.8-2.92,5.86,3.3,5.07-4.95h-3.23l-1.27-3.39h-3.19c.57-.89,1.21-1.73,1.93-2.51l10.47,5.9h-3.2v3.12l5,1.77,5-1.77v-3.12h-3.2l10.47-5.9c.71,.78,1.36,1.62,1.93,2.51h-3.19l-1.26,3.39h-3.23l5.07,4.95,5.86-3.3-.8,2.92,3.22-1.81c-.92-3.69-2.82-7.08-5.51-9.83l3.16-5.33v4.19c.89,.75,1.72,1.56,2.49,2.42Zm-33.32,3.99l1.39,3.74-3.76-2.12,2.37-1.62Zm6.66-4.61l-2.75-1.99c1.09-.77,2.28-1.4,3.53-1.89l1.86,2.76c-.92,.28-1.8,.66-2.64,1.12Zm6.67,4.82l-2.07-3.07c1.37-.25,2.77-.25,4.14,0l-2.07,3.07Zm1.58-6.44c-1.05-.12-2.11-.12-3.16,0l-.78-3.17c1.56-.23,3.14-.23,4.7,0l-.77,3.17Zm5.09,1.62c-.84-.46-1.73-.84-2.65-1.12l1.87-2.76c1.25,.48,2.44,1.12,3.53,1.89l-2.75,1.99Zm9.03,6.23l-3.76,2.12,1.4-3.74,2.37,1.62Z"/>
      <path class="cls-3" d="M12.5,21.46v4.19c-.89,.75-1.72,1.56-2.5,2.42v-10.84l2.5,4.23Zm5.57,14.34h3.43l1.99-1.94h-3.23l-1.27-3.39-2.31,1.58,1.39,3.74Zm6.93,1.19l3.2-3.12h-3.2v3.12Zm25-19.76v10.84c-.78-.86-1.61-1.67-2.49-2.42v-4.19l2.49-4.23Zm-6.68,14.83l-2.31-1.58-1.26,3.39h-3.23l1.98,1.94h3.43l1.4-3.74Zm-8.32,1.81h-3.2l3.2,3.12v-3.12Z"/>
      <path class="cls-5" d="M41.6,13.37c-3.26-3.86-7.19-7.12-11.6-9.64-4.42,2.52-8.35,5.79-11.61,9.64-4.73-2.17-9.83-3.49-15.05-3.88V47.7c5.27,5.15,11.2,9.61,17.64,13.29v-3.8c-5.16-3.1-9.95-6.74-14.3-10.85V13.17c4.62,.76,9.06,2.31,13.12,4.58,6.6-2.32,13.82-2.32,20.42,0,4.07-2.26,8.51-3.81,13.12-4.58V46.34c-4.35,4.11-9.15,7.75-14.3,10.85v3.8c6.44-3.67,12.37-8.14,17.64-13.29V9.49c-5.22,.39-10.33,1.71-15.08,3.88Z"/>
      <path class="cls-3" d="M27.25,40.97l-4.01-2.26-1.83,1.79,2.82,1.59-3.48,.91,.86,2.3,6.6-1.73-.97-2.6Z"/>
      <path class="cls-3" d="M13.77,39.92l.81,2.96-4.58-2.59v4.64c3.43,3.14,7.15,5.97,11.09,8.47l-4.42-11.85-2.9-1.64Z"/>
      <path class="cls-3" d="M22.47,47.6l1.83,4.9,1.48-3.96h8.45l1.48,3.96,1.83-4.9-7.53-1.97-7.53,1.97Z"/>
      <path class="cls-3" d="M35.77,42.09l2.82-1.59-1.83-1.79-4.01,2.26-.97,2.6,6.6,1.73,.86-2.3-3.47-.91Z"/>
      <path class="cls-3" d="M45.42,42.88l.81-2.96-2.9,1.64-4.42,11.86c3.95-2.5,7.66-5.33,11.09-8.47v-4.65l-4.58,2.59Z"/>
      <path class="cls-3" d="M26.06,60.06l-1.76-4.73v7.44c1.86,.96,3.76,1.85,5.7,2.67,1.94-.82,3.84-1.72,5.7-2.67v-7.44l-1.75,4.72h-7.89Z"/>
    </g>
  </g>
</svg>