<svg width="31" height="37" viewBox="0 0 31 37" fill="none" xmlns="http://www.w3.org/2000/svg">
<path d="M28.0905 26.715H26.4852V13.206C26.5132 10.6813 25.5701 8.24222 23.8507 6.39317C22.1313 4.54412 19.7671 3.42645 17.247 3.27122V2.2111C17.247 1.62468 17.014 1.06228 16.5994 0.647617C16.1847 0.232955 15.6223 0 15.0359 0C14.4495 0 13.8871 0.232955 13.4724 0.647617C13.0577 1.06228 12.8248 1.62468 12.8248 2.2111V3.27122C10.3526 3.46195 8.04349 4.57859 6.35889 6.39795C4.6743 8.21731 3.73833 10.6054 3.73805 13.0849V26.5938H1.98128C1.43558 26.6576 0.932304 26.9196 0.567048 27.33C0.201793 27.7404 0 28.2707 0 28.8201C0 29.3695 0.201793 29.8998 0.567048 30.3102C0.932304 30.7206 1.43558 30.9826 1.98128 31.0463H28.0905C28.6362 30.9826 29.1395 30.7206 29.5047 30.3102C29.87 29.8998 30.0718 29.3695 30.0718 28.8201C30.0718 28.2707 29.87 27.7404 29.5047 27.33C29.1395 26.9196 28.6362 26.6576 28.0905 26.5938V26.715Z" fill="#BDFFEF"/>
<path d="M15.0383 36.8313C16.4053 36.8379 17.7369 36.3976 18.8305 35.5774C19.9241 34.7572 20.7197 33.6021 21.0961 32.2879H8.98047C9.35687 33.6021 10.1524 34.7572 11.246 35.5774C12.3396 36.3976 13.6713 36.8379 15.0383 36.8313Z" fill="#BDFFEF"/>
</svg>
