<svg width="10" height="37" viewBox="0 0 10 37" fill="none" xmlns="http://www.w3.org/2000/svg">
<g clip-path="url(#clip0_2155_7091)">
<path d="M8.31784 21.4176C8.03497 21.4176 7.77305 21.2916 7.58447 21.0669C7.14445 20.5464 7.1916 19.6205 7.42209 17.6754C7.38542 17.6754 7.34875 17.6754 7.31208 17.6754H7.27541H7.2597C6.85111 17.659 6.53681 17.4672 6.31156 17.2974C5.94487 17.7686 5.40532 18.4096 4.63005 18.4096C4.29479 18.4096 3.96478 18.2836 3.67143 18.0425C3.4619 17.8727 3.30475 17.6809 3.17379 17.5001C2.83853 17.8672 2.39851 18.0699 1.91135 18.0699C1.36132 18.0699 0.806056 17.8124 0.339844 17.4015V35.9206L0.696051 36.085C3.41999 37.3452 6.53681 37.2849 9.2136 35.9206V20.9574C9.17169 20.9902 9.12979 21.0231 9.09836 21.056C8.85215 21.2916 8.59024 21.4066 8.3126 21.4066L8.31784 21.4176Z" fill="#FFFA89"/>
<path d="M3.81351 13.6318C3.76637 13.6318 3.71399 13.6318 3.66684 13.6318C1.83866 13.6318 0 13.8509 0 14.9632C0 16.0754 1.05291 17.2096 1.91723 17.2096C2.2001 17.2096 2.46726 17.0836 2.66632 16.7932C2.91776 16.4261 3.09062 16.2836 3.23206 16.2836C3.53588 16.2836 3.68779 16.9576 4.19068 17.374C4.34259 17.5 4.48926 17.5548 4.6307 17.5548C5.15977 17.5548 5.60503 16.8042 5.94552 16.4042C6.03981 16.2946 6.12886 16.2508 6.21792 16.2508C6.53222 16.2508 6.82556 16.8042 7.28654 16.8206C7.29178 16.8206 7.30225 16.8206 7.30749 16.8206C7.64798 16.8206 7.98324 16.5138 8.17706 16.5138C8.31849 16.5138 8.38135 16.6781 8.31849 17.237C8.17706 18.4205 7.87323 20.5573 8.31849 20.5573C8.37611 20.5573 8.44945 20.5189 8.5385 20.4313C9.28758 19.7135 10.5553 19.4615 9.72237 17.5383C8.89471 15.6152 10.1991 14.1633 8.45469 13.8893C7.38607 13.7195 7.0351 13.7085 6.56365 13.7085C6.48507 13.7085 6.40126 13.7085 6.31221 13.7085C6.14982 13.7085 5.96124 13.7085 5.73075 13.703C5.7098 13.4126 5.68884 13.1168 5.66789 12.8264C5.6417 12.5195 5.62074 12.2127 5.59455 11.9059C7.23415 11.4621 7.87847 9.69783 7.87847 8.34999C7.87847 4.99681 6.68937 2.93121 4.76689 0.0163574C4.00733 4.50918 1.56103 4.78313 1.56103 8.47053C1.56103 10.3772 2.48298 11.5991 3.94447 11.9223C3.91828 12.2072 3.89209 12.4867 3.87114 12.7716C3.84494 13.062 3.82399 13.3524 3.80304 13.6482L3.81351 13.6318Z" fill="#FFFA89"/>
</g>
<defs>
<clipPath id="clip0_2155_7091">
<rect width="10" height="37" fill="white"/>
</clipPath>
</defs>
</svg>
