<svg width="45" height="40" viewBox="0 0 45 40" fill="none" xmlns="http://www.w3.org/2000/svg">
<g clip-path="url(#clip0_2155_6563)">
<path d="M8.92114 20.0196C8.5663 19.4645 8.19457 18.8252 7.91858 18.1747L0.0727054 38.6934C-0.220177 39.4673 0.528927 40.2243 1.30619 39.9439L22.0389 32.4127C19.6508 31.3697 16.4291 28.6331 14.0297 26.2162C11.9119 24.074 10.0927 21.8758 8.91551 20.0196H8.92114Z" fill="#CEFFBD"/>
<path d="M9.34745 15.769C9.11652 15.769 8.93629 15.825 8.81238 15.9484C7.87177 16.8737 10.564 21.1187 14.8334 25.4255C18.5395 29.1714 22.2174 31.7286 23.7325 31.7286C23.9634 31.7286 24.1437 31.6725 24.2676 31.5491C25.2082 30.6238 22.5159 26.3788 18.2466 22.072C14.5405 18.3261 10.8626 15.769 9.34745 15.769Z" fill="#CEFFBD"/>
<path d="M16.0949 4.68245C16.5229 4.94602 17.0974 5.06939 17.762 5.04695C18.3872 5.02452 18.9448 4.82825 19.4405 4.46936C19.5813 5.06939 19.632 5.68624 19.6489 6.0956C19.6714 6.62834 19.6095 7.10499 19.4912 7.51997C19.0068 7.05452 18.4492 6.819 17.8409 6.84143C16.9622 6.87508 16.4553 7.21154 16.1906 7.48632C15.8696 7.81718 15.695 8.26019 15.7119 8.7032C15.7457 9.54436 16.4328 10.436 17.8916 10.3743C18.4548 10.3519 19.0124 10.1107 19.4912 9.67334C19.7277 10.3855 19.7672 11.1201 19.6095 11.5351C19.4574 11.9333 19.2208 12.3314 18.9448 12.7856C18.3929 13.7053 17.7001 14.8549 17.4466 16.6045C17.4016 16.9129 17.6156 17.1933 17.9254 17.2382C17.9535 17.2382 17.9817 17.2438 18.0042 17.2438C18.2802 17.2438 18.5224 17.0419 18.5618 16.7615C18.7871 15.2306 19.3842 14.238 19.9136 13.3576C20.2008 12.8754 20.4768 12.4211 20.6627 11.9277C20.9894 11.0641 20.8091 9.70138 20.2684 8.61348C20.612 7.92933 20.8091 7.06574 20.7697 6.05074C20.7303 5.06378 20.5839 4.21701 20.336 3.52726C20.826 2.82629 21.2147 1.87858 21.5076 0.700957C21.5808 0.398139 21.3949 0.0953213 21.0964 0.0224207C20.7979 -0.0504799 20.4881 0.134575 20.4149 0.431786C20.2234 1.21687 19.9925 1.86737 19.7221 2.38889C19.1983 1.73278 18.4942 1.40192 17.6381 1.42996C16.506 1.47483 15.3063 2.26552 15.357 3.47679C15.3739 3.95905 15.6443 4.39646 16.1005 4.68245H16.0949ZM17.8522 9.25276C17.2551 9.27519 16.8552 9.04527 16.8383 8.65834C16.8383 8.60787 16.8383 8.42842 17.0017 8.26019C17.1763 8.07513 17.4804 7.97419 17.886 7.95737C17.8972 7.95737 17.9085 7.95737 17.9197 7.95737C18.3703 7.95737 18.7252 8.29944 18.9561 8.60787C18.6351 9.01163 18.2408 9.23594 17.8522 9.25276ZM17.6776 2.55712C17.6776 2.55712 17.717 2.55712 17.7395 2.55712C18.3309 2.55712 18.7364 2.89358 19.0181 3.37024C18.6407 3.72914 18.207 3.91419 17.717 3.93662C17.2889 3.95345 16.9228 3.88615 16.6919 3.74035C16.5961 3.67867 16.4835 3.58333 16.4779 3.44314C16.461 2.94966 17.0974 2.57955 17.6776 2.55712Z" fill="#CEFFBD"/>
<path d="M43.9119 22.2795C43.7429 22.0216 43.3937 21.9487 43.1346 22.1169C42.7009 22.3973 42.1884 22.4422 42.194 22.4422C40.8929 22.4982 39.8566 21.6066 38.7583 20.6701C37.5079 19.6046 36.2181 18.5055 34.3763 18.5672C32.9344 18.6233 31.7066 19.3243 30.8955 20.4234C30.4956 20.3729 30.0901 20.3617 29.7071 20.3729C27.1781 20.4682 25.1167 21.7244 23.2073 24.3207C23.0215 24.5731 23.0778 24.9208 23.3312 25.1058C23.5847 25.2909 23.9339 25.2348 24.1198 24.9825C26.3333 21.9599 28.3947 21.5449 29.7521 21.4944C29.9324 21.4888 30.1126 21.4888 30.2985 21.4944C29.9887 22.2459 29.831 23.0983 29.8648 24.0179C29.8986 24.8759 30.2534 25.6049 30.8617 26.076C31.2785 26.4012 31.7967 26.5695 32.3092 26.5695C32.4669 26.5695 32.619 26.5526 32.7711 26.519C34.4157 26.1657 35.2155 25.1451 34.9677 23.7263C34.6805 22.0833 33.5146 21.1468 32.1515 20.6981C32.7429 20.0925 33.5314 19.7224 34.427 19.6888C35.8238 19.6215 36.8996 20.5523 38.0373 21.5225C39.2539 22.5599 40.5268 23.631 42.2672 23.5637C42.3461 23.5581 43.0839 23.4964 43.7598 23.059C44.0189 22.8908 44.0921 22.5431 43.9232 22.2851L43.9119 22.2795ZM33.8469 23.917C33.9426 24.4666 33.8807 25.1283 32.5233 25.4255C32.1966 25.4984 31.8305 25.4086 31.5489 25.1899C31.3067 25.0049 31.0138 24.6404 30.9856 23.9787C30.9518 23.1207 31.1264 22.33 31.4587 21.6683C32.6134 21.9599 33.6272 22.6496 33.8469 23.917Z" fill="#CEFFBD"/>
<path d="M27.6857 9.40979L29.7189 6.79097L33.0364 6.97042L31.1665 4.23945L32.3661 1.15519L29.1782 2.08608L26.6042 0L26.5085 3.30857L23.7148 5.10304L26.8408 6.21898L27.6913 9.41539L27.6857 9.40979ZM27.6068 3.92542L27.6519 2.29917L28.9191 3.32539L30.4849 2.87116L29.8992 4.38525L30.8173 5.7255L29.1895 5.63578L28.1926 6.91995L27.7758 5.34978L26.2381 4.80022L27.6068 3.91981V3.92542Z" fill="#CEFFBD"/>
<path d="M32.1296 12.4828L30.3047 14.4568L32.9857 14.6979L34.3037 17.0363L35.3625 14.5689L38.0041 14.0418L35.9765 12.2753L36.2863 9.61166L33.9714 10.9856L31.5213 9.86962L32.1183 12.4828H32.1296ZM33.1378 11.8379L34.0502 12.2529L34.912 11.7426L34.7937 12.7352L35.5484 13.3913L34.5684 13.5876L34.1741 14.5072L33.6841 13.638L32.6872 13.5483L33.3687 12.8137L33.149 11.8379H33.1378Z" fill="#CEFFBD"/>
<path d="M39.3307 9.49951C39.5222 9.54998 39.7194 9.57802 39.9109 9.57802C40.2939 9.57802 40.6769 9.47708 41.0205 9.28081C41.5386 8.9836 41.9047 8.50694 42.0568 7.93495C42.2089 7.36297 42.13 6.76294 41.8371 6.25263C41.5443 5.74233 41.0599 5.37222 40.4854 5.22081C39.9109 5.0694 39.3082 5.14791 38.7957 5.43951C38.2775 5.73672 37.9114 6.21338 37.7593 6.78537C37.6072 7.35736 37.6861 7.95739 37.979 8.46769C38.2775 8.97799 38.7562 9.3481 39.3307 9.49951ZM38.8464 7.07697C38.9196 6.79658 39.1055 6.55545 39.3589 6.40965C39.5279 6.31432 39.7194 6.26385 39.9052 6.26385C40.001 6.26385 40.0967 6.27506 40.1925 6.3031C40.4741 6.38161 40.7163 6.56106 40.8627 6.81341C41.0092 7.06575 41.0486 7.36297 40.9754 7.64335C40.9022 7.92374 40.7163 8.16487 40.4629 8.31067C40.2094 8.45647 39.9109 8.49573 39.6293 8.42283C39.3476 8.34432 39.1055 8.16487 38.959 7.91252C38.8126 7.66018 38.7731 7.36297 38.8464 7.08258V7.07697Z" fill="#CEFFBD"/>
<path d="M24.3766 19.0719C24.6751 19.1504 24.9736 19.1897 25.2665 19.1897C26.7816 19.1897 28.1728 18.1803 28.5839 16.655C29.0739 14.8325 27.9869 12.9539 26.1564 12.466C25.2721 12.2305 24.3484 12.3482 23.5542 12.8081C22.7601 13.2623 22.1912 14.0025 21.9546 14.8829C21.7181 15.7633 21.8364 16.6886 22.2982 17.4793C22.7544 18.27 23.4979 18.8364 24.3822 19.0719H24.3766ZM23.036 15.1745C23.1938 14.5801 23.5768 14.0866 24.1118 13.7782C24.4667 13.5763 24.8609 13.4698 25.2608 13.4698C25.4636 13.4698 25.6607 13.4978 25.8635 13.5483C27.0913 13.8735 27.8236 15.1409 27.4969 16.3634C27.1702 17.5859 25.8973 18.3149 24.6694 17.9896C24.0724 17.8326 23.5768 17.4513 23.267 16.9185C22.9572 16.3858 22.8783 15.7689 23.036 15.1745Z" fill="#CEFFBD"/>
</g>
<defs>
<clipPath id="clip0_2155_6563">
<rect width="44" height="40" fill="white" transform="translate(0.00390625)"/>
</clipPath>
</defs>
</svg>
