<svg width="78" height="89" viewBox="0 0 78 89" fill="none" xmlns="http://www.w3.org/2000/svg">
<g clip-path="url(#clip0_1873_39901)">
<path d="M54.831 12.166C50.1964 7.24857 44.7405 3.13482 38.6957 0C32.6508 3.13482 27.1949 7.24857 22.5603 12.166C15.3947 9.32795 7.73289 7.87461 0 7.88656V63.2435C10.9744 74.3061 24.1401 83.0724 38.6957 89.0089C53.2508 83.0717 66.4164 74.3054 77.3913 63.2435V7.88656C69.6584 7.87461 61.9967 9.32795 54.831 12.166Z" fill="#154734"/>
<path d="M64.4926 36.208V22.2266C60.1746 23.4288 56.0534 25.2236 52.2524 27.5573C51.1997 27.1161 50.1289 26.7251 49.0156 26.3727L47.5929 28.4754C45.8577 27.8612 44.0594 27.4322 42.2296 27.196L42.7514 25.0696C40.0569 24.7577 37.3342 24.7577 34.6397 25.0696L35.1585 27.196C33.3297 27.4326 31.5325 27.8615 29.7982 28.4754L28.3755 26.3727C27.2713 26.7123 26.1924 27.1072 25.1387 27.5573C21.3377 25.2236 17.2165 23.4288 12.8984 22.2266V36.208C13.9008 35.0976 14.977 34.0529 16.12 33.0806V27.6787L20.191 34.5584C16.7214 38.0994 14.2707 42.4718 13.0865 47.2338L17.2364 49.5734L16.2019 45.8063L23.7554 50.065L30.2957 43.6829H26.1246L24.4926 39.3117H20.3821C21.1169 38.1656 21.949 37.0818 22.8696 36.0717L36.3719 43.6829H32.2463V47.7135L38.6955 50.0028L45.1448 47.7135V43.6829H41.0162L54.5214 36.0717C55.4421 37.0811 56.2732 38.1649 57.0059 39.3117H52.8955L51.2665 43.6829H47.0954L53.6357 50.065L61.1891 45.8063L60.1547 49.5734L64.3046 47.2338C63.1193 42.4722 60.6687 38.1001 57.2 34.5584L61.2771 27.6787V33.0806C62.4187 34.0524 63.4929 35.0971 64.4926 36.208ZM21.5106 41.3492L23.3095 46.1794L18.4559 43.44L21.5106 41.3492ZM30.0955 35.4024L26.5463 32.8348C27.9544 31.8433 29.4828 31.0256 31.0966 30.4004L33.5021 33.9542C32.3172 34.3176 31.1752 34.8031 30.0955 35.4024ZM38.6955 41.6216L36.023 37.668C37.7889 37.3402 39.6022 37.3402 41.3681 37.668L38.6955 41.6216ZM40.731 33.3086C39.3789 33.1507 38.0122 33.1507 36.66 33.3086L35.6559 29.2158C37.6667 28.9169 39.7122 28.9169 41.723 29.2158L40.731 33.3086ZM47.2956 35.3965C46.2139 34.7985 45.0698 34.315 43.8829 33.9542L46.2915 30.4004C47.9052 31.0256 49.4336 31.8433 50.8418 32.8348L47.2956 35.3965ZM58.9383 43.4341L54.0846 46.1735L55.8865 41.3433L58.9383 43.4341Z" fill="#C1C6C8"/>
<path d="M16.12 27.6787V33.0806C14.977 34.0529 13.9008 35.0976 12.8984 36.208V22.2266L16.12 27.6787ZM23.3095 46.1794H27.7354L30.2957 43.6829H26.1246L24.4926 39.3116L21.5106 41.3492L23.3095 46.1794ZM32.2463 47.7135L36.3719 43.6829H32.2463V47.7135ZM64.4926 22.2266V36.208C63.4929 35.0971 62.4187 34.0524 61.2771 33.0806V27.6787L64.4926 22.2266ZM55.8805 41.3492L52.8955 39.3116L51.2665 43.6829H47.0954L49.6526 46.1794H54.0785L55.8805 41.3492ZM45.1448 43.6829H41.0162L45.1448 47.7135V43.6829Z" fill="white"/>
<path d="M53.6649 17.2509C49.4633 12.2782 44.3967 8.06766 38.6975 4.8125C32.998 8.06838 27.9305 12.2788 23.7271 17.2509C17.6197 14.4467 11.0414 12.7488 4.3125 12.24V61.5229C11.1128 68.1638 18.7593 73.9238 27.0639 78.6613V73.7629C20.4121 69.7673 14.2265 65.0751 8.61707 59.7697V16.9844C14.5698 17.9693 20.2992 19.9671 25.5441 22.8867C34.0562 19.8975 43.3692 19.8975 51.8812 22.8867C57.1262 19.9671 62.8555 17.9693 68.8083 16.9844V59.7697C63.1979 65.0753 57.0113 69.7674 50.3584 73.7629V78.6613C58.6631 73.9238 66.3095 68.1638 73.1098 61.5229V12.24C66.3707 12.746 59.7819 14.4439 53.6649 17.2509Z" fill="#C8102E"/>
<path d="M35.149 52.8498L29.9738 49.9297L27.6137 52.2338L31.257 54.2891L26.7734 55.4618L27.8837 58.4322L36.4018 56.2022L35.149 52.8498Z" fill="white"/>
<path d="M17.7642 51.4883L18.8108 55.3116L12.8984 51.9769V57.9652C17.3284 62.0117 22.1157 65.6686 27.2045 68.8932L21.5015 53.6058L17.7642 51.4883Z" fill="white"/>
<path d="M28.9844 61.4013L31.3414 67.7242L33.2465 62.6126H44.1399L46.0449 67.7242L48.402 61.4013L38.6947 58.8633L28.9844 61.4013Z" fill="white"/>
<path d="M46.137 54.2891L49.7803 52.2338L47.4202 49.9297L42.242 52.8498L40.9922 56.2022L49.5103 58.4322L50.6176 55.4618L46.137 54.2891Z" fill="white"/>
<path d="M58.5735 55.3116L59.6231 51.4883L55.8857 53.6058L50.1797 68.9021C55.269 65.6783 60.0564 62.0213 64.4858 57.974V51.9769L58.5735 55.3116Z" fill="white"/>
<path d="M33.602 77.4728L31.3359 71.375V80.9763C33.7355 82.2113 36.1896 83.3633 38.6892 84.4265C41.1858 83.3633 43.6429 82.2113 46.0394 80.9763V71.375L43.7764 77.4609L33.602 77.4728Z" fill="white"/>
</g>
<defs>
<clipPath id="clip0_1873_39901">
<rect width="77.3913" height="89" fill="white"/>
</clipPath>
</defs>
</svg>
