<svg width="13" height="14" viewBox="0 0 13 14" fill="none" xmlns="http://www.w3.org/2000/svg">
<g clip-path="url(#clip0_2213_39502)">
<path d="M1.72261e-05 4.30762V11.6401C-0.0011399 11.9346 0.0560095 12.2264 0.16817 12.4987C0.280331 12.771 0.445284 13.0184 0.653518 13.2266C0.861752 13.4349 1.10915 13.5998 1.38144 13.712C1.65373 13.8241 1.94553 13.8813 2.24002 13.8801H10.6313C11.2254 13.8801 11.7951 13.6441 12.2152 13.224C12.6353 12.804 12.8713 12.2342 12.8713 11.6401V4.30762H1.72261e-05ZM3.58752 11.3076C3.58752 11.426 3.5405 11.5395 3.45681 11.6232C3.37313 11.7069 3.25962 11.7539 3.14127 11.7539H2.08252C2.01922 11.7543 1.95656 11.7413 1.89869 11.7156C1.84082 11.69 1.78906 11.6524 1.74685 11.6052C1.70465 11.558 1.67296 11.5024 1.65389 11.442C1.63483 11.3817 1.62882 11.318 1.63627 11.2551V10.2314C1.63627 10.113 1.68328 9.99951 1.76697 9.91582C1.85066 9.83213 1.96416 9.78512 2.08252 9.78512H3.14127C3.25962 9.78512 3.37313 9.83213 3.45681 9.91582C3.5405 9.99951 3.58752 10.113 3.58752 10.2314V11.3076ZM3.58752 7.51012C3.58752 7.62847 3.5405 7.74198 3.45681 7.82566C3.37313 7.90935 3.25962 7.95637 3.14127 7.95637H2.08252C1.96416 7.95637 1.85066 7.90935 1.76697 7.82566C1.68328 7.74198 1.63627 7.62847 1.63627 7.51012V6.43387C1.64079 6.31857 1.6898 6.20951 1.773 6.12957C1.8562 6.04963 1.96714 6.00503 2.08252 6.00512H3.14127C3.20061 6.00511 3.25937 6.01693 3.31409 6.0399C3.36881 6.06287 3.41839 6.09653 3.45995 6.1389C3.5015 6.18127 3.53419 6.2315 3.55609 6.28666C3.578 6.34181 3.58868 6.40078 3.58752 6.46012V7.51012ZM7.41127 11.2551C7.41127 11.3735 7.36425 11.487 7.28056 11.5707C7.19688 11.6544 7.08337 11.7014 6.96502 11.7014H5.90627C5.78791 11.7014 5.67441 11.6544 5.59072 11.5707C5.50703 11.487 5.46002 11.3735 5.46002 11.2551V10.2314C5.46002 10.113 5.50703 9.99951 5.59072 9.91582C5.67441 9.83213 5.78791 9.78512 5.90627 9.78512H7.00002C7.11837 9.78512 7.23188 9.83213 7.31556 9.91582C7.39925 9.99951 7.44627 10.113 7.44627 10.2314L7.41127 11.2551ZM7.41127 7.45762C7.41605 7.51626 7.40919 7.57526 7.39108 7.63124C7.37297 7.68722 7.34397 7.73906 7.30575 7.78379C7.26753 7.82851 7.22084 7.86524 7.16837 7.89186C7.1159 7.91847 7.05868 7.93445 7.00002 7.93887H5.90627C5.78791 7.93887 5.67441 7.89185 5.59072 7.80816C5.50703 7.72448 5.46002 7.61097 5.46002 7.49262V6.43387C5.46454 6.31857 5.51355 6.20951 5.59675 6.12957C5.67995 6.04963 5.79088 6.00503 5.90627 6.00512H7.00002C7.05936 6.00511 7.11812 6.01693 7.17284 6.0399C7.22756 6.06287 7.27714 6.09653 7.3187 6.1389C7.36025 6.18127 7.39294 6.2315 7.41484 6.28666C7.43675 6.34181 7.44743 6.40078 7.44627 6.46012L7.41127 7.45762ZM11.235 11.2551C11.235 11.3735 11.188 11.487 11.1043 11.5707C11.0206 11.6544 10.9071 11.7014 10.7888 11.7014H9.73002C9.61166 11.7014 9.49816 11.6544 9.41447 11.5707C9.33078 11.487 9.28377 11.3735 9.28377 11.2551V10.2314C9.28377 10.113 9.33078 9.99951 9.41447 9.91582C9.49816 9.83213 9.61166 9.78512 9.73002 9.78512H10.7888C10.9071 9.78512 11.0206 9.83213 11.1043 9.91582C11.188 9.99951 11.235 10.113 11.235 10.2314V11.2551ZM11.235 7.45762C11.235 7.57597 11.188 7.68948 11.1043 7.77316C11.0206 7.85685 10.9071 7.90387 10.7888 7.90387H9.73002C9.61166 7.90387 9.49816 7.85685 9.41447 7.77316C9.33078 7.68948 9.28377 7.57597 9.28377 7.45762V6.43387C9.28829 6.31857 9.3373 6.20951 9.4205 6.12957C9.5037 6.04963 9.61464 6.00503 9.73002 6.00512H10.7888C10.8481 6.00511 10.9069 6.01693 10.9616 6.0399C11.0163 6.06287 11.0659 6.09653 11.1074 6.1389C11.149 6.18127 11.1817 6.2315 11.2036 6.28666C11.2255 6.34181 11.2362 6.40078 11.235 6.46012V7.45762Z" fill="#949891"/>
<path d="M10.6312 1.12875H10.3512V0.56C10.3512 0.411479 10.2923 0.269041 10.1872 0.16402C10.0822 0.0589998 9.93977 0 9.79125 0C9.64273 0 9.50029 0.0589998 9.39527 0.16402C9.29025 0.269041 9.23125 0.411479 9.23125 0.56V1.12875H3.64V0.56C3.64 0.411479 3.581 0.269041 3.47598 0.16402C3.37096 0.0589998 3.22852 0 3.08 0C2.93148 0 2.78904 0.0589998 2.68402 0.16402C2.579 0.269041 2.52 0.411479 2.52 0.56V1.12875H2.24C1.65638 1.12853 1.09571 1.3561 0.677349 1.76303C0.258984 2.16995 0.0159584 2.72409 0 3.3075H12.8625C12.8466 2.72561 12.6048 2.17276 12.1883 1.76607C11.7718 1.35939 11.2134 1.13081 10.6312 1.12875Z" fill="#949891"/>
</g>
<defs>
<clipPath id="clip0_2213_39502">
<rect width="12.8713" height="14" fill="white"/>
</clipPath>
</defs>
</svg>
