<svg width="436" height="362" viewBox="0 0 436 362" fill="none" xmlns="http://www.w3.org/2000/svg">
<g filter="url(#filter0_f_2244_39656)">
<path d="M217.703 258.852C217.703 260.483 216.722 261.948 215.219 262.567L156.81 287.032C156.81 287.568 156.471 290.037 159.197 291.268L222.522 320.097C227.68 322.43 234.197 321.924 238.223 317.945L271.769 285.68C272.532 284.925 273.521 283.362 273.521 282.282V279.654L217.711 258.844L217.703 258.852Z" fill="#19251E" fill-opacity="0.15"/>
</g>
<path d="M209.235 259.35C209.235 260.981 208.253 262.446 206.75 263.065L148.342 287.53C148.342 288.066 148.002 290.535 150.728 291.766L214.053 320.595C219.211 322.928 225.729 322.422 229.754 318.443L263.3 286.178C264.063 285.423 265.053 283.86 265.053 282.78V280.153L209.242 259.342L209.235 259.35Z" fill="#666764"/>
<path d="M207.495 258.232C207.495 259.863 206.513 261.328 205.01 261.947L150.453 284.464C147.689 285.604 147.629 289.493 150.347 290.724L214.178 319.576C219.336 321.909 225.408 320.822 229.434 316.835L262.112 284.525C262.874 283.769 263.305 282.743 263.305 281.663V279.035L207.495 258.225V258.232Z" fill="#C6C7C4"/>
<path d="M373.812 113.369C373.812 101.272 363.723 97.7008 363.723 97.7008L129.78 5.64047C127.159 4.62865 124.244 4.74947 121.714 5.97271L118.172 7.68676L362.635 100.849C362.635 100.849 364.538 107.457 368.933 110.56C369.387 111.594 370.973 113.369 373.812 113.369Z" fill="#CCCECA"/>
<path d="M367.32 318.254L372.562 313.12C373.377 312.116 373.823 310.854 373.823 309.563V113.369L368.944 110.56L367.32 318.254Z" fill="#666764"/>
<path d="M361.237 319.553L120.965 226.156C117.34 224.752 114.961 221.263 114.961 217.375V12.7836C114.961 8.81181 118.956 6.0784 122.664 7.51306L361.727 100.449C366.07 102.141 368.932 106.324 368.932 110.983V314.283C368.932 318.254 364.937 320.988 361.229 319.553H361.237Z" fill="#ADAFAB"/>
<path d="M361.237 294.107L122.173 201.17C117.831 199.479 114.969 195.296 114.969 190.637V12.7836C114.969 8.81181 118.964 6.0784 122.672 7.51306L361.735 100.449C366.078 102.141 368.94 106.324 368.94 110.983V288.844C368.94 292.815 364.945 295.549 361.237 294.114V294.107Z" fill="#1C1C1C"/>
<path d="M124.383 18.2882L359.511 109.692V283.332L124.383 191.928V18.2882Z" fill="#D5F1FF"/>
<path d="M373.808 120.497V113.369C373.808 101.272 363.718 97.7008 363.718 97.7008L356.113 94.7107L352.359 96.8098L361.724 100.449C362.026 100.57 362.321 100.699 362.615 100.842H362.63V100.85C366.331 102.677 368.755 106.392 368.914 110.545C368.914 110.545 368.921 110.552 368.929 110.56V110.907C368.929 110.907 368.929 110.96 368.929 110.983V123.034L373.808 120.497Z" fill="url(#paint0_linear_2244_39656)"/>
<path d="M207.215 259.675C206.822 260.679 206.044 261.517 205.009 261.947L202.789 262.861L261.099 285.529L262.111 284.525C262.874 283.77 263.304 282.743 263.304 281.663V281.474L207.215 259.667V259.675Z" fill="url(#paint1_linear_2244_39656)"/>
<path opacity="0.15" d="M342.796 286.941L361.238 294.107C364.946 295.549 368.941 292.815 368.941 288.836V110.975C368.941 106.316 366.079 102.133 361.729 100.442L252.57 58.0133L342.796 286.933V286.941Z" fill="url(#paint2_linear_2244_39656)"/>
<g filter="url(#filter1_f_2244_39656)">
<path d="M71.1641 238.041L260.187 178.525L257.77 144.237L161.254 123.034L71.1641 238.041Z" fill="url(#paint3_linear_2244_39656)"/>
</g>
<path d="M81.5638 134.345C33.0262 148.088 -3.38275 169.63 0.249831 182.467L14.2893 232.038L190.081 182.263L176.041 132.692C172.409 119.863 130.109 120.595 81.5638 134.345Z" fill="black"/>
<path d="M108.767 230.392C157.31 216.648 193.678 194.968 189.996 181.968C186.314 168.968 143.977 169.57 95.4341 183.313C46.891 197.056 10.5238 218.736 14.2056 231.736C17.8874 244.737 60.2241 244.135 108.767 230.392Z" fill="#303030"/>
<path d="M152.312 67.1197L146.641 88.7379L157.372 87.6657L173.171 90.5048C173.171 90.5048 176.162 86.2084 175.852 86.2084C175.543 86.2084 166.571 77.4267 166.571 77.4267L158.905 66.1155L152.312 67.1122V67.1197Z" fill="#F0F6FF"/>
<path d="M152.31 67.1198L146.631 71.2652L144.184 87.3637L142.727 93.2609L146.631 88.7379L152.31 67.1198Z" fill="#CFDEF5"/>
<path d="M146.631 88.7379L142.719 93.2609L152.302 94.4086L158.895 96.7116C158.895 96.7116 162.196 93.4119 165.488 93.2609C168.781 93.1099 172.467 92.7248 172.467 92.7248L175.865 88.2018L175.842 86.2084L173.161 90.5048L157.362 87.6657L146.631 88.7379Z" fill="#7D9ECB"/>
<path d="M210.092 108.997L203.416 113.135L200.969 135.289L218.603 127.776L210.318 119.115L210.092 108.997Z" fill="#F0F6FF"/>
<path d="M210.094 108.997C210.094 108.997 212.699 113.671 214.081 116.2C215.463 118.73 218.605 119.115 218.605 119.115C218.605 119.115 219.141 125.481 220.214 126.402C221.286 127.323 219.255 130.502 219.255 130.502L218.605 127.784L210.32 119.123L210.094 109.004V108.997Z" fill="#CFDEF5"/>
<path d="M218.603 127.776L200.969 135.289L204.413 138.03L219.253 130.502L218.603 127.776Z" fill="#7D9ECB"/>
<path d="M275.336 173.587L273.441 181.41C273.441 181.41 274.589 191.528 271.719 195.039C282.126 192.049 283.508 190.207 283.508 190.207L275.344 173.587H275.336Z" fill="#7D9ECB"/>
<path d="M275.336 173.587L271.711 176.804L273.44 181.402L275.336 173.587Z" fill="#F0F6FF"/>
<path d="M271.708 176.804C271.708 176.804 270.673 186.461 267.758 190.758C269.366 192.676 271.708 195.032 271.708 195.032C271.708 195.032 274.736 192.517 273.429 181.402L271.708 176.804Z" fill="#CFDEF5"/>
<path d="M106.527 101.914H100.319L94.625 123.472L104.858 122.611L121.541 125.775L123.323 122.09L113.256 112.085L106.527 101.914Z" fill="#F0F6FF"/>
<path d="M100.321 101.914L95.3745 106.052L90.8281 128.07L94.6269 123.472L100.321 101.914Z" fill="#CFDEF5"/>
<path d="M94.6269 123.472L90.8281 128.07L101.008 129.739L106.642 131.295C106.642 131.295 108.659 126.749 119.813 128.078C120.561 126.809 121.535 125.775 121.535 125.775L104.86 122.611L94.6269 123.472Z" fill="#7D9ECB"/>
<path d="M10.8777 127.512L18.5809 130.275L44.0014 118.889L45.61 124.582L40.0894 148.903L32.0388 146.834L0.984375 150.051L10.8777 127.512Z" fill="#F0F6FF"/>
<path d="M43.998 118.889L52.6225 124.869L45.6066 157.64L40.0859 148.903L45.6066 124.582L43.998 118.889Z" fill="#CFDEF5"/>
<path d="M0.984375 150.051L32.0388 146.834L40.0894 148.903L45.61 157.64L32.4995 155.11L10.6511 157.64L0.984375 150.051Z" fill="#7D9ECB"/>
<path d="M198.443 158.893L200.513 176.026L194.531 194.194L215.813 189.595L217.656 184.883L210.179 175.913L207.876 165.334L198.443 158.893Z" fill="#CFDEF5"/>
<path d="M198.445 158.893L202.591 154.869L209.834 160.388L213.633 173.27L221.562 180.511L215.815 189.595L217.658 184.883L210.181 175.913L207.878 165.334L198.445 158.893Z" fill="#7D9ECB"/>
<path d="M207.878 165.334L209.834 160.388L202.591 154.869L198.445 158.893L207.878 165.334Z" fill="#F0F6FF"/>
<path d="M122.546 227.123L117.177 232.491L111.656 233.254L119.322 250.583L125.877 251.807L134.35 255.952V244.603L136.503 241.537L130.212 235.557L125.877 235.406L122.546 227.123Z" fill="#F0F6FF"/>
<path d="M111.654 233.254L109.773 236.169L116.789 254.684L119.319 250.583L111.654 233.254Z" fill="#7D9ECB"/>
<path d="M119.319 250.583L116.789 254.684L124.077 255.182L132.437 258.859L134.348 255.952L125.874 251.807L119.319 250.583Z" fill="#CFDEF5"/>
<path d="M83.0443 233.873L78.2109 241.537L83.0443 246.362L89.3353 237.777L83.0443 233.873Z" fill="#F0F6FF"/>
<path d="M83.0391 246.362L83.7641 248.016L90.055 240.118L89.33 237.777" fill="#7D9ECB"/>
<path d="M78.2109 241.537V244.256L83.7693 248.016L83.0443 246.362L78.2109 241.537Z" fill="#CFDEF5"/>
<path d="M271.445 217.745L278.061 220.614L283.755 230.219L281.165 217.745H271.445Z" fill="#F0F6FF"/>
<path d="M271.445 217.745L272.48 225.847L283.755 230.219L278.061 220.614L271.445 217.745Z" fill="#7D9ECB"/>
<path d="M278.059 220.614L275.93 222.57L276.995 227.599L283.754 230.219L278.059 220.614Z" fill="#CFDEF5"/>
<path d="M142.727 227.546L152.439 218.349L156.411 218.862L155.203 225.243L147.651 226.051L142.727 227.546Z" fill="#F0F6FF"/>
<path d="M142.84 229.139L149.372 227.931L155.739 227.402L155.203 225.243L147.651 226.051L142.727 227.546L142.84 229.139Z" fill="#7D9ECB"/>
<path d="M155.739 227.402L156.411 218.862L155.203 225.243L155.739 227.402Z" fill="#CFDEF5"/>
<path d="M189.703 202.243L186.139 217.08L186.939 223.128L174.75 226.051L183.949 237.777L196.833 230.015L201.258 223.982L203.388 211.334L189.703 202.243Z" fill="#F0F6FF"/>
<path d="M189.703 202.243H195.798L210.003 211.334H203.388L189.703 202.243Z" fill="#CFDEF5"/>
<path d="M203.388 211.334L201.258 223.982L207.3 225.53L210.003 211.334H203.388Z" fill="#7D9ECB"/>
<path d="M201.255 223.982L196.829 230.015L183.945 237.777H192.343L202.637 231.797L207.297 225.53L201.255 223.982Z" fill="#7D9ECB"/>
<path d="M170.101 244.392L174.761 241.537L176.656 246L175.682 250.583L169.18 246.06L170.101 244.392Z" fill="#F0F6FF"/>
<path d="M176.662 246L178.474 247.382L176.488 252.871L175.688 250.583L176.662 246Z" fill="#7D9ECB"/>
<path d="M175.682 250.583L176.483 252.871L170.305 247.495L169.18 246.06L175.682 250.583Z" fill="#CFDEF5"/>
<mask id="mask0_2244_39656" style="mask-type:luminance" maskUnits="userSpaceOnUse" x="312" y="219" width="91" height="93">
<path d="M401.657 255.152L360.191 219.855C358.692 218.579 356.442 218.76 355.166 220.258L312.901 269.893C311.625 271.392 311.806 273.641 313.305 274.917L354.771 310.214C356.27 311.49 358.519 311.31 359.796 309.811L402.06 260.176C403.336 258.677 403.156 256.428 401.657 255.152Z" fill="white"/>
</mask>
<g mask="url(#mask0_2244_39656)">
<path d="M404.371 257.46L357.477 217.542L345.756 231.306L392.651 271.224L404.371 257.46Z" fill="#41A5EE"/>
<path d="M392.644 271.225L345.75 231.307L334.03 245.072L380.924 284.989L392.644 271.225Z" fill="#2A7CD2"/>
<path d="M380.934 284.99L334.039 245.073L322.319 258.837L369.213 298.754L380.934 284.99Z" fill="#195ABA"/>
<path d="M369.199 298.761L322.305 258.844L310.584 272.608L357.479 312.525L369.199 298.761Z" fill="#0F3F91"/>
</g>
<path d="M362.459 242.242L334.455 218.404C333.53 217.617 332.143 217.729 331.357 218.653L307.515 246.652C306.728 247.576 306.839 248.963 307.763 249.75L335.768 273.588C336.692 274.375 338.079 274.263 338.866 273.339L362.708 245.34C363.495 244.416 363.383 243.029 362.459 242.242Z" fill="#1E61BE"/>
<path d="M336.868 232.937C338.016 233.564 339.685 234.719 341.249 236.048C343.476 237.943 344.587 239.552 344.919 241.341C345.251 242.768 344.919 244.256 343.756 245.615C342.336 247.284 339.995 247.805 337.608 246.921L337.563 246.974C338.855 248.779 339.617 251.776 337.435 254.336C336.166 255.824 334.618 256.45 333.032 256.549C330.887 256.624 328.508 255.484 325.684 253.083C324.143 251.776 323.055 250.666 322.398 249.934L336.861 232.945L336.868 232.937ZM333.077 241.907L335.101 243.629C337.457 245.638 339.889 245.585 341.309 243.916C343.031 241.892 342.17 239.786 339.919 237.868C338.892 236.992 338.243 236.569 337.812 236.342L333.077 241.9V241.907ZM326.031 250.183C326.401 250.629 327.02 251.203 327.813 251.875C330.117 253.838 332.964 254.804 335.101 252.29C337.11 249.934 335.909 247.238 333.477 245.162L331.635 243.591L326.031 250.176V250.183Z" fill="white"/>
<path d="M435.365 179.477L372.645 210.013L332.43 127.451L376.942 105.78C387.515 109.427 393.443 111.474 404.017 115.121L435.365 179.477Z" fill="white"/>
<path d="M404.034 115.136L385.803 124.016L376.93 105.788L404.034 115.136Z" fill="#C40404"/>
<path d="M351.258 136.867L369.866 127.806" stroke="#FF0000" stroke-width="2.03" stroke-miterlimit="10"/>
<path d="M357.742 150.195L397.444 130.864" stroke="#CFDEF5" stroke-width="2.03" stroke-miterlimit="10"/>
<path d="M361.008 156.885L400.709 137.547" stroke="#CFDEF5" stroke-width="2.03" stroke-miterlimit="10"/>
<path d="M364.266 163.567L403.967 144.237" stroke="#CFDEF5" stroke-width="2.03" stroke-miterlimit="10"/>
<path d="M367.516 170.257L407.217 150.927" stroke="#CFDEF5" stroke-width="2.03" stroke-miterlimit="10"/>
<path d="M370.781 176.947L410.483 157.617" stroke="#CFDEF5" stroke-width="2.03" stroke-miterlimit="10"/>
<path d="M374.031 183.637L405.652 168.234" stroke="#CFDEF5" stroke-width="2.03" stroke-miterlimit="10"/>
<path d="M192.654 50.2284L188.236 65.232C185.849 73.3341 188.213 82.078 194.353 87.8771C206.466 99.3091 226.48 117.19 235.905 119.968L245.126 88.6473L192.646 50.2359L192.654 50.2284Z" fill="#2D7048"/>
<path d="M310.045 84.7888L305.627 99.7924C303.241 107.895 296.512 113.965 288.212 115.506C271.832 118.549 245.324 122.74 235.898 119.961L245.12 88.6398L310.038 84.7964L310.045 84.7888Z" fill="#0F4117"/>
<path d="M245.984 85.71L147.346 11.5981L146.047 16.0154L244.489 90.7917L245.984 85.71Z" fill="#0F4117"/>
<path d="M271.237 0L147.352 11.5981L245.99 85.71L369.068 76.8679L271.237 0Z" fill="#2D7048"/>
<path d="M245.988 85.71L369.065 76.8679L367.758 81.2852L244.492 90.7917L245.988 85.71Z" fill="#0F4117"/>
<path d="M320.829 99.2638L316.313 97.9348L320.799 82.7122C320.874 82.4555 320.784 82.1686 320.565 82.0025L269.867 43.0928L272.737 39.3551L323.427 78.2572C325.179 79.5937 325.942 81.9194 325.315 84.0336L320.829 99.2562V99.2638Z" fill="#F9C21A"/>
<path d="M320.829 99.2638L316.313 97.9348L320.799 82.7122C320.874 82.4555 320.784 82.1686 320.565 82.0025L269.867 43.0928L272.737 39.3551L323.427 78.2572C325.179 79.5937 325.942 81.9194 325.315 84.0336L320.829 99.2562V99.2638Z" fill="#FFE066"/>
<path d="M319.017 96.8022L322.966 83.3918C323.042 83.1351 323.435 80.9906 321.524 79.5107L271.717 40.6992L269.867 43.1079L320.565 82.0176C320.784 82.1837 320.874 82.4631 320.799 82.7273L316.313 97.9499L320.829 99.2789L321.35 97.4969L319.009 96.8097L319.017 96.8022Z" fill="#FBB03B"/>
<path d="M314.366 104.601L311.68 113.72L316.2 115.052L318.886 105.932L314.366 104.601Z" fill="#FFE066"/>
<path d="M314.366 104.602L311.68 113.721L313.781 114.34L316.467 105.221L314.366 104.602Z" fill="#FBB03B"/>
<path d="M317.615 143.172C316.83 140.975 315.569 135.787 317.615 128.856C320.364 119.523 320.07 112.765 314.859 111.232C309.648 109.699 305.743 115.219 302.994 124.552C300.948 131.491 297.081 135.161 295.231 136.58C294.566 137.094 294.257 137.947 294.46 138.755C295.714 143.572 300.17 146.109 304.233 147.31C308.296 148.511 313.424 148.79 317.087 145.415C317.706 144.848 317.902 143.965 317.623 143.172H317.615Z" fill="#FFE066"/>
<path d="M306.672 127.368C308.893 119.817 311.551 114.116 314.64 111.179C309.55 109.873 305.706 115.355 302.994 124.552C300.948 131.491 297.081 135.161 295.231 136.58C294.566 137.094 294.257 137.947 294.46 138.755C294.951 140.658 295.948 142.198 297.217 143.444C299.513 141.36 304.021 136.369 306.672 127.368Z" fill="#FBB03B"/>
<path d="M317.679 108.204C321.32 108.204 324.272 105.253 324.272 101.612C324.272 97.9715 321.32 95.0201 317.679 95.0201C314.038 95.0201 311.086 97.9715 311.086 101.612C311.086 105.253 314.038 108.204 317.679 108.204Z" fill="#FFE066"/>
<path d="M314.218 100.593C315.049 97.7612 317.133 95.73 319.399 95.2543C315.955 94.3331 312.383 96.3114 311.363 99.7546C310.351 103.198 312.277 106.8 315.675 107.887C314.037 106.256 313.387 103.424 314.218 100.593Z" fill="#FBB03B"/>
<path d="M266.185 25.605C264.561 25.1293 262.945 24.9103 261.404 24.9103C262.242 25.0614 263.096 25.2577 263.964 25.5144C270.791 27.5229 274.93 33.0049 273.85 36.6822C272.762 40.367 266.872 40.8578 260.037 38.8493C256.14 37.7015 252.953 35.7081 251.141 33.5183C251.533 37.6487 255.415 41.7261 260.966 43.3571C267.702 45.343 274.333 42.972 275.783 38.0715C277.226 33.171 272.936 27.5833 266.2 25.605H266.185Z" fill="#0F4117"/>
<g clip-path="url(#clip0_2244_39656)">
<path d="M279.72 252.672C272.639 233.217 251.127 223.186 231.672 230.267C212.217 237.348 202.186 258.859 209.267 278.315C216.348 297.77 237.86 307.801 257.315 300.72C276.77 293.639 286.801 272.127 279.72 252.672Z" fill="#FF0000"/>
<path d="M209.266 278.324C216.346 297.781 237.858 307.813 257.314 300.733C276.771 293.653 286.803 272.141 279.723 252.684L209.266 278.324Z" fill="#C40404"/>
<path d="M231.555 255.696L240.885 281.327L258.371 260.45L231.555 255.696Z" fill="white"/>
<path d="M240.888 281.327L258.374 260.45L236.219 268.512L240.888 281.327Z" fill="#A9DBE6"/>
</g>
<defs>
<filter id="filter0_f_2244_39656" x="116.797" y="218.844" width="196.727" height="142.65" filterUnits="userSpaceOnUse" color-interpolation-filters="sRGB">
<feFlood flood-opacity="0" result="BackgroundImageFix"/>
<feBlend mode="normal" in="SourceGraphic" in2="BackgroundImageFix" result="shape"/>
<feGaussianBlur stdDeviation="20" result="effect1_foregroundBlur_2244_39656"/>
</filter>
<filter id="filter1_f_2244_39656" x="66.1641" y="118.034" width="199.023" height="125.007" filterUnits="userSpaceOnUse" color-interpolation-filters="sRGB">
<feFlood flood-opacity="0" result="BackgroundImageFix"/>
<feBlend mode="normal" in="SourceGraphic" in2="BackgroundImageFix" result="shape"/>
<feGaussianBlur stdDeviation="2.5" result="effect1_foregroundBlur_2244_39656"/>
</filter>
<linearGradient id="paint0_linear_2244_39656" x1="353.001" y1="96.168" x2="375.571" y2="118.741" gradientUnits="userSpaceOnUse">
<stop offset="0.08" stop-color="#666764" stop-opacity="0"/>
<stop offset="0.63" stop-color="#666764"/>
</linearGradient>
<linearGradient id="paint1_linear_2244_39656" x1="202.782" y1="272.602" x2="263.297" y2="272.602" gradientUnits="userSpaceOnUse">
<stop stop-color="#666764" stop-opacity="0.3"/>
<stop offset="1" stop-color="#666764" stop-opacity="0.7"/>
</linearGradient>
<linearGradient id="paint2_linear_2244_39656" x1="381.508" y1="125.367" x2="279.618" y2="196.724" gradientUnits="userSpaceOnUse">
<stop stop-color="white"/>
<stop offset="0.87" stop-color="white" stop-opacity="0"/>
</linearGradient>
<linearGradient id="paint3_linear_2244_39656" x1="71.1641" y1="180.542" x2="260.187" y2="180.542" gradientUnits="userSpaceOnUse">
<stop stop-color="white"/>
<stop offset="0.25" stop-color="white" stop-opacity="0.97"/>
<stop offset="0.99" stop-color="white" stop-opacity="0"/>
</linearGradient>
<clipPath id="clip0_2244_39656">
<rect width="75" height="75" fill="white" transform="translate(207 228)"/>
</clipPath>
</defs>
</svg>
