<?xml version="1.0" encoding="UTF-8"?>
<svg id="Layer_1" data-name="Layer 1" xmlns="http://www.w3.org/2000/svg" xmlns:xlink="http://www.w3.org/1999/xlink" viewBox="0 0 105 105">
  <defs>
    <style>
      .cls-1 {
        fill: none;
      }

      .cls-2 {
        clip-path: url(#clippath);
      }

      .cls-3, .cls-4 {
        fill: #d1d6cf;
      }

      .cls-4 {
        fill-rule: evenodd;
      }
    </style>
    <clipPath id="clippath">
      <rect class="cls-1" x="1" y="1" width="102.77" height="103"/>
    </clipPath>
  </defs>
  <g class="cls-2">
    <g>
      <path class="cls-3" d="M103.77,46.86c-16.36-.96-18.06,7.05-24.18,19.53-4.35,8.48-15.7,12.07-23.8,6.81-1.27-.74-2.34-1.05-3.41-1.01-1.07-.04-2.14,.27-3.41,1.01-.6,.39-1.22,.73-1.87,1.03,.13-.27,.29-.53,.47-.77,.33-.48,.71-.93,1.07-1.38,.36-.36,.54-.89,1.05-1.1,.18-.08,.34-.21,.47-.36,.99-.97,2.37-2.72,3.35-3.7,.72-.88,1.63-1.59,2.24-2.57,.5-.72,1.25-1.22,1.57-2.08,.88-.62,1.13-1.7,1.76-2.51,.28-.48,.36-1.02,.72-1.46,.42-.47,.29-1.12,.38-1.71,.02-.43,.03-.39,.42-.59,1.73-1.03,2.49-3.75,3.12-5.58,.25-.82,.39-1.7,.72-2.49,.28-.59,.2-1.16-.04-1.72-.15-.36-.18-.65,.13-.96,.45-.35,.36-.96,.63-1.45,.12-.52,.32-1.02,.6-1.47,0,0,1.09-.01,1.99,.05-.3,1.83,1.52,2.35,2.9,2.78,.47,.16,.97,.19,1.45,.08,.48-.11,.92-.36,1.26-.72,.78-.27,1.35-.79,1.89-1.4,.72-.91,.6-2.23,.89-3.32,.19-1.45-.35-2.9-.03-4.33,.1-1.02,.37-2.12-.28-2.99-.11-1.28-.48-2.52-1.1-3.65-.61-1.13-1.46-2.11-2.47-2.9-.41-.44,.68-.31,.41-.82-.2-.56,.63-.31,.42-.97-.07-.2,0-.27,.2-.27,.63,.11,.48-.77,1.1-.76,.78-.11,.76-1.17,.66-2.03,.64,1.51,1.11,3.09,1.38,4.71,.14,.69,.36,.83,1.05,.91,12.62,.22,20.84,9.71,26.27,20.15Z"/>
      <path class="cls-3" d="M53.69,53.94c-.1,.36-.32,.68-.64,.88-.64,.56-.72,1.49-1.04,2.24-.81,2.82-2.39,5.46-3.73,8.06-1.02,1.5-1.75,4.45-3.5,5.29-.09,.01-.17,.04-.24,.09-.07,.05-.14,.11-.19,.18-.05,.07-.09,.15-.11,.23-.02,.08-.02,.17,0,.26,.22,.3-.02,.45-.2,.62-.63,.54-1.42,1.11-.96,2.04,.01,.61-.38,1.16-.66,1.73-3.88,.45-7.89-.52-11.22-2.63,.17-.41,.39-.76,.85-.8,.54-.05-.16-1.74,1.19-2.46,.79-.49,1.42-1.2,1.8-2.05,1.73-1.69,3.47-3.39,4.87-5.38,.66-.98,1.81-1.49,2.43-2.52,.36-.7,1.21-.72,1.62-1.37,.53-.82,1.13-1.6,1.78-2.34,.43-.52,1.02,.11,1.5,.24,.8,.04,.63,.15,.97-.56,.21-.27-.12-.3,0-.58,.84-1.58,2.17-2.86,3.2-4.33,.64-.82,1.06-1.92,1.96-2.48,.54,.34,.67,.75,.77,1.32,.67,1.41-.09,2.93-.43,4.32Z"/>
      <path class="cls-3" d="M67.73,41.27h-1.38c.39-.46,.65-.95,1.1-1.31,.28,.39,.17,.85,.29,1.31Z"/>
      <path class="cls-4" d="M65.38,16.71c1.25-1.92,3.8-2.03,5.81-1.13-2.25-2.15-4.95-3.68-7.68-5.21-4.13-2.33-8.33-4.7-11.13-9.36-2.8,4.66-7,7.03-11.13,9.36-5.72,3.22-11.32,6.38-12.93,15.46-.14,.69-.36,.84-1.04,.91-12.63,.21-20.85,9.7-26.28,20.13,14.57-.85,17.51,5.4,22.3,15.59,.59,1.26,1.21,2.57,1.88,3.94,.73,1.42,1.67,2.73,2.78,3.88,.09-.14,.17-.28,.25-.41,.3-.5,.61-.99,.95-1.47,.15-.22,.32-.43,.49-.63h0s.07-.06,.09-.09c.1-.11,.13-.22,.13-.32,0-.09-.02-.17-.04-.25-.03-.09-.05-.19-.04-.28,0-.08,.05-.17,.13-.26,.01-.01,.03-.03,.04-.04,.68-.68,1.15-1.55,1.6-2.41,.32-.61,.65-1.22,1.05-1.75,.01-.02,.02-.03,.03-.05,.01-.02,.03-.04,.04-.06,.12-.2,.15-.36,.18-.52,.03-.16,.06-.31,.18-.46,.02-.03,.05-.06,.08-.09,.23-.37,.49-.72,.75-1.08,.27-.37,.54-.74,.77-1.12,.09-.38,.34-.63,.6-.88l.02-.02c.32-.22,.38-.52,.43-.81,.04-.24,.08-.48,.28-.66,.05-.03,.1-.06,.15-.1,.21-.13,.42-.25,.48-.53,.07-.06,.13-.12,.2-.18,.28-.25,.57-.51,.76-.81,.37-.62,.95-1.05,1.53-1.47,.31-.23,.62-.46,.9-.72,.1-.09,.15-.17,.15-.24,0-.12-.11-.23-.23-.36-.17-.18-.38-.38-.37-.7,0-.21,.1-.47,.37-.8,.94-1.45,1.86-2.91,2.78-4.37,.84-1.33,1.67-2.65,2.52-3.96-.33-.21-.51,.12-.68,.43-.1,.17-.19,.34-.31,.43-.16,.13-.17,.3-.19,.48-.01,.12-.02,.23-.08,.34-1.07,1.08-1.22,1.03-1.86,.8-.26-.09-.6-.21-1.11-.3-.53-.26-.85-.28-1.08-.29-.37-.02-.55-.03-1.05-.94-.06-.11-.09-.26-.13-.41-.07-.32-.14-.64-.51-.62-4.4-.04-8.8-.05-13.2-.06-3.24,0-6.47-.01-9.71-.03-.3,0-.6,0-.9,0-1.3,0-2.63-.01-3.76,.69-.32,.16-.64,.39-.95,.63-.56,.42-1.13,.85-1.8,.87-1.05-.3-1.44-.61-1.44-.92,0-.58,1.5-1.15,2.75-1.62,.37-.14,.72-.27,1-.39,.68-.29,28.61-.17,28.61-.17,0,0,1.28-1.72,1.9-2.26,.1-.16,.2-.33,.29-.5,.34-.61,.69-1.22,1.29-1.61,.73-.58,1.63-2.08,1.65-3.17,0-.14-.01-.28-.04-.41-.05-.12-.07-.25-.06-.37,0-.02,0-.03,0-.05,.01-.14,.06-.28,.13-.41,.18-.34,.25-.56,.3-.71,.12-.36,.13-.39,1.02-.86,.73-1.13,1.44-1.44,2.38-1.85,.31-.13,.63-.28,1-.46,.48-.22,.82-.61,1.16-1.02,.24-.29,.49-.58,.79-.81,.29-.25,.61-.45,.94-.65,.24-.14,.47-.29,.69-.45,.43-.68,.76-1.42,.97-2.2,.13-.66,.89-.7,1.44-.72,.74-.04,1.48-.1,2.22-.15,1.13-.08,2.26-.16,3.39-.21,.23,.01,.59,.1,1,.2,1.23,.3,2.93,.71,2.96-.45,0-.02,0-.04,0-.06-.01-.06-.02-.11-.01-.16,.01-.24,.18-.38,.35-.48,.24-.18,.32-.36,.33-.55,0-.17-.04-.36-.09-.58-.1-.43-.24-.99-.09-1.81,.09-.5,.29-1.09,.67-1.8t0,0Z"/>
      <path class="cls-3" d="M23.82,92.07h1.81l1.01-2.93c.04-.11,.11-.21,.21-.28,.1-.07,.21-.11,.33-.11h1.97c.12,0,.24,.04,.33,.11,.1,.07,.17,.17,.21,.28l1.01,2.93h1.8l-1.05-3c-.06-.18-.17-.34-.31-.47l-.39-.36,.39-.36c.14-.13,.25-.29,.31-.47l1.05-3h-1.8l-.99,2.88c-.04,.11-.11,.21-.21,.28-.1,.07-.21,.11-.33,.11h-2.03c-.12,0-.24-.04-.33-.11-.1-.07-.17-.17-.21-.28l-.99-2.88h-1.79l1.05,3c.06,.18,.17,.34,.31,.47l.39,.36-.39,.36c-.14,.13-.25,.29-.31,.47l-1.05,3Z"/>
      <path class="cls-3" d="M64.9,92.07h5.98v-1.09h-4.66c-.08,0-.15-.01-.22-.04-.07-.03-.13-.07-.19-.12s-.1-.12-.12-.19c-.03-.07-.04-.14-.04-.22v-1.73h3.62l.38-1.09h-4.01v-1.41c0-.08,.02-.16,.05-.23,.03-.07,.08-.14,.13-.19l.12-.11c.11-.1,.25-.15,.39-.15h4.54v-1.09h-5.31c-.3,0-.59,.11-.8,.32l-.66,.62c-.12,.11-.21,.24-.28,.39-.06,.15-.1,.31-.1,.47v4.71c0,.31,.13,.61,.35,.82,.22,.22,.52,.34,.83,.34Z"/>
      <path class="cls-3" d="M42.09,90.27v-4.08c0-.16-.03-.32-.1-.47-.06-.15-.16-.28-.28-.39l-.66-.62c-.22-.2-.5-.32-.8-.32h-4.52c-.3,0-.59,.11-.8,.32l-.66,.62c-.12,.11-.21,.24-.28,.39-.06,.15-.1,.31-.1,.47v4.08c0,.16,.03,.32,.1,.47,.06,.15,.16,.28,.28,.39l.66,.62c.22,.2,.5,.32,.8,.32h4.52c.3,0,.58-.11,.8-.31l.66-.62c.12-.11,.21-.24,.28-.39,.06-.15,.1-.31,.1-.47Zm-1.91,.02c0,.08-.02,.16-.05,.23-.03,.07-.08,.14-.13,.19l-.12,.11c-.11,.1-.25,.15-.39,.15h-2.98c-.15,0-.29-.05-.39-.15l-.12-.11c-.06-.05-.1-.12-.13-.19-.03-.07-.05-.15-.05-.23v-4.12c0-.08,.02-.16,.05-.23,.03-.07,.08-.14,.13-.19l.12-.11c.11-.1,.25-.15,.39-.15h2.97c.15,0,.29,.05,.39,.15l.12,.11c.06,.05,.1,.12,.13,.19,.03,.07,.05,.15,.05,.23v4.12Z"/>
      <path class="cls-3" d="M49.38,89.02l1.05,3.05h1.8l-.97-2.79c-.06-.18-.17-.34-.31-.47l-.82-.77,.82-.77c.14-.13,.25-.29,.31-.47l.84-2.4h-1.8l-.96,2.77c-.04,.11-.11,.21-.21,.28-.1,.07-.21,.11-.33,.11h-2.8v-3.15h-1.91v7.67h1.91v-3.44h2.85c.12,0,.24,.04,.33,.11,.1,.07,.17,.17,.21,.29Z"/>
      <path class="cls-3" d="M59.37,89.02l1.05,3.05h1.8l-.97-2.79c-.06-.18-.17-.34-.31-.47l-.82-.77,.82-.77c.14-.13,.25-.29,.31-.47l.84-2.4h-1.8l-.96,2.77c-.04,.11-.11,.21-.21,.28-.1,.07-.21,.11-.33,.1h-2.8v-3.15h-1.91v7.67h1.91v-3.44h2.85c.12,0,.24,.04,.33,.11,.1,.07,.17,.17,.2,.28Z"/>
      <path class="cls-3" d="M79.15,92.07h1.91v-7.67h-1.96l-4.31,5.62v-5.62h-1.91v7.67h1.98l4.29-5.59v5.59Z"/>
      <path class="cls-3" d="M76.23,82.84l-.11-.31h-1.16l.02,.04c.08,.23,.23,.43,.43,.57,.2,.14,.44,.22,.68,.22h1.77c.24,0,.48-.08,.68-.22,.2-.14,.35-.34,.43-.57l.02-.04h-1.16l-.11,.31h-1.49Z"/>
      <path class="cls-3" d="M23.65,97.42h2.66v6.58h1.91v-6.58h2.66v-1.09h-7.24v1.09Z"/>
      <path class="cls-3" d="M7.66,97.42h2.66v6.58h1.91v-6.58h2.66v-1.09H7.66v1.09Z"/>
      <path class="cls-3" d="M80.82,96.33h-1.91v7.67h1.91v-3.43h4.16v3.43h1.91v-7.67h-1.91v3.15h-4.16v-3.15Z"/>
      <path class="cls-3" d="M18.18,96.33c-.25,0-.49,.08-.69,.22-.2,.14-.35,.35-.43,.58l-2.29,6.87h1.43l.5-1.49h4.15l.48,1.49h2.01l-2.49-7.67h-2.67Zm-1.12,5.09l1.21-3.62c.04-.11,.11-.21,.21-.28,.1-.07,.21-.11,.33-.11h.38l1.3,4.01h-3.43Z"/>
      <path class="cls-3" d="M34.75,96.33c-.25,0-.49,.08-.69,.22-.2,.14-.35,.35-.43,.58l-2.3,6.87h1.43l.5-1.49h4.14l.48,1.49h2.01l-2.49-7.67h-2.66Zm-1.12,5.09l1.21-3.62c.04-.11,.11-.21,.21-.28,.1-.07,.21-.11,.33-.11h.38l1.3,4.01h-3.43Z"/>
      <path class="cls-3" d="M52.68,96.65l-.66,.61c-.12,.11-.21,.24-.28,.39-.06,.15-.1,.31-.1,.47v4.08c0,.16,.03,.32,.1,.47,.06,.15,.16,.28,.28,.39l.66,.62c.22,.2,.51,.32,.8,.32h5.31v-1.09h-4.55c-.15,0-.29-.06-.39-.15l-.12-.11c-.06-.05-.1-.12-.13-.19-.03-.07-.05-.15-.05-.23v-4.13c0-.08,.02-.16,.05-.23,.03-.07,.08-.14,.13-.19l.12-.11c.11-.1,.25-.15,.39-.15h4.55v-1.09h-5.31c-.3,0-.59,.12-.8,.32Z"/>
      <path class="cls-3" d="M48.46,96.65c-.22-.2-.51-.32-.8-.32h-6.13v7.67h1.91v-2.23h4.2c.3,0,.59-.11,.8-.32l.66-.61c.12-.11,.21-.24,.28-.39,.06-.15,.1-.31,.1-.47v-1.86c0-.16-.03-.32-.1-.47-.06-.15-.16-.28-.28-.39l-.65-.61Zm-.72,3.22c0,.08-.02,.16-.05,.23-.03,.07-.08,.14-.13,.19l-.27,.26c-.11,.1-.25,.15-.39,.15h-3.44v-3.27h3.44c.15,0,.29,.05,.39,.15l.27,.26c.06,.05,.1,.12,.13,.19,.03,.07,.05,.15,.05,.23v1.62Z"/>
      <path class="cls-3" d="M60.85,97.42h2.66v6.58h1.91v-6.58h2.66v-1.09h-7.24v1.09Z"/>
      <path class="cls-3" d="M71.91,96.33c-.25,0-.49,.08-.69,.22-.2,.14-.35,.35-.43,.58l-2.3,6.87h1.43l.5-1.49h4.15l.48,1.49h2.01l-2.49-7.67h-2.67Zm-1.12,5.09l1.21-3.62c.04-.11,.11-.21,.21-.28,.1-.07,.21-.11,.33-.11h.38l1.3,4.01h-3.43Z"/>
      <path class="cls-3" d="M94.61,102.51l.49,1.49h2.01l-2.49-7.67h-2.67c-.25,0-.49,.08-.69,.22-.2,.14-.35,.35-.43,.58l-2.3,6.87h1.43l.5-1.49h4.15Zm-2.58-4.71c.04-.11,.11-.21,.21-.28,.1-.07,.21-.11,.33-.11h.38l1.3,4.01h-3.44l1.22-3.62Z"/>
    </g>
  </g>
</svg>