<?xml version="1.0" encoding="UTF-8"?>
<svg id="Layer_1" data-name="Layer 1" xmlns="http://www.w3.org/2000/svg" xmlns:xlink="http://www.w3.org/1999/xlink" viewBox="0 0 75 75">
  <defs>
    <style>
      .cls-1 {
        fill: none;
      }

      .cls-2 {
        clip-path: url(#clippath);
      }

      .cls-3 {
        fill: #002809;
      }

      .cls-4 {
        fill: green;
      }

      .cls-5 {
        fill: #fff;
      }

      .cls-6 {
        fill: red;
      }
    </style>
    <clipPath id="clippath">
      <rect class="cls-1" width="74.83" height="75"/>
    </clipPath>
  </defs>
  <g class="cls-2">
    <g>
      <path class="cls-4" d="M51.11,10.62c-1.46-.66-3.32-.58-4.23,.82-1.24,2.37,.17,2.87-.6,3.46-.14,.09-.29,.22-.24,.46,.02,1.19-2.21,.26-2.88,.23-1.36,.06-2.72,.18-4.08,.26-.4,.02-.95,.05-1.05,.53-.16,.57-.39,1.11-.71,1.6-.38,.28-.83,.48-1.19,.8-.53,.4-.81,1.06-1.42,1.33-1.08,.55-1.75,.59-2.46,1.69-.92,.49-.54,.33-.96,1.14-.05,.09-.09,.19-.1,.3,0,.1,0,.21,.05,.31,.2,.79-.57,2.13-1.17,2.61-.56,.37-.82,.99-1.15,1.54-.45,.4-1.38,1.65-1.38,1.65,0,0-20.34-.09-20.83,.12-1.26,.54-4.33,1.36-1.68,2.13,.75-.02,1.34-.77,2-1.09,1.01-.63,2.24-.48,3.39-.51,5.56,.03,11.12,.01,16.68,.07,.4-.02,.32,.49,.46,.75,.6,1.08,.56,.41,1.56,.89,1.29,.21,1.06,.75,2.16-.36,.1-.18,0-.43,.2-.59,.24-.17,.35-.86,.72-.63-1.3,2.01-2.56,4.06-3.86,6.07-.82,1.02,.55,1.11,.07,1.53-.58,.54-1.35,.9-1.77,1.59-.17,.27-.46,.5-.7,.72-.06,.25-.28,.34-.46,.46-.32,.28-.08,.77-.52,1.07-.19,.19-.39,.37-.46,.66-.33,.54-.77,1.06-1.1,1.6-.28,.27-.1,.49-.37,.85-.7,.94-1.08,2.19-1.93,3.03-.35,.32,.18,.55-.23,.91-.48,.57-.85,1.21-1.23,1.83-.81-.84-1.49-1.79-2.02-2.82-4.46-9.09-5.69-14.92-17.61-14.22,3.96-7.6,9.94-14.51,19.14-14.66,.5-.05,.66-.16,.76-.66C21.91,6.69,32.56,8.1,37.42,0c3.38,5.63,9.57,6.66,13.7,10.61Z"/>
      <path class="cls-6" d="M74.83,33.39c-11.92-.7-13.15,5.13-17.61,14.22-3.17,6.17-11.43,8.79-17.33,4.96-.92-.54-1.71-.77-2.48-.74-.78-.03-1.56,.2-2.48,.74-.43,.28-.89,.53-1.36,.75,.1-.2,.21-.38,.35-.56,.24-.35,.52-.67,.78-1.01,.26-.26,.4-.65,.76-.8,.13-.06,.25-.15,.34-.26,.72-.71,1.73-1.98,2.44-2.69,.52-.64,1.19-1.16,1.63-1.87,.36-.53,.91-.89,1.14-1.51,.64-.45,.82-1.24,1.28-1.83,.2-.35,.26-.74,.53-1.06,.31-.34,.21-.82,.28-1.25,.01-.31,.02-.29,.31-.43,1.26-.75,1.81-2.73,2.27-4.06,.18-.6,.29-1.23,.53-1.81,.2-.43,.14-.85-.03-1.25-.11-.26-.13-.48,.09-.7,.32-.25,.26-.7,.46-1.06,.08-.38,.23-.74,.44-1.07,0,0,.79,0,1.45,.04-.22,1.33,1.11,1.71,2.11,2.03,.34,.12,.71,.14,1.06,.06,.35-.08,.67-.26,.92-.52,.57-.19,.98-.57,1.38-1.02,.53-.66,.44-1.62,.65-2.41,.14-1.06-.25-2.11-.02-3.15,.07-.74,.27-1.54-.21-2.18-.08-.93-.35-1.84-.8-2.66-.45-.82-1.06-1.54-1.8-2.11-.3-.32,.49-.22,.3-.6-.15-.41,.46-.23,.31-.7-.05-.15,0-.2,.15-.19,.46,.08,.35-.56,.8-.55,.56-.08,.55-.85,.48-1.48,.47,1.1,.8,2.25,1,3.43,.1,.5,.26,.61,.76,.66,9.19,.16,15.18,7.07,19.13,14.67Z"/>
      <path class="cls-6" d="M38.37,38.55c-.07,.26-.24,.49-.47,.64-.47,.41-.53,1.08-.76,1.63-.59,2.06-1.74,3.97-2.71,5.87-.75,1.09-1.27,3.24-2.55,3.85-.06,0-.12,.03-.18,.07s-.1,.08-.14,.13c-.04,.05-.06,.11-.08,.17-.01,.06-.02,.12,0,.19,.16,.22-.02,.33-.14,.45-.46,.4-1.03,.81-.7,1.49,.01,.44-.27,.84-.48,1.26-2.83,.33-5.75-.38-8.17-1.91,.12-.3,.28-.55,.62-.58,.4-.03-.12-1.27,.86-1.79,.58-.35,1.03-.88,1.31-1.5,1.26-1.23,2.53-2.47,3.55-3.92,.48-.71,1.32-1.09,1.77-1.83,.26-.51,.88-.53,1.18-1,.39-.6,.82-1.17,1.29-1.7,.31-.38,.74,.08,1.09,.18,.58,.03,.46,.11,.7-.41,.15-.2-.09-.22,0-.42,.61-1.15,1.58-2.08,2.33-3.15,.46-.59,.77-1.4,1.43-1.8,.4,.24,.49,.54,.56,.96,.49,1.03-.06,2.13-.31,3.15Z"/>
      <path class="cls-6" d="M48.59,29.32h-1.01c.28-.34,.47-.69,.8-.95,.2,.28,.13,.62,.21,.95Z"/>
      <path class="cls-5" d="M54.71,25.12c.07-.74,.27-1.54-.21-2.18-.08-.93-.35-1.84-.8-2.66-.45-.82-1.06-1.54-1.8-2.11-.3-.32,.49-.22,.3-.6-.15-.41,.46-.23,.31-.7-.05-.15,0-.2,.15-.19,.46,.08,.35-.56,.8-.55,.56-.08,.55-.85,.48-1.48-.66-1.52-1.61-2.9-2.82-4.04-1.46-.66-3.32-.58-4.23,.82-1.24,2.37,.17,2.87-.6,3.46-.14,.09-.29,.22-.24,.46,.02,1.19-2.21,.26-2.88,.23-1.36,.05-2.72,.18-4.08,.26-.4,.02-.95,.05-1.05,.53-.16,.57-.39,1.11-.71,1.6-.38,.28-.83,.49-1.19,.8-.53,.4-.81,1.06-1.42,1.33-1.08,.56-1.75,.59-2.46,1.69-.92,.49-.54,.33-.96,1.14-.05,.09-.09,.19-.1,.3s0,.21,.05,.31c.2,.79-.57,2.13-1.17,2.61-.56,.37-.82,.99-1.15,1.54-.45,.4-1.38,1.64-1.38,1.64,0,0-20.34-.09-20.83,.12-1.26,.54-4.33,1.36-1.68,2.13,.75-.02,1.34-.77,2-1.09,1.01-.63,2.24-.48,3.39-.51,5.56,.03,11.12,.01,16.68,.07,.4-.02,.32,.49,.46,.75,.6,1.08,.56,.41,1.56,.89,1.29,.21,1.06,.75,2.16-.36,.1-.18,0-.43,.2-.59,.24-.17,.35-.86,.72-.63-1.3,2.01-2.56,4.06-3.86,6.07-.82,1.01,.55,1.11,.07,1.53-.58,.54-1.35,.9-1.77,1.59-.17,.28-.46,.5-.7,.72-.06,.25-.28,.33-.46,.46-.32,.28-.08,.77-.52,1.07-.19,.19-.39,.37-.46,.66-.33,.54-.77,1.06-1.1,1.6-.28,.26-.1,.49-.37,.85-.7,.94-1.08,2.19-1.93,3.03-.35,.32,.18,.55-.23,.91-.48,.57-.85,1.21-1.23,1.83,.71,.73,1.5,1.38,2.36,1.92,.12-.3,.28-.55,.62-.58,.4-.03-.12-1.27,.86-1.79,.58-.36,1.03-.88,1.31-1.5,1.26-1.23,2.52-2.46,3.54-3.91,.48-.72,1.32-1.09,1.77-1.84,.26-.51,.88-.53,1.18-1,.39-.6,.82-1.17,1.29-1.7,.31-.38,.74,.08,1.09,.17,.58,.03,.46,.11,.7-.4,.15-.2-.09-.22,0-.42,.61-1.15,1.58-2.08,2.33-3.15,.46-.6,.77-1.4,1.43-1.81,.4,.24,.49,.54,.56,.96,.48,1.02-.07,2.13-.32,3.14-.07,.26-.24,.49-.47,.64-.47,.41-.53,1.08-.76,1.63-.59,2.06-1.73,3.98-2.71,5.88-.75,1.09-1.27,3.24-2.55,3.85-.06,.01-.12,.03-.18,.07-.05,.03-.1,.08-.14,.13-.04,.05-.06,.11-.08,.17-.01,.06-.02,.12,0,.19,.16,.22-.02,.33-.14,.45-.46,.4-1.03,.81-.7,1.48,.01,.44-.27,.84-.48,1.26,1.18-.14,2.33-.46,3.41-.96,.1-.2,.21-.38,.35-.56,.24-.35,.52-.67,.78-1.01,.26-.26,.4-.65,.76-.8,.13-.06,.25-.15,.34-.26,.72-.71,1.73-1.98,2.44-2.69,.52-.64,1.19-1.16,1.63-1.87,.36-.53,.91-.89,1.14-1.51,.64-.45,.82-1.24,1.28-1.83,.2-.35,.26-.74,.53-1.06,.31-.34,.21-.82,.28-1.24,.01-.31,.02-.29,.31-.43,1.26-.75,1.81-2.73,2.27-4.06,.18-.6,.29-1.23,.53-1.81,.2-.43,.14-.85-.03-1.25-.11-.26-.13-.48,.09-.7,.32-.25,.26-.7,.46-1.05,.08-.38,.23-.74,.44-1.07,0,0,.79,0,1.45,.04-.22,1.33,1.11,1.71,2.11,2.03,.34,.12,.71,.14,1.06,.06,.35-.08,.67-.26,.92-.52,.57-.19,.98-.57,1.38-1.02,.53-.66,.44-1.62,.65-2.42,.15-1.05-.25-2.1-.02-3.14Zm-7.12,4.2c.28-.34,.47-.69,.8-.95,.2,.28,.13,.62,.21,.95h-1.01Z"/>
      <path class="cls-3" d="M16.62,66.31h1.32l.73-2.14c.03-.08,.08-.15,.15-.2,.07-.05,.16-.08,.24-.08h1.43c.09,0,.17,.03,.24,.08,.07,.05,.12,.12,.15,.2l.74,2.14h1.31l-.76-2.19c-.05-.13-.12-.25-.23-.35l-.28-.26,.28-.26c.1-.1,.18-.21,.23-.35l.76-2.19h-1.31l-.72,2.1c-.03,.08-.08,.15-.15,.2-.07,.05-.16,.08-.24,.08h-1.48c-.09,0-.17-.03-.24-.08-.07-.05-.12-.12-.15-.2l-.72-2.1h-1.3l.76,2.19c.05,.13,.12,.25,.22,.35l.28,.26-.28,.26c-.1,.1-.18,.21-.22,.35l-.76,2.19Z"/>
      <path class="cls-3" d="M46.53,66.31h4.35v-.79h-3.4c-.06,0-.11-.01-.16-.03-.05-.02-.1-.05-.14-.09-.04-.04-.07-.08-.09-.14-.02-.05-.03-.11-.03-.16v-1.26h2.64l.27-.79h-2.92v-1.03c0-.06,.01-.11,.03-.17,.02-.05,.06-.1,.1-.14l.09-.08c.08-.07,.18-.11,.28-.11h3.31v-.79h-3.87c-.22,0-.43,.08-.58,.23l-.48,.45c-.09,.08-.15,.18-.2,.28-.05,.11-.07,.22-.07,.34v3.43c0,.23,.1,.44,.26,.6,.16,.16,.38,.25,.6,.25Z"/>
      <path class="cls-3" d="M29.92,65.01v-2.97c0-.12-.02-.23-.07-.34-.05-.11-.12-.2-.2-.29l-.48-.45c-.16-.15-.37-.23-.58-.23h-3.29c-.22,0-.43,.08-.58,.23l-.48,.45c-.09,.08-.15,.18-.2,.29-.05,.11-.07,.22-.07,.34v2.97c0,.12,.02,.23,.07,.34,.05,.11,.12,.21,.2,.29l.48,.45c.16,.15,.37,.23,.58,.23h3.29c.22,0,.43-.08,.58-.23l.48-.45c.09-.08,.16-.18,.2-.29,.05-.11,.07-.23,.07-.34Zm-1.39,.01c0,.06-.01,.11-.03,.17-.02,.05-.06,.1-.1,.14l-.09,.08c-.08,.07-.18,.11-.28,.11h-2.17c-.11,0-.21-.04-.28-.11l-.09-.08s-.07-.09-.1-.14c-.02-.05-.03-.11-.03-.17v-3c0-.06,.01-.11,.03-.17,.02-.05,.06-.1,.1-.14l.09-.08c.08-.07,.18-.11,.29-.11h2.16c.11,0,.21,.04,.28,.11l.09,.08s.07,.09,.1,.14c.02,.05,.03,.11,.03,.17v3Z"/>
      <path class="cls-3" d="M35.23,64.09l.76,2.22h1.31l-.71-2.03c-.05-.13-.12-.25-.22-.35l-.6-.56,.6-.56c.1-.1,.18-.21,.22-.35l.61-1.75h-1.31l-.7,2.01c-.03,.08-.08,.15-.15,.2-.07,.05-.16,.08-.24,.08h-2.04v-2.29h-1.39v5.59h1.39v-2.51h2.07c.09,0,.17,.03,.24,.08,.07,.05,.12,.12,.15,.21Z"/>
      <path class="cls-3" d="M42.51,64.09l.77,2.22h1.31l-.71-2.03c-.05-.13-.12-.25-.22-.35l-.6-.56,.6-.56c.1-.1,.18-.21,.22-.35l.61-1.75h-1.31l-.7,2.01c-.03,.08-.08,.15-.15,.2-.07,.05-.16,.08-.24,.08h-2.04v-2.29h-1.39v5.59h1.39v-2.51h2.07c.09,0,.17,.03,.24,.08,.07,.05,.12,.12,.15,.21Z"/>
      <path class="cls-3" d="M56.91,66.31h1.39v-5.59h-1.42l-3.14,4.09v-4.09h-1.39v5.59h1.44l3.12-4.07v4.07Z"/>
      <path class="cls-3" d="M54.78,59.59l-.08-.23h-.85v.03c.07,.17,.18,.31,.33,.42,.15,.1,.32,.16,.5,.16h1.29c.18,0,.35-.06,.5-.16,.15-.1,.25-.25,.31-.42v-.03s-.83,0-.83,0l-.08,.23h-1.08Z"/>
      <path class="cls-3" d="M16.49,70.21h1.94v4.79h1.39v-4.79h1.94v-.79h-5.27v.79Z"/>
      <path class="cls-3" d="M4.85,70.21h1.94v4.79h1.39v-4.79h1.94v-.79H4.85v.79Z"/>
      <path class="cls-3" d="M58.12,69.41h-1.39v5.59h1.39v-2.5h3.03v2.5h1.39v-5.59h-1.39v2.29h-3.03v-2.29Z"/>
      <path class="cls-3" d="M12.51,69.41c-.18,0-.36,.06-.5,.16-.15,.11-.26,.25-.31,.42l-1.67,5h1.04l.36-1.09h3.02l.35,1.09h1.46l-1.82-5.59h-1.94Zm-.82,3.71l.88-2.64c.03-.08,.08-.15,.15-.21,.07-.05,.16-.08,.24-.08h.28l.95,2.92h-2.5Z"/>
      <path class="cls-3" d="M24.58,69.41c-.18,0-.36,.06-.5,.16-.15,.11-.26,.25-.31,.42l-1.67,5h1.04l.36-1.09h3.02l.35,1.09h1.46l-1.81-5.59h-1.94Zm-.82,3.71l.88-2.64c.03-.08,.08-.15,.15-.21,.07-.05,.16-.08,.24-.08h.28l.95,2.92h-2.5Z"/>
      <path class="cls-3" d="M37.64,69.65l-.48,.45c-.09,.08-.15,.18-.2,.29-.05,.11-.07,.22-.07,.34v2.97c0,.12,.02,.23,.07,.34,.05,.11,.12,.21,.2,.29l.48,.45c.16,.15,.37,.23,.59,.23h3.87v-.79h-3.31c-.11,0-.21-.04-.28-.11l-.09-.08s-.07-.09-.1-.14c-.02-.05-.03-.11-.03-.17v-3.01c0-.06,.01-.11,.03-.17,.02-.05,.06-.1,.1-.14l.09-.08c.08-.07,.18-.11,.28-.11h3.31v-.79h-3.87c-.22,0-.43,.09-.59,.24Z"/>
      <path class="cls-3" d="M34.56,69.65c-.16-.15-.37-.23-.59-.23h-4.46v5.59h1.39v-1.62h3.06c.22,0,.43-.08,.59-.23l.48-.45c.09-.08,.15-.18,.2-.29,.05-.11,.07-.22,.07-.34v-1.35c0-.12-.02-.23-.07-.34-.05-.11-.12-.21-.2-.29l-.47-.45Zm-.53,2.34c0,.06-.01,.11-.03,.17-.02,.05-.06,.1-.1,.14l-.2,.19c-.08,.07-.18,.11-.28,.11h-2.51v-2.38h2.51c.11,0,.21,.04,.28,.11l.2,.19s.07,.09,.1,.14c.02,.05,.03,.11,.03,.17v1.18Z"/>
      <path class="cls-3" d="M43.58,70.21h1.94v4.79h1.39v-4.79h1.94v-.79h-5.27v.79Z"/>
      <path class="cls-3" d="M51.64,69.41c-.18,0-.36,.06-.5,.16-.15,.11-.25,.25-.31,.42l-1.67,5h1.04l.36-1.09h3.02l.35,1.09h1.47l-1.81-5.59h-1.94Zm-.82,3.71l.88-2.64c.03-.08,.08-.16,.15-.21,.07-.05,.16-.08,.24-.08h.27l.95,2.92h-2.5Z"/>
      <path class="cls-3" d="M68.17,73.91l.35,1.09h1.46l-1.81-5.59h-1.94c-.18,0-.36,.06-.5,.16-.15,.11-.25,.25-.31,.42l-1.67,5h1.04l.36-1.09h3.02Zm-1.88-3.43c.03-.08,.08-.16,.15-.21,.07-.05,.16-.08,.24-.08h.28l.95,2.92h-2.51l.89-2.63Z"/>
    </g>
  </g>
</svg>