<svg width="612" height="375" viewBox="0 0 612 375" fill="none" xmlns="http://www.w3.org/2000/svg">
    <g filter="url(#filter0_f_275_3800)">
        <path
            d="M129.367 200.852L40.4414 202.712L98.8653 244.831L182.3 288.323L258.222 334.633L354.314 295.369L455.4 259.799L571.87 235.696L542.146 208.185L129.367 200.852Z"
            fill="#002809" fill-opacity="0.15" />
    </g>
    <path
        d="M43.5996 183.144L136.844 152.27L250.95 141.215L365.466 126.338L431.043 153.473L518.67 179.637L567.883 215.69L472.419 249.093L347.767 280.836L255.213 326.668L195.001 271.92L101.148 237.563L43.5996 183.144Z"
        fill="#E3DFD6" />
    <path
        d="M141.826 220.739C166.449 225.526 174.621 218.84 183.689 206.23C192.758 193.619 214.774 195.731 224.43 198.558C227.445 199.439 230.622 199.612 233.714 199.065C236.807 198.517 239.731 197.263 242.26 195.401C261.3 181.362 307.089 146.986 308.535 139.738C308.812 138.407 306.551 136.466 302.521 134.237L250.963 140.942L136.849 151.992L43.5701 182.9L101.14 237.371C101.14 237.371 117.229 215.951 141.826 220.739Z"
        fill="#B7CEEA" />
    <path
        d="M546.332 223.089L547.069 222.828L548.618 215.439L494.015 203.968L517.874 185.195L530.283 187.806L518.814 179.396L494.816 172.223L321.063 135.718L319.429 143.5L507.729 183.061L483.87 201.834L304.837 164.22L303.204 172.002L475.719 208.248L446.317 231.378L264.701 193.215L263.061 201.004L438.173 237.792L407.852 261.65L408.648 262.661L225.608 224.203L223.968 231.985L396.623 268.261L419.823 262.354L448.319 239.926L479.508 246.478L494.016 241.403L456.469 233.512L485.864 210.382L546.332 223.089Z"
        fill="white" />
    <path
        d="M319.227 237.734L318.398 238.328L249.371 321.203L255.263 326.561L272.876 317.829L329.314 250.07L446.654 166.006L439.205 155.61L435.43 154.483L319.227 237.734Z"
        fill="#FBB03B" />
    <path
        d="M308.542 168.027L309.103 167.585L330.613 139.509L321.668 132.658L301.029 159.608L222.509 221.193L217.152 256.573L174.91 257.456L175.056 264.446L186.09 268.49L221.296 267.754L318.933 295.014L322.632 293.18L324.914 284.993L228.323 258.023L232.977 227.297L308.542 168.027Z"
        fill="#FFE066" />
    <path opacity="0.05"
        d="M137.487 151.436L205.317 202.412L296.356 235.589L347.911 281.021L472.245 249.064L426.64 199.311L323.707 170.966L251.306 140.322L137.487 151.436Z"
        fill="black" />
    <path opacity="0.05"
        d="M431.212 152.615L518.947 178.941L426.878 199.136L296.107 235.368L194.896 271.733L100.926 237.165L204.734 202.257L337.244 174.595L431.212 152.615Z"
        fill="black" />
    <path
        d="M364.312 135.169L427.764 161.422L428.172 161.592L428.592 161.716L514.792 187.459L549.619 212.966L469.927 240.848L345.638 272.498L344.762 272.721L343.942 273.122L256.654 316.347L200.798 265.555L199.549 264.422L197.966 263.839L105.775 230.089L59.9546 186.781L138.638 160.721L251.784 149.746L251.923 149.743L252.063 149.741L364.312 135.169ZM365.453 126.338L250.95 141.222L136.844 152.263L43.5996 183.144L101.148 237.563L195.001 271.92L255.213 326.668L347.767 280.836L472.419 249.093L567.883 215.69L518.67 179.637L431.043 153.473L365.467 126.371L365.453 126.338Z"
        fill="white" />
    <path
        d="M472.42 249.108L347.769 280.904L255.217 326.815L195.003 271.966L101.148 237.542L43.5977 183.021L43.6878 187.332L101.238 241.852L192.837 274.227L255.307 331.125L347.86 285.214L472.51 253.418L567.973 219.957L567.883 215.647L472.42 249.108Z"
        fill="#E3DFD6" />
    <g opacity="0.5" filter="url(#filter1_f_275_3800)">
        <ellipse cx="292.589" cy="220.014" rx="12.6784" ry="2.11306" fill="#19251E" />
    </g>
    <path
        d="M292.221 0.959961C229.196 0.959961 214.672 52.6103 214.672 80.2562C214.672 138.485 292.221 220.183 292.221 220.183C292.221 220.183 369.764 138.478 369.764 80.2562C369.764 52.6103 355.275 0.959961 292.221 0.959961ZM292.221 116.073C284.804 116.074 277.553 113.876 271.386 109.756C265.218 105.636 260.41 99.7803 257.571 92.9282C254.732 86.0761 253.988 78.5359 255.434 71.2612C256.88 63.9865 260.451 57.304 265.695 52.0589C270.94 46.8137 277.621 43.2415 284.896 41.794C292.17 40.3465 299.711 41.0887 306.563 43.9268C313.416 46.7648 319.273 51.5713 323.394 57.7382C327.515 63.9052 329.714 71.1557 329.714 78.5727C329.714 88.5171 325.764 98.0543 318.733 105.087C311.702 112.119 302.166 116.071 292.221 116.073Z"
        fill="#FF0000" />
    <path
        d="M292.221 4.848C351.232 4.848 367.707 56.7589 369.573 85.2219C369.693 83.5525 369.764 81.8973 369.764 80.2914C369.764 52.6103 355.275 0.959961 292.221 0.959961C229.167 0.959961 214.672 52.6103 214.672 80.2562C214.672 81.8973 214.742 83.5525 214.862 85.1866C216.736 56.7589 233.21 4.848 292.221 4.848Z"
        fill="#FF9B9B" />
    <path
        d="M292.222 41.2064C301.667 41.2088 310.762 44.7756 317.691 51.1937C324.62 57.6119 328.871 66.4086 329.595 75.8254C329.666 74.8675 329.715 73.9096 329.715 72.9376C329.783 67.9702 328.863 63.0389 327.01 58.43C325.156 53.821 322.405 49.6263 318.916 46.0896C315.427 42.5528 311.271 39.7445 306.688 37.8277C302.105 35.9109 297.186 34.9238 292.219 34.9238C287.251 34.9238 282.332 35.9109 277.749 37.8277C273.166 39.7445 269.01 42.5528 265.521 46.0896C262.033 49.6263 259.281 53.821 257.428 58.43C255.574 63.0389 254.654 67.9702 254.722 72.9376C254.722 73.9096 254.772 74.8675 254.842 75.8254C255.566 66.4074 259.818 57.6097 266.749 51.1913C273.679 44.773 282.776 41.207 292.222 41.2064Z"
        fill="#C50404" />
    <defs>
        <filter id="filter0_f_275_3800" x="0.441406" y="160.852" width="611.43" height="213.781"
            filterUnits="userSpaceOnUse" color-interpolation-filters="sRGB">
            <feFlood flood-opacity="0" result="BackgroundImageFix" />
            <feBlend mode="normal" in="SourceGraphic" in2="BackgroundImageFix" result="shape" />
            <feGaussianBlur stdDeviation="20" result="effect1_foregroundBlur_275_3800" />
        </filter>
        <filter id="filter1_f_275_3800" x="264.91" y="202.901" width="55.3574" height="34.2266"
            filterUnits="userSpaceOnUse" color-interpolation-filters="sRGB">
            <feFlood flood-opacity="0" result="BackgroundImageFix" />
            <feBlend mode="normal" in="SourceGraphic" in2="BackgroundImageFix" result="shape" />
            <feGaussianBlur stdDeviation="7.5" result="effect1_foregroundBlur_275_3800" />
        </filter>
    </defs>
</svg>