<svg width="10" height="12" viewBox="0 0 10 12" fill="none" xmlns="http://www.w3.org/2000/svg">
<path d="M9.76453 6.544C9.41246 6.13048 8.8078 6.09435 8.41363 6.4637L5.96056 8.7561V1.00368C5.96056 0.449649 5.53194 0 5.00383 0C4.47571 0 4.04709 0.449649 4.04709 1.00368V8.7561L1.59403 6.4637C1.19985 6.09435 0.595199 6.13048 0.243121 6.544C-0.108957 6.95751 -0.0745144 7.59184 0.31966 7.96119L4.36473 11.7471C4.36473 11.7471 4.39917 11.7752 4.41831 11.7872C4.44127 11.8073 4.46423 11.8234 4.48719 11.8394C4.51398 11.8595 4.5446 11.8755 4.57521 11.8876C4.59817 11.8996 4.62113 11.9117 4.64792 11.9237C4.68236 11.9398 4.71681 11.9478 4.75125 11.9599C4.77421 11.9679 4.79717 11.9759 4.82013 11.9799C4.88137 11.992 4.93877 12 5 12C5.06123 12 5.12246 11.992 5.17987 11.9799C5.20283 11.9759 5.22579 11.9679 5.24875 11.9599C5.28319 11.9518 5.32146 11.9398 5.35208 11.9237C5.37887 11.9117 5.40183 11.8996 5.42479 11.8876C5.45541 11.8715 5.48219 11.8555 5.51281 11.8394C5.53577 11.8234 5.55873 11.8033 5.58169 11.7872C5.60083 11.7712 5.61996 11.7631 5.63527 11.7471L9.68034 7.96119C10.0745 7.59184 10.109 6.95751 9.75688 6.544H9.76453Z" fill="white"/>
</svg>
