<svg width="543" height="421" viewBox="0 0 543 421" fill="none" xmlns="http://www.w3.org/2000/svg">
<path opacity="0.05" d="M21.4674 421V389.488C64.8233 373.522 98.9186 348.522 123.753 314.49C148.588 280.036 161.006 244.323 161.006 207.349C161.006 199.366 159.743 193.484 157.217 189.702C155.955 187.181 154.271 185.921 152.166 185.921C150.062 185.921 146.694 187.601 142.064 190.963C128.594 200.626 111.757 205.458 91.5523 205.458C67.1384 205.458 45.6709 195.794 27.15 176.467C9.05 156.72 0 133.401 0 106.51C0 77.9396 10.5233 53.1502 31.5698 32.1422C52.6163 10.7141 78.5035 0 109.231 0C144.169 0 174.476 14.4955 200.152 43.4865C226.25 72.0574 239.299 110.712 239.299 159.451C239.299 216.172 221.83 267.011 186.893 311.969C151.956 356.926 96.8139 393.269 21.4674 421ZM325.169 421V389.488C368.524 373.522 402.62 348.522 427.455 314.49C452.29 280.036 464.707 244.323 464.707 207.349C464.707 199.366 463.444 193.484 460.919 189.702C459.656 187.181 457.972 185.921 455.867 185.921C453.763 185.921 450.395 187.601 445.765 190.963C432.295 200.626 415.458 205.458 395.253 205.458C370.84 205.458 349.372 195.794 330.851 176.467C312.751 156.72 303.701 133.401 303.701 106.51C303.701 77.9396 314.224 53.1502 335.271 32.1422C356.317 10.7141 382.205 0 412.933 0C447.87 0 478.177 14.4955 503.853 43.4865C529.951 72.0574 543 110.712 543 159.451C543 216.172 525.531 267.011 490.594 311.969C455.657 356.926 400.515 393.269 325.169 421Z" fill="white"/>
</svg>
