<svg width="145" height="40" viewBox="0 0 145 40" fill="none" xmlns="http://www.w3.org/2000/svg">
<g clip-path="url(#clip0_1669_44554)">
<path d="M49.7425 16.5036C49.4841 16.8285 49.1518 17.0796 48.7457 17.2494C48.3395 17.4193 47.9039 17.5005 47.4387 17.5005C46.9735 17.5005 46.523 17.4266 46.1317 17.279C45.7403 17.1313 45.408 16.9245 45.12 16.6439C44.8394 16.3707 44.6179 16.0384 44.4629 15.6544C44.3078 15.2705 44.2266 14.8422 44.2266 14.3696C44.2266 13.9339 44.3004 13.5278 44.4555 13.1438C44.6032 12.7598 44.8173 12.4349 45.0905 12.1543C45.3637 11.8737 45.6812 11.6522 46.0505 11.4898C46.4197 11.3273 46.8258 11.2461 47.2688 11.2461C47.7488 11.2461 48.1919 11.3052 48.5906 11.4233C48.9967 11.5415 49.3364 11.7482 49.6244 12.0288L49.1296 12.8706C48.8712 12.6417 48.598 12.4792 48.31 12.3833C48.022 12.2873 47.7193 12.243 47.4091 12.243C47.1433 12.243 46.8849 12.2946 46.6412 12.398C46.3901 12.5014 46.176 12.6417 45.984 12.8337C45.792 13.0183 45.6443 13.2472 45.5336 13.5056C45.4228 13.7715 45.3711 14.0595 45.3711 14.377C45.3711 14.6945 45.4302 14.9972 45.5409 15.2631C45.6591 15.5215 45.8142 15.7504 46.0061 15.935C46.1981 16.1196 46.427 16.2599 46.6929 16.3633C46.9513 16.4593 47.2319 16.511 47.5273 16.511C47.8891 16.511 48.214 16.4372 48.502 16.2969C48.79 16.1566 49.0337 15.972 49.2404 15.7357L49.7499 16.5036H49.7425Z" fill="#1B0A40"/>
<path d="M51.1172 17.3675V11.3789H52.1879V15.8389L55.6437 11.3789H56.707V17.3675H55.6437V12.9148L52.1879 17.3675H51.1172Z" fill="#1B0A40"/>
<path d="M63.7503 16.5036C63.4919 16.8285 63.1596 17.0796 62.7535 17.2494C62.3473 17.4193 61.9117 17.5005 61.4465 17.5005C60.9813 17.5005 60.5308 17.4266 60.1395 17.279C59.7481 17.1313 59.4158 16.9245 59.1279 16.6439C58.8473 16.3707 58.6257 16.0384 58.4707 15.6544C58.3156 15.2705 58.2344 14.8422 58.2344 14.3696C58.2344 13.9339 58.3082 13.5278 58.4633 13.1438C58.6183 12.7598 58.8251 12.4349 59.0983 12.1543C59.3715 11.8737 59.6891 11.6522 60.0583 11.4898C60.4275 11.3273 60.8336 11.2461 61.2766 11.2461C61.7566 11.2461 62.1997 11.3052 62.5984 11.4233C63.0045 11.5415 63.3442 11.7482 63.6322 12.0288L63.1375 12.8706C62.879 12.6417 62.6058 12.4792 62.3178 12.3833C62.0298 12.2873 61.7271 12.243 61.4169 12.243C61.1511 12.243 60.8927 12.2946 60.649 12.398C60.4053 12.5014 60.1838 12.6417 59.9918 12.8337C59.7998 13.0183 59.6521 13.2472 59.5414 13.5056C59.4306 13.7715 59.3789 14.0595 59.3789 14.377C59.3789 14.6945 59.438 14.9972 59.5488 15.2631C59.6669 15.5215 59.822 15.7504 60.014 15.935C60.2059 16.1196 60.4349 16.2599 60.7007 16.3633C60.9591 16.4593 61.2397 16.511 61.5351 16.511C61.8969 16.511 62.2218 16.4372 62.5098 16.2969C62.7978 16.1566 63.0415 15.972 63.2482 15.7357L63.7577 16.5036H63.7503Z" fill="#1B0A40"/>
<path d="M64.2969 11.3789H69.7464V12.4496H67.5533V17.3675H66.49V12.4496H64.2969V11.3789Z" fill="#1B0A40"/>
<path d="M75.7694 16.7178C75.474 16.9836 75.127 17.183 74.7282 17.3085C74.3221 17.434 73.9234 17.5005 73.5246 17.5005C73.0373 17.5005 72.5942 17.4266 72.2028 17.279C71.8115 17.1313 71.4718 16.9245 71.1912 16.6439C70.9106 16.3707 70.6965 16.0384 70.5414 15.6544C70.3937 15.2705 70.3125 14.8422 70.3125 14.3696C70.3125 13.9339 70.379 13.5278 70.5193 13.1438C70.6596 12.7598 70.8589 12.4349 71.1174 12.1543C71.3832 11.8737 71.7007 11.6522 72.0847 11.4898C72.4687 11.3273 72.9043 11.2461 73.3991 11.2461C73.7831 11.2461 74.1449 11.3126 74.4846 11.4455C74.8242 11.5784 75.1196 11.763 75.3706 12.0067C75.6217 12.243 75.8137 12.5383 75.9614 12.8706C76.1091 13.2103 76.1829 13.5795 76.1829 13.9856C76.1829 14.2588 76.1608 14.5025 76.1165 14.7019H71.5087C71.553 15.2705 71.7672 15.7135 72.1512 16.0236C72.5351 16.3412 73.0151 16.4962 73.5984 16.4962C73.9898 16.4962 74.3443 16.4372 74.6618 16.319C74.9793 16.2009 75.2377 16.0532 75.4371 15.876L75.7694 16.7178ZM73.3474 12.243C72.7936 12.243 72.3579 12.3906 72.033 12.6934C71.7081 12.9961 71.5087 13.3801 71.4497 13.8379H75.0827C75.0531 13.3432 74.8907 12.9518 74.5879 12.6712C74.2852 12.3833 73.8717 12.243 73.3474 12.243Z" fill="#1B0A40"/>
<path d="M77.6328 11.3789H78.6075L80.9114 14.3473L83.0897 11.3789H84.0349V17.3675H82.9716V13.0034L80.8966 15.7872H80.8597L78.7035 13.0034V17.3675H77.6328V11.3789Z" fill="#1B0A40"/>
<path d="M86.0051 11.7925C86.271 11.6227 86.5737 11.4898 86.9208 11.3938C87.2678 11.2978 87.6223 11.2461 87.9988 11.2461C88.848 11.2461 89.4388 11.4602 89.7858 11.8811C90.1255 12.3094 90.2953 12.9075 90.2953 13.6903V17.3602H89.2985V16.5848C89.1212 16.8138 88.8776 17.0205 88.5822 17.1903C88.2794 17.3676 87.8807 17.4488 87.386 17.4488C86.8321 17.4488 86.3891 17.2863 86.0568 16.9614C85.7171 16.6365 85.5547 16.1861 85.5547 15.5954C85.5547 15.2926 85.6138 15.0268 85.7245 14.7831C85.8353 14.5468 85.9977 14.3401 86.1971 14.185C86.3965 14.0225 86.6402 13.9044 86.9134 13.8158C87.194 13.7346 87.4893 13.6903 87.8142 13.6903C88.0431 13.6903 88.3016 13.7198 88.5822 13.7715C88.8628 13.8232 89.1065 13.9265 89.3058 14.0742C89.3058 13.801 89.2911 13.5426 89.2615 13.3063C89.232 13.07 89.1655 12.8706 89.0769 12.7082C88.9809 12.5457 88.848 12.4128 88.6634 12.3242C88.4788 12.2282 88.2425 12.1839 87.9545 12.1839C87.5853 12.1839 87.2752 12.2282 87.0315 12.3094C86.7878 12.3906 86.5442 12.5014 86.3079 12.6195L86.0273 11.7704L86.0051 11.7925ZM87.7478 16.5036C88.1391 16.5036 88.4567 16.4224 88.7003 16.2526C88.944 16.0827 89.1434 15.9129 89.2911 15.7357V14.9751C88.9219 14.7093 88.4714 14.5764 87.9472 14.5764C87.7847 14.5764 87.6296 14.5985 87.4746 14.6354C87.3195 14.6723 87.1792 14.7388 87.0611 14.8126C86.9429 14.8939 86.8469 14.9972 86.7731 15.1154C86.6992 15.2409 86.6623 15.3886 86.6623 15.5584C86.6623 15.8464 86.7583 16.068 86.9429 16.2452C87.1275 16.4224 87.3933 16.5036 87.7404 16.5036" fill="#1B0A40"/>
<path d="M100.283 8.75037C100.098 8.99404 99.8916 9.17126 99.6775 9.26726C99.4633 9.36325 99.227 9.43709 98.9686 9.48878C98.7175 9.54047 98.4443 9.59216 98.1563 9.64385C97.8684 9.69554 97.5582 9.79153 97.2333 9.9466C96.9527 10.0721 96.7164 10.242 96.5318 10.4561C96.3472 10.6702 96.1995 10.9065 96.0888 11.1724C95.9706 11.4382 95.8894 11.7114 95.8303 11.9994C95.7713 12.2874 95.7343 12.5754 95.7196 12.8486H95.7491C95.8451 12.6344 95.978 12.4424 96.1405 12.28C96.3029 12.1102 96.4875 11.9625 96.7017 11.8443C96.9084 11.7188 97.1299 11.6228 97.3736 11.5563C97.6099 11.4899 97.861 11.453 98.1194 11.453C98.5477 11.453 98.9317 11.5268 99.2787 11.6671C99.6258 11.8074 99.9138 12.0142 100.157 12.2726C100.401 12.5311 100.578 12.8486 100.711 13.2104C100.837 13.5722 100.903 13.9784 100.903 14.4362C100.903 14.8497 100.829 15.2484 100.674 15.6176C100.527 15.9868 100.313 16.3191 100.039 16.5923C99.7661 16.8729 99.4412 17.0945 99.0646 17.2569C98.688 17.4194 98.2745 17.5006 97.8241 17.5006C97.3367 17.5006 96.8936 17.412 96.5097 17.2422C96.1183 17.0649 95.786 16.8213 95.5128 16.5037C95.2396 16.1862 95.0255 15.7949 94.8778 15.3297C94.7301 14.8718 94.6562 14.3476 94.6562 13.7716C94.6562 13.3285 94.6858 12.8633 94.7375 12.3834C94.7892 11.896 94.8999 11.4382 95.055 10.9952C95.2174 10.5521 95.439 10.1534 95.727 9.79153C96.0149 9.42971 96.3989 9.14911 96.8789 8.94974C97.2259 8.79467 97.5435 8.69868 97.8241 8.64699C98.112 8.5953 98.3631 8.55099 98.592 8.51407C98.8209 8.47715 99.0277 8.41808 99.2123 8.34424C99.3969 8.2704 99.5667 8.1301 99.7144 7.92334L100.29 8.75775L100.283 8.75037ZM95.786 13.971C95.786 14.3623 95.8377 14.7094 95.9337 15.0195C96.0297 15.3297 96.17 15.5955 96.3472 15.8096C96.5244 16.0311 96.7386 16.1936 96.9823 16.3191C97.2333 16.4373 97.4992 16.4964 97.7945 16.4964C98.0899 16.4964 98.3557 16.4447 98.592 16.3339C98.8283 16.2305 99.0351 16.0828 99.2123 15.8982C99.3821 15.7136 99.5224 15.5069 99.6184 15.2632C99.7144 15.0195 99.7661 14.7537 99.7661 14.4731C99.7661 13.8897 99.6036 13.4024 99.2714 13.0184C98.9391 12.6344 98.4665 12.4424 97.8462 12.4424C97.5656 12.4424 97.3072 12.4868 97.0783 12.5754C96.8493 12.664 96.6426 12.7821 96.4654 12.9224C96.2881 13.0627 96.1405 13.2252 96.0297 13.4098C95.9116 13.5944 95.8377 13.779 95.7934 13.9784" fill="#1B0A40"/>
<path d="M102.429 11.379H103.493V13.1733H104.475C104.932 13.1733 105.316 13.2324 105.619 13.3432C105.922 13.4613 106.166 13.609 106.343 13.801C106.527 13.993 106.653 14.2145 106.727 14.4582C106.801 14.7092 106.838 14.9603 106.838 15.2335C106.838 15.5067 106.793 15.7578 106.712 16.0088C106.623 16.2599 106.491 16.4888 106.299 16.6882C106.107 16.8876 105.856 17.05 105.531 17.1755C105.213 17.3011 104.814 17.3601 104.349 17.3601H102.422V11.3716L102.429 11.379ZM103.493 14.1776V16.3707H104.261C104.792 16.3707 105.169 16.2747 105.383 16.0901C105.604 15.9055 105.708 15.6322 105.708 15.2778C105.708 14.9234 105.597 14.6428 105.376 14.4508C105.154 14.2662 104.785 14.1702 104.268 14.1702H103.485L103.493 14.1776ZM107.99 11.379H109.053V17.3675H107.99V11.379Z" fill="#1B0A40"/>
<path d="M116.078 16.5036C115.82 16.8285 115.488 17.0796 115.082 17.2494C114.675 17.4193 114.24 17.5005 113.775 17.5005C113.309 17.5005 112.859 17.4266 112.468 17.279C112.076 17.1313 111.744 16.9245 111.456 16.6439C111.175 16.3707 110.954 16.0384 110.799 15.6544C110.644 15.2705 110.562 14.8422 110.562 14.3696C110.562 13.9339 110.636 13.5278 110.791 13.1438C110.946 12.7598 111.153 12.4349 111.426 12.1543C111.7 11.8737 112.017 11.6522 112.386 11.4898C112.756 11.3273 113.162 11.2461 113.605 11.2461C114.085 11.2461 114.528 11.3052 114.927 11.4233C115.333 11.5415 115.672 11.7482 115.96 12.0288L115.466 12.8706C115.207 12.6417 114.934 12.4792 114.646 12.3833C114.358 12.2873 114.055 12.243 113.745 12.243C113.479 12.243 113.221 12.2946 112.977 12.398C112.733 12.5014 112.512 12.6417 112.32 12.8337C112.128 13.0183 111.98 13.2472 111.869 13.5056C111.759 13.7715 111.707 14.0595 111.707 14.377C111.707 14.6945 111.766 14.9972 111.877 15.2631C111.995 15.5215 112.15 15.7504 112.342 15.935C112.534 16.1196 112.763 16.2599 113.029 16.3633C113.287 16.4593 113.568 16.511 113.863 16.511C114.225 16.511 114.55 16.4372 114.838 16.2969C115.126 16.1566 115.37 15.972 115.576 15.7357L116.086 16.5036H116.078Z" fill="#1B0A40"/>
<path d="M116.625 11.3789H122.082V12.4496H119.881V17.3675H118.818V12.4496H116.625V11.3789Z" fill="#1B0A40"/>
<path d="M123.234 11.379H124.298V12.0879C124.504 11.8442 124.785 11.6448 125.154 11.4898C125.523 11.3273 125.915 11.2461 126.336 11.2461C126.757 11.2461 127.148 11.3199 127.488 11.475C127.827 11.6227 128.123 11.8368 128.359 12.1027C128.595 12.3685 128.78 12.686 128.913 13.0626C129.038 13.4318 129.105 13.8453 129.105 14.2884C129.105 14.7314 129.031 15.1671 128.883 15.5584C128.736 15.9498 128.529 16.2969 128.248 16.5848C127.975 16.8728 127.643 17.1017 127.266 17.2642C126.882 17.4266 126.461 17.5079 125.989 17.5079C125.671 17.5079 125.361 17.4709 125.066 17.4045C124.77 17.338 124.512 17.2346 124.298 17.0943V20.0332H123.234V11.379ZM126.033 12.243C125.679 12.243 125.346 12.3242 125.043 12.4792C124.741 12.6417 124.49 12.8337 124.305 13.0626V16.031C124.571 16.2082 124.829 16.3338 125.088 16.4002C125.346 16.4667 125.619 16.5036 125.9 16.5036C126.218 16.5036 126.506 16.4445 126.764 16.3338C127.022 16.223 127.237 16.068 127.414 15.8833C127.591 15.6914 127.731 15.4625 127.827 15.1966C127.923 14.9308 127.975 14.6354 127.975 14.3179C127.975 14.0152 127.931 13.7419 127.849 13.4835C127.768 13.2324 127.643 13.0109 127.473 12.8263C127.303 12.6417 127.096 12.494 126.86 12.3906C126.616 12.2873 126.343 12.2356 126.033 12.2356" fill="#1B0A40"/>
<path d="M130.632 11.379H131.696V13.1733H132.678C133.136 13.1733 133.52 13.2324 133.822 13.3432C134.125 13.4613 134.369 13.609 134.546 13.801C134.731 13.993 134.856 14.2145 134.93 14.4582C135.004 14.7092 135.041 14.9603 135.041 15.2335C135.041 15.5067 134.996 15.7578 134.915 16.0088C134.834 16.2599 134.694 16.4888 134.502 16.6882C134.31 16.8876 134.059 17.05 133.734 17.1755C133.416 17.3011 133.017 17.3601 132.552 17.3601H130.625V11.3716L130.632 11.379ZM131.696 14.1776V16.3707H132.464C132.995 16.3707 133.372 16.2747 133.586 16.0901C133.8 15.9055 133.911 15.6322 133.911 15.2778C133.911 14.9234 133.8 14.6428 133.579 14.4508C133.357 14.2662 132.988 14.1702 132.471 14.1702H131.688L131.696 14.1776ZM136.193 11.379H137.256V17.3675H136.193V11.379Z" fill="#1B0A40"/>
<path d="M142.358 14.2661L144.639 17.3675H143.332L141.575 14.9455L139.788 17.3675H138.555L140.814 14.3252L138.688 11.3789H139.995L141.612 13.6458L143.266 11.3789H144.499L142.358 14.2661Z" fill="#1B0A40"/>
<path d="M48.9521 23.659H45.6883V28.6507H44.625V22.6621H50.0154V28.6507H48.9521V23.659Z" fill="#1B0A40"/>
<path d="M56.0505 23.7328H53.946L53.8795 24.7444C53.8057 25.5936 53.7023 26.2803 53.562 26.8046C53.4217 27.3288 53.2445 27.735 53.0451 28.0156C52.8384 28.2962 52.6094 28.4882 52.3436 28.5841C52.0778 28.6801 51.7898 28.7318 51.4797 28.7318L51.3984 27.698C51.5166 27.7054 51.6495 27.6759 51.7972 27.6094C51.9449 27.543 52.0926 27.3953 52.2329 27.1738C52.3732 26.9449 52.5061 26.62 52.6168 26.1991C52.735 25.7782 52.8088 25.217 52.8457 24.5302L52.9491 22.6694H57.1138V28.658H56.0505V23.7328Z" fill="#1B0A40"/>
<path d="M59.0676 23.0752C59.3335 22.9054 59.6362 22.7725 59.9833 22.6765C60.3303 22.5805 60.6848 22.5288 61.0613 22.5288C61.9105 22.5288 62.5013 22.7429 62.8483 23.1638C63.188 23.5921 63.3578 24.1902 63.3578 24.973V28.6429H62.361V27.8676C62.1837 28.0965 61.9401 28.3032 61.6447 28.4731C61.3419 28.6503 60.9432 28.7315 60.4485 28.7315C59.8946 28.7315 59.4516 28.5691 59.1193 28.2441C58.7796 27.9192 58.6172 27.4688 58.6172 26.8781C58.6172 26.5753 58.6763 26.3095 58.787 26.0658C58.9052 25.8295 59.0602 25.6228 59.2596 25.4677C59.459 25.3053 59.6953 25.1871 59.9759 25.0985C60.2565 25.0173 60.5518 24.973 60.8767 24.973C61.1057 24.973 61.3641 25.0025 61.6447 25.0542C61.9253 25.1059 62.169 25.2093 62.3683 25.3569C62.3683 25.0837 62.3536 24.8253 62.324 24.589C62.2945 24.3527 62.228 24.1533 62.1394 23.9909C62.0434 23.8284 61.9105 23.6955 61.7259 23.6069C61.5413 23.5109 61.305 23.4666 61.0097 23.4666C60.6405 23.4666 60.3303 23.5109 60.0866 23.5921C59.843 23.6734 59.5993 23.7841 59.363 23.9023L59.0824 23.0531L59.0676 23.0752ZM60.8103 27.7863C61.2016 27.7863 61.5192 27.7051 61.7628 27.5353C62.0065 27.3654 62.2059 27.1956 62.3536 27.0184V26.2578C61.9844 25.992 61.5339 25.8591 61.0097 25.8591C60.8472 25.8591 60.6921 25.8812 60.5371 25.9181C60.382 25.9551 60.2417 26.0215 60.1236 26.0954C60.0054 26.1766 59.9094 26.28 59.8356 26.3981C59.7617 26.5236 59.7322 26.6713 59.7322 26.8412C59.7322 27.1291 59.8282 27.3507 60.0128 27.5279C60.1974 27.7051 60.4632 27.7863 60.8103 27.7863Z" fill="#1B0A40"/>
<path d="M64.3906 22.6621H69.8475V23.7254H67.6544V28.6507H66.5911V23.7254H64.3906V22.6621Z" fill="#1B0A40"/>
<path d="M75.8636 28.0005C75.5682 28.2663 75.2212 28.4657 74.8224 28.5912C74.4163 28.7167 74.0175 28.7832 73.6188 28.7832C73.1314 28.7832 72.6884 28.7094 72.297 28.5617C71.8983 28.414 71.566 28.2072 71.2854 27.9266C71.0048 27.6534 70.7907 27.3211 70.643 26.9372C70.4953 26.5532 70.4141 26.1249 70.4141 25.6523C70.4141 25.2166 70.4805 24.8105 70.6208 24.4265C70.7611 24.0426 70.9605 23.7177 71.2189 23.4371C71.4774 23.1565 71.8023 22.9349 72.1863 22.7725C72.5702 22.61 73.0059 22.5288 73.5006 22.5288C73.8846 22.5288 74.2464 22.5953 74.5861 22.7282C74.9258 22.8611 75.2211 23.0457 75.4722 23.2894C75.7233 23.5257 75.9153 23.821 76.0629 24.1533C76.2106 24.493 76.2845 24.8622 76.2845 25.2683C76.2845 25.5415 76.2623 25.7852 76.218 25.9846H71.6103C71.6546 26.5532 71.8687 26.9962 72.2527 27.3064C72.6367 27.6239 73.1167 27.7789 73.7 27.7789C74.0914 27.7789 74.4458 27.7199 74.7633 27.6017C75.0809 27.4836 75.3393 27.3359 75.5387 27.1587L75.871 28.0005H75.8636ZM73.4416 23.5257C72.8878 23.5257 72.4521 23.6734 72.1272 23.9761C71.8023 24.2789 71.6029 24.6628 71.5438 25.1206H75.1768C75.1473 24.6259 74.9849 24.2345 74.6821 23.954C74.3794 23.666 73.9658 23.5257 73.4416 23.5257Z" fill="#1B0A40"/>
<path d="M76.7987 22.6621H78.1426L80.1954 25.5493L78.0023 28.6507H76.6953L78.9992 25.5493L76.8061 22.6621H76.7987ZM80.4612 22.6621H81.5246V28.6507H80.4612V22.6621ZM82.9866 25.5493L85.3274 28.6507H84.013L81.7904 25.5493L83.8506 22.6621H85.1723L82.9866 25.5493Z" fill="#1B0A40"/>
<path d="M91.2151 28.0005C90.9198 28.2663 90.5727 28.4657 90.174 28.5912C89.7678 28.7167 89.3691 28.7832 88.9703 28.7832C88.483 28.7832 88.0399 28.7094 87.6486 28.5617C87.2498 28.414 86.9176 28.2072 86.637 27.9266C86.3564 27.6534 86.1422 27.3211 85.9945 26.9372C85.8468 26.5532 85.7656 26.1249 85.7656 25.6523C85.7656 25.2166 85.8321 24.8105 85.9724 24.4265C86.1127 24.0426 86.3121 23.7177 86.5705 23.4371C86.8289 23.1565 87.1538 22.9349 87.5378 22.7725C87.9218 22.61 88.3575 22.5288 88.8522 22.5288C89.2362 22.5288 89.598 22.5953 89.9377 22.7282C90.2773 22.8611 90.5727 23.0457 90.8238 23.2894C91.0748 23.5257 91.2668 23.821 91.4145 24.1533C91.5622 24.493 91.636 24.8622 91.636 25.2683C91.636 25.5415 91.6139 25.7852 91.5696 25.9846H86.9619C87.0062 26.5532 87.2203 26.9962 87.6043 27.3064C87.9883 27.6239 88.4682 27.7789 89.0516 27.7789C89.4429 27.7789 89.7974 27.7199 90.1149 27.6017C90.4324 27.4836 90.6909 27.3359 90.8828 27.1587L91.2151 28.0005ZM88.7931 23.5257C88.2393 23.5257 87.8037 23.6734 87.4788 23.9761C87.1538 24.2789 86.9545 24.6628 86.8954 25.1206H90.5284C90.4989 24.6259 90.3364 24.2345 90.0337 23.954C89.7309 23.666 89.3174 23.5257 88.7931 23.5257Z" fill="#1B0A40"/>
<path d="M93.0859 28.6506V22.6621H94.1493V27.1221L97.6124 22.6621H98.6758V28.6506H97.6124V24.1906L94.1493 28.6506H93.0859ZM94.9394 19.5977C94.9911 20.2992 95.3307 20.6462 95.9658 20.6462C96.5565 20.6462 96.8814 20.2918 96.9405 19.5977H97.9373C97.9373 19.8635 97.893 20.1072 97.797 20.3361C97.701 20.565 97.5681 20.757 97.3983 20.9194C97.2211 21.0819 97.0217 21.2148 96.778 21.3108C96.5417 21.4068 96.2685 21.4585 95.9658 21.4585C95.6409 21.4585 95.3455 21.4068 95.0944 21.3108C94.8434 21.2148 94.6292 21.0819 94.4594 20.9194C94.2896 20.757 94.164 20.5576 94.0754 20.3361C93.9868 20.1072 93.9425 19.8635 93.9425 19.5977H94.9394Z" fill="#1B0A40"/>
<path d="M10.0572 20.0039L4.84401 23.0166L0 31.4051L19.7452 20.0039H10.0572Z" fill="#874691"/>
<path d="M24.963 11.4009L19.7424 14.4136L14.8984 22.802L34.6511 11.4009H24.963Z" fill="#DA1844"/>
<path d="M19.7424 8.38841L14.8984 0V17.1977V22.8023V40L19.7424 31.6116V8.38841Z" fill="#F9B229"/>
<path d="M14.8984 0L19.7424 8.38841L24.963 11.4011H34.6511L14.8984 0Z" fill="#F07F1A"/>
<path d="M14.8984 17.1978V40L19.7424 31.6116V25.5862L14.8984 17.1978Z" fill="#72B22C"/>
<path d="M24.963 28.5986L19.7424 31.6114L14.8984 39.9998L34.6511 28.5986H24.963Z" fill="#00743E"/>
<path d="M0 8.60254V31.4048L4.84401 23.0164V16.9909L0 8.60254Z" fill="#5F5A94"/>
<path d="M14.9012 17.1977L14.9086 17.2051L0 8.60254L4.84401 16.9909L24.9659 28.5988H34.6539L14.9012 17.1977Z" fill="#0D90CD"/>
</g>
<defs>
<clipPath id="clip0_1669_44554">
<rect width="144.641" height="40" fill="white"/>
</clipPath>
</defs>
</svg>
