<svg width="25" height="24" viewBox="0 0 25 24" fill="none" xmlns="http://www.w3.org/2000/svg">
<g clip-path="url(#clip0_494_21792)">
<path d="M12.01 0C5.38 0 0 5.37 0 12C0 18.63 5.38 24 12.01 24C18.64 24 24.02 18.63 24.02 12C24.02 5.37 18.65 0 12.01 0ZM20.11 20.09C18.04 22.16 15.18 23.44 12.01 23.44C8.84 23.44 5.99 22.16 3.91 20.09C1.84 18.02 0.56 15.16 0.56 12C0.56 8.84 1.84 5.98 3.92 3.91C5.99 1.84 8.85 0.56 12.01 0.56C15.17 0.56 18.03 1.84 20.11 3.91C22.18 5.98 23.46 8.84 23.46 12C23.46 15.16 22.18 18.02 20.11 20.09Z" fill="#CFFFBD"/>
<path d="M12.0099 2.37997C12.6099 2.37997 12.4199 1.45997 12.8499 1.59997C12.7699 1.22997 12.3899 1.32997 12.3599 1.34997C12.3299 1.12997 12.2599 0.889971 12.0099 0.719971C11.7599 0.889971 11.6899 1.12997 11.6599 1.34997C11.6299 1.32997 11.2499 1.22997 11.1699 1.59997C11.5999 1.45997 11.4099 2.37997 12.0099 2.37997ZM12.0099 1.38997C12.1499 1.54997 12.3499 1.97997 12.0099 1.97997C11.6699 1.97997 11.8699 1.54997 12.0099 1.38997Z" fill="#CFFFBD"/>
<path d="M22.6703 12.18L22.8503 12.04L22.7003 11.82C23.1303 11.23 22.8003 10.95 22.4503 10.64C22.2503 10.46 21.8503 10.06 22.0603 9.75995C22.0903 9.71995 22.1303 9.67995 22.1703 9.65995C22.2103 9.63995 22.2603 9.62995 22.3003 9.63995C22.4203 9.65995 22.4303 9.76995 22.4203 9.91995C22.2703 9.76995 22.1203 9.91995 22.1403 10.05C22.1603 10.18 22.3003 10.28 22.4203 10.29C22.4403 10.47 22.5403 10.63 22.8203 10.69C22.7003 10.48 22.6803 10.28 22.6703 10.06C22.6603 9.86995 22.6503 9.69995 22.5503 9.58995C22.4903 9.51995 22.4203 9.48995 22.3503 9.46995L22.4903 9.28995L22.2903 9.10995C22.5603 8.42995 22.1703 8.23995 21.7503 8.02995C21.5103 7.90995 21.0203 7.61995 21.1403 7.27995C21.1603 7.22995 21.1903 7.18995 21.2303 7.15995C21.2703 7.12995 21.3103 7.10995 21.3503 7.09995C21.4703 7.08995 21.5103 7.18995 21.5403 7.33995C21.3503 7.23995 21.2503 7.40995 21.3003 7.53995C21.3503 7.65995 21.5103 7.71995 21.6303 7.69995C21.7003 7.86995 21.8303 7.99995 22.1203 7.98995C21.9503 7.81995 21.8803 7.62995 21.8203 7.41995C21.7603 7.23995 21.7103 7.07995 21.5803 6.98995C21.5103 6.93995 21.4303 6.91995 21.3503 6.92995L21.4403 6.71995L21.2003 6.59995C21.2803 5.87995 20.8603 5.78995 20.4003 5.68995C20.1303 5.62995 19.5903 5.47995 19.6203 5.10995C19.6203 5.05995 19.6403 5.00995 19.6703 4.96995C19.7003 4.92995 19.7303 4.89995 19.7703 4.88995C19.8803 4.84995 19.9503 4.93995 20.0203 5.06995C19.8103 5.01995 19.7603 5.20995 19.8403 5.31995C19.9203 5.42995 20.0903 5.43995 20.2003 5.38995C20.3103 5.52995 20.4703 5.62995 20.7403 5.53995C20.5303 5.41995 20.4203 5.24995 20.3003 5.06995C20.2003 4.90995 20.1103 4.76995 19.9603 4.71995C19.8803 4.68995 19.8003 4.68995 19.7203 4.71995L19.7503 4.48995L19.4903 4.43995C19.3903 3.71995 18.9503 3.73995 18.4803 3.75995C18.2103 3.76995 17.6503 3.75995 17.5803 3.39995C17.5803 3.34995 17.5803 3.29995 17.5903 3.24995C17.6103 3.20995 17.6303 3.16995 17.6703 3.13995C17.7703 3.06995 17.8503 3.13995 17.9503 3.24995C17.7403 3.24995 17.7303 3.44995 17.8403 3.53995C17.9403 3.61995 18.1103 3.58995 18.2103 3.50995C18.3503 3.61995 18.5303 3.66995 18.7803 3.50995C18.5403 3.44995 18.4003 3.30995 18.2303 3.15995C18.0903 3.02995 17.9703 2.91995 17.8103 2.90995C17.7203 2.90995 17.6503 2.91995 17.5803 2.96995L17.5603 2.73995H17.3003C17.0203 2.08995 16.6003 2.21995 16.1603 2.35995C15.9003 2.43995 15.3503 2.57995 15.2003 2.23995C15.1803 2.18995 15.1703 2.13995 15.1703 2.08995C15.1703 2.03995 15.1903 1.99995 15.2203 1.96995C15.3003 1.87995 15.4003 1.92995 15.5203 2.00995C15.3103 2.06995 15.3603 2.25995 15.4903 2.31995C15.6103 2.36995 15.7703 2.29995 15.8403 2.19995C16.0103 2.26995 16.1903 2.27995 16.3903 2.05995C16.1503 2.05995 15.9703 1.95995 15.7703 1.85995C15.6003 1.76995 15.4503 1.69995 15.3003 1.71995C15.2203 1.72995 15.1503 1.76995 15.0903 1.82995L15.0103 1.61995L14.7603 1.69995C14.3203 1.12995 13.9003 1.42995 13.6003 1.62995C13.5103 1.68995 13.4003 1.77995 13.3203 1.86995C13.3703 1.86995 13.4203 1.85995 13.4403 1.85995C13.5403 1.97995 13.6203 1.97995 13.6703 1.98995C13.6803 2.02995 13.7103 2.06995 13.7403 2.09995C13.8403 2.20995 14.0103 2.24995 14.1903 2.28995C14.4003 2.32995 14.6003 2.36995 14.7903 2.52995C14.7703 2.23995 14.6203 2.12995 14.4503 2.07995C14.4503 1.95995 14.3803 1.79995 14.2603 1.76995C14.1303 1.72995 13.9703 1.85995 14.0903 2.02995C13.9403 2.00995 13.8303 1.98995 13.8303 1.86995C13.8303 1.67995 14.0103 1.55995 14.1903 1.56995C14.3403 1.57995 14.4903 1.66995 14.6603 1.90995C14.9503 2.29995 15.1703 2.78995 15.8503 2.64995L15.9603 2.83995L16.1703 2.76995C16.1703 2.76995 16.1903 2.84995 16.2103 2.89995C16.2803 3.03995 16.4303 3.10995 16.6003 3.18995C16.7903 3.28995 16.9803 3.36995 17.1203 3.56995C17.1803 3.28995 17.0603 3.13995 16.9103 3.04995C16.9503 2.92995 16.9103 2.75995 16.8003 2.69995C16.6803 2.62995 16.5003 2.70995 16.5703 2.90995C16.4303 2.85995 16.3303 2.79995 16.3603 2.68995C16.4103 2.50995 16.6203 2.43995 16.7803 2.48995C16.9203 2.53995 17.0503 2.66995 17.1503 2.93995C17.3303 3.38995 17.4203 3.91995 18.1103 3.95995L18.1703 4.16995H18.3903C18.3903 4.16995 18.3903 4.23995 18.3903 4.28995C18.4203 4.43995 18.5503 4.54995 18.6903 4.66995C18.8503 4.80995 19.0103 4.94995 19.1003 5.16995C19.2303 4.90995 19.1503 4.73995 19.0303 4.60995C19.1003 4.50995 19.1103 4.33995 19.0203 4.23995C18.9203 4.13995 18.7203 4.16995 18.7503 4.37995C18.6303 4.28995 18.5503 4.21995 18.6103 4.10995C18.7003 3.94995 18.9203 3.92995 19.0703 4.02995C19.1903 4.10995 19.2803 4.26995 19.3103 4.55995C19.3703 5.03995 19.3203 5.57995 19.9803 5.78995V6.00995L20.2103 6.04995C20.1903 6.08995 20.1803 6.12995 20.1803 6.17995C20.1803 6.32995 20.2703 6.46995 20.3703 6.62995C20.4903 6.80995 20.6103 6.97995 20.6403 7.21995C20.8303 6.99995 20.8003 6.81995 20.7103 6.65995C20.8003 6.57995 20.8603 6.40995 20.7903 6.29995C20.7203 6.17995 20.5203 6.15995 20.4903 6.36995C20.4003 6.25995 20.3403 6.15995 20.4203 6.06995C20.5503 5.93995 20.7703 5.97995 20.8903 6.10995C20.9903 6.21995 21.0403 6.39995 20.9903 6.67995C20.9303 7.15995 20.7403 7.66995 21.3203 8.03995L21.2703 8.24995L21.4703 8.34995C21.4703 8.34995 21.4203 8.41995 21.4103 8.46995C21.3603 8.61995 21.4203 8.77995 21.4803 8.94995C21.5503 9.14995 21.6203 9.34995 21.5903 9.58995C21.8303 9.42995 21.8503 9.23995 21.8003 9.06995C21.9103 9.01995 22.0003 8.86995 21.9703 8.73995C21.9303 8.60995 21.7503 8.53995 21.6603 8.73995C21.6003 8.60995 21.5703 8.49995 21.6603 8.43995C21.8203 8.34995 22.0203 8.43995 22.1003 8.58995C22.1703 8.71995 22.1703 8.89995 22.0503 9.16995C21.8703 9.61995 21.5603 10.06 22.0203 10.57L21.9203 10.76L22.0903 10.91C22.0903 10.91 22.0303 10.97 22.0003 11.01C21.9203 11.14 21.9303 11.31 21.9503 11.5C21.9703 11.72 21.9903 11.92 21.8903 12.14C22.1603 12.04 22.2303 11.87 22.2303 11.69C22.3503 11.67 22.4803 11.55 22.4803 11.42C22.4803 11.28 22.3203 11.17 22.1803 11.33C22.1503 11.19 22.1503 11.07 22.2603 11.04C22.4403 10.99 22.6103 11.13 22.6503 11.3C22.6803 11.45 22.6403 11.62 22.4503 11.85C22.1603 12.24 21.7503 12.59 22.0703 13.2L21.9203 13.36L22.0503 13.55C22.0503 13.55 21.9703 13.59 21.9403 13.62C21.8303 13.72 21.8003 13.89 21.7603 14.08C21.7203 14.29 21.6903 14.49 21.5403 14.69C21.8303 14.67 21.9403 14.51 21.9803 14.34C22.1003 14.34 22.2603 14.27 22.2903 14.14C22.3203 14.01 22.2003 13.85 22.0303 13.98C22.0403 13.83 22.0703 13.72 22.1903 13.72C22.3803 13.72 22.5003 13.9 22.5003 14.07C22.5003 14.22 22.4003 14.38 22.1703 14.55C21.7903 14.85 21.3003 15.08 21.4503 15.76L21.2703 15.88L21.3503 16.09C21.3503 16.09 21.2703 16.11 21.2203 16.13C21.0903 16.2 21.0103 16.36 20.9303 16.53C20.8403 16.73 20.7503 16.91 20.5603 17.06C20.8403 17.11 20.9903 16.99 21.0803 16.83C21.2003 16.87 21.3703 16.83 21.4303 16.71C21.5003 16.59 21.4103 16.41 21.2203 16.49C21.2703 16.35 21.3203 16.25 21.4403 16.28C21.6203 16.33 21.7003 16.53 21.6503 16.7C21.6003 16.84 21.4803 16.97 21.2103 17.08C20.7703 17.27 20.2303 17.37 20.2103 18.07L20.0003 18.13L20.0203 18.35C20.0203 18.35 19.9303 18.35 19.8903 18.35C19.7403 18.39 19.6303 18.52 19.5103 18.66C19.3703 18.83 19.2403 18.98 19.0203 19.08C19.2803 19.2 19.4503 19.12 19.5803 18.99C19.6803 19.06 19.8603 19.06 19.9503 18.97C20.0403 18.87 20.0103 18.67 19.8003 18.7C19.8803 18.58 19.9603 18.49 20.0703 18.55C20.2303 18.64 20.2603 18.86 20.1603 19.01C20.0803 19.14 19.9303 19.23 19.6403 19.26C19.1603 19.33 18.6203 19.3 18.4203 19.96H18.2003L18.1603 20.19C18.1203 20.17 18.0803 20.16 18.0303 20.16C17.9203 20.16 17.8103 20.21 17.7103 20.28L17.4503 19.93L17.3803 19.98L18.4303 21.41L18.5003 21.36L18.2503 21.02C18.4203 20.86 18.4703 20.61 18.5203 20.35C18.5703 20.08 18.7103 19.54 19.0803 19.56C19.1303 19.56 19.1803 19.58 19.2203 19.61C19.2603 19.64 19.2903 19.67 19.3103 19.71C19.3603 19.82 19.2603 19.89 19.1403 19.96C19.1903 19.75 18.9903 19.7 18.8903 19.78C18.7903 19.86 18.7803 20.03 18.8303 20.14C18.6903 20.25 18.6003 20.41 18.6903 20.69C18.8103 20.48 18.9703 20.36 19.1503 20.24C19.3003 20.13 19.4503 20.04 19.4903 19.89C19.5203 19.81 19.5103 19.73 19.4903 19.65L19.7203 19.68L19.7703 19.42C20.4903 19.3 20.4603 18.87 20.4203 18.4C20.4003 18.13 20.4003 17.57 20.7603 17.49C20.8103 17.48 20.8603 17.49 20.9103 17.49C20.9503 17.51 20.9903 17.53 21.0203 17.57C21.0903 17.67 21.0203 17.75 20.9203 17.86C20.9203 17.65 20.7103 17.65 20.6303 17.75C20.5503 17.85 20.5803 18.02 20.6703 18.11C20.5603 18.26 20.5103 18.44 20.6703 18.67C20.7303 18.43 20.8603 18.28 21.0003 18.12C21.1203 17.98 21.2303 17.85 21.2403 17.7C21.2403 17.61 21.2203 17.54 21.1803 17.47L21.4103 17.44L21.3903 17.18C22.0503 16.88 21.9103 16.47 21.7603 16.03C21.6703 15.77 21.5203 15.23 21.8503 15.07C21.9003 15.05 21.9503 15.04 22.0003 15.04C22.0503 15.04 22.0903 15.06 22.1303 15.09C22.2203 15.16 22.1803 15.27 22.1003 15.39C22.0403 15.19 21.8403 15.23 21.7903 15.36C21.7403 15.48 21.8103 15.64 21.9203 15.7C21.8503 15.87 21.8503 16.05 22.0703 16.24C22.0703 16 22.1603 15.82 22.2503 15.62C22.3303 15.45 22.4103 15.3 22.3803 15.15C22.3603 15.07 22.3203 15 22.2603 14.95L22.4703 14.86L22.3803 14.61C22.9403 14.15 22.7003 13.79 22.4403 13.4C22.2903 13.17 22.0103 12.69 22.2903 12.44C22.3303 12.41 22.3803 12.38 22.4303 12.37C22.4803 12.37 22.5203 12.37 22.5603 12.38C22.6703 12.43 22.6503 12.54 22.6103 12.68C22.5003 12.5 22.3203 12.59 22.3003 12.73C22.2803 12.86 22.3903 12.99 22.5103 13.03C22.4903 13.21 22.5303 13.39 22.7903 13.52C22.7203 13.29 22.7603 13.09 22.8103 12.87C22.8503 12.69 22.8803 12.52 22.8103 12.38C22.7703 12.3 22.7103 12.25 22.6403 12.21L22.6703 12.18ZM18.1603 20.76L18.0403 20.6C18.1103 20.5 18.0503 20.35 17.9103 20.36C17.9803 20.3 18.0703 20.29 18.1703 20.36C18.2603 20.43 18.2603 20.63 18.1703 20.75L18.1603 20.76Z" fill="#CFFFBD"/>
<path d="M10.7007 21.9399H10.6307C10.4407 22.2299 10.2507 22.5299 10.0507 22.8299H9.9707V22.8799L10.2407 22.9199V22.8599L10.1407 22.8399L10.2907 22.6099H10.3507L10.7207 22.6699C10.7507 22.7599 10.7707 22.8499 10.8007 22.9299L10.6807 22.9099V22.9699L11.1007 23.0299V22.9699L11.0307 22.9599C10.9307 22.6199 10.8207 22.2799 10.7207 21.9299L10.7007 21.9399ZM10.3307 22.5499L10.5707 22.1799L10.7007 22.5999L10.3307 22.5499Z" fill="#CFFFBD"/>
<path d="M12.0803 22.03H12.0203H11.8903H11.5703V22.09H11.6803C11.6803 22.39 11.6803 22.69 11.6803 22.99H11.5703V23.05H12.0203V22.99H11.8903C11.8903 22.87 11.8903 22.75 11.8903 22.63H11.9503C12.0903 22.63 12.2003 22.6 12.2703 22.55C12.3403 22.49 12.3803 22.41 12.3803 22.3C12.3803 22.12 12.2803 22.03 12.0803 22.03ZM12.1103 22.51C12.1103 22.51 12.0103 22.57 11.9303 22.57H11.8903V22.1H11.9703C12.1003 22.1 12.1703 22.17 12.1703 22.32C12.1703 22.41 12.1503 22.47 12.1103 22.51Z" fill="#CFFFBD"/>
<path d="M13.5607 22.8199C13.5607 22.8199 13.4507 22.8899 13.3907 22.8999C13.3407 22.8999 13.3007 22.8999 13.2607 22.8899C13.2207 22.8799 13.1807 22.8499 13.1507 22.8199C13.1207 22.7899 13.0907 22.7399 13.0707 22.6899C13.0507 22.6299 13.0307 22.5699 13.0207 22.4899C13.0007 22.3499 13.0207 22.2299 13.0507 22.1499C13.0907 22.0699 13.1507 22.0199 13.2407 22.0099C13.3107 22.0099 13.3807 22.0199 13.4307 22.0699C13.4907 22.1199 13.5407 22.1999 13.5907 22.3099H13.6507L13.6007 21.9299H13.5407L13.5007 21.9799C13.4707 21.9699 13.4307 21.9599 13.3807 21.9499C13.3307 21.9499 13.2807 21.9499 13.2207 21.9499C13.1407 21.9499 13.0707 21.9799 13.0007 22.0199C12.9307 22.0499 12.8807 22.0999 12.8407 22.1499C12.8007 22.1999 12.7607 22.2699 12.7407 22.3399C12.7207 22.4099 12.7207 22.4799 12.7207 22.5599C12.7207 22.6399 12.7507 22.7099 12.7907 22.7699C12.8207 22.8299 12.8707 22.8799 12.9207 22.9199C12.9707 22.9599 13.0307 22.9899 13.1007 23.0099C13.1707 23.0299 13.2407 23.0299 13.3107 23.0199C13.3707 23.0199 13.4307 22.9999 13.4707 22.9799C13.5107 22.9599 13.5507 22.9299 13.5907 22.8999C13.6207 22.8699 13.6507 22.8399 13.6707 22.7999L13.6007 22.7599C13.5807 22.7899 13.5607 22.8099 13.5407 22.8299L13.5607 22.8199Z" fill="#CFFFBD"/>
<path d="M17.7004 21.39C17.5504 21.13 17.4004 20.87 17.2604 20.61L17.3604 20.56L17.3304 20.5L16.9504 20.72L16.9804 20.78L17.0804 20.73C17.1404 20.84 17.2104 20.95 17.2704 21.07L16.9004 21.28C16.8404 21.17 16.7704 21.06 16.7104 20.94L16.8104 20.89L16.7804 20.83L16.4004 21.05L16.4304 21.11L16.5304 21.06C16.6804 21.32 16.8304 21.58 16.9704 21.84L16.8704 21.89L16.9004 21.95L17.2804 21.73L17.2504 21.67L17.1504 21.72C17.0804 21.59 17.0004 21.46 16.9304 21.34L17.3004 21.13C17.3704 21.26 17.4504 21.39 17.5204 21.51L17.4204 21.56L17.4504 21.62L17.8304 21.4L17.8004 21.34L17.7004 21.39Z" fill="#CFFFBD"/>
<path d="M7.36945 21.11L7.45945 21.16L7.56945 20.97L6.72945 20.49L6.61945 20.68L6.70945 20.73L6.77945 20.6C6.85945 20.64 6.93945 20.69 7.01945 20.73L6.94945 20.86C6.82945 21.08 6.69945 21.29 6.57945 21.51L6.46945 21.45L6.43945 21.51L6.84945 21.74L6.87945 21.68L6.76945 21.62C6.88945 21.4 7.01945 21.19 7.13945 20.97L7.20945 20.84C7.28945 20.88 7.36945 20.93 7.43945 20.97L7.36945 21.1V21.11Z" fill="#CFFFBD"/>
<path d="M8.94922 21.7801L9.04922 21.8101L9.08922 21.6701C9.17922 21.6901 9.25922 21.7201 9.34922 21.7401L9.30922 21.8801C9.23922 22.1201 9.17922 22.3601 9.10922 22.6001L8.98922 22.5701L8.96922 22.6301L9.42922 22.7501L9.44922 22.6901L9.32922 22.6601C9.39922 22.4201 9.45922 22.1801 9.52922 21.9301L9.56922 21.7901C9.65922 21.8101 9.73922 21.8401 9.82922 21.8601L9.78922 22.0001L9.88922 22.0301L9.94922 21.8201L9.01922 21.5701L8.95922 21.7801H8.94922Z" fill="#CFFFBD"/>
<path d="M14.8195 21.8501L14.9195 21.8301L14.8695 21.6201L13.9395 21.8501L13.9895 22.0601L14.0895 22.0401L14.0495 21.9001C14.1395 21.8801 14.2295 21.8601 14.3095 21.8301L14.3495 21.9701C14.4095 22.2101 14.4695 22.4601 14.5295 22.7001L14.4095 22.7301L14.4295 22.7901L14.8895 22.6801L14.8695 22.6201L14.7495 22.6501C14.6895 22.4101 14.6295 22.1601 14.5695 21.9201L14.5295 21.7801C14.6195 21.7601 14.7095 21.7401 14.7895 21.7101L14.8295 21.8501H14.8195Z" fill="#CFFFBD"/>
<path d="M8.29008 21.29L8.22008 21.26C7.96008 21.5 7.70008 21.75 7.43008 21.99L7.35008 21.96L7.33008 22.02L7.58008 22.13L7.60008 22.07L7.50008 22.03L7.70008 21.84L7.76008 21.86L8.10008 22C8.10008 22.09 8.10008 22.18 8.11008 22.27L7.99008 22.22L7.97008 22.28L8.37008 22.44L8.39008 22.38L8.31008 22.35C8.30008 21.99 8.28008 21.63 8.27008 21.28L8.29008 21.29ZM7.77008 21.79L8.09008 21.49L8.11008 21.93L7.77008 21.79Z" fill="#CFFFBD"/>
<path d="M16.3706 22.1001C16.1106 21.8501 15.8506 21.6001 15.6006 21.3501L15.5306 21.3801C15.5106 21.7401 15.4906 22.0901 15.4706 22.4501L15.3906 22.4801L15.4106 22.5401L15.6706 22.4401L15.6506 22.3801L15.5506 22.4201L15.5706 22.1501L15.6306 22.1301L15.9806 22.0001C16.0506 22.0601 16.1106 22.1301 16.1806 22.1901L16.0606 22.2401L16.0806 22.3001L16.4806 22.1401L16.4606 22.0801L16.3806 22.1101L16.3706 22.1001ZM15.5706 22.0701L15.5906 21.6301L15.9106 21.9401L15.5706 22.0701Z" fill="#CFFFBD"/>
<path d="M6.55982 19.8599L6.29982 20.2099C6.18982 20.1399 6.08982 20.0899 5.97982 20.0899C5.92982 20.0899 5.88982 20.0999 5.84982 20.1199L5.80982 19.8999H5.58982C5.38982 19.2299 4.84982 19.2599 4.36982 19.1899C4.07982 19.1599 3.92982 19.0699 3.84982 18.9399C3.75982 18.7899 3.77982 18.5699 3.93982 18.4799C4.04982 18.4199 4.11982 18.5099 4.20982 18.6299C3.99982 18.5999 3.95982 18.7999 4.05982 18.8999C4.14982 18.9999 4.31982 18.9899 4.42982 18.9199C4.55982 19.0499 4.72982 19.1299 4.98982 19.0099C4.76982 18.9199 4.63982 18.7599 4.49982 18.5899C4.37982 18.4499 4.26982 18.3199 4.11982 18.2799C4.07982 18.2699 4.02982 18.2699 3.98982 18.2799L4.00982 18.0599L3.79982 17.9999C3.77982 17.3099 3.23982 17.2099 2.79982 17.0099C2.52982 16.8999 2.39982 16.7799 2.35982 16.6299C2.30982 16.4599 2.38982 16.2599 2.56982 16.2099C2.68982 16.1799 2.73982 16.2799 2.78982 16.4199C2.58982 16.3399 2.50982 16.5199 2.56982 16.6399C2.62982 16.7599 2.79982 16.7899 2.91982 16.7599C3.00982 16.9199 3.14982 17.0399 3.43982 16.9899C3.24982 16.8399 3.15982 16.6599 3.06982 16.4599C2.98982 16.2899 2.91982 16.1399 2.77982 16.0599C2.73982 16.0399 2.69982 16.0299 2.64982 16.0199L2.72982 15.8099L2.54982 15.6899C2.69982 15.0099 2.20982 14.7799 1.82982 14.4799C1.58982 14.3099 1.50982 14.1499 1.49982 13.9999C1.49982 13.8199 1.61982 13.6499 1.80982 13.6499C1.92982 13.6499 1.94982 13.7699 1.96982 13.9099C1.79982 13.7799 1.66982 13.9399 1.70982 14.0699C1.73982 14.1999 1.88982 14.2799 2.01982 14.2699C2.06982 14.4499 2.16982 14.5999 2.45982 14.6199C2.30982 14.4299 2.27982 14.2299 2.23982 14.0099C2.20982 13.8299 2.17982 13.6599 2.05982 13.5499C2.02982 13.5199 1.98982 13.4999 1.94982 13.4799L2.07982 13.2899L1.92982 13.1299C2.24982 12.5199 1.83982 12.1599 1.54982 11.7799C1.36982 11.5499 1.31982 11.3799 1.34982 11.2299C1.38982 11.0599 1.55982 10.9199 1.73982 10.9699C1.84982 10.9999 1.84982 11.1199 1.81982 11.2599C1.68982 11.0899 1.52982 11.2099 1.51982 11.3499C1.51982 11.4799 1.63982 11.5999 1.76982 11.6199C1.76982 11.7999 1.83982 11.9699 2.10982 12.0699C2.01982 11.8499 2.02982 11.6399 2.04982 11.4299C2.06982 11.2399 2.07982 11.0699 1.99982 10.9399C1.97982 10.8999 1.94982 10.8699 1.90982 10.8399L2.07982 10.6899L1.97982 10.4999C2.44982 9.98988 2.13982 9.53988 1.94982 9.09988C1.82982 8.82988 1.82982 8.65988 1.89982 8.51988C1.97982 8.35988 2.17982 8.26988 2.33982 8.36988C2.43982 8.42988 2.40982 8.53988 2.33982 8.66988C2.24982 8.47988 2.06982 8.54988 2.02982 8.66988C1.98982 8.79988 2.08982 8.93988 2.19982 8.99988C2.14982 9.17988 2.16982 9.35988 2.40982 9.51988C2.37982 9.27988 2.43982 9.08988 2.51982 8.87988C2.57982 8.69988 2.63982 8.53988 2.58982 8.39988C2.57982 8.35988 2.55982 8.31988 2.52982 8.27988L2.72982 8.17988L2.67982 7.96988C3.25982 7.58988 3.07982 7.07988 3.00982 6.60988C2.95982 6.31988 3.00982 6.14988 3.10982 6.03988C3.22982 5.90988 3.43982 5.86988 3.57982 5.99988C3.65982 6.08988 3.59982 6.17988 3.50982 6.29988C3.47982 6.08988 3.27982 6.10988 3.20982 6.22988C3.13982 6.33988 3.19982 6.50988 3.28982 6.58988C3.19982 6.74988 3.16982 6.92988 3.35982 7.14988C3.38982 6.90988 3.49982 6.73988 3.62982 6.55988C3.72982 6.40988 3.82982 6.25988 3.81982 6.10988C3.81982 6.05988 3.80982 6.01988 3.78982 5.97988L4.00982 5.93988V5.71988C4.66982 5.49988 4.61982 4.95988 4.68982 4.48988C4.71982 4.19988 4.79982 4.03988 4.92982 3.95988C5.07982 3.85988 5.29982 3.87988 5.38982 4.03988C5.44982 4.13988 5.36982 4.21988 5.24982 4.30988C5.26982 4.09988 5.06982 4.06988 4.97982 4.16988C4.88982 4.25988 4.89982 4.42988 4.96982 4.53988C4.83982 4.66988 4.76982 4.83988 4.89982 5.09988C4.98982 4.86988 5.13982 4.73988 5.30982 4.59988C5.44982 4.47988 5.57982 4.36988 5.60982 4.21988C5.60982 4.16988 5.61982 4.12988 5.60982 4.08988H5.82982L5.88982 3.88988C6.57982 3.84988 6.66982 3.30988 6.84982 2.86988C6.94982 2.59988 7.06982 2.46988 7.21982 2.41988C7.38982 2.36988 7.58982 2.43988 7.63982 2.61988C7.66982 2.73988 7.56982 2.78988 7.42982 2.83988C7.49982 2.63988 7.31982 2.55988 7.19982 2.62988C7.08982 2.69988 7.04982 2.85988 7.08982 2.97988C6.92982 3.06988 6.81982 3.21988 6.87982 3.49988C7.01982 3.29988 7.20982 3.21988 7.39982 3.11988C7.56982 3.03988 7.71982 2.95988 7.78982 2.82988C7.80982 2.78988 7.81982 2.74988 7.82982 2.69988L8.03982 2.76988L8.14982 2.57988C8.82982 2.71988 9.04982 2.21988 9.33982 1.83988C9.50982 1.59988 9.65982 1.50988 9.80982 1.49988C9.98982 1.48988 10.1698 1.60988 10.1698 1.79988C10.1698 1.91988 10.0598 1.94988 9.90982 1.95988C10.0298 1.78988 9.87982 1.65988 9.73982 1.69988C9.60982 1.72988 9.53982 1.88988 9.54982 2.00988C9.37982 2.05988 9.22982 2.16988 9.20982 2.45988C9.39982 2.30988 9.59982 2.26988 9.80982 2.21988C9.98982 2.17988 10.1598 2.14988 10.2598 2.02988C10.2898 1.99988 10.3198 1.95988 10.3298 1.91988C10.3898 1.91988 10.4598 1.90988 10.5598 1.78988C10.5898 1.78988 10.6298 1.78988 10.6798 1.79988C10.5998 1.70988 10.4898 1.62988 10.3998 1.55988C10.0998 1.35988 9.68982 1.05988 9.23982 1.62988L8.98982 1.54988L8.90982 1.75988C8.85982 1.69988 8.78982 1.65988 8.69982 1.64988C8.54982 1.62988 8.39982 1.69988 8.22982 1.78988C8.03982 1.88988 7.85982 1.98988 7.60982 1.98988C7.80982 2.19988 7.98982 2.19988 8.15982 2.12988C8.22982 2.22988 8.38982 2.29988 8.50982 2.24988C8.63982 2.18988 8.67982 1.99988 8.47982 1.93988C8.59982 1.85988 8.70982 1.80988 8.77982 1.89988C8.80982 1.92988 8.81982 1.97988 8.82982 2.01988C8.82982 2.06988 8.82982 2.11988 8.79982 2.16988C8.63982 2.49988 8.09982 2.36988 7.83982 2.28988C7.38982 2.14988 6.97982 2.01988 6.69982 2.68988H6.43982L6.41982 2.89988C6.34982 2.85988 6.27982 2.83988 6.18982 2.83988C6.03982 2.84988 5.90982 2.96988 5.76982 3.08988C5.60982 3.23988 5.45982 3.36988 5.21982 3.43988C5.45982 3.59988 5.63982 3.53988 5.78982 3.43988C5.87982 3.51988 6.04982 3.54988 6.15982 3.46988C6.26982 3.37988 6.25982 3.18988 6.04982 3.17988C6.14982 3.06988 6.23982 2.99988 6.32982 3.06988C6.35982 3.09988 6.38982 3.12988 6.40982 3.17988C6.42982 3.22988 6.42982 3.27988 6.41982 3.32988C6.34982 3.68988 5.78982 3.69988 5.51982 3.68988C5.04982 3.66988 4.61982 3.64988 4.50982 4.36988L4.24982 4.41988L4.27982 4.64988C4.20982 4.62988 4.11982 4.62988 4.03982 4.64988C3.89982 4.69988 3.79982 4.84988 3.69982 4.99988C3.57982 5.17988 3.46982 5.34988 3.25982 5.46988C3.53982 5.55988 3.68982 5.46988 3.79982 5.31988C3.90982 5.36988 4.07982 5.35988 4.15982 5.24988C4.23982 5.13988 4.17982 4.94988 3.97982 4.99988C4.04982 4.86988 4.10982 4.77988 4.22982 4.81988C4.26982 4.83988 4.30982 4.86988 4.32982 4.89988C4.35982 4.93988 4.37982 4.98988 4.37982 5.03988C4.40982 5.40988 3.86982 5.55988 3.59982 5.61988C3.13982 5.71988 2.71982 5.80988 2.79982 6.52988L2.55982 6.64988L2.64982 6.85988C2.56982 6.85988 2.48982 6.87988 2.41982 6.91988C2.28982 7.00988 2.23982 7.16988 2.17982 7.34988C2.10982 7.55988 2.04982 7.74988 1.87982 7.91988C2.16982 7.93988 2.29982 7.79988 2.36982 7.62988C2.48982 7.64988 2.64982 7.59988 2.69982 7.46988C2.74982 7.33988 2.64982 7.16988 2.45982 7.26988C2.48982 7.12988 2.52982 7.01988 2.64982 7.02988C2.68982 7.02988 2.73982 7.05988 2.76982 7.08988C2.80982 7.11988 2.83982 7.15988 2.85982 7.20988C2.97982 7.55988 2.49982 7.83988 2.24982 7.95988C1.82982 8.16988 1.43982 8.36988 1.70982 9.03988L1.50982 9.21988L1.64982 9.39988C1.56982 9.41988 1.49982 9.44988 1.44982 9.51988C1.34982 9.63988 1.33982 9.80988 1.32982 9.98988C1.31982 10.2099 1.30982 10.4099 1.17982 10.6199C1.45982 10.5599 1.54982 10.3999 1.57982 10.2199C1.69982 10.2199 1.84982 10.1099 1.85982 9.97988C1.87982 9.83988 1.72982 9.70988 1.57982 9.84988C1.57982 9.69988 1.57982 9.58988 1.69982 9.56988C1.73982 9.56988 1.78982 9.56988 1.82982 9.58988C1.86982 9.60988 1.90982 9.63988 1.93982 9.68988C2.14982 9.99988 1.74982 10.3899 1.54982 10.5699C1.19982 10.8799 0.869822 11.1699 1.29982 11.7499L1.14982 11.9699L1.32982 12.1099C1.25982 12.1399 1.19982 12.1999 1.15982 12.2799C1.08982 12.4199 1.12982 12.5899 1.15982 12.7699C1.19982 12.9799 1.23982 13.1799 1.17982 13.4199C1.43982 13.2899 1.47982 13.1099 1.45982 12.9299C1.57982 12.8899 1.68982 12.7599 1.66982 12.6299C1.64982 12.4899 1.47982 12.3999 1.35982 12.5799C1.31982 12.4399 1.29982 12.3299 1.40982 12.2799C1.44982 12.2599 1.49982 12.2599 1.53982 12.2699C1.58982 12.2699 1.63982 12.2999 1.67982 12.3399C1.95982 12.5799 1.67982 13.0699 1.52982 13.2999C1.26982 13.6899 1.02982 14.0499 1.58982 14.5099L1.49982 14.7599L1.70982 14.8499C1.64982 14.8999 1.60982 14.9699 1.58982 15.0499C1.55982 15.1999 1.63982 15.3499 1.71982 15.5199C1.81982 15.7099 1.90982 15.8999 1.89982 16.1399C2.11982 15.9499 2.11982 15.7599 2.04982 15.5999C2.14982 15.5299 2.22982 15.3799 2.17982 15.2599C2.12982 15.1299 1.92982 15.0799 1.86982 15.2899C1.78982 15.1699 1.74982 15.0599 1.83982 14.9899C1.86982 14.9599 1.91982 14.9499 1.96982 14.9399C2.01982 14.9399 2.06982 14.9399 2.11982 14.9699C2.44982 15.1299 2.29982 15.6699 2.20982 15.9299C2.05982 16.3699 1.91982 16.7799 2.57982 17.0799L2.55982 17.3399L2.78982 17.3699C2.74982 17.4299 2.71982 17.5099 2.72982 17.5999C2.73982 17.7499 2.84982 17.8799 2.97982 18.0199C3.11982 18.1799 3.25982 18.3399 3.30982 18.5699C3.46982 18.3299 3.41982 18.1499 3.30982 18.0099C3.38982 17.9199 3.42982 17.7499 3.34982 17.6499C3.26982 17.5399 3.06982 17.5399 3.05982 17.7599C2.94982 17.6599 2.87982 17.5699 2.95982 17.4699C2.98982 17.4399 3.02982 17.4099 3.06982 17.3899C3.11982 17.3699 3.16982 17.3699 3.21982 17.3899C3.57982 17.4599 3.57982 18.0199 3.55982 18.2999C3.52982 18.7699 3.49982 19.1999 4.20982 19.3199L4.25982 19.5799L4.48982 19.5499C4.45982 19.6199 4.45982 19.6999 4.48982 19.7899C4.53982 19.9299 4.67982 20.0299 4.82982 20.1399C5.00982 20.2599 5.17982 20.3799 5.28982 20.5899C5.38982 20.3199 5.28982 20.1599 5.14982 20.0399C5.20982 19.9299 5.19982 19.7599 5.08982 19.6799C4.97982 19.5999 4.78982 19.6499 4.83982 19.8599C4.70982 19.7899 4.61982 19.7199 4.66982 19.6099C4.68982 19.5699 4.71982 19.5399 4.75982 19.5099C4.79982 19.4799 4.84982 19.4699 4.89982 19.4599C5.26982 19.4399 5.40982 19.9799 5.45982 20.2499C5.50982 20.5099 5.55982 20.7699 5.72982 20.9199L5.47982 21.2599L5.54982 21.3099L6.59982 19.8799L6.52982 19.8299L6.55982 19.8599ZM5.97982 20.5999L5.85982 20.7599C5.75982 20.6299 5.75982 20.4299 5.85982 20.3699C5.95982 20.2999 6.04982 20.3099 6.11982 20.3699C5.96982 20.3699 5.91982 20.5099 5.98982 20.6099L5.97982 20.5999Z" fill="#CFFFBD"/>
<path d="M8.76078 3.12004C7.86078 3.45004 7.03078 3.91004 6.29078 4.48004C5.95078 4.74004 5.63078 5.02004 5.32078 5.32004C4.87078 5.77004 4.47078 6.26004 4.12078 6.79004C3.13078 8.29004 2.55078 10.08 2.55078 12.01C2.55078 13.94 3.09078 15.6 4.02078 17.06C4.40078 17.65 4.83078 18.2 5.33078 18.69C5.94078 19.3 6.64078 19.83 7.40078 20.25C8.77078 21.02 10.3508 21.46 12.0308 21.46C14.6408 21.46 17.0108 20.4 18.7308 18.69C20.4408 16.98 21.5008 14.61 21.5008 12C21.5008 10.15 20.9708 8.43004 20.0508 6.98004C19.6708 6.38004 19.2308 5.82004 18.7208 5.31004C17.0108 3.60004 14.6408 2.54004 12.0208 2.54004C10.8808 2.54004 9.78078 2.74004 8.76078 3.11004V3.12004ZM17.9408 17.93C16.4208 19.45 14.3308 20.38 12.0108 20.38C9.69078 20.38 7.60078 19.44 6.08078 17.93C4.56078 16.41 3.62078 14.32 3.62078 12.01C3.62078 9.70004 4.56078 7.60004 6.08078 6.09004C7.60078 4.57004 9.69078 3.64004 12.0108 3.64004C14.3308 3.64004 16.4208 4.58004 17.9408 6.09004C19.4608 7.61004 20.4008 9.70004 20.4008 12.01C20.4008 14.32 19.4608 16.42 17.9408 17.93Z" fill="#CFFFBD"/>
<path d="M7.33984 18C7.33984 18 7.36984 18.1 7.38984 18.13L7.41984 18.02C7.41984 18.02 7.41984 18.01 7.41984 18C7.39984 18 7.38984 18 7.36984 18C7.36984 18 7.34984 18 7.33984 18Z" fill="#CFFFBD"/>
<path d="M7.68945 18.27C7.68945 18.27 7.72945 18.41 7.74945 18.45L7.76945 18.31C7.76945 18.31 7.73945 18.29 7.71945 18.29C7.71945 18.29 7.69945 18.28 7.68945 18.27Z" fill="#CFFFBD"/>
<path d="M7.55977 18.2999L7.57977 18.1799C7.57977 18.1799 7.52977 18.1799 7.50977 18.1599C7.50977 18.1899 7.53977 18.2699 7.55977 18.2999Z" fill="#CFFFBD"/>
<path d="M12.6293 11.9799C12.6993 11.8199 12.7593 11.6699 12.7993 11.5199C12.8493 11.3599 12.8793 11.1999 12.8993 11.0499C12.9193 10.8799 12.9193 10.7199 12.8993 10.5499C12.8893 10.3799 12.8593 10.2199 12.8393 10.0499C12.8093 9.80993 12.7693 9.58993 12.7693 9.35993C12.7693 9.22993 12.7893 9.06993 12.8493 8.92993C12.8893 8.82993 12.9393 8.73993 13.0093 8.68993C13.0093 8.68993 13.0193 8.68993 13.0293 8.67993C12.9493 8.70993 12.8893 8.76993 12.8393 8.83993C12.7393 8.98993 12.7093 9.20993 12.7093 9.35993C12.7093 9.58993 12.7293 9.82993 12.7593 10.0299V10.0699C12.7793 10.2099 12.7993 10.3699 12.7993 10.5299C12.7993 10.6899 12.7993 10.8599 12.7893 11.0299C12.7693 11.1699 12.7393 11.3199 12.6993 11.4799C12.6593 11.6199 12.5993 11.7699 12.5293 11.9199C12.5493 11.9199 12.5593 11.9399 12.5793 11.9499C12.5993 11.9499 12.6093 11.9699 12.6193 11.9799H12.6293Z" fill="#CFFFBD"/>
<path d="M11.0991 10.6599C11.1691 10.0499 11.1591 9.50994 11.0691 8.99994C10.9791 8.47994 10.8091 7.97994 10.5691 7.43994C10.5291 7.33994 10.4691 7.21994 10.4191 7.09994C10.3091 6.86994 10.1991 6.61994 10.1191 6.38994V6.36994C10.1191 6.34994 10.1091 6.31994 10.0991 6.29994C9.79906 5.98994 9.36906 5.68994 8.93906 5.76994C8.72906 5.80994 8.57906 5.96994 8.53906 6.15994C8.66906 6.00994 8.83906 5.95994 9.00906 5.95994C9.24906 5.95994 9.49906 6.09994 9.68906 6.23994C9.99906 6.49994 10.2591 6.87994 10.4591 7.35994C10.6591 7.83994 10.7991 8.40994 10.8591 9.03994C10.8991 9.41994 10.8991 9.77994 10.8791 10.1499C10.8591 10.4699 10.8191 10.7799 10.7691 11.1099C10.8391 11.1399 10.9191 11.1699 11.0191 11.1899C11.0591 11.0099 11.0791 10.8299 11.1091 10.6499L11.0991 10.6599Z" fill="#CFFFBD"/>
<path d="M10.7698 11.1201L10.7598 11.1101L10.7698 11.1201Z" fill="#CFFFBD"/>
<path d="M12.6092 11.45C12.6492 11.3 12.6792 11.16 12.6992 11.02C12.7192 10.86 12.7192 10.7 12.7092 10.54C12.7092 10.37 12.6792 10.21 12.6592 10.04C12.6292 9.78003 12.5892 9.48003 12.6192 9.21003C12.6192 9.18003 12.5992 9.15003 12.5992 9.12003C12.4792 8.67003 12.3792 8.28003 12.4592 7.96003C12.4992 7.74003 12.6292 7.45003 12.8792 7.42003C12.8492 7.41003 12.8192 7.39003 12.7892 7.38003C12.7292 7.36003 12.6692 7.35003 12.6092 7.37003C12.5592 7.37003 12.5092 7.40003 12.4692 7.43003C12.4292 7.46003 12.4092 7.48003 12.3792 7.51003C12.2092 7.74003 12.1792 8.05003 12.1892 8.36003C12.2092 8.68003 12.2792 9.00003 12.3392 9.25003C12.3792 9.41003 12.4192 9.58003 12.4492 9.75003C12.4792 9.92003 12.4992 10.09 12.5092 10.26C12.5292 10.54 12.5092 10.83 12.4692 11.1C12.4292 11.36 12.3792 11.6 12.3092 11.84C12.3492 11.85 12.3892 11.87 12.4292 11.89C12.4992 11.74 12.5492 11.6 12.5892 11.46L12.6092 11.45Z" fill="#CFFFBD"/>
<path d="M12.9409 11.98C12.9709 11.9 13.0009 11.83 13.0209 11.75C13.1109 11.47 13.1309 11.18 13.1509 10.88C13.1509 10.78 13.1609 10.68 13.1709 10.59C13.1709 10.53 13.1909 10.47 13.2009 10.42C13.1509 9.93002 13.0409 9.51002 13.0709 9.17002C13.0909 8.89002 13.1609 8.81002 13.4009 8.80002C13.3509 8.77002 13.3009 8.75002 13.2609 8.74002C13.1809 8.72002 13.1109 8.74002 13.0609 8.78002C13.0009 8.83002 12.9609 8.90002 12.9309 8.98002C12.8809 9.10002 12.8609 9.25002 12.8609 9.37002C12.8609 9.59002 12.8909 9.81002 12.9309 10.04C12.9509 10.21 12.9809 10.38 12.9909 10.55C13.0009 10.72 13.0009 10.89 12.9909 11.07C12.9709 11.23 12.9409 11.39 12.8909 11.56C12.8409 11.71 12.7909 11.87 12.7109 12.04C12.7609 12.08 12.8109 12.11 12.8509 12.16C12.8809 12.1 12.9109 12.05 12.9309 11.99L12.9409 11.98Z" fill="#CFFFBD"/>
<path d="M11.6309 11.05C11.6709 10.79 11.7009 10.52 11.7009 10.25C11.7009 10.25 11.7009 10.24 11.7009 10.23C11.7009 10.23 11.7009 10.23 11.7009 10.21C11.7009 9.81 11.6509 9.41 11.5809 9.01C11.5009 8.61 11.4009 8.22 11.2709 7.84V7.82C11.2509 7.77 11.2409 7.73 11.2309 7.69V7.67V7.66V7.65V7.64V7.63V7.62V7.61V7.59V7.57V7.55V7.54V7.53V7.52V7.51V7.5V7.48V7.46V7.45V7.44V7.43V7.42V7.41V7.4V7.38V7.37V7.36L11.0909 7.06C10.8909 6.66 10.7009 6.29 10.7009 5.97C10.7009 5.59 10.8509 5.15 11.2209 5.01C11.1809 5.01 11.1509 5 11.1109 5C10.9709 5 10.8509 5.06 10.7509 5.16C10.6509 5.26 10.5809 5.4 10.5309 5.55C10.4809 5.69 10.4609 5.84 10.4609 5.98C10.4609 6.4 10.6509 6.78 10.8309 7.15C10.8909 7.27 10.9409 7.39 11.0009 7.51C11.1109 7.75 11.2209 8.01 11.3209 8.29C11.4209 8.57 11.5109 8.86 11.5609 9.17C11.6509 9.71 11.6609 10.24 11.6109 10.76C11.5709 11.21 11.4809 11.64 11.3909 12.05C11.4709 12.02 11.5509 11.99 11.6409 11.97C11.7009 11.73 11.7509 11.48 11.7809 11.24L11.6309 11.05Z" fill="#CFFFBD"/>
<path d="M12.1704 11.14C12.2104 10.91 12.2304 10.68 12.2304 10.45C12.2304 10.41 12.2304 10.38 12.2304 10.36C12.2304 10.33 12.2304 10.3 12.2304 10.27C12.2204 10.07 12.1904 9.88005 12.1604 9.69005C12.1004 9.36005 12.0104 9.04005 11.9604 8.70005C11.9304 8.49005 11.9204 8.30005 11.9504 8.09005C11.9504 8.06005 11.9304 8.03005 11.9204 8.01005C11.8804 7.87005 11.8304 7.75005 11.7804 7.62005C11.6104 7.16005 11.4004 6.15005 12.1304 6.06005C12.1104 6.06005 12.1004 6.05005 12.0804 6.05005H12.0504C11.9704 6.07005 11.9004 6.11005 11.8404 6.18005C11.8104 6.22005 11.7804 6.26005 11.7504 6.31005C11.7204 6.36005 11.6904 6.42005 11.6704 6.47005C11.6704 6.47005 11.6704 6.49005 11.6604 6.50005C11.6604 6.50005 11.6604 6.52005 11.6504 6.53005V6.55005C11.6004 6.72005 11.5804 6.87005 11.5904 7.04005V7.07005V7.08005V7.11005V7.13005V7.15005V7.17005V7.19005V7.20005V7.21005V7.22005V7.24005V7.25005V7.27005V7.29005V7.31005V7.33005V7.35005V7.36005V7.38005V7.39005V7.41005L11.6004 7.42005V7.44005V7.46005V7.48005V7.49005V7.53005V7.55005V7.57005V7.58005V7.59005V7.61005L11.6104 7.62005V7.64005L11.6204 7.68005V7.71005V7.74005V7.77005V7.80005V7.83005V7.86005C11.7204 8.13005 11.7804 8.39005 11.8404 8.67005V8.70005V8.72005L11.8504 8.75005V8.79005C11.8704 8.89005 11.8904 8.99005 11.9104 9.10005V9.12005V9.16005L11.9204 9.19005V9.22005V9.25005V9.28005V9.30005V9.33005V9.36005C11.9704 9.64005 12.0004 9.89005 12.0004 10.18V10.21V10.24V10.27V10.3V10.33V10.36V10.39V10.42V10.45V10.48V10.51V10.54V10.57V10.6V10.63V10.66V10.69V10.73V10.76V10.8V10.84V10.89V10.93V10.97V11V11.04V11.07V11.1V11.14V11.15V11.18V11.22V11.27V11.28V11.32V11.35V11.39V11.4V11.43V11.44V11.45V11.46V11.51V11.54V11.57L11.9904 11.6V11.62V11.64V11.67V11.7V11.72C12.0504 11.72 12.1104 11.72 12.1804 11.73C12.2304 11.53 12.2804 11.32 12.3204 11.11L12.1704 11.14Z" fill="#CFFFBD"/>
<path d="M10.6809 11.0801C10.7309 10.7701 10.7709 10.4601 10.7809 10.1601C10.8009 9.80008 10.8009 9.44008 10.7609 9.07008C10.7009 8.45008 10.5609 7.88008 10.3709 7.42008C10.1809 6.95008 9.92094 6.58008 9.62094 6.34008C9.44094 6.21008 9.21094 6.08008 8.99094 6.08008C8.89094 6.08008 8.80094 6.10008 8.71094 6.15008C8.96094 6.11008 9.23094 6.20008 9.47094 6.39008C9.73094 6.59008 9.98094 6.91008 10.1609 7.29008C10.2509 7.47008 10.3209 7.67008 10.3809 7.87008C10.5309 8.42008 10.6109 8.95008 10.6109 9.50008C10.6109 9.98008 10.5809 10.4701 10.4909 10.9901C10.5409 11.0301 10.6009 11.0701 10.6709 11.1001L10.6809 11.0801Z" fill="#CFFFBD"/>
<path d="M11.1303 11.91C11.2303 11.49 11.3203 11.03 11.3603 10.56C11.4103 10.05 11.4103 9.52002 11.3203 9.00002C11.2703 8.70002 11.1903 8.41002 11.0903 8.14002C10.9903 7.87002 10.8803 7.61002 10.7703 7.37002C10.7203 7.25002 10.6603 7.13002 10.6103 7.02002C10.4203 6.64002 10.2403 6.25002 10.2303 5.81002C10.2303 5.66002 10.2603 5.50002 10.3103 5.35002C10.3503 5.23002 10.4003 5.12002 10.4603 5.02002C10.3603 5.12002 10.2803 5.25002 10.2303 5.37002C10.2003 5.44002 10.1803 5.51002 10.1703 5.57002C10.1103 5.93002 10.1503 6.08002 10.2103 6.36002C10.2803 6.60002 10.3903 6.85002 10.5003 7.07002C10.5603 7.19002 10.6103 7.31002 10.6603 7.42002C10.9003 7.97002 11.0803 8.48002 11.1703 9.01002C11.2603 9.54002 11.2803 10.08 11.2003 10.7C11.1803 10.89 11.1503 11.11 11.1003 11.3L11.0703 11.42L11.0503 11.51L11.0703 11.43C11.0203 11.64 10.9803 11.86 10.9203 12.07C10.9803 12.02 11.0503 11.98 11.1203 11.95L11.1303 11.91Z" fill="#CFFFBD"/>
<path d="M11.7491 11.7199C11.8291 11.3499 11.8991 10.9899 11.9291 10.6099V10.5799V10.5499V10.5199V10.4899V10.4599V10.2399V10.2099V10.1999V10.1799V10.1599V10.1399V10.1299V10.1199V10.0999V10.0899V10.0799V10.0599C11.9291 9.8999 11.9091 9.7499 11.8791 9.5899V9.5699C11.8691 9.4999 11.8591 9.4199 11.8391 9.3499C11.8191 9.2499 11.8091 9.1499 11.7891 9.0599V9.0299L11.7791 8.9999V8.9699L11.7691 8.9099V8.8699V8.8299L11.7591 8.7999C11.7291 8.6599 11.6991 8.5299 11.6691 8.3999V8.3699L11.6591 8.3399V8.3099V8.2799L11.6391 8.2499V8.2199V8.1899L11.6191 8.1599V8.1299L11.5991 8.0999V8.0699L11.5791 8.0399V8.0099L11.5591 7.9799V7.9499V7.9199L11.5391 7.8899V7.8599V7.8299L11.5191 7.7999V7.7699L11.4991 7.7399V7.7099L11.4891 7.6999V7.6599V7.6399V7.6299V7.6099V7.5899V7.5699V7.5599V7.5399V7.5099H11.4791V7.4799H11.4691V7.4599V7.4499V7.4199H11.4591V7.3999V7.3599L11.4491 7.3499V7.3399V7.3299V7.3199V7.2899V7.2699V7.2599V7.2499V7.2199V7.2099V7.1999V7.1899V7.1799V7.1699V7.1599V7.1499V7.1399V7.1299V7.1199V7.1099V7.0999V7.0899V7.0799V7.0699V7.0599V7.0499V7.0399V7.0299V6.9999V6.9799V6.9599V6.9499V6.9399V6.9299V6.9099V6.8999V6.8899V6.8599V6.8499V6.8299V6.8099V6.7999V6.7899V6.7699V6.7599V6.7399V6.7299V6.7199V6.6999V6.6799V6.6699V6.6499V6.6299V6.6099C11.4491 6.5999 11.4491 6.5899 11.4591 6.5799C11.4591 6.5799 11.4591 6.5599 11.4691 6.5499C11.4891 6.4899 11.5191 6.4299 11.5491 6.3699C11.5791 6.3199 11.6091 6.2699 11.6491 6.2299C11.6491 6.2299 11.7091 6.1699 11.7391 6.1499C11.6391 6.1799 11.5491 6.2499 11.4791 6.3299C11.3791 6.4399 11.3091 6.5999 11.2691 6.7699C11.1791 7.1399 11.2791 7.4699 11.3991 7.8199C11.4091 7.8599 11.4291 7.8999 11.4391 7.9499V7.9699C11.5691 8.3599 11.6691 8.7499 11.7491 9.1499C11.8291 9.5499 11.8691 9.9599 11.8691 10.3699C11.8691 10.3699 11.8691 10.3799 11.8691 10.3899C11.8691 10.3899 11.8691 10.3899 11.8691 10.4099C11.8691 10.6899 11.8391 10.9599 11.7991 11.2199C11.7591 11.4499 11.7191 11.6799 11.6591 11.9199C11.7091 11.9199 11.7591 11.9099 11.8191 11.8999V11.8699L11.7491 11.7199Z" fill="#CFFFBD"/>
<path d="M12.1793 11.79C12.1993 11.79 12.2193 11.79 12.2393 11.81C12.2993 11.58 12.3593 11.34 12.3893 11.09C12.4293 10.82 12.4493 10.55 12.4293 10.27C12.4293 10.1 12.3993 9.93997 12.3693 9.76997C12.3393 9.60997 12.2993 9.43997 12.2593 9.27997C12.1993 9.02997 12.1193 8.69997 12.0993 8.36997C12.0793 8.03997 12.1193 7.70997 12.2993 7.46997C12.2593 7.51997 12.2193 7.56997 12.1893 7.62997C12.0993 7.79997 12.0493 8.00997 12.0293 8.20997C12.0293 8.22997 12.0293 8.24997 12.0293 8.26997C12.0293 8.27997 12.0293 8.29997 12.0293 8.31997C12.0293 8.43997 12.0393 8.56997 12.0593 8.67997C12.0793 8.83997 12.1093 8.97997 12.1393 9.09997C12.1793 9.28997 12.2193 9.46997 12.2593 9.65997C12.2893 9.84997 12.3193 10.05 12.3293 10.25C12.3293 10.28 12.3293 10.31 12.3293 10.34C12.3293 10.38 12.3293 10.41 12.3293 10.43C12.3293 10.67 12.2993 10.9 12.2593 11.14C12.2193 11.35 12.1693 11.56 12.1193 11.76C12.1393 11.76 12.1493 11.76 12.1693 11.77L12.1793 11.79Z" fill="#CFFFBD"/>
<path d="M13.7305 11.52C13.7305 11.52 13.6405 11.62 13.6105 11.68V11.69C13.5505 11.83 13.5005 11.97 13.4505 12.11C13.3905 12.29 13.3305 12.47 13.2305 12.65C13.2405 12.68 13.2605 12.72 13.2705 12.75C13.3405 12.63 13.4005 12.49 13.4405 12.36C13.4905 12.21 13.5405 12.05 13.5805 11.89C13.6005 11.81 13.6405 11.68 13.7005 11.59C13.7205 11.55 13.7505 11.52 13.7805 11.49C13.7605 11.49 13.7505 11.51 13.7305 11.52Z" fill="#CFFFBD"/>
<path d="M13.6591 11.9101C13.6191 12.0701 13.5791 12.2301 13.5191 12.3801C13.4691 12.5401 13.3991 12.6901 13.3091 12.8301C13.3091 12.8301 13.2991 12.8501 13.2891 12.8601C13.3091 12.9301 13.3191 13.0001 13.3291 13.0701C13.3891 12.9901 13.4391 12.8901 13.4891 12.8001C13.5591 12.6601 13.6191 12.5101 13.6591 12.3601C13.6591 12.3601 13.6791 12.2901 13.6791 12.2501C13.6791 12.2101 13.6891 12.1601 13.6991 12.1101C13.6991 12.1101 13.6991 12.0601 13.6991 12.0301C13.6991 11.9801 13.6991 11.9301 13.7191 11.8801C13.7391 11.7301 13.7891 11.5801 13.9291 11.5501C13.9291 11.5501 13.9291 11.5501 13.9191 11.5501C13.8891 11.5301 13.8691 11.5401 13.8391 11.5501C13.8091 11.5701 13.7791 11.6001 13.7591 11.6301C13.6991 11.7201 13.6591 11.8401 13.6491 11.9101H13.6591Z" fill="#CFFFBD"/>
<path d="M13.7306 10.1701C13.7306 10.1701 13.7206 10.1701 13.7106 10.1701H13.6906C13.6906 10.1701 13.6906 10.1701 13.6806 10.1701C13.6806 10.1701 13.6806 10.1701 13.6706 10.1701V10.1801V10.1901C13.6706 10.1901 13.6706 10.2001 13.6706 10.2101V10.2301V10.2401V10.2501V10.2601V10.2801V10.3001V10.3201V10.3401V10.3601V10.3801V10.4001V10.4201V10.4401V10.4601V10.4801V10.5001V10.5201V10.5401V10.5601V10.5801V10.6001V10.6201V10.6401V10.6601V10.6801V10.7001V10.7201V10.7301V10.7401V10.7601V10.7801V10.8001V10.8201V10.8501V10.8701V10.8901V10.9101V10.9301V10.9801V11.0001V11.0201V11.0401V11.0601V11.0801V11.1001V11.1201V11.1401V11.1601V11.1801V11.2001V11.2201V11.2401V11.2601V11.2801V11.3001V11.3201V11.3401V11.3601V11.3801V11.4001V11.4201V11.4401V11.4601V11.4801V11.5001V11.5201V11.5401V11.5601V11.5801V11.6001V11.6201V11.6401V11.6601V11.6801V11.7001V11.7201V11.7401V11.7601V11.7801V11.8001V11.8201V11.8401V11.8601V11.8801V11.9001V11.9201V11.9401V11.9601V11.9801V11.9901V12.0001V12.0101V12.0301C13.6706 12.0301 13.6506 12.0701 13.6406 12.0801C13.6806 12.1301 13.7106 12.1901 13.7406 12.2401C13.8206 12.0901 13.8706 11.9301 13.9206 11.7801C13.9706 11.6401 14.0206 11.5001 14.0806 11.3601C14.1006 11.2401 14.1106 11.1301 14.1206 11.0101C14.1206 10.8901 14.1206 10.7801 14.1206 10.6701C14.1206 10.6001 14.1206 10.5301 14.1206 10.4801C14.1206 10.4801 14.1206 10.4301 14.1206 10.4101C14.1206 10.2101 14.1206 9.98012 14.3006 9.87012L13.7306 10.1701Z" fill="#CFFFBD"/>
<path d="M13.0898 12.1299V12.1199V12.0999V12.0799V12.0599V12.0399V12.0199V11.9999V11.9799V11.9599V11.9399V11.9199V11.8999V11.8799V11.8599V11.8399V11.8199V11.7999V11.7799V11.7599V11.7399V11.7199V11.6999V11.6799V11.6599V11.6399V11.6199V11.5999V11.5799V11.5599V11.5399V11.5199V11.4999V11.4799V11.4599V11.4399V11.4199V11.3999V11.3799V11.3599V11.3399V11.3199V11.2999V11.2799V11.2599V11.2399V11.2199V11.1999V11.1799V11.1599V11.1399V11.1199V11.0999V11.0799V11.0599V11.0399V11.0199V10.9999V10.9799V10.9599V10.9399V10.9199V10.8999V10.8799V10.8699V10.8499V10.8299V10.8099V10.7899V10.7699V10.7499V10.7299V10.7199V10.7099V10.6899V10.6799C13.0898 10.6799 13.0698 10.6999 13.0698 10.7099C12.9998 10.7899 12.9498 10.9099 12.9398 11.0599C12.9398 11.1499 12.9198 11.2499 12.9198 11.3399V11.3599C12.8998 11.6699 12.8698 11.9599 12.7798 12.2499C12.7598 12.3299 12.7298 12.4099 12.6898 12.4899C12.6598 12.5499 12.6298 12.6199 12.5898 12.6799C12.6198 12.7099 12.6398 12.7299 12.6698 12.7599C12.6998 12.6999 12.7298 12.6499 12.7598 12.5899L13.0898 12.1299Z" fill="#CFFFBD"/>
<path d="M15.4004 17.8401C15.4004 17.8401 15.4004 17.8601 15.4004 17.8801C15.4004 17.9301 15.4004 17.9701 15.4004 18.0101L15.4704 17.8901C15.4704 17.8901 15.4204 17.8701 15.4004 17.8501V17.8401Z" fill="#CFFFBD"/>
<path d="M15.5801 18.03C15.5801 18.03 15.5901 18.2 15.6401 18.23L15.6801 18.1C15.6801 18.1 15.6001 18.06 15.5901 18.03H15.5801Z" fill="#CFFFBD"/>
<path d="M18.5694 11.2201C18.6794 11.1501 18.7894 11.0701 18.8394 10.9101C18.9094 10.6701 18.8794 10.1401 18.5994 9.60011C18.4094 9.23011 18.0894 8.87011 17.6094 8.60011C17.4994 8.54011 17.4294 8.50011 17.3494 8.45011C16.6494 8.06011 15.8094 7.60011 15.4694 7.19011C15.0694 6.72011 15.2794 6.13011 15.3294 5.99011C15.3594 5.89011 15.3594 5.81011 15.3294 5.76011C15.3094 5.71011 15.2694 5.68011 15.2194 5.65011C15.1694 5.62011 15.0994 5.61011 15.0294 5.61011C14.8894 5.61011 14.7494 5.65011 14.6694 5.72011C14.5594 5.82011 14.4494 5.97011 14.3794 6.18011C14.3094 6.39011 14.2994 6.66011 14.3894 7.01011C14.5894 7.75011 15.5594 8.37011 16.3794 8.90011C16.8094 9.17011 17.1894 9.42011 17.4294 9.66011C17.7694 10.0101 17.9694 10.2401 17.9794 10.4201C17.9994 10.6101 17.8194 10.7401 17.4394 10.8701H17.4194H17.3994C17.0794 10.6801 16.7594 10.4901 16.4394 10.3601C16.1194 10.2301 15.8094 10.1401 15.5294 10.1401C14.9894 10.1401 14.5194 10.3901 13.9994 10.6601C13.8794 10.7201 13.7594 10.7801 13.6394 10.8401C13.6394 10.8901 13.6394 10.9401 13.6394 10.9801C13.6394 11.0901 13.6394 11.2001 13.6394 11.3201C13.6394 11.3701 13.6394 11.4301 13.6294 11.4801C13.6394 11.4701 13.6494 11.4601 13.6694 11.4501C13.6694 11.4501 13.7494 11.4001 13.7894 11.4001C13.8294 11.4001 13.8794 11.4001 13.9294 11.4301C13.9794 11.4601 14.0294 11.5001 14.0794 11.5701C14.0794 11.5701 14.0894 11.5901 14.0994 11.5901L14.1594 11.6801L14.0494 11.6601C13.9094 11.6401 13.8594 11.7701 13.8394 11.9101C13.8394 11.9601 13.8294 12.0101 13.8194 12.0501C13.8194 12.0801 13.8194 12.1101 13.8194 12.1301C13.8194 12.1301 13.8094 12.2301 13.7994 12.2701C13.7994 12.3201 13.7894 12.3601 13.7794 12.3901C13.7394 12.5401 13.6794 12.7001 13.6094 12.8501C13.5394 12.9801 13.4594 13.1001 13.3794 13.2101C13.3794 13.2301 13.3794 13.2601 13.3794 13.2801C13.3794 13.6001 13.2794 13.9001 13.1094 14.1501C13.3394 13.9701 13.5694 13.7701 13.7894 13.5801C14.4894 12.9701 15.1394 12.4001 15.6994 12.5901H15.7194V12.6201C16.0094 13.3701 16.3694 13.9201 16.7294 14.4801C16.9094 14.7601 17.0894 15.0401 17.2694 15.3401V15.3601C17.2794 15.9101 16.9894 16.3901 16.7094 16.8601C16.6694 16.9301 16.6294 16.9901 16.5894 17.0601V17.0801H16.5594C16.3694 17.1501 16.1794 17.1001 15.9994 17.0501C15.7294 16.9701 15.4794 16.9101 15.3194 17.3701C15.3094 17.4101 15.2994 17.4401 15.2994 17.4701C15.2994 17.4901 15.2994 17.5001 15.3094 17.5101C15.3094 17.5101 15.3194 17.5201 15.3394 17.5201C15.3394 17.5201 15.3594 17.5201 15.3694 17.5201C15.3994 17.4301 15.4694 17.3601 15.5494 17.3101C15.6494 17.2501 15.7794 17.2201 15.8894 17.2301C15.9194 17.2301 15.9394 17.2601 15.9294 17.2801C15.9294 17.3101 15.8994 17.3301 15.8794 17.3201C15.7894 17.3201 15.6794 17.3301 15.5994 17.3901C15.5294 17.4301 15.4794 17.4901 15.4594 17.5501V17.5701C15.4394 17.6401 15.4394 17.6901 15.4494 17.7201C15.4494 17.7401 15.4594 17.7501 15.4694 17.7601C15.4694 17.7601 15.4894 17.7701 15.4994 17.7801C15.5094 17.7801 15.5294 17.7801 15.5394 17.7801C15.5394 17.7801 15.5394 17.7801 15.5394 17.7701C15.5694 17.6801 15.6494 17.6201 15.7294 17.5801C15.8194 17.5501 15.9194 17.5401 16.0094 17.5601C16.0294 17.5601 16.0594 17.5701 16.0794 17.5801C16.1094 17.5801 16.1194 17.6201 16.1094 17.6401C16.1094 17.6701 16.0694 17.6801 16.0494 17.6701C16.0294 17.6701 16.0094 17.6601 15.9994 17.6501C15.9194 17.6301 15.8394 17.6401 15.7694 17.6601C15.7094 17.6901 15.6494 17.7301 15.6294 17.7901C15.6294 17.7901 15.6294 17.8001 15.6294 17.8101C15.5994 17.9601 15.6594 18.0201 15.7694 18.0201C15.9094 18.0201 16.1094 17.9701 16.2994 17.9101C16.3794 17.8801 16.4594 17.8601 16.5394 17.8401C16.6694 17.8101 16.7594 17.7801 16.7794 17.7601C16.8094 17.7101 16.8494 17.6601 16.8794 17.6001C16.9694 17.4501 17.0594 17.3001 17.1694 17.2901H17.2094C17.3394 17.3001 17.4694 17.3101 17.5994 17.2701C17.5794 17.2701 17.5494 17.2501 17.5294 17.2401C17.4794 17.2101 17.4394 17.1801 17.4194 17.1401C17.3894 17.1001 17.3794 17.0501 17.3994 16.9901C17.3994 16.9601 17.4194 16.9401 17.4494 16.9101V16.8901C17.8294 16.4101 18.1294 16.0001 18.3494 15.2801C17.7994 14.4801 17.9294 13.8701 18.0794 13.1801C18.1694 12.7501 18.2694 12.2901 18.1994 11.7401V11.7301C18.2394 11.3901 18.3994 11.2801 18.5594 11.1801L18.5694 11.2201Z" fill="#CFFFBD"/>
<path d="M15.3193 17.7701C15.3193 17.7201 15.3193 17.6701 15.3493 17.6301C15.3093 17.6301 15.2993 17.6201 15.2793 17.6001C15.2793 17.6801 15.3093 17.7501 15.3193 17.7701Z" fill="#CFFFBD"/>
<path d="M12.6401 16.4099C12.6201 16.4699 12.6201 16.5199 12.6601 16.5799C12.6601 16.5399 12.6601 16.4699 12.6601 16.4399C12.6601 16.4399 12.6401 16.4199 12.6301 16.4099H12.6401Z" fill="#CFFFBD"/>
<path d="M12.9297 16.7299C12.9297 16.7799 12.9497 16.83 12.9797 16.87L13.0197 16.76C13.0197 16.76 12.9597 16.72 12.9297 16.7V16.7199V16.7299Z" fill="#CFFFBD"/>
<path d="M15.9108 15.18C15.9608 15.15 16.0108 15.12 16.0808 15.07C16.2108 14.98 16.1908 14.83 16.1708 14.67C16.1408 14.46 16.1108 14.24 16.3608 14.09C16.2308 13.89 16.1108 13.68 15.9908 13.45C15.8708 13.21 15.7508 12.96 15.6408 12.68C15.5108 12.64 15.3708 12.65 15.2208 12.69C15.0708 12.73 14.9108 12.82 14.7508 12.92C14.8108 13.08 14.9108 13.27 15.0008 13.46C15.1708 13.8 15.3508 14.14 15.3408 14.35C15.3308 14.56 15.2108 14.82 14.9808 15.09C14.7808 15.34 14.4908 15.6 14.1208 15.84C13.9008 15.97 13.6808 15.92 13.4908 15.88C13.3908 15.86 13.3008 15.84 13.2208 15.84C13.1008 15.84 13.0008 15.88 12.9108 15.93C12.8308 15.99 12.7608 16.07 12.7108 16.19C12.6908 16.24 12.7008 16.28 12.7108 16.31C12.7108 16.32 12.7208 16.33 12.7308 16.34C12.7708 16.27 12.8208 16.22 12.8908 16.17C12.9908 16.11 13.1208 16.08 13.2308 16.09C13.2608 16.09 13.2808 16.12 13.2708 16.14C13.2708 16.17 13.2408 16.19 13.2208 16.18C13.1308 16.18 13.0308 16.19 12.9408 16.25C12.8708 16.29 12.8108 16.35 12.7908 16.43C12.7908 16.47 12.7908 16.51 12.8008 16.54C12.8008 16.54 12.8008 16.54 12.8008 16.55C12.8008 16.55 12.8108 16.55 12.8208 16.55C12.8208 16.55 12.8308 16.55 12.8408 16.55C12.8708 16.45 12.9608 16.39 13.0608 16.35C13.1608 16.32 13.2708 16.31 13.3708 16.34C13.3708 16.34 13.4108 16.34 13.4208 16.36C13.4508 16.36 13.4608 16.4 13.4508 16.42C13.4508 16.45 13.4108 16.46 13.3908 16.45C13.3808 16.45 13.3608 16.45 13.3508 16.44C13.2708 16.42 13.1708 16.43 13.0908 16.45C13.0208 16.47 12.9608 16.52 12.9408 16.58C13.1008 16.72 13.2908 16.69 13.5108 16.65C13.6208 16.63 13.7308 16.61 13.8408 16.61C14.0908 16.61 14.2508 16.46 14.3608 16.34C14.4008 16.3 14.4408 16.26 14.4808 16.24L14.5108 16.22L14.5408 16.25C14.5408 16.25 14.6308 16.32 14.6708 16.32C14.7008 16.32 14.7308 16.32 14.7508 16.31C14.6108 15.94 15.3608 15.47 15.8908 15.15L15.9108 15.18Z" fill="#CFFFBD"/>
<path d="M12.75 16.6101C12.75 16.6101 12.75 16.7201 12.78 16.7501L12.81 16.6801C12.81 16.6801 12.76 16.6301 12.75 16.6101Z" fill="#CFFFBD"/>
<path d="M8.12969 18.2299C8.28969 18.1599 8.46969 18.1599 8.62969 18.1599C8.83969 18.1599 9.01969 18.1599 9.10969 18.0099L9.40969 17.4899L9.43969 17.4299L9.47969 17.4799C9.47969 17.4799 9.57969 17.5499 9.64969 17.5699C9.69969 17.5699 9.75969 17.5699 9.81969 17.5699C9.75969 17.5099 9.70969 17.4399 9.67969 17.3699C9.63969 17.2799 9.62969 17.1899 9.64969 17.1099C9.80969 16.6199 10.0497 16.2199 10.2997 15.7999C10.4097 15.5999 10.5297 15.4099 10.6397 15.1899L10.7197 14.9099L10.8397 14.4799C10.8197 14.4599 10.7997 14.4499 10.7797 14.4299H10.7597V14.4199L10.7497 14.4099V14.3999H10.7397V14.3899V14.3799V14.3699V14.3599V14.3499L10.7297 14.3399L10.7197 14.3299V14.3199V14.3099V14.2999V14.2899V14.2699V14.2599V14.2399V14.2199V14.2099V14.1999V14.1899V14.1799V14.1699V14.1499V14.1399V14.1299V14.1099V14.0799V14.0599V14.0399V14.0299V14.0199V14.0099V13.9999V13.9799V13.9699V13.9599V13.9299C10.7197 13.9299 10.7197 13.9099 10.7197 13.8999V13.8799V13.8599V13.8499V13.8299V13.8099V13.7999V13.7699V13.7499C10.7197 13.7499 10.7097 13.7199 10.7097 13.6999V13.6799V13.6599V13.6399V13.6199V13.5999V13.5799V13.5599V13.5399V13.5199C10.7097 13.4799 10.7097 13.4399 10.7097 13.3899C10.7097 12.9599 10.8797 12.5799 11.1597 12.2999C11.1797 12.2799 11.2097 12.2499 11.2397 12.2299C11.3097 11.9399 11.3397 11.8299 11.3997 11.5499L11.4297 11.3999C10.7297 11.2099 10.5997 10.8699 10.3997 10.3599C10.3697 10.2899 10.3397 10.2099 10.3097 10.1399L10.2897 10.0999C10.0497 9.4999 9.83969 8.9899 9.21969 8.8499H9.16969V8.7899C9.18969 8.6599 9.18969 8.5099 9.13969 8.3899C9.10969 8.2999 9.04969 8.2299 8.95969 8.2199C8.84969 8.1999 8.75969 8.2199 8.67969 8.2799C8.58969 8.3399 8.50969 8.4399 8.41969 8.5499L8.39969 8.5699H8.36969C8.22969 8.5499 8.07969 8.5299 7.92969 8.5699C7.78969 8.6099 7.64969 8.7099 7.52969 8.9299V8.9499H7.49969C7.28969 8.9899 7.04969 9.0899 6.88969 9.2199C6.76969 9.3099 6.68969 9.4199 6.67969 9.5299C6.75969 9.4999 6.84969 9.4699 6.91969 9.4499C6.98969 9.4299 7.00969 9.5299 6.94969 9.5599L6.69969 9.6899C6.69969 9.6899 6.73969 9.7599 6.75969 9.7799C6.81969 9.8399 6.89969 9.8699 6.93969 9.8799C6.95969 9.8799 6.99969 9.8799 7.04969 9.8799C7.20969 9.8599 7.43969 9.8299 7.49969 9.9799C7.49969 9.9899 7.49969 9.9999 7.49969 10.0099C7.49969 10.0699 7.47969 10.1199 7.42969 10.1599C7.38969 10.1999 7.32969 10.2299 7.26969 10.2499C7.19969 10.2799 7.11969 10.2999 7.04969 10.3099C7.05969 10.3599 7.08969 10.3999 7.10969 10.4299C7.14969 10.4699 7.18969 10.4999 7.23969 10.4999C7.34969 10.5099 7.48969 10.4499 7.61969 10.3799C7.78969 10.2899 7.95969 10.2099 8.06969 10.2999C8.62969 10.7199 8.63969 11.5099 8.64969 12.3199C8.64969 12.5799 8.64969 12.8299 8.67969 13.0799C8.67969 13.1499 8.69969 13.2199 8.71969 13.2999V13.3199V13.3299V13.3399V13.3499V13.3599C8.71969 13.3599 8.71969 13.3799 8.72969 13.3899V13.4099V13.4199V13.4299V13.4399V13.4499V13.4799H8.73969V13.4899V13.5099V13.5199V13.5299V13.5399V13.5499V13.5699V13.5799V13.5899V13.6099V13.6199V13.6299V13.6399V13.6499V13.6599V13.6699V13.6799V13.6899V13.6999V13.7099V13.7299V13.7399V13.7499V13.7599V13.7699V13.7799V13.7999V13.8099V13.8199V13.8399V13.8499V13.8599V13.8799V13.8899V13.8999V13.9099V13.9199V13.9299V13.9399V13.9499V13.9599V13.9699V13.9799V13.9899V13.9999V14.0099V14.0199L8.74969 14.0399V14.0499V14.0599V14.0699V14.0799V14.0899V14.0999V14.1099V14.1199V14.1399C8.74969 14.1399 8.79969 14.1699 8.82969 14.1899C8.87969 13.7399 8.97969 13.4499 9.07969 13.1599C9.14969 12.9599 9.21969 12.7599 9.26969 12.5199L9.35969 12.5399V12.5699C9.30969 12.8099 9.23969 12.9999 9.17969 13.1899C9.03969 13.5899 8.90969 13.9799 8.90969 14.7899C8.83969 15.1999 8.76969 15.5699 8.66969 15.9299C8.56969 16.2899 8.43969 16.6399 8.23969 17.0199V17.0399H8.19969C8.08969 17.0399 7.98969 17.0299 7.88969 17.0199C7.74969 16.9999 7.60969 16.9899 7.46969 17.0199C7.33969 17.0399 7.17969 17.1299 7.05969 17.2499C6.95969 17.3499 6.88969 17.4799 6.88969 17.5999C6.88969 17.5999 6.88969 17.5999 6.89969 17.5999H6.91969C6.92969 17.5999 6.93969 17.5999 6.94969 17.5799C6.96969 17.4799 7.04969 17.3899 7.13969 17.3399C7.23969 17.2799 7.36969 17.2499 7.47969 17.2599C7.50969 17.2599 7.52969 17.2899 7.51969 17.3099C7.51969 17.3399 7.48969 17.3599 7.46969 17.3499C7.37969 17.3499 7.27969 17.3599 7.18969 17.4199C7.11969 17.4599 7.05969 17.5299 7.03969 17.5999C7.02969 17.6499 7.02969 17.6799 7.03969 17.7099C7.03969 17.7299 7.05969 17.7399 7.06969 17.7499C7.07969 17.7499 7.09969 17.7599 7.10969 17.7599C7.11969 17.7599 7.12969 17.7599 7.13969 17.7599C7.16969 17.6599 7.23969 17.5899 7.32969 17.5299C7.42969 17.4699 7.55969 17.4399 7.66969 17.4499C7.69969 17.4499 7.71969 17.4799 7.70969 17.4999C7.70969 17.5299 7.67969 17.5499 7.65969 17.5399C7.56969 17.5399 7.45969 17.5499 7.37969 17.6099C7.30969 17.6499 7.24969 17.7099 7.22969 17.7899C7.22969 17.8099 7.22969 17.8199 7.22969 17.8299C7.22969 17.8499 7.25969 17.8699 7.27969 17.8799C7.30969 17.8999 7.33969 17.9099 7.37969 17.9199C7.46969 17.9399 7.56969 17.9299 7.63969 17.8999L8.12969 18.2299ZM8.19969 8.5599C8.22969 8.3999 8.30969 8.2899 8.37969 8.2599C8.40969 8.2399 8.44969 8.2399 8.48969 8.2399C8.51969 8.2399 8.55969 8.2599 8.57969 8.2899C8.63969 8.3499 8.66969 8.4699 8.62969 8.6499V8.6999L8.17969 8.6099V8.5599H8.19969ZM7.35969 9.0699L7.28969 9.0199C7.45969 8.9599 7.47969 8.8099 7.63969 8.7899C7.79969 8.7699 7.88969 8.8599 8.06969 8.9899C7.80969 8.9599 7.77969 9.0799 7.68969 9.0899C7.59969 9.0899 7.51969 8.9999 7.36969 9.0699H7.35969ZM8.68969 10.0199C8.51969 10.1099 8.24969 10.1199 7.77969 10.0699C7.74969 10.0699 7.72969 10.0399 7.73969 10.0199C7.73969 9.9899 7.76969 9.9699 7.78969 9.9799C8.22969 10.0299 8.48969 10.0199 8.63969 9.9399C8.77969 9.8599 8.81969 9.7099 8.83969 9.4599C8.83969 9.4299 8.86969 9.4099 8.88969 9.4099C8.91969 9.4099 8.93969 9.4399 8.93969 9.4599C8.91969 9.7499 8.85969 9.9199 8.68969 10.0199Z" fill="#CFFFBD"/>
<path d="M5.88922 14.56L5.79922 14.53C5.79922 14.53 5.75922 14.55 5.73922 14.57C5.72922 14.57 5.70922 14.58 5.69922 14.59C5.74922 14.6 5.78922 14.6 5.81922 14.59C5.83922 14.59 5.85922 14.57 5.87922 14.56H5.88922Z" fill="#CFFFBD"/>
<path d="M5.51 14.6701C5.51 14.6701 5.54 14.6701 5.56 14.6701C5.6 14.6701 5.64 14.6701 5.67 14.6501L5.62 14.6201C5.62 14.6201 5.54 14.6501 5.5 14.6601L5.51 14.6701Z" fill="#CFFFBD"/>
<path d="M11.7001 14.85C11.7001 14.85 11.7601 14.84 11.7801 14.83C11.4601 14.83 11.1701 14.72 10.9301 14.55L10.8301 14.93C11.1101 14.94 11.4201 14.91 11.7001 14.85Z" fill="#CFFFBD"/>
<path d="M6.05063 14.4199L5.96063 14.3899C5.96063 14.3899 5.92062 14.4299 5.89062 14.4499C5.93062 14.4499 5.96062 14.4499 5.99062 14.4499C6.01062 14.4499 6.03063 14.4299 6.05063 14.4199Z" fill="#CFFFBD"/>
<path d="M9.19951 14.5401C8.97951 14.4001 8.75951 14.1801 8.58951 13.9401C8.41951 13.7001 8.27951 13.4401 8.21951 13.2101L6.74951 13.0601C5.63951 12.9501 5.21951 13.3501 5.13951 13.8501C5.05951 14.3501 5.19951 14.6701 5.47951 14.6301C5.47951 14.6301 5.49951 14.6301 5.50951 14.6301C5.39951 14.5801 5.32951 14.5101 5.28951 14.4001C5.25951 14.2801 5.26951 14.1201 5.32951 13.9101C5.32951 13.8801 5.35951 13.8701 5.38951 13.8801C5.41951 13.8801 5.42951 13.9101 5.41951 13.9401C5.36951 14.1301 5.34951 14.2801 5.37951 14.3801C5.39951 14.4701 5.50951 14.5501 5.64951 14.5801C5.67951 14.5601 5.70951 14.5501 5.74951 14.5201C5.65951 14.4801 5.58951 14.4001 5.55951 14.2901C5.51951 14.1901 5.51951 14.0601 5.55951 13.9101C5.55951 13.8801 5.58951 13.8701 5.61951 13.8701C5.64951 13.8701 5.65951 13.9001 5.65951 13.9301C5.62951 14.0601 5.62951 14.1701 5.65951 14.2601C5.68951 14.3501 5.75951 14.4301 5.84951 14.4501C5.88951 14.4201 5.92951 14.3801 5.94951 14.3501C6.13951 14.1101 5.86951 13.7201 6.35951 13.6401C6.48951 13.6201 6.41951 13.8301 6.39951 13.9601C6.57951 13.9601 6.67951 13.7401 6.84951 13.7801C7.66951 13.9601 8.62951 15.2001 9.19951 14.5501V14.5401Z" fill="#CFFFBD"/>
<path d="M8.47055 8.33007C8.47055 8.33007 8.44055 8.33007 8.43055 8.33007C8.38055 8.35007 8.34055 8.42007 8.31055 8.52007L8.55055 8.57007C8.56055 8.46007 8.55055 8.38007 8.51055 8.34007C8.50055 8.33007 8.49055 8.32007 8.47055 8.32007V8.33007Z" fill="#CFFFBD"/>
<path d="M11.9307 13.8C11.9307 13.8 11.9307 13.76 11.9307 13.75C11.9307 13.7 11.9107 13.66 11.8907 13.63C11.8707 13.58 11.8507 13.54 11.8207 13.54C11.7807 13.54 11.7407 13.64 11.7207 13.75C11.7207 13.77 11.7207 13.8 11.7207 13.83C11.7207 13.85 11.7207 13.86 11.7207 13.88C11.7207 13.92 11.7207 13.96 11.7207 13.99C11.7207 14 11.7207 14.01 11.7307 14.02C11.7307 14.03 11.7407 14.04 11.7507 14.05C11.7707 14.07 11.7907 14.09 11.8307 14.09C11.8607 14.09 11.8907 14.08 11.9007 14.06C11.9207 14.04 11.9307 14.01 11.9407 13.98C11.9407 13.97 11.9407 13.95 11.9407 13.93C11.9407 13.91 11.9407 13.89 11.9407 13.86C11.9407 13.84 11.9407 13.81 11.9407 13.79L11.9307 13.8Z" fill="#CFFFBD"/>
<path d="M11.6405 13.46C11.6405 13.46 11.5505 13.46 11.4805 13.5C11.4605 13.51 11.4405 13.52 11.4205 13.54C11.4105 13.54 11.3905 13.56 11.3805 13.57C11.3605 13.59 11.3405 13.6 11.3205 13.62C11.2905 13.65 11.2705 13.68 11.2505 13.7C11.2505 13.71 11.2305 13.73 11.2305 13.74C11.2305 13.74 11.2305 13.74 11.2305 13.75C11.2305 13.79 11.2305 13.82 11.2605 13.85C11.2905 13.88 11.3205 13.88 11.3605 13.88C11.3805 13.88 11.4005 13.87 11.4205 13.86C11.4405 13.85 11.4605 13.83 11.4905 13.8C11.4905 13.8 11.5005 13.8 11.5105 13.78C11.5405 13.75 11.5605 13.72 11.5905 13.68C11.6005 13.66 11.6105 13.65 11.6205 13.63C11.6505 13.57 11.6705 13.52 11.6805 13.49C11.6805 13.48 11.6805 13.46 11.6805 13.46H11.6405Z" fill="#CFFFBD"/>
<path d="M11.9696 13.2901C11.9696 13.2901 11.9996 13.2301 12.0396 13.2001C11.9896 13.2001 11.9496 13.2001 11.9296 13.1801C11.9296 13.1801 11.8996 13.1201 11.9096 13.0701C11.8796 13.1101 11.8496 13.1401 11.8196 13.1401C11.7896 13.1401 11.7596 13.1101 11.7296 13.0701C11.7296 13.1201 11.7296 13.1601 11.7096 13.1801C11.6896 13.2001 11.6496 13.2101 11.5996 13.2001C11.6396 13.2301 11.6696 13.2601 11.6696 13.2901C11.6696 13.3201 11.6396 13.3501 11.5996 13.3801C11.6496 13.3801 11.6896 13.3801 11.7096 13.4001C11.7296 13.4201 11.7396 13.4601 11.7296 13.5101C11.7596 13.4701 11.7896 13.4401 11.8196 13.4401C11.8496 13.4401 11.8796 13.4701 11.9096 13.5101C11.9096 13.4601 11.9096 13.4201 11.9296 13.4001C11.9496 13.3801 11.9896 13.3701 12.0396 13.3801C11.9996 13.3501 11.9696 13.3201 11.9696 13.2901Z" fill="#CFFFBD"/>
<path d="M11.9898 13.11C11.9998 13.12 12.0298 13.11 12.0598 13.11C12.0998 13.1 12.1498 13.07 12.2098 13.04C12.2098 13.04 12.2098 13.04 12.2198 13.04C12.2498 13.02 12.2798 13 12.3098 12.97C12.3298 12.95 12.3398 12.93 12.3598 12.91C12.3598 12.91 12.3798 12.89 12.3898 12.88C12.4098 12.85 12.4198 12.82 12.4098 12.79C12.4098 12.77 12.3998 12.75 12.3798 12.73C12.3498 12.7 12.3198 12.7 12.2798 12.7C12.2598 12.7 12.2398 12.71 12.2198 12.72C12.1998 12.73 12.1798 12.75 12.1598 12.77C12.1598 12.77 12.1398 12.78 12.1298 12.79C12.1298 12.79 12.1298 12.8 12.1198 12.81C12.0998 12.84 12.0798 12.86 12.0598 12.89C11.9998 12.99 11.9598 13.09 11.9798 13.11H11.9898Z" fill="#CFFFBD"/>
<path d="M12.4599 12.6499C12.2999 12.4899 12.0699 12.3899 11.8199 12.3899C11.5699 12.3899 11.3499 12.4899 11.1799 12.6499C11.0199 12.8099 10.9199 13.0399 10.9199 13.2899C10.9199 13.5399 11.0199 13.7599 11.1799 13.9299C11.3399 14.0899 11.5699 14.1899 11.8199 14.1899C12.0699 14.1899 12.2899 14.0899 12.4599 13.9299C12.6199 13.7699 12.7199 13.5399 12.7199 13.2899C12.7199 13.0399 12.6199 12.8199 12.4599 12.6499ZM12.5499 13.4699C12.5499 13.4699 12.4599 13.4799 12.4099 13.4799C12.3599 13.4799 12.3099 13.4799 12.2599 13.4599C12.2599 13.4599 12.2399 13.4599 12.2299 13.4599C12.2299 13.4599 12.2499 13.4699 12.2599 13.4799C12.2999 13.5099 12.3399 13.5399 12.3799 13.5699C12.4199 13.5999 12.4499 13.6399 12.4699 13.6799C12.5199 13.7699 12.5399 13.8599 12.4699 13.9299C12.3999 13.9999 12.3099 13.9899 12.2199 13.9299C12.1799 13.9099 12.1499 13.8699 12.1099 13.8399C12.0799 13.7999 12.0499 13.7599 12.0199 13.7199C12.0199 13.7199 12.0099 13.6999 11.9999 13.6899C11.9999 13.6899 11.9999 13.7099 11.9999 13.7199C12.0099 13.7699 12.0199 13.8199 12.0199 13.8699C12.0199 13.9199 12.0199 13.9699 12.0099 14.0099C11.9899 14.1099 11.9299 14.1799 11.8299 14.1799C11.7299 14.1799 11.6699 14.1099 11.6499 14.0099C11.6499 13.9699 11.6399 13.9199 11.6399 13.8699C11.6399 13.8199 11.6399 13.7699 11.6599 13.7199C11.6599 13.7199 11.6599 13.6999 11.6599 13.6899C11.6599 13.6899 11.6499 13.7099 11.6399 13.7199C11.6099 13.7599 11.5799 13.7999 11.5499 13.8399C11.5199 13.8799 11.4799 13.9099 11.4399 13.9299C11.3499 13.9899 11.2599 13.9999 11.1899 13.9299C11.1199 13.8599 11.1299 13.7699 11.1899 13.6799C11.2099 13.6399 11.2499 13.6099 11.2799 13.5699C11.3199 13.5399 11.3599 13.5099 11.3999 13.4799C11.3999 13.4799 11.4199 13.4699 11.4299 13.4599C11.4299 13.4599 11.4099 13.4599 11.3999 13.4599C11.3499 13.4599 11.2999 13.4799 11.2499 13.4799C11.1999 13.4799 11.1499 13.4799 11.1099 13.4699C11.0099 13.4499 10.9399 13.3899 10.9399 13.2899C10.9399 13.1899 11.0099 13.1299 11.1099 13.1099C11.1499 13.1099 11.1999 13.0999 11.2499 13.0999C11.2999 13.0999 11.3499 13.0999 11.3999 13.1199C11.4099 13.1199 11.4199 13.1199 11.4299 13.1199C11.4299 13.1199 11.4099 13.1099 11.3999 13.0999C11.3599 13.0699 11.3199 13.0399 11.2799 13.0099C11.2399 12.9799 11.2099 12.9399 11.1899 12.8999C11.1399 12.8099 11.1199 12.7199 11.1899 12.6499C11.2599 12.5799 11.3499 12.5899 11.4399 12.6499C11.4799 12.6699 11.5099 12.7099 11.5499 12.7399C11.5799 12.7799 11.6099 12.8199 11.6399 12.8599C11.6399 12.8599 11.6499 12.8799 11.6599 12.8899C11.6599 12.8899 11.6599 12.8699 11.6599 12.8599C11.6599 12.8099 11.6399 12.7599 11.6399 12.7099C11.6399 12.6599 11.6399 12.6099 11.6499 12.5699C11.6699 12.4699 11.7299 12.3999 11.8299 12.3999C11.9299 12.3999 11.9899 12.4699 12.0099 12.5699C12.0099 12.6099 12.0199 12.6599 12.0199 12.7099C12.0199 12.7599 12.0199 12.8099 11.9999 12.8599C11.9999 12.8599 11.9999 12.8799 11.9999 12.8899C11.9999 12.8899 12.0099 12.8699 12.0199 12.8699C12.0499 12.8299 12.0799 12.7899 12.1099 12.7499C12.1399 12.7099 12.1799 12.6799 12.2199 12.6599C12.3099 12.5999 12.3999 12.5899 12.4699 12.6599C12.5399 12.7299 12.5299 12.8199 12.4699 12.9099C12.4499 12.9499 12.4099 12.9799 12.3799 13.0199C12.3399 13.0499 12.2999 13.0799 12.2599 13.1099C12.2599 13.1099 12.2399 13.1199 12.2299 13.1299C12.2299 13.1299 12.2499 13.1299 12.2599 13.1299C12.3099 13.1299 12.3599 13.1099 12.4099 13.1099C12.4599 13.1099 12.5099 13.1099 12.5499 13.1199C12.6499 13.1399 12.7199 13.1999 12.7199 13.2999C12.7199 13.3999 12.6499 13.4599 12.5499 13.4799V13.4699Z" fill="#CFFFBD"/>
<path d="M13.2609 13.2901C13.2609 12.8901 13.1009 12.5301 12.8409 12.2701C12.5809 12.0101 12.2209 11.8501 11.8209 11.8501C11.4209 11.8501 11.0609 12.0101 10.8009 12.2701C10.5409 12.5301 10.3809 12.8901 10.3809 13.2901C10.3809 13.3801 10.3809 13.4701 10.4109 13.5601C10.4209 13.6201 10.4409 13.6801 10.4609 13.7401C10.4609 13.7501 10.4709 13.7701 10.4809 13.7801C10.5009 13.8401 10.5209 13.8901 10.5509 13.9401C10.5509 13.9401 10.5509 13.9501 10.5509 13.9601C10.5809 14.0201 10.6109 14.0701 10.6509 14.1201C10.6509 14.1301 10.6709 14.1401 10.6809 14.1601C10.7209 14.2101 10.7609 14.2601 10.8009 14.3001C10.8309 14.3301 10.8509 14.3501 10.8809 14.3801C11.1309 14.5901 11.4609 14.7301 11.8209 14.7301C12.2209 14.7301 12.5809 14.5701 12.8409 14.3101C13.1009 14.0501 13.2609 13.6901 13.2609 13.2901ZM11.8209 14.4601C11.5009 14.4601 11.2009 14.3301 10.9909 14.1201C10.7809 13.9101 10.6509 13.6201 10.6509 13.2901C10.6509 12.9601 10.7809 12.6701 10.9909 12.4601C11.2009 12.2501 11.4909 12.1201 11.8209 12.1201C12.1509 12.1201 12.4409 12.2501 12.6509 12.4601C12.8609 12.6701 12.9909 12.9601 12.9909 13.2901C12.9909 13.6201 12.8609 13.9101 12.6509 14.1201C12.4409 14.3301 12.1409 14.4601 11.8209 14.4601Z" fill="#CFFFBD"/>
<path d="M12.8102 13.69C12.8602 13.57 12.8902 13.43 12.8902 13.29C12.8902 13.2 12.8802 13.11 12.8502 13.03C12.8102 12.86 12.7202 12.71 12.6102 12.58C12.6002 12.57 12.5902 12.55 12.5702 12.53C12.5202 12.48 12.4702 12.44 12.4202 12.41C12.2502 12.29 12.0402 12.22 11.8102 12.22C11.5102 12.22 11.2502 12.34 11.0502 12.53C10.9602 12.62 10.8802 12.73 10.8302 12.85C10.7702 12.98 10.7402 13.13 10.7402 13.29C10.7402 13.51 10.8102 13.71 10.9202 13.88C10.9302 13.9 10.9502 13.92 10.9702 13.94C11.0002 13.97 11.0202 14.01 11.0502 14.04C11.2402 14.23 11.5102 14.35 11.8102 14.35C12.1102 14.35 12.3702 14.23 12.5702 14.04C12.6702 13.94 12.7502 13.83 12.8002 13.7C12.8002 13.7 12.8002 13.69 12.8002 13.68L12.8102 13.69ZM12.5202 13.99C12.5202 13.99 12.4502 14.05 12.4102 14.08C12.2402 14.21 12.0402 14.28 11.8102 14.28C11.5302 14.28 11.2902 14.17 11.1002 13.99C11.0102 13.9 10.9402 13.79 10.8902 13.67C10.8402 13.55 10.8102 13.42 10.8102 13.28C10.8102 13.01 10.9202 12.76 11.1002 12.58C11.1402 12.54 11.1902 12.5 11.2402 12.47C11.2402 12.47 11.2402 12.47 11.2502 12.47C11.2502 12.47 11.2602 12.47 11.2702 12.46C11.4302 12.36 11.6102 12.3 11.8102 12.3C11.9802 12.3 12.1402 12.35 12.2802 12.43C12.3602 12.48 12.4402 12.53 12.5102 12.6C12.5302 12.62 12.5402 12.64 12.5502 12.65C12.5802 12.68 12.6002 12.71 12.6302 12.74C12.6502 12.77 12.6702 12.81 12.6802 12.84C12.6902 12.86 12.7102 12.89 12.7202 12.91C12.7202 12.91 12.7202 12.93 12.7202 12.94C12.7602 13.05 12.7902 13.17 12.7902 13.3C12.7902 13.43 12.7602 13.55 12.7202 13.67C12.6702 13.8 12.5902 13.91 12.5002 14.01L12.5202 13.99Z" fill="#CFFFBD"/>
<path d="M12.5903 13.2099C12.5903 13.2099 12.5403 13.1799 12.5103 13.1699C12.5003 13.1699 12.4803 13.1699 12.4703 13.1699C12.4503 13.1699 12.4303 13.1699 12.4003 13.1699C12.3703 13.1699 12.3503 13.1699 12.3203 13.1799C12.3103 13.1799 12.2903 13.1799 12.2803 13.1799C12.2203 13.1899 12.1703 13.2099 12.1303 13.2299C12.0903 13.2499 12.0703 13.2699 12.0703 13.2899C12.0703 13.3299 12.1703 13.3699 12.2803 13.3899C12.3203 13.3899 12.3603 13.3999 12.4103 13.4099C12.4503 13.4099 12.4903 13.4099 12.5203 13.4099C12.5303 13.4099 12.5403 13.4099 12.5503 13.3999C12.5503 13.3999 12.5603 13.3999 12.5703 13.3999C12.6003 13.3799 12.6303 13.3499 12.6303 13.3099C12.6303 13.2799 12.6203 13.2499 12.6003 13.2399L12.5903 13.2099Z" fill="#CFFFBD"/>
<path d="M11.7095 12.83C11.7295 12.92 11.7595 12.99 11.7895 13.03C11.7895 13.04 11.8095 13.05 11.8195 13.05C11.8395 13.05 11.8595 13.01 11.8895 12.96C11.8995 12.92 11.9195 12.88 11.9295 12.83C11.9295 12.81 11.9295 12.79 11.9295 12.77C11.9295 12.75 11.9295 12.72 11.9295 12.7C11.9295 12.68 11.9295 12.66 11.9295 12.63C11.9295 12.62 11.9295 12.6 11.9295 12.59C11.9195 12.53 11.8795 12.48 11.8195 12.48C11.7795 12.48 11.7495 12.5 11.7295 12.53C11.7295 12.55 11.7095 12.56 11.7095 12.58C11.7095 12.61 11.6995 12.65 11.7095 12.69C11.7095 12.71 11.7095 12.72 11.7095 12.74C11.7095 12.77 11.7095 12.79 11.7095 12.82V12.83Z" fill="#CFFFBD"/>
<path d="M11.4508 13.05C11.4508 13.05 11.5508 13.1 11.5808 13.11C11.6108 13.11 11.6308 13.12 11.6508 13.11C11.6508 13.11 11.6508 13.04 11.6208 12.98C11.6108 12.95 11.5908 12.92 11.5708 12.89C11.5508 12.85 11.5208 12.82 11.4908 12.79C11.4608 12.76 11.4308 12.74 11.4108 12.72C11.3908 12.71 11.3708 12.7 11.3508 12.7C11.3208 12.7 11.2808 12.7 11.2608 12.73C11.2608 12.73 11.2608 12.73 11.2608 12.74C11.2308 12.78 11.2308 12.83 11.2608 12.88C11.2608 12.88 11.2608 12.88 11.2608 12.89C11.2808 12.91 11.3008 12.94 11.3208 12.96C11.3508 12.99 11.3808 13.01 11.4208 13.04C11.4208 13.04 11.4408 13.05 11.4508 13.06V13.05Z" fill="#CFFFBD"/>
<path d="M12.1007 13.48C12.0507 13.46 12.0107 13.45 11.9907 13.46C11.9707 13.48 11.9907 13.52 12.0107 13.58C12.0207 13.61 12.0407 13.65 12.0707 13.69C12.0907 13.73 12.1207 13.76 12.1507 13.79C12.1807 13.82 12.2107 13.84 12.2307 13.86C12.2507 13.87 12.2807 13.88 12.3007 13.89C12.3307 13.89 12.3607 13.89 12.3807 13.86C12.3807 13.86 12.4107 13.82 12.4107 13.8C12.4107 13.77 12.4107 13.74 12.3907 13.71C12.3707 13.69 12.3507 13.66 12.3307 13.64C12.3307 13.64 12.3307 13.64 12.3207 13.63C12.2907 13.6 12.2607 13.58 12.2207 13.55C12.1807 13.52 12.1407 13.5 12.1007 13.49V13.48Z" fill="#CFFFBD"/>
<path d="M11.57 13.2899C11.57 13.2899 11.57 13.2699 11.55 13.2599C11.52 13.2299 11.44 13.1999 11.35 13.1799C11.33 13.1799 11.32 13.1799 11.3 13.1799C11.27 13.1799 11.25 13.1799 11.22 13.1799C11.19 13.1799 11.17 13.1799 11.15 13.1799C11.14 13.1799 11.12 13.1799 11.11 13.1799C11.05 13.1899 11 13.2299 11 13.2899C11 13.3399 11.03 13.3799 11.08 13.3899C11.08 13.3899 11.09 13.3899 11.1 13.3899C11.13 13.3899 11.17 13.3899 11.21 13.3899C11.25 13.3899 11.29 13.3899 11.34 13.3699C11.45 13.3499 11.55 13.2999 11.55 13.2699L11.57 13.2899Z" fill="#CFFFBD"/>
</g>
<defs>
<clipPath id="clip0_494_21792">
<rect width="24.02" height="24" fill="white"/>
</clipPath>
</defs>
</svg>
