<svg width="114" height="35" viewBox="0 0 114 35" fill="none" xmlns="http://www.w3.org/2000/svg">
<g clip-path="url(#clip0_230_3505)">
<path fill-rule="evenodd" clip-rule="evenodd" d="M9.78841 34.9998C9.52392 34.9991 9.26267 34.9415 9.02246 34.8308C8.78224 34.7201 8.5687 34.5589 8.39637 34.3583C1.72481 26.5834 6.11906 21.7208 8.74919 18.8084L8.82617 18.725C12.3544 15.1904 14.4393 12.8297 12.9446 9.03204C12.7906 8.63007 12.7828 8.18674 12.9227 7.77963C13.0625 7.37252 13.3411 7.02755 13.7096 6.80507C14.0781 6.58259 14.5131 6.49676 14.9385 6.56261C15.3639 6.62847 15.7526 6.8418 16.0366 7.16529C22.7274 14.953 18.3075 19.822 15.6709 22.728L15.5811 22.8242C12.0721 26.346 9.99369 28.7003 11.4884 32.4851C11.5995 32.7637 11.6407 33.0652 11.6083 33.3633C11.5759 33.6615 11.4709 33.9471 11.3025 34.1953C11.1341 34.4434 10.9075 34.6465 10.6424 34.7868C10.3773 34.927 10.0819 35.0002 9.782 34.9998H9.78841Z" fill="white"/>
<path fill-rule="evenodd" clip-rule="evenodd" d="M4.91392 28.457C4.64921 28.4576 4.38755 28.4005 4.14715 28.2897C3.90674 28.179 3.69337 28.0171 3.52187 27.8155C-3.16893 20.0277 1.28305 15.1716 3.89394 12.272L3.99016 12.1886C7.49914 8.66042 9.57117 6.30613 8.0829 2.52772C7.99167 2.30216 7.94621 2.0607 7.94917 1.81739C7.95214 1.57409 8.00348 1.33381 8.10019 1.11054C8.1969 0.887266 8.33706 0.68546 8.5125 0.516869C8.68795 0.348278 8.89518 0.21627 9.12213 0.128529C9.47581 -0.0127386 9.86497 -0.0391942 10.2345 0.0529059C10.6041 0.145006 10.9353 0.350997 11.1813 0.641725C17.8465 8.41024 13.4715 13.2792 10.8157 16.1916L10.7387 16.2686C7.21688 19.8096 5.13202 22.1639 6.62029 25.9487C6.7096 26.1727 6.75371 26.4122 6.75009 26.6533C6.74647 26.8944 6.69518 27.1324 6.59918 27.3536C6.50318 27.5749 6.36437 27.7749 6.19074 27.9422C6.01711 28.1096 5.81209 28.2409 5.58749 28.3287C5.37381 28.4161 5.14476 28.4597 4.91392 28.457Z" fill="white"/>
<path fill-rule="evenodd" clip-rule="evenodd" d="M103.517 34.3972C103.03 34.3955 102.562 34.201 102.217 33.8561C101.873 33.5112 101.678 33.0439 101.676 32.5561V26.5582H100.599C100.599 26.6031 100.599 26.6416 100.599 26.6865V28.8675C100.602 29.1085 100.558 29.3477 100.469 29.5716C100.38 29.7955 100.247 29.9997 100.079 30.1724C99.9114 30.3452 99.7111 30.4831 99.4898 30.5785C99.2684 30.6738 99.0305 30.7245 98.7896 30.7279H95.7746V32.5561C95.7754 32.7976 95.7286 33.0369 95.6367 33.2602C95.5449 33.4836 95.4099 33.6866 95.2395 33.8576C95.069 34.0287 94.8665 34.1644 94.6435 34.257C94.4204 34.3496 94.1813 34.3972 93.9399 34.3972H89.5456C89.3042 34.3972 89.0651 34.3496 88.842 34.257C88.619 34.1644 88.4165 34.0287 88.246 33.8576C88.0756 33.6866 87.9406 33.4836 87.8488 33.2602C87.7569 33.0369 87.7101 32.7976 87.7109 32.5561V22.5296C87.7109 22.0424 87.904 21.5751 88.2479 21.23C88.5918 20.8849 89.0585 20.6902 89.5456 20.6885H111.883C112.37 20.6902 112.836 20.8849 113.18 21.23C113.524 21.5751 113.717 22.0424 113.717 22.5296V24.7235C113.717 24.9644 113.67 25.203 113.578 25.4256C113.485 25.6482 113.35 25.8504 113.18 26.0208C113.009 26.1912 112.807 26.3263 112.585 26.4185C112.362 26.5107 112.123 26.5582 111.883 26.5582H109.74V32.5561C109.74 33.0433 109.547 33.5106 109.203 33.8557C108.859 34.2008 108.392 34.3955 107.905 34.3972H103.517Z" fill="white"/>
<path fill-rule="evenodd" clip-rule="evenodd" d="M75.7356 34.3972C75.2479 34.3955 74.7805 34.201 74.4356 33.8561C74.0907 33.5112 73.8962 33.0439 73.8945 32.5561V22.5296C73.8962 22.0418 74.0907 21.5745 74.4356 21.2296C74.7805 20.8847 75.2479 20.6902 75.7356 20.6885H87.4878C87.975 20.6902 88.4416 20.8849 88.7855 21.23C89.1294 21.5751 89.3225 22.0424 89.3225 22.5296V24.7235C89.3206 25.1749 89.1529 25.6099 88.8513 25.9457C88.5498 26.2816 88.1353 26.495 87.6867 26.5453V28.5532C88.1524 28.5841 88.5891 28.7908 88.9082 29.1314C89.2274 29.472 89.4053 29.9211 89.4059 30.3879V32.5561C89.4059 33.0433 89.2128 33.5106 88.8689 33.8557C88.525 34.2008 88.0584 34.3955 87.5712 34.3972H75.7356Z" fill="white"/>
<path fill-rule="evenodd" clip-rule="evenodd" d="M70.1357 34.3972C69.7323 34.3963 69.3403 34.2634 69.0195 34.0188L64.7921 30.7535V32.5561C64.7921 33.0433 64.599 33.5106 64.2551 33.8557C63.9112 34.2008 63.4446 34.3955 62.9574 34.3972H59.9167C59.4295 34.3955 58.9629 34.2008 58.619 33.8557C58.2751 33.5106 58.082 33.0433 58.082 32.5561V22.5296C58.082 22.0424 58.2751 21.5751 58.619 21.23C58.9629 20.8849 59.4295 20.6902 59.9167 20.6885H63.323C63.7058 20.688 64.0787 20.8093 64.3879 21.0349L68.5127 23.9794V22.5296C68.5127 22.0424 68.7058 21.5751 69.0497 21.23C69.3936 20.8849 69.8603 20.6902 70.3474 20.6885H73.356C73.8432 20.6902 74.3099 20.8849 74.6537 21.23C74.9976 21.5751 75.1907 22.0424 75.1907 22.5296V32.5561C75.1907 33.0433 74.9976 33.5106 74.6537 33.8557C74.3099 34.2008 73.8432 34.3955 73.356 34.3972H70.1357Z" fill="white"/>
<path fill-rule="evenodd" clip-rule="evenodd" d="M25.5321 34.3972C25.0444 34.3955 24.5771 34.201 24.2322 33.8561C23.8872 33.5112 23.6927 33.0439 23.691 32.5561V26.5582H21.6511C21.1645 26.5582 20.6978 26.3649 20.3538 26.0208C20.0097 25.6767 19.8164 25.2101 19.8164 24.7235V22.5296C19.8164 22.0424 20.0095 21.5751 20.3534 21.23C20.6973 20.8849 21.1639 20.6902 21.6511 20.6885H33.8395C34.3278 20.6885 34.7961 20.8824 35.1413 21.2277C35.4866 21.573 35.6806 22.0413 35.6806 22.5296V24.7235C35.6806 24.9677 35.6319 25.2095 35.5373 25.4346C35.4427 25.6597 35.3042 25.8637 35.1297 26.0346C34.9552 26.2055 34.7484 26.3398 34.5214 26.4297C34.2943 26.5196 34.0516 26.5633 33.8074 26.5582H31.7675V32.5561C31.7675 33.0433 31.5744 33.5106 31.2305 33.8557C30.8866 34.2008 30.42 34.3955 29.9328 34.3972H25.5321Z" fill="white"/>
<path fill-rule="evenodd" clip-rule="evenodd" d="M43.1036 34.3972C42.7688 34.3957 42.4408 34.3029 42.1548 34.1288C41.8689 33.9548 41.6358 33.706 41.4806 33.4093L41.0957 32.678H37.1569L36.772 33.4093C36.6169 33.706 36.3838 33.9548 36.0978 34.1288C35.8119 34.3029 35.4838 34.3957 35.1491 34.3972H32.2944C31.9759 34.3959 31.6632 34.312 31.3869 34.1537C31.1105 33.9954 30.88 33.7681 30.7177 33.494C30.5555 33.22 30.4671 32.9085 30.4613 32.5901C30.4554 32.2717 30.5322 31.9572 30.6843 31.6773L36.169 21.6443C36.3274 21.3555 36.5603 21.1145 36.8435 20.9464C37.1267 20.7783 37.4498 20.6892 37.7792 20.6885H42.4814C42.811 20.6879 43.1346 20.7764 43.4181 20.9446C43.7015 21.1129 43.9342 21.3546 44.0915 21.6443L49.5827 31.6773C49.8162 32.1036 49.871 32.6051 49.7351 33.0717C49.5992 33.5384 49.2837 33.9321 48.8578 34.1663C48.5866 34.3158 48.2823 34.3952 47.9726 34.3972H43.1036Z" fill="white"/>
<path fill-rule="evenodd" clip-rule="evenodd" d="M50.4004 34.3972C49.9133 34.3955 49.4466 34.2008 49.1027 33.8557C48.7588 33.5106 48.5658 33.0433 48.5658 32.5561V26.5582H46.513C46.0258 26.5582 45.5585 26.3651 45.2134 26.0212C44.8683 25.6773 44.6736 25.2107 44.6719 24.7235V22.5296C44.6736 22.0418 44.8681 21.5745 45.213 21.2296C45.5579 20.8847 46.0252 20.6902 46.513 20.6885H58.4255C58.9127 20.6902 59.3794 20.8849 59.7232 21.23C60.0671 21.5751 60.2602 22.0424 60.2602 22.5296V24.7235C60.2602 25.2101 60.0669 25.6767 59.7229 26.0208C59.3788 26.3649 58.9121 26.5582 58.4255 26.5582H56.6294V32.5561C56.6294 33.0433 56.4363 33.5106 56.0924 33.8557C55.7485 34.2008 55.2819 34.3955 54.7947 34.3972H50.4004Z" fill="white"/>
<path fill-rule="evenodd" clip-rule="evenodd" d="M14.6514 8.33984C16.6657 13.4718 13.3684 16.7306 10.116 20.0151C7.05609 23.4022 4.39388 26.8855 9.78886 33.1657C7.76815 28.0338 11.0718 24.775 14.3178 21.4969C17.3649 18.1355 20.0464 14.6457 14.6514 8.33984Z" fill="#E4252E"/>
<path fill-rule="evenodd" clip-rule="evenodd" d="M9.78916 1.83496C11.797 6.96693 8.50617 10.2257 5.24737 13.5102C2.20027 16.8588 -0.468352 20.3549 4.9138 26.6224C2.90592 21.4904 6.19679 18.2444 9.45559 14.96C12.4899 11.5985 15.1713 8.1152 9.78916 1.83496Z" fill="#00966A"/>
<path fill-rule="evenodd" clip-rule="evenodd" d="M89.5469 22.5234V32.5564H93.9347V28.8678H98.7908V26.6867H93.954V24.7174H103.538V32.5564H107.926V24.7238H111.903V22.5234H89.5469Z" fill="#00966A"/>
<path fill-rule="evenodd" clip-rule="evenodd" d="M80.1286 30.3882V28.6433H85.8508V26.4494H80.1286V24.7174H87.4802V22.5234H75.7344V32.5564H87.57V30.3818L80.1286 30.3882Z" fill="#00966A"/>
<path fill-rule="evenodd" clip-rule="evenodd" d="M70.3512 22.5234V27.5399L63.2947 22.5234H59.9141V32.5564H62.9227V27.0332L70.1331 32.5564H73.3406V22.5234H70.3512Z" fill="#00966A"/>
<path fill-rule="evenodd" clip-rule="evenodd" d="M33.8056 22.5234H21.6172V24.7238H25.4662V32.5564H29.8604V24.7238H33.8056V22.5234Z" fill="#E4252E"/>
<path fill-rule="evenodd" clip-rule="evenodd" d="M42.4813 22.5293H37.7792L32.3008 32.5559H35.149L36.0471 30.8367H42.2119L43.11 32.5559H47.9725L42.4813 22.5293ZM37.1377 28.7518L39.1712 24.9028L41.0957 28.7518H37.1377Z" fill="#E4252E"/>
<path fill-rule="evenodd" clip-rule="evenodd" d="M58.4282 22.5234H46.5156V24.7238H50.4031V32.5564H54.7973V24.7238H58.4282V22.5234Z" fill="#E4252E"/>
<path d="M32.9617 11.4545C32.9617 11.9915 32.8648 12.4555 32.6709 12.8466C32.477 13.2377 32.211 13.5393 31.873 13.7514C31.5349 13.9635 31.1488 14.0696 30.7146 14.0696C30.2804 14.0696 29.8943 13.9635 29.5562 13.7514C29.2181 13.5393 28.9521 13.2377 28.7583 12.8466C28.5644 12.4555 28.4674 11.9915 28.4674 11.4545C28.4674 10.9176 28.5644 10.4536 28.7583 10.0625C28.9521 9.6714 29.2181 9.36979 29.5562 9.15767C29.8943 8.94555 30.2804 8.83949 30.7146 8.83949C31.1488 8.83949 31.5349 8.94555 31.873 9.15767C32.211 9.36979 32.477 9.6714 32.6709 10.0625C32.8648 10.4536 32.9617 10.9176 32.9617 11.4545ZM32.3651 11.4545C32.3651 11.0137 32.2914 10.6417 32.1439 10.3384C31.9981 10.0352 31.8 9.80563 31.5498 9.64986C31.3012 9.49408 31.0228 9.41619 30.7146 9.41619C30.4063 9.41619 30.1271 9.49408 29.8769 9.64986C29.6283 9.80563 29.4302 10.0352 29.2828 10.3384C29.1369 10.6417 29.064 11.0137 29.064 11.4545C29.064 11.8954 29.1369 12.2674 29.2828 12.5707C29.4302 12.8739 29.6283 13.1035 29.8769 13.2592C30.1271 13.415 30.4063 13.4929 30.7146 13.4929C31.0228 13.4929 31.3012 13.415 31.5498 13.2592C31.8 13.1035 31.9981 12.8739 32.1439 12.5707C32.2914 12.2674 32.3651 11.8954 32.3651 11.4545ZM35.4699 15.3026V8.90909H36.0566V15.3026H35.4699ZM35.4699 14.0795C35.2114 14.0795 34.9761 14.0331 34.7639 13.9403C34.5518 13.8459 34.3695 13.7125 34.2171 13.5401C34.0646 13.3661 33.9469 13.1581 33.8641 12.9162C33.7812 12.6742 33.7398 12.4058 33.7398 12.1108C33.7398 11.8125 33.7812 11.5424 33.8641 11.3004C33.9469 11.0568 34.0646 10.848 34.2171 10.674C34.3695 10.5 34.5518 10.3666 34.7639 10.2738C34.9761 10.1793 35.2114 10.1321 35.4699 10.1321H35.6489V14.0795H35.4699ZM35.4699 13.5526H35.5693V10.6591H35.4699C35.2744 10.6591 35.1045 10.6989 34.9603 10.7784C34.8161 10.8563 34.6968 10.9632 34.6024 11.0991C34.5096 11.2333 34.44 11.3874 34.3936 11.5614C34.3488 11.7354 34.3264 11.9186 34.3264 12.1108C34.3264 12.366 34.367 12.603 34.4482 12.8217C34.5294 13.0405 34.6546 13.217 34.8236 13.3512C34.9926 13.4854 35.2081 13.5526 35.4699 13.5526ZM36.0566 14.0795H35.8776V10.1321H36.0566C36.3151 10.1321 36.5504 10.1793 36.7625 10.2738C36.9746 10.3666 37.1569 10.5 37.3094 10.674C37.4619 10.848 37.5795 11.0568 37.6624 11.3004C37.7452 11.5424 37.7867 11.8125 37.7867 12.1108C37.7867 12.4058 37.7452 12.6742 37.6624 12.9162C37.5795 13.1581 37.4619 13.3661 37.3094 13.5401C37.1569 13.7125 36.9746 13.8459 36.7625 13.9403C36.5504 14.0331 36.3151 14.0795 36.0566 14.0795ZM36.0566 13.5526C36.2538 13.5526 36.4236 13.5144 36.5661 13.4382C36.7103 13.3603 36.8288 13.2543 36.9216 13.12C37.0161 12.9841 37.0857 12.83 37.1304 12.6577C37.1768 12.4837 37.2 12.3014 37.2 12.1108C37.2 11.8556 37.1594 11.6178 37.0782 11.3974C36.997 11.177 36.8719 10.9988 36.7029 10.8629C36.5338 10.727 36.3184 10.6591 36.0566 10.6591H35.9571V13.5526H36.0566ZM39.2701 13.1349L41.1096 10.1818H41.7857V14H41.199V11.0469L39.3695 14H38.6834V10.1818H39.2701V13.1349ZM45.863 10.1818V13.4531H46.3999V15.233H45.8133V14H42.8602V10.1818H43.4468V13.4531H45.2764V10.1818H45.863ZM47.8902 13.1349L49.7297 10.1818H50.4058V14H49.8192V11.0469L47.9896 14H47.3035V10.1818H47.8902V13.1349ZM52.6039 14.0895C52.3619 14.0895 52.1423 14.0439 51.9451 13.9528C51.7479 13.86 51.5913 13.7266 51.4753 13.5526C51.3593 13.3769 51.3013 13.1648 51.3013 12.9162C51.3013 12.6974 51.3444 12.5201 51.4306 12.3842C51.5167 12.2467 51.6319 12.139 51.7761 12.0611C51.9203 11.9832 52.0794 11.9252 52.2534 11.8871C52.429 11.8473 52.6055 11.8158 52.7828 11.7926C53.0149 11.7628 53.2029 11.7404 53.3471 11.7255C53.493 11.7089 53.599 11.6816 53.6653 11.6435C53.7333 11.6054 53.7672 11.5391 53.7672 11.4446V11.4247C53.7672 11.1795 53.7001 10.9889 53.5659 10.853C53.4333 10.7171 53.2319 10.6491 52.9618 10.6491C52.6818 10.6491 52.4622 10.7105 52.3031 10.8331C52.144 10.9557 52.0321 11.0866 51.9675 11.2259L51.4107 11.027C51.5101 10.795 51.6427 10.6143 51.8084 10.4851C51.9758 10.3542 52.1581 10.263 52.3553 10.2116C52.5542 10.1586 52.7497 10.1321 52.9419 10.1321C53.0646 10.1321 53.2054 10.147 53.3645 10.1768C53.5253 10.205 53.6802 10.2638 53.8294 10.3533C53.9802 10.4428 54.1053 10.5779 54.2047 10.7585C54.3042 10.9392 54.3539 11.1811 54.3539 11.4844V14H53.7672V13.483H53.7374C53.6976 13.5658 53.6313 13.6545 53.5385 13.7489C53.4457 13.8434 53.3223 13.9238 53.1681 13.9901C53.014 14.0563 52.8259 14.0895 52.6039 14.0895ZM52.6934 13.5625C52.9254 13.5625 53.1209 13.5169 53.28 13.4258C53.4408 13.3346 53.5617 13.217 53.6429 13.0728C53.7258 12.9286 53.7672 12.777 53.7672 12.6179V12.081C53.7424 12.1108 53.6877 12.1381 53.6032 12.163C53.5203 12.1862 53.4242 12.2069 53.3148 12.2251C53.2071 12.2417 53.1019 12.2566 52.9991 12.2699C52.898 12.2815 52.816 12.2914 52.753 12.2997C52.6006 12.3196 52.458 12.3519 52.3255 12.3967C52.1945 12.4397 52.0885 12.5052 52.0073 12.593C51.9277 12.6792 51.888 12.7969 51.888 12.946C51.888 13.1499 51.9634 13.304 52.1142 13.4084C52.2666 13.5111 52.4597 13.5625 52.6934 13.5625ZM55.0866 14V13.4531H55.2258C55.3401 13.4531 55.4354 13.4308 55.5116 13.386C55.5879 13.3396 55.6492 13.2592 55.6956 13.1449C55.7436 13.0289 55.7801 12.8681 55.805 12.6626C55.8315 12.4555 55.8505 12.192 55.8621 11.8722L55.9317 10.1818H58.4772V14H57.8905V10.7287H56.4885L56.4289 12.0909C56.4156 12.4041 56.3875 12.68 56.3444 12.9187C56.3029 13.1557 56.2391 13.3545 56.153 13.5153C56.0684 13.676 55.9558 13.797 55.8149 13.8782C55.674 13.9594 55.4975 14 55.2854 14H55.0866ZM60.0606 11.5639H61.1544C61.6018 11.5639 61.944 11.6774 62.181 11.9045C62.418 12.1315 62.5365 12.419 62.5365 12.767C62.5365 12.9957 62.4835 13.2037 62.3774 13.391C62.2713 13.5766 62.1156 13.7249 61.9101 13.8359C61.7046 13.9453 61.4527 14 61.1544 14H59.5535V10.1818H60.1402V13.4531H61.1544C61.3864 13.4531 61.577 13.3918 61.7261 13.2692C61.8753 13.1465 61.9498 12.9891 61.9498 12.7969C61.9498 12.5947 61.8753 12.4298 61.7261 12.3022C61.577 12.1746 61.3864 12.1108 61.1544 12.1108H60.0606V11.5639ZM65.9849 11.8224V12.3693H63.877V11.8224H65.9849ZM64.0162 10.1818V14H63.4295V10.1818H64.0162ZM66.4324 10.1818V14H65.8457V10.1818H66.4324ZM68.0108 11.5639H69.1046C69.552 11.5639 69.8942 11.6774 70.1312 11.9045C70.3682 12.1315 70.4867 12.419 70.4867 12.767C70.4867 12.9957 70.4337 13.2037 70.3276 13.391C70.2215 13.5766 70.0658 13.7249 69.8603 13.8359C69.6548 13.9453 69.4029 14 69.1046 14H67.5037V10.1818H68.0904V13.4531H69.1046C69.3366 13.4531 69.5272 13.3918 69.6763 13.2692C69.8255 13.1465 69.9 12.9891 69.9 12.7969C69.9 12.5947 69.8255 12.4298 69.6763 12.3022C69.5272 12.1746 69.3366 12.1108 69.1046 12.1108H68.0108V11.5639ZM71.0932 14V10.1818H71.6799V14H71.0932ZM73.3404 13.1349L75.1799 10.1818H75.856V14H75.2694V11.0469L73.4398 14H72.7537V10.1818H73.3404V13.1349ZM74.7921 8.90909H75.339C75.339 9.17756 75.2462 9.39714 75.0605 9.56783C74.8749 9.73852 74.623 9.82386 74.3049 9.82386C73.9917 9.82386 73.7422 9.73852 73.5566 9.56783C73.3727 9.39714 73.2807 9.17756 73.2807 8.90909H73.8276C73.8276 9.03835 73.8632 9.15187 73.9345 9.24964C74.0074 9.34742 74.1309 9.39631 74.3049 9.39631C74.4789 9.39631 74.6032 9.34742 74.6777 9.24964C74.754 9.15187 74.7921 9.03835 74.7921 8.90909ZM80.4504 14.0795C80.0924 14.0795 79.7842 13.995 79.5257 13.826C79.2671 13.657 79.0683 13.4241 78.9291 13.1275C78.7899 12.8308 78.7203 12.492 78.7203 12.1108C78.7203 11.723 78.7915 11.3808 78.934 11.0842C79.0782 10.7859 79.2787 10.553 79.5356 10.3857C79.7941 10.2166 80.0957 10.1321 80.4404 10.1321C80.7089 10.1321 80.9508 10.1818 81.1663 10.2812C81.3817 10.3807 81.5582 10.5199 81.6958 10.6989C81.8333 10.8778 81.9186 11.0866 81.9518 11.3253H81.3651C81.3204 11.1513 81.221 10.9972 81.0669 10.8629C80.9144 10.727 80.7089 10.6591 80.4504 10.6591C80.2217 10.6591 80.0212 10.7187 79.8488 10.8381C79.6781 10.9557 79.5447 11.1223 79.4486 11.3377C79.3541 11.5515 79.3069 11.8026 79.3069 12.0909C79.3069 12.3859 79.3533 12.6428 79.4461 12.8615C79.5406 13.0803 79.6731 13.2501 79.8438 13.3711C80.0162 13.4921 80.2184 13.5526 80.4504 13.5526C80.6028 13.5526 80.7412 13.526 80.8655 13.473C80.9898 13.42 81.095 13.3438 81.1812 13.2443C81.2674 13.1449 81.3287 13.0256 81.3651 12.8864H81.9518C81.9186 13.1117 81.8366 13.3147 81.7057 13.4954C81.5764 13.6744 81.4049 13.8169 81.1911 13.9229C80.979 14.0273 80.7321 14.0795 80.4504 14.0795ZM82.8094 14V10.1818H85.8122V14H85.2256V10.7287H83.396V14H82.8094ZM88.4347 14.0795C88.0901 14.0795 87.7876 13.9975 87.5274 13.8335C87.2689 13.6694 87.0667 13.4399 86.9209 13.1449C86.7767 12.8499 86.7046 12.5052 86.7046 12.1108C86.7046 11.7131 86.7767 11.3659 86.9209 11.0692C87.0667 10.7726 87.2689 10.5423 87.5274 10.3782C87.7876 10.2141 88.0901 10.1321 88.4347 10.1321C88.7794 10.1321 89.0811 10.2141 89.3396 10.3782C89.5998 10.5423 89.8019 10.7726 89.9461 11.0692C90.0919 11.3659 90.1649 11.7131 90.1649 12.1108C90.1649 12.5052 90.0919 12.8499 89.9461 13.1449C89.8019 13.4399 89.5998 13.6694 89.3396 13.8335C89.0811 13.9975 88.7794 14.0795 88.4347 14.0795ZM88.4347 13.5526C88.6966 13.5526 88.912 13.4854 89.0811 13.3512C89.2501 13.217 89.3752 13.0405 89.4564 12.8217C89.5376 12.603 89.5782 12.366 89.5782 12.1108C89.5782 11.8556 89.5376 11.6178 89.4564 11.3974C89.3752 11.177 89.2501 10.9988 89.0811 10.8629C88.912 10.727 88.6966 10.6591 88.4347 10.6591C88.1729 10.6591 87.9575 10.727 87.7884 10.8629C87.6194 10.9988 87.4943 11.177 87.4131 11.3974C87.3319 11.6178 87.2913 11.8556 87.2913 12.1108C87.2913 12.366 87.3319 12.603 87.4131 12.8217C87.4943 13.0405 87.6194 13.217 87.7884 13.3512C87.9575 13.4854 88.1729 13.5526 88.4347 13.5526ZM93.6158 11.8224V12.3693H91.5078V11.8224H93.6158ZM91.647 10.1818V14H91.0604V10.1818H91.647ZM94.0632 10.1818V14H93.4766V10.1818H94.0632ZM96.6857 14.0795C96.3278 14.0795 96.0195 13.995 95.761 13.826C95.5025 13.657 95.3036 13.4241 95.1644 13.1275C95.0252 12.8308 94.9556 12.492 94.9556 12.1108C94.9556 11.723 95.0269 11.3808 95.1694 11.0842C95.3136 10.7859 95.5141 10.553 95.771 10.3857C96.0295 10.2166 96.3311 10.1321 96.6758 10.1321C96.9442 10.1321 97.1862 10.1818 97.4016 10.2812C97.6171 10.3807 97.7936 10.5199 97.9311 10.6989C98.0687 10.8778 98.154 11.0866 98.1871 11.3253H97.6005C97.5558 11.1513 97.4563 10.9972 97.3022 10.8629C97.1497 10.727 96.9442 10.6591 96.6857 10.6591C96.457 10.6591 96.2565 10.7187 96.0842 10.8381C95.9135 10.9557 95.7801 11.1223 95.6839 11.3377C95.5895 11.5515 95.5423 11.8026 95.5423 12.0909C95.5423 12.3859 95.5887 12.6428 95.6815 12.8615C95.7759 13.0803 95.9085 13.2501 96.0792 13.3711C96.2515 13.4921 96.4537 13.5526 96.6857 13.5526C96.8382 13.5526 96.9766 13.526 97.1009 13.473C97.2251 13.42 97.3304 13.3438 97.4165 13.2443C97.5027 13.1449 97.564 13.0256 97.6005 12.8864H98.1871C98.154 13.1117 98.072 13.3147 97.9411 13.4954C97.8118 13.6744 97.6403 13.8169 97.4265 13.9229C97.2144 14.0273 96.9674 14.0795 96.6857 14.0795ZM100.596 14.0795C100.251 14.0795 99.9487 13.9975 99.6886 13.8335C99.43 13.6694 99.2279 13.4399 99.082 13.1449C98.9379 12.8499 98.8658 12.5052 98.8658 12.1108C98.8658 11.7131 98.9379 11.3659 99.082 11.0692C99.2279 10.7726 99.43 10.5423 99.6886 10.3782C99.9487 10.2141 100.251 10.1321 100.596 10.1321C100.941 10.1321 101.242 10.2141 101.501 10.3782C101.761 10.5423 101.963 10.7726 102.107 11.0692C102.253 11.3659 102.326 11.7131 102.326 12.1108C102.326 12.5052 102.253 12.8499 102.107 13.1449C101.963 13.4399 101.761 13.6694 101.501 13.8335C101.242 13.9975 100.941 14.0795 100.596 14.0795ZM100.596 13.5526C100.858 13.5526 101.073 13.4854 101.242 13.3512C101.411 13.217 101.536 13.0405 101.618 12.8217C101.699 12.603 101.739 12.366 101.739 12.1108C101.739 11.8556 101.699 11.6178 101.618 11.3974C101.536 11.177 101.411 10.9988 101.242 10.8629C101.073 10.727 100.858 10.6591 100.596 10.6591C100.334 10.6591 100.119 10.727 99.9496 10.8629C99.7805 10.9988 99.6554 11.177 99.5742 11.3974C99.493 11.6178 99.4524 11.8556 99.4524 12.1108C99.4524 12.366 99.493 12.603 99.5742 12.8217C99.6554 13.0405 99.7805 13.217 99.9496 13.3512C100.119 13.4854 100.334 13.5526 100.596 13.5526ZM103.222 15.4318V10.1818H103.788V10.7884H103.858C103.901 10.7221 103.961 10.6375 104.037 10.5348C104.115 10.4304 104.226 10.3376 104.37 10.2564C104.516 10.1735 104.713 10.1321 104.962 10.1321C105.283 10.1321 105.566 10.2125 105.812 10.3732C106.057 10.534 106.248 10.7618 106.386 11.0568C106.523 11.3518 106.592 11.6998 106.592 12.1009C106.592 12.5052 106.523 12.8557 106.386 13.1523C106.248 13.4473 106.058 13.676 105.814 13.8384C105.571 13.9992 105.29 14.0795 104.972 14.0795C104.726 14.0795 104.53 14.0389 104.382 13.9577C104.235 13.8749 104.121 13.7812 104.042 13.6768C103.962 13.5708 103.901 13.483 103.858 13.4134H103.808V15.4318H103.222ZM103.798 12.0909C103.798 12.3793 103.84 12.6336 103.925 12.854C104.009 13.0728 104.133 13.2443 104.295 13.3686C104.458 13.4912 104.657 13.5526 104.892 13.5526C105.137 13.5526 105.342 13.4879 105.506 13.3587C105.672 13.2277 105.796 13.0521 105.879 12.8317C105.963 12.6096 106.006 12.3627 106.006 12.0909C106.006 11.8224 105.964 11.5805 105.881 11.3651C105.8 11.148 105.677 10.9764 105.511 10.8505C105.347 10.7229 105.141 10.6591 104.892 10.6591C104.653 10.6591 104.453 10.7196 104.29 10.8406C104.128 10.9599 104.005 11.1272 103.922 11.3427C103.84 11.5565 103.798 11.8059 103.798 12.0909Z" fill="#4E524E"/>
</g>
<defs>
<clipPath id="clip0_230_3505">
<rect width="113.718" height="35" fill="white"/>
</clipPath>
</defs>
</svg>
