<?xml version="1.0" encoding="UTF-8"?>
<svg id="Layer_1" data-name="Layer 1" xmlns="http://www.w3.org/2000/svg" xmlns:xlink="http://www.w3.org/1999/xlink" viewBox="0 0 118 35">
  <defs>
    <style>
      .cls-1 {
        fill: none;
      }

      .cls-2 {
        clip-path: url(#clippath);
      }

      .cls-3, .cls-4 {
        fill: #fff;
      }

      .cls-5 {
        fill: #e4252e;
      }

      .cls-5, .cls-4, .cls-6 {
        fill-rule: evenodd;
      }

      .cls-6 {
        fill: #00966a;
      }
    </style>
    <clipPath id="clippath">
      <rect class="cls-1" width="118" height="35"/>
    </clipPath>
  </defs>
  <g class="cls-2">
    <g>
      <path class="cls-4" d="M11.79,35c-.26,0-.53-.06-.77-.17-.24-.11-.45-.27-.63-.47-6.67-7.77-2.28-12.64,.35-15.55l.08-.08c3.53-3.53,5.61-5.9,4.12-9.69-.15-.4-.16-.85-.02-1.25,.14-.41,.42-.75,.79-.97,.37-.22,.8-.31,1.23-.24s.81,.28,1.1,.6c6.69,7.79,2.27,12.66-.37,15.56l-.09,.1c-3.51,3.52-5.59,5.88-4.09,9.66,.11,.28,.15,.58,.12,.88-.03,.3-.14,.58-.31,.83-.17,.25-.39,.45-.66,.59-.27,.14-.56,.21-.86,.21h0Z"/>
      <path class="cls-4" d="M6.91,28.46c-.26,0-.53-.06-.77-.17-.24-.11-.45-.27-.63-.47-6.69-7.79-2.24-12.64,.37-15.54l.1-.08c3.51-3.53,5.58-5.88,4.09-9.66-.09-.23-.14-.47-.13-.71,0-.24,.05-.48,.15-.71,.1-.22,.24-.43,.41-.59,.18-.17,.38-.3,.61-.39,.35-.14,.74-.17,1.11-.08,.37,.09,.7,.3,.95,.59,6.67,7.77,2.29,12.64-.37,15.55l-.08,.08c-3.52,3.54-5.61,5.9-4.12,9.68,.09,.22,.13,.46,.13,.7,0,.24-.05,.48-.15,.7-.1,.22-.23,.42-.41,.59-.17,.17-.38,.3-.6,.39-.21,.09-.44,.13-.67,.13Z"/>
      <path class="cls-4" d="M105.52,34.4c-.49,0-.96-.2-1.3-.54-.34-.34-.54-.81-.54-1.3v-6h-1.08v2.31c0,.24-.04,.48-.13,.7-.09,.22-.22,.43-.39,.6-.17,.17-.37,.31-.59,.41-.22,.1-.46,.15-.7,.15h-3.02v1.83c0,.24-.05,.48-.14,.7-.09,.22-.23,.43-.4,.6-.17,.17-.37,.31-.6,.4-.22,.09-.46,.14-.7,.14h-4.39c-.24,0-.48-.05-.7-.14-.22-.09-.43-.23-.6-.4-.17-.17-.31-.37-.4-.6-.09-.22-.14-.46-.14-.7v-10.03c0-.49,.19-.95,.54-1.3,.34-.34,.81-.54,1.3-.54h22.34c.49,0,.95,.2,1.3,.54,.34,.35,.54,.81,.54,1.3v2.19c0,.24-.05,.48-.14,.7-.09,.22-.23,.42-.4,.6-.17,.17-.37,.31-.6,.4-.22,.09-.46,.14-.7,.14h-2.14v6c0,.49-.19,.95-.54,1.3-.34,.35-.81,.54-1.3,.54h-4.39Z"/>
      <path class="cls-4" d="M77.74,34.4c-.49,0-.96-.2-1.3-.54-.34-.34-.54-.81-.54-1.3v-10.03c0-.49,.2-.96,.54-1.3s.81-.54,1.3-.54h11.75c.49,0,.95,.2,1.3,.54,.34,.35,.54,.81,.54,1.3v2.19c0,.45-.17,.89-.47,1.22-.3,.34-.72,.55-1.16,.6v2.01c.47,.03,.9,.24,1.22,.58,.32,.34,.5,.79,.5,1.26v2.17c0,.49-.19,.95-.54,1.3-.34,.35-.81,.54-1.3,.54h-11.84Z"/>
      <path class="cls-4" d="M72.14,34.4c-.4,0-.8-.13-1.12-.38l-4.23-3.27v1.8c0,.49-.19,.95-.54,1.3-.34,.35-.81,.54-1.3,.54h-3.04c-.49,0-.95-.2-1.3-.54s-.54-.81-.54-1.3v-10.03c0-.49,.19-.95,.54-1.3,.34-.34,.81-.54,1.3-.54h3.41c.38,0,.76,.12,1.06,.35l4.12,2.94v-1.45c0-.49,.19-.95,.54-1.3,.34-.34,.81-.54,1.3-.54h3.01c.49,0,.95,.2,1.3,.54,.34,.35,.54,.81,.54,1.3v10.03c0,.49-.19,.95-.54,1.3-.34,.35-.81,.54-1.3,.54h-3.22Z"/>
      <path class="cls-4" d="M27.53,34.4c-.49,0-.95-.2-1.3-.54-.35-.34-.54-.81-.54-1.3v-6h-2.04c-.49,0-.95-.19-1.3-.54s-.54-.81-.54-1.3v-2.19c0-.49,.19-.95,.54-1.3,.34-.34,.81-.54,1.3-.54h12.19c.49,0,.96,.19,1.3,.54,.35,.35,.54,.81,.54,1.3v2.19c0,.24-.05,.49-.14,.71-.09,.23-.23,.43-.41,.6-.17,.17-.38,.31-.61,.4-.23,.09-.47,.13-.71,.13h-2.04v6c0,.49-.19,.95-.54,1.3-.34,.35-.81,.54-1.3,.54h-4.4Z"/>
      <path class="cls-4" d="M45.1,34.4c-.33,0-.66-.09-.95-.27-.29-.17-.52-.42-.67-.72l-.38-.73h-3.94l-.38,.73c-.16,.3-.39,.55-.67,.72-.29,.17-.61,.27-.95,.27h-2.85c-.32,0-.63-.09-.91-.24-.28-.16-.51-.39-.67-.66-.16-.27-.25-.59-.26-.9,0-.32,.07-.63,.22-.91l5.48-10.03c.16-.29,.39-.53,.67-.7,.28-.17,.61-.26,.94-.26h4.7c.33,0,.65,.09,.94,.26,.28,.17,.52,.41,.67,.7l5.49,10.03c.23,.43,.29,.93,.15,1.39-.14,.47-.45,.86-.88,1.09-.27,.15-.58,.23-.89,.23h-4.87Z"/>
      <path class="cls-4" d="M52.4,34.4c-.49,0-.95-.2-1.3-.54-.34-.35-.54-.81-.54-1.3v-6h-2.05c-.49,0-.95-.19-1.3-.54-.35-.34-.54-.81-.54-1.3v-2.19c0-.49,.2-.96,.54-1.3,.34-.34,.81-.54,1.3-.54h11.91c.49,0,.95,.2,1.3,.54,.34,.35,.54,.81,.54,1.3v2.19c0,.49-.19,.95-.54,1.3-.34,.34-.81,.54-1.3,.54h-1.8v6c0,.49-.19,.95-.54,1.3-.34,.35-.81,.54-1.3,.54h-4.39Z"/>
      <path class="cls-5" d="M16.65,8.34c2.01,5.13-1.28,8.39-4.54,11.68-3.06,3.39-5.72,6.87-.33,13.15-2.02-5.13,1.28-8.39,4.53-11.67,3.05-3.36,5.73-6.85,.33-13.16Z"/>
      <path class="cls-6" d="M11.79,1.83c2.01,5.13-1.28,8.39-4.54,11.68-3.05,3.35-5.72,6.84-.33,13.11-2.01-5.13,1.28-8.38,4.54-11.66,3.03-3.36,5.72-6.84,.33-13.12Z"/>
      <path class="cls-6" d="M91.55,22.52v10.03h4.39v-3.69h4.86v-2.18h-4.84v-1.97h9.58v7.84h4.39v-7.83h3.98v-2.2h-22.36Z"/>
      <path class="cls-6" d="M82.13,30.39v-1.74h5.72v-2.19h-5.72v-1.73h7.35v-2.19h-11.75v10.03h11.84v-2.17h-7.44Z"/>
      <path class="cls-6" d="M72.35,22.52v5.02l-7.06-5.02h-3.38v10.03h3.01v-5.52l7.21,5.52h3.21v-10.03h-2.99Z"/>
      <path class="cls-5" d="M35.81,22.52h-12.19v2.2h3.85v7.83h4.39v-7.83h3.95v-2.2Z"/>
      <path class="cls-5" d="M44.48,22.53h-4.7l-5.48,10.03h2.85l.9-1.72h6.16l.9,1.72h4.86l-5.49-10.03Zm-5.34,6.22l2.03-3.85,1.92,3.85h-3.96Z"/>
      <path class="cls-5" d="M60.43,22.52h-11.91v2.2h3.89v7.83h4.39v-7.83h3.63v-2.2Z"/>
      <path class="cls-3" d="M34.96,11.45c0,.54-.1,1-.29,1.39-.19,.39-.46,.69-.8,.9-.34,.21-.72,.32-1.16,.32s-.82-.11-1.16-.32-.6-.51-.8-.9c-.19-.39-.29-.86-.29-1.39s.1-1,.29-1.39c.19-.39,.46-.69,.8-.9s.72-.32,1.16-.32,.82,.11,1.16,.32c.34,.21,.6,.51,.8,.9,.19,.39,.29,.86,.29,1.39Zm-.6,0c0-.44-.07-.81-.22-1.12-.15-.3-.34-.53-.59-.69-.25-.16-.53-.23-.84-.23s-.59,.08-.84,.23c-.25,.16-.45,.39-.59,.69-.15,.3-.22,.68-.22,1.12s.07,.81,.22,1.12c.15,.3,.35,.53,.59,.69,.25,.16,.53,.23,.84,.23s.59-.08,.84-.23c.25-.16,.45-.39,.59-.69,.15-.3,.22-.68,.22-1.12Zm3.1,3.85v-6.39h.59v6.39h-.59Zm0-1.22c-.26,0-.49-.05-.71-.14-.21-.09-.39-.23-.55-.4-.15-.17-.27-.38-.35-.62-.08-.24-.12-.51-.12-.81s.04-.57,.12-.81c.08-.24,.2-.45,.35-.63,.15-.17,.33-.31,.55-.4,.21-.09,.45-.14,.71-.14h.18v3.95h-.18Zm0-.53h.1v-2.89h-.1c-.2,0-.37,.04-.51,.12-.14,.08-.26,.18-.36,.32-.09,.13-.16,.29-.21,.46-.04,.17-.07,.36-.07,.55,0,.26,.04,.49,.12,.71,.08,.22,.21,.4,.38,.53,.17,.13,.38,.2,.65,.2Zm.59,.53h-.18v-3.95h.18c.26,0,.49,.05,.71,.14,.21,.09,.39,.23,.55,.4s.27,.38,.35,.63c.08,.24,.12,.51,.12,.81s-.04,.56-.12,.81c-.08,.24-.2,.45-.35,.62-.15,.17-.33,.31-.55,.4-.21,.09-.45,.14-.71,.14Zm0-.53c.2,0,.37-.04,.51-.11,.14-.08,.26-.18,.36-.32,.09-.14,.16-.29,.21-.46,.05-.17,.07-.36,.07-.55,0-.26-.04-.49-.12-.71s-.21-.4-.38-.53c-.17-.14-.38-.2-.65-.2h-.1v2.89h.1Zm3.21-.42l1.84-2.95h.68v3.82h-.59v-2.95l-1.83,2.95h-.69v-3.82h.59v2.95Zm6.59-2.95v3.27h.54v1.78h-.59v-1.23h-2.95v-3.82h.59v3.27h1.83v-3.27h.59Zm2.03,2.95l1.84-2.95h.68v3.82h-.59v-2.95l-1.83,2.95h-.69v-3.82h.59v2.95Zm4.71,.95c-.24,0-.46-.05-.66-.14-.2-.09-.35-.23-.47-.4-.12-.18-.17-.39-.17-.64,0-.22,.04-.4,.13-.53,.09-.14,.2-.25,.35-.32s.3-.14,.48-.17c.18-.04,.35-.07,.53-.09,.23-.03,.42-.05,.56-.07,.15-.02,.25-.04,.32-.08,.07-.04,.1-.1,.1-.2v-.02c0-.25-.07-.44-.2-.57-.13-.14-.33-.2-.6-.2s-.5,.06-.66,.18c-.16,.12-.27,.25-.34,.39l-.56-.2c.1-.23,.23-.41,.4-.54,.17-.13,.35-.22,.55-.27,.2-.05,.39-.08,.59-.08,.12,0,.26,.01,.42,.04,.16,.03,.32,.09,.46,.18,.15,.09,.28,.22,.38,.41,.1,.18,.15,.42,.15,.73v2.52h-.59v-.52h-.03c-.04,.08-.11,.17-.2,.27-.09,.09-.22,.17-.37,.24-.15,.07-.34,.1-.56,.1Zm.09-.53c.23,0,.43-.05,.59-.14,.16-.09,.28-.21,.36-.35,.08-.14,.12-.3,.12-.45v-.54s-.08,.06-.16,.08c-.08,.02-.18,.04-.29,.06-.11,.02-.21,.03-.32,.04-.1,.01-.18,.02-.25,.03-.15,.02-.29,.05-.43,.1-.13,.04-.24,.11-.32,.2-.08,.09-.12,.2-.12,.35,0,.2,.08,.36,.23,.46,.15,.1,.35,.15,.58,.15Zm2.39,.44v-.55h.14c.11,0,.21-.02,.29-.07,.08-.05,.14-.13,.18-.24,.05-.12,.08-.28,.11-.48,.03-.21,.05-.47,.06-.79l.07-1.69h2.55v3.82h-.59v-3.27h-1.4l-.06,1.36c-.01,.31-.04,.59-.08,.83-.04,.24-.11,.44-.19,.6-.08,.16-.2,.28-.34,.36-.14,.08-.32,.12-.53,.12h-.2Zm4.97-2.44h1.09c.45,0,.79,.11,1.03,.34,.24,.23,.36,.51,.36,.86,0,.23-.05,.44-.16,.62-.11,.19-.26,.33-.47,.44-.21,.11-.46,.16-.76,.16h-1.6v-3.82h.59v3.27h1.01c.23,0,.42-.06,.57-.18,.15-.12,.22-.28,.22-.47,0-.2-.07-.37-.22-.49-.15-.13-.34-.19-.57-.19h-1.09v-.55Zm5.92,.26v.55h-2.11v-.55h2.11Zm-1.97-1.64v3.82h-.59v-3.82h.59Zm2.42,0v3.82h-.59v-3.82h.59Zm1.58,1.38h1.09c.45,0,.79,.11,1.03,.34,.24,.23,.36,.51,.36,.86,0,.23-.05,.44-.16,.62-.11,.19-.26,.33-.47,.44-.21,.11-.46,.16-.76,.16h-1.6v-3.82h.59v3.27h1.01c.23,0,.42-.06,.57-.18,.15-.12,.22-.28,.22-.47,0-.2-.07-.37-.22-.49-.15-.13-.34-.19-.57-.19h-1.09v-.55Zm3.08,2.44v-3.82h.59v3.82h-.59Zm2.25-.87l1.84-2.95h.68v3.82h-.59v-2.95l-1.83,2.95h-.69v-3.82h.59v2.95Zm1.45-4.23h.55c0,.27-.09,.49-.28,.66-.19,.17-.44,.26-.76,.26s-.56-.09-.75-.26c-.18-.17-.28-.39-.28-.66h.55c0,.13,.04,.24,.11,.34,.07,.1,.2,.15,.37,.15s.3-.05,.37-.15c.08-.1,.11-.21,.11-.34Zm5.66,5.17c-.36,0-.67-.08-.92-.25-.26-.17-.46-.4-.6-.7-.14-.3-.21-.64-.21-1.02s.07-.73,.21-1.03c.14-.3,.34-.53,.6-.7,.26-.17,.56-.25,.9-.25,.27,0,.51,.05,.73,.15,.22,.1,.39,.24,.53,.42,.14,.18,.22,.39,.26,.63h-.59c-.04-.17-.14-.33-.3-.46-.15-.14-.36-.2-.62-.2-.23,0-.43,.06-.6,.18-.17,.12-.3,.28-.4,.5-.09,.21-.14,.46-.14,.75s.05,.55,.14,.77c.09,.22,.23,.39,.4,.51,.17,.12,.37,.18,.61,.18,.15,0,.29-.03,.42-.08,.12-.05,.23-.13,.32-.23,.09-.1,.15-.22,.18-.36h.59c-.03,.23-.12,.43-.25,.61-.13,.18-.3,.32-.51,.43-.21,.1-.46,.16-.74,.16Zm2.36-.08v-3.82h3v3.82h-.59v-3.27h-1.83v3.27h-.59Zm5.63,.08c-.34,0-.65-.08-.91-.25-.26-.16-.46-.39-.61-.69-.14-.3-.22-.64-.22-1.03s.07-.74,.22-1.04c.15-.3,.35-.53,.61-.69,.26-.16,.56-.25,.91-.25s.65,.08,.9,.25c.26,.16,.46,.39,.61,.69,.15,.3,.22,.64,.22,1.04s-.07,.74-.22,1.03c-.14,.3-.35,.52-.61,.69-.26,.16-.56,.25-.9,.25Zm0-.53c.26,0,.48-.07,.65-.2,.17-.13,.29-.31,.38-.53,.08-.22,.12-.46,.12-.71s-.04-.49-.12-.71-.21-.4-.38-.53c-.17-.14-.38-.2-.65-.2s-.48,.07-.65,.2c-.17,.14-.29,.31-.38,.53s-.12,.46-.12,.71,.04,.49,.12,.71c.08,.22,.21,.4,.38,.53,.17,.13,.38,.2,.65,.2Zm5.18-1.73v.55h-2.11v-.55h2.11Zm-1.97-1.64v3.82h-.59v-3.82h.59Zm2.42,0v3.82h-.59v-3.82h.59Zm2.62,3.9c-.36,0-.67-.08-.92-.25-.26-.17-.46-.4-.6-.7-.14-.3-.21-.64-.21-1.02s.07-.73,.21-1.03c.14-.3,.34-.53,.6-.7,.26-.17,.56-.25,.9-.25,.27,0,.51,.05,.73,.15,.22,.1,.39,.24,.53,.42,.14,.18,.22,.39,.26,.63h-.59c-.04-.17-.14-.33-.3-.46-.15-.14-.36-.2-.62-.2-.23,0-.43,.06-.6,.18-.17,.12-.3,.28-.4,.5-.09,.21-.14,.46-.14,.75s.05,.55,.14,.77c.09,.22,.23,.39,.4,.51,.17,.12,.37,.18,.61,.18,.15,0,.29-.03,.42-.08,.12-.05,.23-.13,.32-.23,.09-.1,.15-.22,.18-.36h.59c-.03,.23-.11,.43-.25,.61-.13,.18-.3,.32-.51,.43-.21,.1-.46,.16-.74,.16Zm3.91,0c-.35,0-.65-.08-.91-.25-.26-.16-.46-.39-.61-.69-.14-.3-.22-.64-.22-1.03s.07-.74,.22-1.04c.15-.3,.35-.53,.61-.69,.26-.16,.56-.25,.91-.25s.65,.08,.9,.25c.26,.16,.46,.39,.61,.69,.15,.3,.22,.64,.22,1.04s-.07,.74-.22,1.03c-.14,.3-.35,.52-.61,.69-.26,.16-.56,.25-.9,.25Zm0-.53c.26,0,.48-.07,.65-.2,.17-.13,.29-.31,.38-.53,.08-.22,.12-.46,.12-.71s-.04-.49-.12-.71c-.08-.22-.21-.4-.38-.53-.17-.14-.38-.2-.65-.2s-.48,.07-.65,.2c-.17,.14-.29,.31-.38,.53s-.12,.46-.12,.71,.04,.49,.12,.71c.08,.22,.21,.4,.38,.53,.17,.13,.38,.2,.65,.2Zm2.63,1.88v-5.25h.57v.61h.07c.04-.07,.1-.15,.18-.25,.08-.1,.19-.2,.33-.28,.15-.08,.34-.12,.59-.12,.32,0,.6,.08,.85,.24,.25,.16,.44,.39,.57,.68,.14,.3,.21,.64,.21,1.04s-.07,.75-.21,1.05c-.14,.3-.33,.52-.57,.69-.24,.16-.52,.24-.84,.24-.25,0-.44-.04-.59-.12-.15-.08-.26-.18-.34-.28-.08-.11-.14-.19-.18-.26h-.05v2.02h-.59Zm.58-3.34c0,.29,.04,.54,.13,.76,.08,.22,.21,.39,.37,.51,.16,.12,.36,.18,.6,.18s.45-.06,.61-.19c.17-.13,.29-.31,.37-.53,.08-.22,.13-.47,.13-.74s-.04-.51-.12-.73c-.08-.22-.2-.39-.37-.51-.16-.13-.37-.19-.62-.19s-.44,.06-.6,.18c-.16,.12-.29,.29-.37,.5-.08,.21-.12,.46-.12,.75Z"/>
    </g>
  </g>
</svg>