<svg width="149" height="133" viewBox="0 0 149 133" fill="none" xmlns="http://www.w3.org/2000/svg">
<g opacity="0.5">
<mask id="mask0_1207_2482" style="mask-type:alpha" maskUnits="userSpaceOnUse" x="0" y="0" width="149" height="133">
<rect width="149" height="133" fill="#D9D9D9"/>
</mask>
<g mask="url(#mask0_1207_2482)">
<path fill-rule="evenodd" clip-rule="evenodd" d="M114.492 7C162.817 7 202 46.1828 202 94.4917C202 142.801 162.817 182 114.492 182C66.1663 182 27 142.817 27 94.4917C27 46.1663 66.1828 7 114.492 7Z" fill="white"/>
<path fill-rule="evenodd" clip-rule="evenodd" d="M162.387 46.6125C150.136 34.3617 133.19 26.7731 114.492 26.7731C95.7929 26.7731 78.8468 34.3617 66.596 46.6125C54.3451 58.8633 46.7566 75.8095 46.7566 94.5081C46.7566 113.207 54.3451 130.153 66.596 142.404C78.8468 154.655 95.7929 162.243 114.492 162.243C133.19 162.243 150.136 154.655 162.387 142.404C174.638 130.153 182.227 113.207 182.227 94.5081C182.227 75.8095 174.638 58.8633 162.387 46.6125ZM114.492 25.5331C133.537 25.5331 150.781 33.254 163.263 45.7363C175.746 58.2185 183.467 75.4623 183.467 94.5081C183.467 113.554 175.746 130.798 163.263 143.28C150.781 155.762 133.537 163.483 114.492 163.483C95.4458 163.483 78.202 155.762 65.7197 143.28C53.2374 130.798 45.5166 113.554 45.5166 94.5081C45.5166 75.4623 53.2374 58.2185 65.7197 45.7363C78.202 33.254 95.4458 25.5331 114.492 25.5331ZM173.464 35.5355C158.37 20.441 137.522 11.1 114.492 11.1C91.4613 11.1 70.6134 20.441 55.519 35.5355C40.441 50.6134 31.1 71.4613 31.1 94.4916C31.1 117.522 40.441 138.37 55.5355 153.464C70.63 168.559 91.4779 177.9 114.508 177.9C137.538 177.9 158.386 168.559 173.481 153.464C188.575 138.37 197.916 117.522 197.916 94.4916C197.916 71.4613 188.575 50.6134 173.481 35.519L173.464 35.5355Z" fill="#F3F3F3"/>
<path fill-rule="evenodd" clip-rule="evenodd" d="M114.492 26.1449C152.236 26.1449 182.838 56.7472 182.838 94.4916C182.838 132.236 152.236 162.838 114.492 162.838C76.7472 162.838 46.1449 132.253 46.1449 94.4916C46.1449 56.7306 76.7472 26.1449 114.492 26.1449Z" fill="white"/>
<path fill-rule="evenodd" clip-rule="evenodd" d="M156.799 52.2008C145.97 41.3718 131.024 34.676 114.492 34.676C97.9588 34.676 83.0131 41.3718 72.1841 52.2008C61.3551 63.0298 54.6593 77.9755 54.6593 94.5083C54.6593 111.041 61.3551 125.987 72.1841 136.816C83.0131 147.645 97.9588 154.341 114.492 154.341C131.024 154.341 145.97 147.645 156.799 136.816C167.628 125.987 174.324 111.041 174.324 94.5083C174.324 77.9755 167.628 63.0298 156.799 52.2008Z" fill="#F3F3F3"/>
<path fill-rule="evenodd" clip-rule="evenodd" d="M114.492 17.1182C113.467 18.3251 112.028 21.4333 114.492 21.4333C116.955 21.4333 115.517 18.3251 114.492 17.1182ZM114.492 24.3596C110.127 24.3596 111.466 17.6638 108.358 18.7054C108.953 16.0271 111.698 16.7214 111.962 16.9033C112.194 15.2831 112.706 13.5471 114.492 12.2906C116.277 13.5471 116.79 15.2831 117.021 16.9033C117.269 16.7214 120.03 16.0271 120.626 18.7054C117.517 17.6638 118.873 24.3596 114.492 24.3596Z" fill="white"/>
<path d="M156.121 154.34C156.898 153.828 157.675 153.448 158.486 153.464C158.816 153.464 159.13 153.547 159.428 153.663L159.709 152.042L161.296 151.976C162.751 147.132 166.702 147.413 170.174 146.884C172.29 146.653 173.398 145.975 173.993 145.049C174.671 143.958 174.489 142.371 173.299 141.709C172.522 141.312 171.976 141.924 171.365 142.8C172.902 142.602 173.15 144.04 172.472 144.768C171.811 145.462 170.554 145.429 169.81 144.933C168.885 145.876 167.661 146.454 165.743 145.561C167.38 144.884 168.323 143.726 169.331 142.519C170.207 141.478 171.001 140.519 172.075 140.254C172.406 140.172 172.72 140.172 173.034 140.205L172.902 138.568L174.407 138.089C174.588 133.03 178.474 132.286 181.698 130.897C183.682 130.136 184.591 129.194 184.921 128.152C185.285 126.929 184.707 125.441 183.4 125.11C182.557 124.912 182.177 125.656 181.813 126.664C183.252 126.086 183.863 127.392 183.384 128.285C182.921 129.128 181.698 129.409 180.854 129.128C180.21 130.285 179.152 131.145 177.085 130.781C178.49 129.706 179.102 128.351 179.78 126.912C180.358 125.672 180.871 124.548 181.863 124.019C182.161 123.854 182.475 123.771 182.772 123.722L182.227 122.167L183.566 121.324C182.442 116.398 186.013 114.678 188.774 112.512C190.493 111.272 191.138 110.132 191.187 109.04C191.237 107.767 190.295 106.461 188.939 106.478C188.063 106.511 187.881 107.321 187.798 108.379C189.038 107.453 189.964 108.561 189.733 109.553C189.501 110.479 188.393 111.074 187.501 111.024C187.17 112.297 186.376 113.405 184.277 113.587C185.368 112.182 185.616 110.727 185.897 109.173C186.145 107.834 186.36 106.61 187.17 105.85C187.418 105.618 187.682 105.453 187.98 105.337L187.054 103.981L188.129 102.824C185.798 98.3437 188.807 95.7811 190.923 92.9705C192.262 91.3337 192.593 90.0607 192.361 89.0026C192.08 87.7461 190.84 86.7376 189.534 87.1013C188.691 87.3493 188.724 88.176 188.922 89.2341C189.881 88.0106 191.072 88.8704 191.088 89.8789C191.105 90.8378 190.179 91.6809 189.303 91.8628C189.303 93.1854 188.823 94.4584 186.839 95.1528C187.534 93.5161 187.401 92.0447 187.269 90.4575C187.153 89.1018 187.054 87.8618 187.649 86.9195C187.831 86.6384 188.046 86.407 188.294 86.2086L187.054 85.1339L187.798 83.7452C184.392 80.0088 186.657 76.7518 187.98 73.4948C188.856 71.5605 188.856 70.2544 188.36 69.2789C187.765 68.1382 186.31 67.4769 185.136 68.1547C184.392 68.6176 184.64 69.4112 185.087 70.3701C185.715 68.9483 187.071 69.4608 187.335 70.4362C187.6 71.3621 186.922 72.4202 186.112 72.817C186.459 74.09 186.31 75.4457 184.574 76.6361C184.822 74.8836 184.326 73.4948 183.797 71.9903C183.351 70.7008 182.938 69.5435 183.268 68.4688C183.367 68.1547 183.516 67.8571 183.715 67.6257L182.243 66.8982L182.607 65.3607C178.358 62.6162 179.714 58.8963 180.177 55.4079C180.54 53.3082 180.193 52.0517 179.466 51.2416C178.606 50.2993 177.019 50.0182 176.076 50.9771C175.465 51.6054 175.911 52.3163 176.589 53.1264C176.837 51.5888 178.275 51.7542 178.788 52.6139C179.267 53.4405 178.887 54.6309 178.209 55.226C178.87 56.3833 179.069 57.7225 177.697 59.3097C177.498 57.5572 176.655 56.3337 175.762 55.0111C175.002 53.8869 174.307 52.8618 174.357 51.7376C174.374 51.407 174.456 51.0928 174.572 50.8118L172.968 50.4811L172.935 48.894C168.124 47.3234 168.488 43.3885 168.041 39.9001C167.86 37.7839 167.198 36.6431 166.289 36.048C165.214 35.3536 163.627 35.5024 162.933 36.6597C162.503 37.4202 163.115 37.9988 163.974 38.6106C163.809 37.073 165.247 36.8415 165.975 37.5524C166.653 38.2303 166.587 39.4868 166.074 40.2308C167 41.1731 167.529 42.4131 166.62 44.3144C165.975 42.6611 164.851 41.7022 163.66 40.6606C162.635 39.7679 161.693 38.9577 161.461 37.8666C161.395 37.5359 161.379 37.2218 161.428 36.9077L159.792 37.0069L159.362 35.4858C154.319 35.1883 153.658 31.2865 152.335 28.0295C151.608 26.0291 150.699 25.1032 149.657 24.7395C148.434 24.3427 146.929 24.8883 146.565 26.1779C146.35 27.021 147.078 27.4178 148.07 27.7981C147.524 26.3432 148.847 25.7645 149.723 26.2771C150.55 26.7565 150.798 27.9799 150.517 28.8396C151.657 29.5175 152.484 30.5756 152.087 32.6422C151.046 31.2038 149.707 30.5591 148.285 29.8647C147.061 29.2695 145.954 28.7074 145.441 27.7154C145.292 27.4178 145.21 27.1037 145.177 26.7896L143.622 27.3021L142.812 25.9464C137.853 26.9549 136.232 23.3342 134.116 20.5236C132.909 18.7712 131.785 18.1098 130.694 18.0272C129.421 17.9445 128.098 18.8704 128.082 20.2095C128.082 21.0858 128.892 21.2841 129.95 21.3999C129.057 20.1434 130.198 19.2341 131.157 19.4986C132.083 19.7466 132.645 20.8708 132.562 21.7636C133.835 22.1273 134.91 22.954 135.042 25.0536C133.67 23.9459 132.215 23.6483 130.661 23.3342C129.322 23.0697 128.115 22.8217 127.371 21.9785C127.139 21.7305 126.957 21.4495 126.842 21.1519C126.428 21.0858 125.883 21.0692 125.139 20.2095C124.94 20.2095 124.643 20.2426 124.229 20.3087C124.825 19.6805 125.635 19.0357 126.296 18.5728C128.445 17.1344 131.504 14.919 134.728 19.1183L136.563 18.5397L137.158 20.0938C137.538 19.6805 138.051 19.3829 138.663 19.2837C139.77 19.1018 140.862 19.6805 142.068 20.3087C143.474 21.0362 144.78 21.7305 146.549 21.7305C145.127 23.2846 143.771 23.235 142.548 22.7225C142.035 23.4665 140.895 23.979 140.018 23.5987C139.093 23.1854 138.778 21.7801 140.266 21.3668C139.374 20.7882 138.613 20.441 138.067 21.1023C137.869 21.3503 137.753 21.6644 137.72 22.0116C137.687 22.3588 137.737 22.739 137.902 23.0862C139.043 25.5331 143.011 24.5411 144.896 23.9459C148.152 22.9209 151.178 21.962 153.228 26.8392L155.162 26.74L155.344 28.3933C155.824 28.0791 156.386 27.9303 157.014 27.9799C158.122 28.0791 159.048 28.9223 160.056 29.8316C161.23 30.9063 162.321 31.8982 164.024 32.3611C162.255 33.5019 160.949 33.1051 159.907 32.295C159.229 32.8737 157.99 33.0886 157.246 32.4934C156.452 31.8652 156.518 30.4103 158.056 30.3937C157.345 29.6002 156.7 29.0711 155.989 29.5836C155.741 29.782 155.543 30.0465 155.427 30.3772C155.311 30.7079 155.262 31.0881 155.328 31.4684C155.807 34.1136 159.891 34.1798 161.875 34.0806C165.281 33.9152 168.455 33.7664 169.199 39.0073L171.084 39.4041L170.836 41.0574C171.381 40.8755 171.96 40.8755 172.555 41.0905C173.597 41.4707 174.274 42.5123 175.018 43.6531C175.878 44.9922 176.672 46.2322 178.226 47.1084C176.225 47.7532 175.068 47.0423 174.258 46.0007C173.448 46.3975 172.191 46.2818 171.629 45.5213C171.034 44.7112 171.447 43.3224 172.952 43.7027C172.456 42.7603 171.976 42.0824 171.166 42.3966C170.869 42.5123 170.604 42.7272 170.406 43.0083C170.207 43.2893 170.058 43.6531 170.042 44.0333C169.827 46.7116 173.762 47.8193 175.713 48.2327C179.052 48.9436 182.144 49.6049 181.532 54.8623L183.252 55.722L182.59 57.243C183.152 57.21 183.731 57.3588 184.244 57.7225C185.153 58.3673 185.55 59.5411 185.963 60.8307C186.459 62.3352 186.905 63.7404 188.178 64.9804C186.079 65.0961 185.136 64.1207 184.624 62.8973C183.748 63.0791 182.557 62.6493 182.21 61.7565C181.83 60.8141 182.59 59.5907 183.963 60.3347C183.731 59.2931 183.434 58.5161 182.574 58.6153C182.26 58.6649 181.946 58.7971 181.681 59.0121C181.417 59.2435 181.185 59.5576 181.053 59.9214C180.16 62.4674 183.682 64.534 185.467 65.4268C188.509 66.9644 191.336 68.4027 189.402 73.313L190.857 74.586L189.832 75.8921C190.394 76.0078 190.906 76.2889 191.32 76.7683C192.047 77.6115 192.113 78.868 192.196 80.2237C192.295 81.8108 192.361 83.2823 193.271 84.8033C191.204 84.3734 190.543 83.1996 190.377 81.877C189.485 81.8274 188.443 81.1165 188.327 80.1575C188.212 79.1656 189.253 78.1571 190.377 79.2317C190.41 78.1571 190.328 77.347 189.468 77.2147C189.154 77.1816 188.823 77.2312 188.509 77.38C188.195 77.5288 187.897 77.7768 187.682 78.0909C186.178 80.3229 189.055 83.2161 190.543 84.5387C193.089 86.8037 195.469 88.9034 192.345 93.1689L193.419 94.7726L192.097 95.7811C192.609 96.0291 193.039 96.4424 193.304 97.0045C193.783 98.013 193.535 99.2364 193.271 100.559C192.956 102.113 192.659 103.568 193.138 105.271C191.254 104.329 190.923 103.022 191.088 101.7C190.229 101.419 189.418 100.46 189.551 99.5175C189.683 98.5255 190.956 97.8146 191.766 99.1372C192.08 98.1122 192.212 97.3021 191.402 96.9549C191.105 96.8392 190.774 96.8061 190.427 96.8722C190.08 96.9384 189.733 97.1037 189.435 97.3517C187.401 99.1207 189.451 102.659 190.559 104.312C192.444 107.156 194.196 109.801 190.096 113.124L190.725 114.943L189.187 115.571C189.617 115.951 189.931 116.447 190.047 117.059C190.262 118.15 189.699 119.274 189.104 120.498C188.41 121.919 187.749 123.242 187.782 125.011C186.195 123.622 186.211 122.267 186.707 121.043C185.947 120.547 185.401 119.423 185.765 118.547C186.145 117.621 187.55 117.257 188.013 118.745C188.575 117.836 188.906 117.075 188.228 116.53C187.98 116.348 187.649 116.232 187.319 116.199C186.972 116.166 186.591 116.232 186.244 116.414C183.83 117.604 184.905 121.556 185.55 123.44C186.657 126.664 187.682 129.673 182.855 131.839L183.004 133.774L181.35 133.988C181.665 134.468 181.846 135.03 181.797 135.658C181.714 136.766 180.904 137.708 180.011 138.733C178.97 139.924 177.994 141.048 177.581 142.767C176.407 141.015 176.754 139.709 177.548 138.651C176.953 137.989 176.705 136.749 177.283 135.989C177.895 135.195 179.35 135.195 179.4 136.749C180.177 136.005 180.689 135.361 180.16 134.666C179.962 134.418 179.681 134.22 179.366 134.121C179.036 134.005 178.656 133.972 178.275 134.055C175.647 134.584 175.68 138.684 175.812 140.668C176.06 144.073 176.275 147.231 171.067 148.107L170.72 150.009L169.067 149.794C169.248 150.323 169.281 150.918 169.067 151.513C168.703 152.571 167.678 153.266 166.554 154.043C165.247 154.936 164.007 155.762 163.181 157.316C162.486 155.332 163.181 154.158 164.206 153.332C163.793 152.538 163.875 151.282 164.636 150.687C165.429 150.075 166.835 150.455 166.487 151.976C167.43 151.464 168.091 150.968 167.76 150.158C167.628 149.876 167.413 149.612 167.132 149.43C166.835 149.232 166.471 149.099 166.091 149.083C163.396 148.934 162.404 152.885 162.024 154.853C161.66 156.787 161.313 158.622 160.073 159.763L161.908 162.26L161.428 162.607L153.757 152.158L154.237 151.811L156.105 154.357L156.121 154.34ZM159.329 158.358C160.056 157.449 160.04 155.977 159.378 155.481C158.651 154.936 158.023 155.035 157.494 155.465C158.552 155.415 158.948 156.457 158.469 157.201L159.312 158.358H159.329Z" fill="white"/>
<path d="M72.895 154.34C72.1179 153.828 71.3409 153.448 70.5308 153.464C70.2001 153.464 69.886 153.547 69.5884 153.663L69.3073 152.042L67.7367 151.976C66.2818 147.132 62.3305 147.413 58.8586 146.884C56.7424 146.653 55.6347 145.975 55.0395 145.049C54.3617 143.958 54.5435 142.371 55.7339 141.709C56.5109 141.312 57.073 141.924 57.6682 142.8C56.1307 142.602 55.8827 144.04 56.5605 144.768C57.2218 145.462 58.4783 145.429 59.2223 144.933C60.1482 145.876 61.3716 146.454 63.2894 145.561C61.6526 144.884 60.7103 143.726 59.7018 142.519C58.8255 141.478 58.0319 140.519 56.9573 140.254C56.6267 140.172 56.3125 140.172 55.9984 140.205L56.1307 138.568L54.6262 138.089C54.4443 133.03 50.5591 132.286 47.3352 130.897C45.3513 130.136 44.442 129.194 44.1113 128.152C43.7476 126.929 44.3262 125.441 45.6323 125.11C46.492 124.912 46.8723 125.656 47.2195 126.664C45.7811 126.086 45.1694 127.392 45.6489 128.285C46.1118 129.128 47.3352 129.409 48.1784 129.128C48.8232 130.285 49.8813 131.145 51.9479 130.781C50.5426 129.706 49.9309 128.351 49.253 126.912C48.6744 125.672 48.1618 124.548 47.1699 124.019C46.8723 123.854 46.5582 123.771 46.2606 123.722L46.8062 122.167L45.467 121.324C46.5912 116.398 43.0201 114.678 40.2592 112.512C38.5397 111.272 37.895 110.132 37.8454 109.04C37.7958 107.767 38.7381 106.461 40.0938 106.478C40.9701 106.511 41.1519 107.321 41.2346 108.379C39.9946 107.453 39.0688 108.561 39.3003 109.553C39.5317 110.479 40.6394 111.074 41.5322 111.024C41.8628 112.297 42.6564 113.405 44.7561 113.587C43.6815 112.182 43.4169 110.727 43.1359 109.173C42.9044 107.834 42.673 106.61 41.8628 105.85C41.6148 105.618 41.3503 105.453 41.0527 105.337L41.9786 103.981L40.9039 102.824C43.2351 98.3437 40.2261 95.7811 38.1099 92.9705C36.7707 91.3337 36.4401 90.0607 36.6715 89.0026C36.9526 87.7461 38.1926 86.7376 39.4986 87.1013C40.3418 87.3493 40.3088 88.176 40.1104 89.2341C39.1515 88.0106 37.9611 88.8704 37.9446 89.8789C37.928 90.8378 38.8539 91.6809 39.7301 91.8628C39.7301 93.1854 40.2096 94.4584 42.1935 95.1528C41.4991 93.5161 41.6314 92.0447 41.7636 90.4575C41.8794 89.1018 41.9786 87.8618 41.3834 86.9195C41.2015 86.6384 40.9866 86.407 40.7386 86.2086L41.9786 85.1339L41.2346 83.7452C44.6404 80.0088 42.3754 76.7518 41.0527 73.4948C40.1765 71.5605 40.1765 70.2544 40.6725 69.2789C41.2677 68.1382 42.7225 67.4769 43.8964 68.1547C44.6404 68.6176 44.3924 69.4112 43.946 70.3701C43.3177 68.9483 41.962 69.4608 41.6975 70.4362C41.433 71.3621 42.1108 72.4202 42.9209 72.817C42.5738 74.09 42.7225 75.4457 44.4585 76.6361C44.2105 74.8836 44.7065 73.4948 45.2355 71.9903C45.6819 70.7008 46.0952 69.5435 45.7646 68.4688C45.6654 68.1547 45.5166 67.8571 45.3182 67.6257L46.7896 66.8982L46.4259 65.3607C50.6748 62.6162 49.3191 58.8963 48.8562 55.4079C48.4925 53.3082 48.8397 52.0517 49.5671 51.2416C50.4268 50.2993 52.014 50.0182 52.9564 50.9771C53.5681 51.6054 53.1217 52.3163 52.4439 53.1264C52.1959 51.5888 50.7575 51.7542 50.245 52.6139C49.7655 53.4405 50.1458 54.6309 50.8236 55.226C50.1623 56.3833 49.9639 57.7225 51.3362 59.3097C51.5345 57.5572 52.3777 56.3337 53.2705 55.0111C54.031 53.8869 54.7254 52.8618 54.6758 51.7376C54.6758 51.407 54.5766 51.0928 54.4609 50.8118L56.0645 50.4811L56.0976 48.894C60.9087 47.3234 60.5449 43.3885 60.9913 39.9001C61.1732 37.7839 61.8345 36.6431 62.7438 36.048C63.8184 35.3536 65.4056 35.5024 66.1 36.6597C66.5298 37.4202 65.9181 37.9988 65.0584 38.6106C65.2237 37.073 63.7854 36.8415 63.0579 37.5524C62.3801 38.2303 62.4462 39.4868 62.9587 40.2308C62.0329 41.1731 61.5038 42.4131 62.4132 44.3144C63.0579 42.6611 64.1822 41.7022 65.3891 40.6606C66.4141 39.7679 67.3565 38.9577 67.5879 37.8666C67.6541 37.5359 67.6706 37.2218 67.621 36.9077L69.2577 37.0069L69.6876 35.4858C74.7301 35.1883 75.3914 31.2865 76.714 28.0295C77.4415 26.0291 78.3508 25.1032 79.3924 24.7395C80.6158 24.3427 82.1203 24.8883 82.484 26.1779C82.6989 27.021 81.9715 27.4178 80.9795 27.7981C81.5251 26.3432 80.2025 25.7645 79.3262 26.2771C78.4996 26.7565 78.2516 27.9799 78.5327 28.8396C77.3919 29.5175 76.5653 30.5756 76.962 32.6422C78.0036 31.2038 79.3428 30.5591 80.7646 29.8647C81.988 29.2695 83.0957 28.7074 83.6082 27.7154C83.757 27.4178 83.8397 27.1037 83.8728 26.7896L85.4268 27.3021L86.237 25.9464C91.1968 26.9549 92.817 23.3342 94.9332 20.5236C96.1401 18.7712 97.2644 18.1098 98.3555 18.0272C99.6285 17.9445 100.951 18.8704 100.968 20.2095C100.968 21.0858 100.158 21.2841 99.0995 21.3999C99.9923 20.1434 98.8515 19.2341 97.8926 19.4986C96.9668 19.7466 96.4046 20.8708 96.4873 21.7636C95.2143 22.1273 94.1396 22.954 94.0074 25.0536C95.3796 23.9459 96.8345 23.6483 98.3886 23.3342C99.7277 23.0697 100.935 22.8217 101.679 21.9785C101.894 21.7305 102.092 21.4495 102.208 21.1519C102.621 21.0858 103.167 21.0692 103.911 20.2095C104.109 20.2095 104.407 20.2426 104.82 20.3087C104.225 19.6805 103.415 19.0357 102.753 18.5728C100.604 17.1344 97.5454 14.919 94.3215 19.1183L92.4864 18.5397L91.8912 20.0938C91.5109 19.6805 90.9984 19.3829 90.3867 19.2837C89.279 19.1018 88.1878 19.6805 86.9809 20.3087C85.5756 21.0362 84.2696 21.7305 82.5005 21.7305C83.9224 23.2846 85.2781 23.235 86.5015 22.7225C87.014 23.4665 88.1548 23.979 89.031 23.5987C89.9568 23.1854 90.271 21.7801 88.783 21.3668C89.6758 20.7882 90.4363 20.441 90.9819 21.1023C91.1803 21.3503 91.296 21.6644 91.3291 22.0116C91.3621 22.3588 91.3125 22.739 91.1472 23.0862C90.0064 25.5331 86.0386 24.5411 84.1538 23.9459C80.8969 22.9209 77.8713 21.962 75.8213 26.8392L73.8869 26.74L73.7051 28.3933C73.2256 28.0791 72.6635 27.9303 72.0353 27.9799C70.9276 28.0791 70.0017 28.9223 68.9932 29.8316C67.8194 30.9063 66.7282 31.8982 65.0253 32.3611C66.7943 33.5019 68.1004 33.1051 69.142 32.295C69.8199 32.8737 71.0598 33.0886 71.8038 32.4934C72.5974 31.8652 72.5312 30.4103 70.9937 30.3937C71.7046 29.6002 72.3494 29.0711 73.0603 29.5836C73.3083 29.782 73.5067 30.0465 73.6224 30.3772C73.7381 30.7079 73.7877 31.0881 73.7216 31.4684C73.2422 34.1136 69.1585 34.1798 67.1746 34.0806C63.7688 33.9152 60.5945 33.7664 59.8506 39.0073L57.9658 39.4041L58.2138 41.0574C57.6682 40.8755 57.0896 40.8755 56.4944 41.0905C55.4528 41.4707 54.775 42.5123 54.031 43.6531C53.1713 44.9922 52.3777 46.2322 50.8236 47.1084C52.8241 47.7532 53.9814 47.0423 54.7915 46.0007C55.6016 46.3975 56.8416 46.2818 57.4202 45.5213C58.0154 44.7112 57.6021 43.3224 56.0976 43.7027C56.5936 42.7603 57.073 42.0824 57.8832 42.3966C58.1807 42.5123 58.4453 42.7272 58.6437 43.0083C58.8421 43.2893 58.9909 43.6531 59.0074 44.0333C59.2223 46.7116 55.2875 47.8193 53.3366 48.2327C49.997 48.9436 46.9054 49.6049 47.5171 54.8623L45.7977 55.722L46.459 57.243C45.8969 57.21 45.3182 57.3588 44.8057 57.7225C43.8964 58.3673 43.4996 59.5411 43.0863 60.8307C42.5903 62.3352 42.1439 63.7404 40.8709 64.9804C42.9705 65.0961 43.9129 64.1207 44.4254 62.8973C45.3017 63.0791 46.492 62.6493 46.8392 61.7565C47.2195 60.8141 46.459 59.5907 45.0867 60.3347C45.3182 59.2931 45.6158 58.5161 46.4755 58.6153C46.7896 58.6649 47.1037 58.7971 47.3517 59.0121C47.6163 59.2435 47.8477 59.5576 47.98 59.9214C48.8728 62.4674 45.3513 64.534 43.5657 65.4268C40.5237 66.9644 37.6966 68.4027 39.6309 73.313L38.176 74.586L39.2011 75.8921C38.6389 76.0078 38.1264 76.2889 37.7296 76.7683C37.0022 77.6115 36.9361 78.868 36.8534 80.2237C36.7542 81.8108 36.6881 83.2823 35.7788 84.8033C37.8454 84.3734 38.4901 83.1996 38.672 81.877C39.5648 81.8274 40.6063 81.1165 40.7221 80.1575C40.8378 79.1656 39.7962 78.1571 38.672 79.2317C38.6389 78.1571 38.7216 77.347 39.5813 77.2147C39.8954 77.1816 40.2261 77.2312 40.5402 77.38C40.8543 77.5288 41.1519 77.7768 41.3669 78.0909C42.8713 80.3229 39.9946 83.2161 38.5067 84.5387C35.9606 86.8037 33.5799 88.9034 36.7046 93.1689L35.63 94.7726L36.9526 95.7811C36.4401 96.0291 36.0102 96.4424 35.7457 97.0045C35.2662 98.013 35.5142 99.2364 35.7788 100.559C36.0929 102.113 36.3905 103.568 35.911 105.271C37.7958 104.329 38.1264 103.022 37.9776 101.7C38.8373 101.419 39.6474 100.46 39.5152 99.5175C39.3829 98.5255 38.1099 97.8146 37.2998 99.1372C36.9857 98.1122 36.8534 97.3021 37.6635 96.9549C37.9611 96.8392 38.2918 96.8061 38.6389 96.8722C38.9861 96.9384 39.3333 97.1037 39.6309 97.3517C41.6644 99.1207 39.6144 102.659 38.5067 104.312C36.6219 107.156 34.8695 109.801 38.9696 113.124L38.3414 114.943L39.8789 115.571C39.449 115.951 39.1349 116.447 39.0192 117.059C38.8043 118.15 39.3664 119.274 39.9616 120.498C40.6559 121.919 41.3173 123.242 41.2842 125.011C42.8713 123.622 42.8548 122.267 42.3588 121.043C43.1193 120.547 43.6649 119.423 43.3012 118.547C42.9209 117.621 41.5157 117.257 41.0527 118.745C40.4906 117.836 40.16 117.075 40.8378 116.53C41.0858 116.348 41.4165 116.232 41.7471 116.199C42.0943 116.166 42.4746 116.232 42.8217 116.414C45.2355 117.604 44.1609 121.556 43.5161 123.44C42.4084 126.664 41.3834 129.673 46.211 131.839L46.0622 133.774L47.7155 133.988C47.4013 134.468 47.2195 135.03 47.2691 135.658C47.3517 136.766 48.1618 137.708 49.0546 138.733C50.0962 139.924 51.0716 141.048 51.4849 142.767C52.6588 141.015 52.3116 139.709 51.518 138.651C52.1132 137.989 52.3612 136.749 51.7825 135.989C51.1708 135.195 49.7159 135.195 49.6663 136.749C48.8893 136.005 48.3768 135.361 48.9058 134.666C49.1042 134.418 49.3853 134.22 49.6994 134.121C50.0301 134.005 50.4103 133.972 50.7906 134.055C53.4358 134.584 53.3862 138.684 53.254 140.668C53.006 144.073 52.791 147.231 57.9989 148.107L58.3461 150.009L59.9994 149.794C59.8175 150.323 59.7844 150.918 59.9994 151.513C60.3631 152.571 61.3881 153.266 62.5123 154.043C63.8184 154.936 65.0584 155.762 65.885 157.316C66.5794 155.332 65.885 154.158 64.86 153.332C65.2733 152.538 65.1907 151.282 64.4302 150.687C63.6366 150.075 62.2313 150.455 62.5785 151.976C61.6361 151.464 60.9748 150.968 61.3054 150.158C61.4377 149.876 61.6526 149.612 61.9337 149.43C62.2313 149.232 62.595 149.099 62.9753 149.083C65.6701 148.934 66.6621 152.885 67.0423 154.853C67.4061 156.787 67.7533 158.622 68.9932 159.763L67.1581 162.26L67.6375 162.607L75.3088 152.158L74.8293 151.811L72.9611 154.357L72.895 154.34ZM69.6876 158.358C68.9601 157.449 68.9767 155.977 69.638 155.481C70.3654 154.936 70.9937 155.035 71.5227 155.465C70.4646 155.415 70.0678 156.457 70.5473 157.201L69.7041 158.358H69.6876Z" fill="white"/>
<path d="M173.465 35.5193C158.37 20.4248 137.522 11.1003 114.492 11.1003C91.4617 11.1003 70.6138 20.4414 55.5193 35.5193C40.4248 50.6138 31.1003 71.4617 31.1003 94.5084C31.1003 117.555 40.4414 138.387 55.5358 153.481C70.6303 168.576 91.4782 177.917 114.508 177.917C137.539 177.917 158.387 168.576 173.481 153.481C188.576 138.387 197.917 117.539 197.917 94.5084C197.917 71.4782 188.576 50.6303 173.481 35.5358M114.492 9.86035C137.869 9.86035 159.015 19.3337 174.341 34.6431C189.65 49.9525 199.14 71.1145 199.14 94.4919C199.14 117.869 189.667 139.015 174.341 154.341C159.031 169.65 137.869 179.123 114.492 179.123C91.1145 179.123 69.969 169.65 54.6431 154.341C39.3337 139.031 29.8604 117.869 29.8604 94.5084C29.8604 71.1476 39.3337 49.969 54.6431 34.6596C69.969 19.3337 91.131 9.86035 114.492 9.86035Z" fill="white"/>
<path d="M162.387 46.6126C150.137 34.3617 133.19 26.7732 114.492 26.7732C95.7932 26.7732 78.847 34.3617 66.5962 46.6126C54.3454 58.8634 46.7568 75.8095 46.7568 94.5082C46.7568 113.207 54.3454 130.136 66.5962 142.404C78.847 154.655 95.7932 162.243 114.492 162.243C133.19 162.243 150.137 154.655 162.387 142.404C174.638 130.153 182.227 113.207 182.227 94.5082C182.227 75.8095 174.638 58.8634 162.387 46.6126ZM114.492 25.5332C133.538 25.5332 150.781 33.254 163.264 45.7363C175.746 58.2186 183.467 75.4624 183.467 94.5082C183.467 113.554 175.746 130.798 163.264 143.28C150.781 155.762 133.538 163.483 114.492 163.483C95.446 163.483 78.2023 155.762 65.72 143.28C53.2377 130.798 45.5168 113.554 45.5168 94.5082C45.5168 75.4624 53.2377 58.2186 65.72 45.7363C78.2023 33.254 95.446 25.5332 114.492 25.5332Z" fill="white"/>
<path d="M156.799 52.2008C145.97 41.3718 131.025 34.676 114.492 34.676C97.959 34.676 83.0133 41.3718 72.1843 52.2008C61.3553 63.0298 54.6595 77.9755 54.6595 94.5083C54.6595 111.041 61.3553 125.987 72.1843 136.816C83.0133 147.645 97.959 154.341 114.492 154.341C131.025 154.341 145.97 147.645 156.799 136.816C167.628 125.987 174.324 111.041 174.324 94.5083C174.324 77.9755 167.628 63.0298 156.799 52.2008ZM114.492 33.436C131.355 33.436 146.615 40.2641 157.676 51.3246C168.72 62.3685 175.564 77.6448 175.564 94.5083C175.564 111.372 168.736 126.632 157.676 137.692C146.632 148.736 131.355 155.581 114.492 155.581C97.6283 155.581 82.3685 148.753 71.3081 137.692C60.2641 126.648 53.4196 111.372 53.4196 94.5083C53.4196 77.6448 60.2476 62.385 71.3081 51.3246C82.352 40.2806 97.6283 33.436 114.492 33.436Z" fill="white"/>
<path fill-rule="evenodd" clip-rule="evenodd" d="M119.005 94.3595C119.517 93.2022 119.931 92.111 120.245 91.0364C120.592 89.846 120.823 88.7052 120.939 87.581C121.088 86.3741 121.088 85.1672 120.989 83.9438C120.889 82.7204 120.724 81.4969 120.542 80.29C120.294 78.5541 120.046 76.9008 120.046 75.2806C120.046 74.3051 120.212 73.1478 120.592 72.1559C120.873 71.4284 121.27 70.8002 121.782 70.3869C121.815 70.3538 121.865 70.3207 121.898 70.3042C121.303 70.5191 120.84 70.9655 120.509 71.4946C119.798 72.6023 119.55 74.1563 119.55 75.2806C119.484 76.9669 119.716 78.6698 119.914 80.1412L119.964 80.4554C120.096 81.5135 120.228 82.6377 120.294 83.8115C120.36 85.0019 120.344 86.2253 120.195 87.4487C120.079 88.5068 119.848 89.5815 119.517 90.7057C119.203 91.7307 118.806 92.7888 118.31 93.9131C118.443 93.9792 118.558 94.0619 118.691 94.1445C118.806 94.2107 118.905 94.2768 119.021 94.3429" fill="white"/>
<path fill-rule="evenodd" clip-rule="evenodd" d="M100.571 52.8954C98.389 50.6139 95.2809 48.4646 92.1231 49.0598C90.569 49.3739 89.5274 50.5312 89.2299 51.9365C90.2053 50.8619 91.3957 50.4651 92.6191 50.5147C94.3716 50.5643 96.1902 51.5066 97.5789 52.5647C99.8439 54.4495 101.762 57.2601 103.217 60.7485C104.672 64.2204 105.663 68.3867 106.126 73.0158C106.391 75.7768 106.407 78.4386 106.242 81.0839C106.11 83.3985 105.829 85.7131 105.432 88.0607L105.349 88.0276C105.945 88.2922 106.622 88.5236 107.383 88.722C107.333 88.722 107.267 88.689 107.218 88.6724C107.482 87.3663 107.697 86.0437 107.846 84.7211C108.391 80.2407 108.292 76.3555 107.631 72.6025C106.97 68.833 105.73 65.1793 103.961 61.1949C103.646 60.4344 103.25 59.5912 102.836 58.6984C102.059 57.0286 101.216 55.2265 100.687 53.5071L100.654 53.3748C100.604 53.193 100.571 53.0277 100.522 52.8623" fill="white"/>
<path fill-rule="evenodd" clip-rule="evenodd" d="M118.939 74.2226C118.873 74.0077 118.823 73.7762 118.774 73.5613C117.931 70.2878 117.203 67.4607 117.782 65.0799C118.096 63.4432 119.022 61.327 120.84 61.1286C120.642 61.0294 120.427 60.9302 120.212 60.8475C119.799 60.7153 119.353 60.6491 118.906 60.7483H118.89C118.493 60.8145 118.162 60.9798 117.898 61.1616C117.633 61.3435 117.418 61.5584 117.269 61.7568C116.062 63.4266 115.781 65.6916 115.897 67.9732C116.029 70.3043 116.575 72.6685 117.021 74.454C117.302 75.6444 117.6 76.8348 117.832 78.0747C118.063 79.2982 118.228 80.5381 118.261 81.7781C118.394 83.8447 118.261 85.9113 117.98 87.8952C117.699 89.7634 117.286 91.582 116.84 93.2849C117.121 93.3841 117.402 93.4999 117.683 93.6156C118.162 92.541 118.559 91.5159 118.857 90.524C119.187 89.4328 119.402 88.3912 119.518 87.3992C119.65 86.2089 119.667 85.0351 119.601 83.8778C119.534 82.6709 119.402 81.464 119.237 80.2571C118.989 78.3889 118.708 76.1569 118.939 74.2226Z" fill="white"/>
<path fill-rule="evenodd" clip-rule="evenodd" d="M123.238 82.9023C122.874 79.3642 122.114 76.2561 122.279 73.8092C122.395 71.7426 122.973 71.1474 124.693 71.0813C124.329 70.8498 123.998 70.7176 123.684 70.6514C123.089 70.5192 122.609 70.6514 122.213 70.9656C121.799 71.2962 121.469 71.8253 121.237 72.437C120.89 73.3298 120.741 74.3879 120.741 75.2806C120.741 76.8512 120.989 78.488 121.237 80.1743V80.1909C121.419 81.4143 121.584 82.6543 121.684 83.8942C121.783 85.1507 121.783 86.4072 121.618 87.6472C121.502 88.821 121.254 90.0114 120.89 91.2348C120.559 92.359 120.13 93.5163 119.584 94.7232C119.948 94.9878 120.295 95.2688 120.642 95.5664C120.857 95.1531 121.055 94.7563 121.237 94.3595C121.485 93.8139 121.684 93.2518 121.849 92.7062C122.494 90.6727 122.659 88.573 122.824 86.3576V86.2915V86.1923C122.874 85.531 122.924 84.8531 122.99 84.1422C123.039 83.6958 123.105 83.2825 123.221 82.8857" fill="white"/>
<path fill-rule="evenodd" clip-rule="evenodd" d="M110.689 92.9047C111.086 91.1357 111.466 89.3667 111.747 87.5812C112.045 85.6468 112.243 83.7125 112.276 81.7616C112.276 81.7616 112.276 81.6624 112.276 81.5963C112.276 81.5632 112.276 81.5301 112.276 81.4475C112.276 78.5212 111.946 75.5949 111.384 72.7181C110.821 69.8249 110.044 66.9813 109.135 64.2037L109.086 64.0549C108.97 63.7078 108.871 63.4102 108.788 63.1456V63.0795L108.738 63.0134L108.722 62.9472V62.8811H108.689V62.8315L108.656 62.7654V62.6992V62.6331L108.623 62.6001V62.567L108.59 62.5009V62.4678L108.573 62.4347V62.3686L108.54 62.3355L108.523 62.2529V62.2033H108.507V62.1371L108.474 62.0875L108.457 62.0214V61.9553L108.424 61.9057V61.8395H108.408V61.7899L108.375 61.7238V61.6742V61.6081L108.342 61.5916V61.5585L108.309 61.4924V61.4593L108.292 61.4262V61.3601L108.259 61.327V61.294L108.226 61.2444V61.2113L108.209 61.1948V61.1452L108.176 61.0956V61.0294V60.9798H108.16V60.9302L108.127 60.8806V60.831L108.094 60.7814V60.7318V60.6822H108.077V60.6326L108.044 60.583V60.5335V60.4838L108.027 60.4508V60.4177L108.011 60.3681V60.3351V60.302V60.2524L107.994 60.2193V60.1367V60.0871V60.0375L107.978 59.9879V59.9217V59.8721V59.8225L107.945 59.7729V59.7233V59.6737V59.6241L107.928 59.5745V59.5249L106.903 57.3757C105.465 54.4824 104.093 51.7545 104.076 49.4069C104.126 46.6624 105.2 43.4385 107.829 42.3969C107.548 42.3308 107.3 42.2977 107.052 42.2977C106.01 42.2647 105.151 42.7111 104.456 43.422C103.745 44.1659 103.233 45.1745 102.886 46.2822C102.555 47.3237 102.39 48.4314 102.357 49.4069C102.406 52.4489 103.729 55.2099 105.052 57.9378C105.465 58.7975 105.895 59.6737 106.258 60.5335C107.052 62.2529 107.879 64.1541 108.623 66.1877C109.35 68.2212 109.978 70.387 110.342 72.6024C111.036 76.5042 111.036 80.4224 110.673 84.1919C110.359 87.482 109.763 90.6397 109.086 93.6156C109.664 93.3842 110.259 93.2023 110.888 93.0535" fill="white"/>
<path fill-rule="evenodd" clip-rule="evenodd" d="M113.351 92.3094L113.682 90.6892L113.831 89.9287L110.21 60.4837L114.079 65.9726C114.013 65.7742 113.946 65.5758 113.88 65.3774C113.566 64.3854 113.219 63.4596 112.872 62.5503C111.615 59.1941 110.094 51.8536 115.418 51.1757C115.401 51.1757 115.368 51.1426 115.352 51.1426H115.335V51.1261H115.319V51.1096H115.286V51.093H115.253V51.0765C115.236 51.0765 115.203 51.06 115.186 51.0434H115.153L115.12 51.0269H115.087H115.071L115.005 50.9939H114.988C114.872 50.9443 114.757 50.9112 114.624 50.8947H114.608H114.575H114.542H114.509H114.475H114.442H114.409H114.376H114.343H114.327H114.294H114.277H114.244H114.211H114.178H114.145H114.079H114.046H113.831H113.798H113.765H113.732H113.698H113.682H113.665H113.649H113.616H113.599H113.583C112.988 51.0104 112.475 51.3741 112.012 51.8701L111.996 51.9032C111.748 52.1842 111.533 52.4983 111.334 52.829C111.119 53.1927 110.921 53.606 110.772 54.0359C110.772 54.0359 110.723 54.1847 110.689 54.2839C110.656 54.35 110.64 54.4327 110.607 54.5153V54.5649L110.557 54.6807V54.7303C110.193 55.9206 110.012 57.0449 110.094 58.2848V58.384V58.4667V58.5494V58.6486L110.111 58.7477V58.8304L110.144 58.9131V59.0123L110.177 59.0949V59.1776L110.21 59.2768V59.3429L110.243 59.4587V59.5579H110.26V59.6405H110.276V59.7397H110.293V59.8224L110.326 59.9216V60.0208H110.342V60.1034L110.392 60.2026V60.2853L110.441 60.368L110.475 60.4672V60.5498L110.524 60.649V60.7152L110.574 60.8309L110.607 60.9301L110.656 61.1119L110.689 61.2111L110.739 61.393L110.772 61.4757L110.805 61.5749L110.838 61.6575L110.871 61.7567L110.904 61.8394L110.937 61.9221L110.971 62.0212L111.004 62.1039L111.037 62.1866L111.103 62.3684L111.136 62.4511L111.169 62.5338L111.202 62.633L111.235 62.7156L111.268 62.7983V62.8314V62.8644H111.285L111.351 63.0463L111.384 63.1289L111.417 63.2116L111.45 63.2943L111.483 63.3769L111.566 63.5919L111.632 63.7903L111.698 64.0052L111.764 64.2201L111.83 64.435L111.896 64.65L111.962 64.8649C112.591 66.8158 113.087 68.7501 113.517 70.7506L113.566 70.9655V70.9986L113.616 71.1804L113.665 71.3954L113.732 71.7095C113.88 72.4535 114.029 73.1974 114.161 73.9579V73.991L114.178 74.0902L114.227 74.3878L114.261 74.6027L114.294 74.8177V74.8507L114.327 75.0326L114.36 75.2475L114.376 75.3798L114.409 75.5947L114.442 75.8096C114.773 77.8762 114.988 79.6618 115.005 81.7449V81.9433V82.1417V82.3401V82.5385V82.7369V82.9518V83.1502V83.3486V83.547V83.7454V83.9438V84.1422V84.3406V84.539V84.7374L114.971 84.9357L114.955 85.1341L114.922 85.4648V85.6632H114.905V85.7459L114.872 85.9442L114.839 86.2584V86.341L114.79 86.6552V86.7378L114.757 86.9362L114.723 87.2503L114.69 87.4487V87.5314L114.657 87.7298L114.624 87.9282L114.591 88.1266L114.542 88.4242V88.4738V88.5068L114.509 88.7052V88.7218L114.459 89.0028V89.0855L114.393 89.3831V89.4657L114.343 89.7633V89.8129L114.327 89.846L114.294 90.0279V90.0609L114.244 90.3255V90.375L114.227 90.4081L114.194 90.59V90.6892H114.178V90.7718L114.161 90.8049V90.8876L114.128 90.9702L114.079 91.2513L114.046 91.4331L114.013 91.615L113.98 91.7969L113.946 91.9787L113.93 92.0614V92.1606L113.897 92.2433L113.864 92.3921V92.4417L113.814 92.6235L113.781 92.7392C114.244 92.7392 114.707 92.7888 115.17 92.8384C115.55 91.3835 115.914 89.846 116.178 88.3084C116.459 86.6552 116.641 84.9688 116.641 83.2825C116.641 83.0179 116.641 82.7534 116.641 82.6212C116.641 82.4062 116.641 82.1913 116.608 81.9764C116.509 80.5049 116.327 79.0997 116.096 77.744C115.666 75.3302 114.988 72.9825 114.657 70.5357C114.442 68.9981 114.36 67.5928 114.558 66.0718L113.351 92.3094Z" fill="white"/>
<path fill-rule="evenodd" clip-rule="evenodd" d="M103.514 86.953C103.894 87.2506 104.324 87.5151 104.804 87.7631C105.167 85.4981 105.432 83.2662 105.564 81.0508C105.729 78.4221 105.696 75.7933 105.448 73.0819C105.002 68.5354 104.01 64.4353 102.588 61.013C101.166 57.6237 99.3312 54.9124 97.1654 53.1103C95.8593 52.1348 94.173 51.2421 92.5858 51.1925C91.8749 51.1594 91.1805 51.3247 90.5358 51.705C92.3709 51.3909 94.2887 52.0687 96.0743 53.4409C97.9921 54.9289 99.7611 57.2435 101.1 60.0045C101.745 61.3271 102.274 62.7489 102.687 64.2038C103.795 68.2213 104.324 72.1065 104.39 76.0744C104.456 79.5793 104.142 83.1504 103.531 86.9365" fill="white"/>
<path fill-rule="evenodd" clip-rule="evenodd" d="M107.862 89.2015L107.548 90.6399L107.697 89.9951C107.366 91.5657 107.002 93.1363 106.622 94.6904C107.102 94.3597 107.598 94.0622 108.11 93.7976C108.821 90.706 109.466 87.3829 109.796 83.9441C110.16 80.2242 110.144 76.3886 109.466 72.5529C109.102 70.3706 108.49 68.2544 107.779 66.2539C107.069 64.2535 106.242 62.3687 105.448 60.6493C105.068 59.7731 104.655 58.9299 104.258 58.0702C102.902 55.2761 101.547 52.449 101.497 49.2251C101.53 48.167 101.712 46.9932 102.059 45.8855C102.324 45.0258 102.704 44.1991 103.183 43.5048C102.456 44.2322 101.894 45.158 101.513 46.0343C101.299 46.5468 101.15 47.0263 101.067 47.4726C100.621 50.1014 100.885 51.2256 101.365 53.2095L101.398 53.3087C101.91 54.962 102.737 56.7476 103.514 58.3843C103.927 59.2771 104.324 60.1368 104.638 60.8973C106.424 64.9313 107.68 68.6347 108.358 72.4537C109.036 76.2894 109.135 80.2572 108.59 84.7872C108.424 86.2091 108.193 87.7797 107.895 89.1684" fill="white"/>
<path fill-rule="evenodd" clip-rule="evenodd" d="M112.558 92.6565L112.591 92.4746C113.186 89.8128 113.649 87.118 113.88 84.4066V84.2082L113.913 84.0098V83.8114L113.946 83.613V83.4146L113.996 81.8275V81.6291V81.5464V81.4803V81.4142V81.2654V81.1166V81.0504V80.9843V80.9182V80.852V80.7694V80.7033V80.6371V80.571V80.5049V80.4387C113.946 79.298 113.831 78.1737 113.665 77.0495V77.0164L113.632 76.8842C113.55 76.3551 113.467 75.8261 113.368 75.297C113.252 74.5861 113.12 73.8752 112.987 73.1643L112.954 72.9494L112.905 72.7344L112.872 72.5195V72.4864L112.789 72.1062L112.723 71.7921L112.657 71.4779L112.607 71.263C112.392 70.271 112.177 69.3121 111.929 68.3367L111.88 68.1218L111.83 67.9068L111.781 67.6919L111.731 67.477L111.681 67.2621L111.615 67.0471L111.566 66.8487L111.499 66.6338L111.433 66.4189L111.367 66.2205L111.301 66.0221L111.235 65.8072L111.169 65.6088L111.103 65.3939L111.037 65.1955L110.97 64.9971L110.904 64.7821L110.838 64.5837L110.772 64.3853L110.706 64.1704L110.64 63.972L110.574 63.7736L110.507 63.5752L110.474 63.4926L110.441 63.4099L110.375 63.228L110.342 63.1454L110.309 63.0627L110.276 62.9801L110.243 62.8974L110.21 62.7982L110.177 62.7155L110.144 62.6163L110.111 62.5337L110.078 62.4345L110.045 62.3518L110.012 62.2526V62.2196L109.929 61.9716V61.9385L109.879 61.7566L109.846 61.6574V61.6244L109.83 61.5913L109.813 61.4921V61.459L109.747 61.2606V61.211V61.1945L109.714 61.0623V61.0126H109.697L109.631 60.7481L109.598 60.6489L109.565 60.5497V60.5332V60.434H109.532V60.3348H109.516L109.466 60.1529L109.433 59.9711V59.9215V59.8719V59.7727H109.4L109.35 59.5412V59.4916V59.3924H109.334V59.2932H109.317V59.194V59.0948V58.9956V58.8964V58.7973V58.6981V58.5989V58.4997V58.4005V58.3013V58.2021V58.1029V58.0037V57.9045V57.8053V57.7061V57.6069V57.5077V57.3589V57.1936V57.0448V56.9621V56.8629V56.7637V56.6976V56.5984V56.5157L109.334 56.4331V56.3339V56.2512V56.1685L109.35 56.0528V55.9867L109.367 55.8709V55.7883V55.6891V55.5899H109.383V55.5072L109.416 55.408L109.433 55.3088L109.449 55.2262L109.466 55.127L109.482 55.0443L109.516 54.9286L109.532 54.8624L109.565 54.7632L109.582 54.6806L109.615 54.5814L109.631 54.5152L109.664 54.383V54.3334L109.697 54.2011V54.1515C109.73 54.0689 109.747 53.9862 109.78 53.9035C109.797 53.8374 109.83 53.7547 109.879 53.6555C110.061 53.2092 110.26 52.7628 110.491 52.3494C110.722 51.9692 110.97 51.6055 111.235 51.3079C111.45 51.0764 111.665 50.8615 111.896 50.6962C111.185 50.9276 110.541 51.4071 110.012 52.0353C109.317 52.8785 108.805 53.9862 108.524 55.2262C107.895 57.9375 108.623 60.3348 109.499 62.8974C109.598 63.1785 109.697 63.476 109.813 63.8232L109.863 63.972V63.9886C110.772 66.7991 111.566 69.6759 112.128 72.5856C112.69 75.5119 113.02 78.4713 113.02 81.4638C113.02 81.4968 113.02 81.563 113.02 81.6291C113.02 81.6622 113.02 81.6952 113.02 81.7614C112.987 83.7618 112.789 85.7458 112.475 87.6966C112.21 89.3995 111.863 91.0859 111.483 92.7722C111.863 92.7226 112.243 92.673 112.624 92.6565" fill="white"/>
<path fill-rule="evenodd" clip-rule="evenodd" d="M116.178 93.0698C116.624 91.4 117.021 89.6144 117.286 87.7793C117.567 85.8284 117.699 83.8114 117.567 81.8109C117.534 80.5875 117.385 79.3806 117.153 78.1902C116.922 76.9834 116.641 75.793 116.343 74.6192C115.897 72.8005 115.335 70.4033 115.203 68.006C115.07 65.6088 115.368 63.228 116.641 61.4094C116.327 61.7566 116.046 62.1369 115.814 62.5667C115.136 63.8067 114.773 65.3442 114.657 66.7826V66.8487V66.8983C114.657 67.0471 114.641 67.1794 114.641 67.2951C114.641 67.4108 114.641 67.5431 114.641 67.6919V67.7911C114.641 68.6012 114.723 69.494 114.839 70.3537C114.988 71.4779 115.203 72.5691 115.401 73.4123C115.715 74.7845 116.013 76.1402 116.261 77.5289C116.509 78.9177 116.691 80.3395 116.79 81.844C116.79 82.0589 116.806 82.2904 116.823 82.5218C116.823 82.836 116.823 83.0178 116.823 83.1997C116.823 84.9191 116.641 86.6551 116.343 88.3579C116.079 89.912 115.715 91.433 115.335 92.8879C115.451 92.921 115.566 92.9375 115.682 92.9706H115.732C115.88 93.0202 116.029 93.0533 116.162 93.0863" fill="white"/>
<path fill-rule="evenodd" clip-rule="evenodd" d="M124.775 81.4802L124.808 81.4471C124.808 81.4471 124.693 81.5794 124.643 81.6455C124.164 82.2407 123.8 83.117 123.701 84.2247C123.635 84.886 123.585 85.5803 123.535 86.2582V86.3574V86.4235C123.353 88.6885 123.205 90.8213 122.527 92.9375C122.345 93.5161 122.13 94.0948 121.882 94.6734C121.667 95.1529 121.436 95.6158 121.171 96.0952C121.353 96.2936 121.551 96.492 121.717 96.7069C121.948 96.2936 122.147 95.8968 122.345 95.5L122.378 95.4174V95.3843V95.3513H122.395V95.3182V95.2851V95.2521V95.219V95.1859L122.428 95.1529V95.1198L122.461 95.0867V95.0537V95.0206L122.494 94.9875V94.9545L122.527 94.9214V94.8883L122.56 94.8553V94.8222L122.593 94.7891V94.7561L122.626 94.723V94.6899L122.659 94.6569V94.6238L122.692 94.5907V94.5577L122.725 94.5246V94.4915L122.758 94.4585V94.4254L122.791 94.3924V94.3593L122.808 94.3262V94.2932L122.841 94.2601V94.227L122.857 94.194V94.1609L122.874 94.1278V94.0948L122.891 94.0617V94.0286L122.907 93.9956V93.9625L122.924 93.9294V93.8964L122.94 93.8633V93.8302L122.957 93.7972V93.7641L122.973 93.731V93.698L122.99 93.6649V93.6318L123.006 93.5988V93.5657L123.023 93.5326V93.4996L123.039 93.4665V93.4334L123.056 93.4004V93.3673L123.072 93.3343V93.3012L123.089 93.2681V93.2351L123.105 93.202V93.1689L123.122 93.1359V93.1028L123.139 93.0697L123.155 93.0036V92.954L123.188 92.9044V92.8548L123.221 92.8052V92.7556L123.254 92.706V92.6564L123.287 92.6068V92.5572L123.32 92.5076V92.458L123.353 92.4084V92.3588L123.387 92.3092V92.2596L123.42 92.21V92.1604L123.453 92.1108V92.0612L123.486 92.0116V91.962V91.9124L123.519 91.8628V91.8132L123.535 91.7636V91.714L123.552 91.6644V91.6148L123.568 91.5652V91.5156L123.585 91.466V91.4164L123.601 91.3668V91.3172L123.618 91.2676V91.218L123.635 91.1684V91.1189L123.651 91.0692V91.0197L123.668 90.9701V90.9205L123.684 90.8709V90.8213V90.7717V90.7221L123.701 90.6725V90.6229V90.5733V90.5237V90.4741V90.4245V90.3749V90.3253V90.2757V90.2261V90.1765V90.1269V90.0773V90.0277V89.9781V89.9285V89.8789V89.8293V89.7797V89.7301V89.6805V89.6309V89.5813V89.5317V89.4821V89.4325V89.3829V89.3333V89.2837V89.2341V89.1845V89.1349V89.0853V89.0357V88.9861V88.9365V88.8869V88.8373V88.7877V88.7381V88.6885V88.6389V88.5893V88.5397V88.4901V88.4405V88.3909V88.3413V88.2917V88.2421V88.1925V88.1429V88.0933V88.0437V87.9941V87.9445V87.8949V87.8454V87.7957V87.7462V87.6966V87.647V87.5974V87.5478V87.4982V87.4486V87.399V87.3494V87.2998V87.2502V87.2006V87.151V87.1014V87.0518V87.0022V86.9526V86.903V86.8534V86.8038V86.7542V86.7046V86.6715V86.6385V86.5889V86.4731V86.4566V86.4235V86.3739V86.3574V86.3243V86.2913V86.2582V86.2251V86.1921V86.159V86.1259V86.0929V86.0598V86.0267V86.0102V85.9771V85.9441V85.8779V85.8283V85.7622V85.6961V85.5803V85.5473V85.4812V85.415V85.3489V85.2828V85.2166V85.134V85.0844V85.0513V84.9852V84.9521V84.919V84.9025V84.8529V84.8364V84.7868V84.7372V84.671V84.6049V84.5553V84.4892V84.39V84.3569V84.3239V84.2908V84.2412V84.1751V84.1089V84.0428V83.9767V83.9271V83.8775V83.8609V83.8279V83.7948V83.7617V83.7121V83.6791V83.6625V83.6129V83.5633V83.5137V83.4476V83.398H123.717V83.3484L123.734 83.3319V83.2823L123.75 83.2658V83.2327V83.1831V83.15L123.767 83.1335V83.0839V83.0343V83.0178V82.9682L123.8 82.9186L123.816 82.869L123.833 82.8194V82.7698L123.849 82.7202V82.6871V82.654H123.866V82.621H123.883V82.5714H123.899V82.5218H123.932L123.965 82.4722L123.998 82.4226L124.031 82.373L124.775 81.4802ZM122.924 98.476C123.469 97.3848 123.866 96.244 124.246 95.0867C124.593 94.0617 124.941 93.0367 125.404 91.9951C125.552 91.1354 125.635 90.2922 125.685 89.449C125.734 88.6059 125.751 87.7792 125.751 86.9856C125.751 86.4897 125.751 85.9937 125.734 85.5803C125.734 85.3158 125.734 85.2166 125.734 85.1009C125.718 83.6791 125.685 81.9762 127.024 81.1826H127.007H126.974H126.958C126.908 81.1826 126.842 81.1826 126.792 81.1826C126.743 81.1826 126.677 81.1826 126.627 81.1826H126.577H126.561C126.528 81.1826 126.495 81.1826 126.462 81.1992L126.412 81.2157C126.379 81.2157 126.346 81.2322 126.313 81.2488L126.263 81.2818H126.23L126.181 81.3149H126.148V81.3314L126.114 81.3479V81.3645V81.381V81.3975V81.4141V81.4306V81.4471L126.081 81.5133L126.048 81.5629L126.015 81.6125L125.982 81.6621L125.949 81.7117L125.916 81.7613C125.916 81.7613 125.883 81.8274 125.866 81.8605L125.833 81.9101C125.833 81.9101 125.8 81.9762 125.784 82.0093V82.0589L125.734 82.1085V82.1581L125.685 82.2077V82.2573L125.652 82.3069V82.3565L125.618 82.406V82.4556H125.602V82.5052L125.569 82.5548V82.6044L125.536 82.6706V82.7202L125.503 82.7863V82.8524V82.9186L125.486 82.9847V83.0508V83.117L125.47 83.1831V83.2492V83.3154V83.3815V83.4476V83.5137V83.5799V83.646V83.7121V83.7783V83.8444V83.9105V83.9767V84.0428V84.1089V84.1751V84.2412V84.3073V84.3735V84.4396V84.5057V84.5718V84.638V84.7041V84.7702V84.8364V84.9025V84.9686V85.0348V85.1009V85.167V85.2828V85.3158V85.3489V85.382V85.415V85.4481V85.4812V85.5142V85.5638V85.5969V85.6465V85.6961V85.7291V85.7953V85.8945V85.9771V86.0929V86.1425V86.1921V86.2417V86.2913V86.5227V86.5723V86.6219V86.7376V86.7872V86.8368V86.8864V87.0022V87.1179V87.4651L125.453 87.5808V87.6966V87.7462V87.7957V87.9115V87.9611V88.0107V88.0603V88.1099V88.1595V88.2091V88.2587V88.3083V88.3579V88.4075V88.4571V88.5067V88.5563V88.6059V88.6555V88.7051V88.7547V88.8043V88.8538V88.9035V88.953V89.0026V89.0522V89.1018V89.1514V89.201V89.2506V89.3002V89.3498V89.3994V89.449V89.4986V89.5648V89.6144V89.664V89.7301V89.7797V89.8293V89.8789V89.945V89.9946V90.0442V90.1103V90.1599V90.2095V90.2757V90.3253V90.3749V90.4245V90.4906L125.437 90.5402V90.5898L125.42 90.6559V90.7055L125.404 90.7551V90.8213L125.387 90.8709V90.9205L125.37 90.9701V91.0362L125.354 91.0858V91.1354L125.337 91.185V91.2511L125.321 91.3007V91.3503L125.304 91.3999V91.466L125.288 91.5156V91.5652L125.255 91.6148V91.6644V91.714L125.222 91.7636V91.8132L125.189 91.8628V91.929L125.156 91.9786V92.0282L125.122 92.0778V92.1439L125.089 92.1935V92.2431L125.056 92.2927V92.3423L125.023 92.3919V92.4415L124.99 92.5076V92.5572L124.957 92.6068V92.6564L124.924 92.706V92.7556L124.891 92.8052V92.8548H124.874V92.8879L124.858 92.9209V92.954L124.841 92.9871V93.0201L124.825 93.0532V93.0863L124.808 93.1193V93.1524V93.1855L124.792 93.2185V93.2516L124.775 93.2846V93.3177L124.759 93.3508V93.3838V93.4169L124.742 93.45V93.483L124.726 93.5161V93.5492L124.709 93.5822V93.6153V93.6484L124.693 93.6814V93.7145V93.7476L124.676 93.7806V93.8137L124.66 93.8468V93.8798V93.9129L124.643 93.946V93.979V94.0121L124.61 94.0452V94.0782V94.1113L124.577 94.1444V94.1774V94.2105L124.544 94.2436V94.2766L124.511 94.3097V94.3428L124.478 94.3758V94.4089L124.445 94.4419V94.475L124.412 94.5081V94.5411L124.379 94.5742L124.345 94.6403V94.6734L124.312 94.7065V94.7395L124.279 94.7726V94.8057L124.246 94.8718V94.9049L124.213 94.9379V94.971L124.18 95.0041V95.0371V95.0702V95.1033V95.1363V95.1694V95.2025V95.2355V95.2686V95.3017V95.3347V95.3678L124.147 95.4009V95.4339V95.467V95.5V95.5331V95.5662V95.5992V95.6323V95.6654V95.6984V95.7315V95.7646V95.7976V95.8307H124.131V95.8638H124.114V95.8968V95.9299V95.963V95.996V96.0291V96.0622V96.0952L124.081 96.1614V96.1944H124.064V96.2275H124.048L124.015 96.2771V96.3102L123.965 96.4259C123.899 96.5582 123.816 96.6904 123.75 96.8227C124.031 97.2029 124.279 97.5997 124.511 98.013L122.924 98.476ZM124.213 102.361C124.643 101.749 125.056 101.088 125.404 100.394C125.933 99.3522 126.346 98.261 126.61 97.2029C126.677 96.9715 126.726 96.6904 126.776 96.3763C126.825 96.0456 126.858 95.715 126.892 95.3678C126.925 95.1529 126.925 94.9875 126.941 94.8057C126.974 94.4585 127.007 94.0782 127.057 93.7145C127.222 92.6068 127.586 91.5652 128.561 91.3338C128.528 91.3007 128.495 91.2842 128.462 91.2676C128.264 91.1519 128.082 91.1684 127.917 91.2511C127.702 91.3668 127.503 91.5818 127.321 91.8628C126.908 92.4911 126.627 93.3673 126.495 93.8798C126.197 95.0371 125.883 96.1944 125.486 97.3517C125.089 98.4925 124.61 99.6167 123.982 100.658C123.949 100.724 123.899 100.791 123.866 100.857C123.998 101.336 124.114 101.849 124.18 102.361H124.213ZM123.601 99.9639C124.114 99.0546 124.511 98.0957 124.858 97.1037C125.238 95.996 125.552 94.8553 125.85 93.7145C125.982 93.1524 126.296 92.21 126.726 91.5156C126.908 91.2346 127.106 90.9866 127.338 90.8047C127.206 90.8543 127.09 90.9205 126.958 91.0197C126.61 91.2842 126.313 91.7306 126.065 92.177L126.032 92.2762C125.569 93.3012 125.222 94.3262 124.874 95.3347C124.428 96.6739 123.982 97.98 123.287 99.253C123.387 99.4845 123.502 99.7325 123.585 99.9805L123.601 99.9639Z" fill="white"/>
<path fill-rule="evenodd" clip-rule="evenodd" d="M138.993 134.881C139.208 134.22 139.721 133.691 140.333 133.327C141.076 132.881 142.019 132.666 142.812 132.749C143.011 132.765 143.16 132.947 143.127 133.146C143.11 133.344 142.928 133.476 142.73 133.46C142.068 133.394 141.308 133.559 140.68 133.939C140.184 134.22 139.803 134.633 139.638 135.129L139.605 135.278C139.473 135.774 139.473 136.138 139.572 136.403C139.605 136.518 139.671 136.601 139.737 136.667C139.803 136.733 139.886 136.766 139.969 136.799C140.068 136.832 140.184 136.832 140.283 136.799C140.283 136.766 140.299 136.733 140.316 136.717C140.564 136.072 141.093 135.609 141.738 135.361C142.366 135.113 143.093 135.063 143.804 135.212C143.97 135.245 144.135 135.295 144.3 135.361C144.482 135.427 144.581 135.642 144.499 135.824C144.433 136.006 144.218 136.105 144.036 136.022C143.904 135.973 143.771 135.94 143.639 135.907C143.077 135.774 142.482 135.824 141.986 136.022C141.523 136.204 141.143 136.535 140.977 136.981C140.961 137.031 140.944 137.08 140.928 137.146V137.18C140.68 138.304 141.143 138.701 141.953 138.717C142.961 138.75 144.416 138.32 145.821 137.89C146.433 137.709 147.028 137.543 147.541 137.394C148.467 137.146 149.178 136.948 149.31 136.832C149.558 136.485 149.822 136.072 150.07 135.642C150.715 134.567 151.376 133.46 152.22 133.36H152.253H152.286H152.55C153.509 133.443 154.435 133.509 155.361 133.228C155.179 133.162 154.997 133.079 154.832 132.98C154.485 132.798 154.204 132.55 154.005 132.269C153.79 131.955 153.708 131.591 153.823 131.195C153.889 130.996 154.005 130.798 154.187 130.599L154.27 130.484C156.931 126.962 159.163 124.019 160.717 118.762C156.717 112.926 157.659 108.479 158.717 103.486C159.378 100.344 160.089 97.0048 159.593 92.9542V92.9046V92.8716C159.874 90.4082 161.065 89.6146 162.222 88.8376C163.032 88.292 163.826 87.7629 164.189 86.556C164.702 84.8201 164.487 80.9018 162.42 76.9835C160.999 74.3052 158.717 71.6269 155.212 69.6595C154.435 69.2296 153.889 68.9155 153.311 68.6014C148.202 65.7577 142.135 62.385 139.589 59.4091C136.679 56.0034 138.216 51.6718 138.58 50.6633V50.6137C138.845 49.9193 138.828 49.3737 138.646 48.9769C138.481 48.6297 138.2 48.3817 137.836 48.1999C137.439 48.018 136.976 47.9188 136.48 47.9023C135.488 47.8692 134.447 48.1668 133.885 48.7124C133.124 49.4564 132.281 50.5475 131.802 52.0685C131.322 53.5896 131.206 55.5735 131.884 58.0865C133.323 63.4927 140.366 68.0227 146.367 71.8749C149.475 73.8753 152.302 75.694 153.989 77.3968C156.502 79.9264 157.89 81.5962 158.006 82.9188C158.122 84.3406 156.882 85.2665 154.104 86.2254L153.939 86.275L153.79 86.1923C151.492 84.787 149.111 83.4479 146.78 82.4559C144.482 81.4804 142.217 80.8522 140.167 80.8853C136.249 80.9514 132.794 82.7369 129.057 84.6713C128.197 85.1177 127.338 85.5641 126.445 85.9939C126.445 86.3411 126.445 86.6883 126.445 87.052C126.445 87.8456 126.445 88.6888 126.379 89.565C126.346 89.9618 126.329 90.3586 126.28 90.7554C126.362 90.6727 126.461 90.59 126.561 90.5074C126.825 90.309 127.106 90.1602 127.437 90.1271C127.751 90.0775 128.098 90.1271 128.445 90.342C128.793 90.5404 129.156 90.8546 129.52 91.3506C129.52 91.3506 129.603 91.4663 129.652 91.5324L130.115 92.2103L129.305 92.078C128.247 91.8961 127.916 92.855 127.751 93.8801C127.701 94.2273 127.668 94.591 127.635 94.9216C127.619 95.1531 127.602 95.368 127.586 95.5003C127.553 95.864 127.503 96.2112 127.453 96.5253C127.404 96.856 127.354 97.1701 127.272 97.4346C126.991 98.5589 126.561 99.6996 125.999 100.774C125.519 101.717 124.94 102.626 124.296 103.436C124.296 103.601 124.296 103.783 124.296 103.949C124.296 106.313 123.568 108.495 122.328 110.314C123.998 109.008 125.651 107.569 127.255 106.147C132.347 101.684 137.092 97.5338 141.209 98.9557L141.374 99.0053L141.44 99.154C143.523 104.626 146.169 108.66 148.797 112.711C150.12 114.744 151.459 116.795 152.716 119.01L152.765 119.093V119.175C152.881 123.16 150.765 126.681 148.698 130.12C148.401 130.616 148.103 131.095 147.838 131.575L147.772 131.691L147.657 131.74C146.284 132.253 144.896 131.873 143.589 131.509C141.622 130.963 139.803 130.451 138.63 133.807C138.53 134.071 138.481 134.336 138.497 134.534C138.497 134.667 138.53 134.766 138.58 134.848C138.613 134.898 138.679 134.931 138.778 134.948C138.845 134.948 138.927 134.948 139.026 134.948M138.828 135.675C138.663 135.94 138.597 136.27 138.613 136.667C138.497 136.568 138.266 136.055 138.315 135.46C138.448 135.559 138.563 135.659 138.828 135.675ZM139.787 137.527L139.307 138.37C139.258 138.105 139.241 137.791 139.241 137.461C139.241 137.378 139.241 137.279 139.241 137.196C139.258 137.213 139.274 137.229 139.291 137.246C139.423 137.378 139.589 137.461 139.77 137.527H139.787ZM141.192 139.048L140.928 139.99C140.597 139.775 140.498 138.833 140.514 138.519C140.614 138.734 140.961 138.998 141.192 139.048Z" fill="white"/>
<path fill-rule="evenodd" clip-rule="evenodd" d="M119.22 127.855C119.187 127.591 119.22 127.045 119.27 126.847C119.204 126.78 119.105 126.714 119.039 126.632C118.906 127.095 118.923 127.425 119.22 127.839M119.865 128.087C119.816 128.45 119.898 128.897 120.097 129.078L120.278 128.599C119.981 128.45 119.931 128.219 119.849 128.103L119.865 128.087ZM134.331 101.27C134.761 102.428 135.472 103.783 136.183 105.172C137.44 107.619 138.729 110.099 138.63 111.669C138.547 113.19 137.655 115.092 136.018 117.076C134.546 118.878 132.447 120.762 129.785 122.515C128.181 123.457 126.611 123.127 125.189 122.796C124.478 122.631 123.8 122.482 123.205 122.531C122.345 122.598 121.585 122.796 120.973 123.209C120.361 123.606 119.865 124.218 119.501 125.078C119.369 125.425 119.402 125.722 119.501 125.937C119.535 126.02 119.584 126.086 119.617 126.152C119.882 125.656 120.312 125.243 120.808 124.945C121.552 124.499 122.494 124.284 123.287 124.367C123.486 124.383 123.618 124.565 123.602 124.763C123.585 124.962 123.403 125.111 123.205 125.078C122.56 125.011 121.783 125.177 121.155 125.557C120.626 125.871 120.229 126.301 120.08 126.847C120.08 127.144 120.08 127.425 120.179 127.624C120.179 127.657 120.196 127.673 120.212 127.69C120.229 127.723 120.262 127.739 120.278 127.772C120.328 127.805 120.378 127.822 120.444 127.839C120.493 127.839 120.543 127.839 120.593 127.839C120.841 127.128 121.452 126.665 122.18 126.417C122.874 126.185 123.701 126.136 124.428 126.301C124.561 126.334 124.693 126.367 124.825 126.417C125.007 126.483 125.106 126.681 125.04 126.863C124.974 127.045 124.775 127.144 124.577 127.078C124.478 127.045 124.362 127.012 124.263 126.979C123.651 126.847 122.973 126.88 122.395 127.078C121.866 127.26 121.436 127.574 121.27 128.004C122.411 129.029 123.85 128.797 125.404 128.549C126.181 128.417 126.974 128.285 127.801 128.285C129.603 128.285 130.744 127.161 131.587 126.351C131.901 126.036 132.182 125.772 132.447 125.59L132.695 125.425L132.893 125.64C133.174 125.954 133.521 126.136 133.835 126.169C134.05 126.202 134.265 126.169 134.431 126.086C133.422 123.375 138.894 119.969 142.73 117.588C143.11 117.357 143.491 117.109 143.954 116.811C144.912 116.15 144.747 115.042 144.582 113.885C144.35 112.347 144.119 110.744 145.937 109.619C145.012 108.148 144.102 106.61 143.243 104.974C142.333 103.254 141.474 101.419 140.697 99.3855C139.721 99.0879 138.696 99.1541 137.621 99.4682C136.53 99.7988 135.39 100.394 134.199 101.171L134.331 101.27ZM121.849 129.26L121.816 129.211C121.601 129.112 121.37 128.979 121.155 128.814C121.155 128.88 121.155 128.93 121.155 128.979C121.204 129.343 121.337 129.707 121.502 130.021L121.833 129.244L121.849 129.26Z" fill="white"/>
<path fill-rule="evenodd" clip-rule="evenodd" d="M102.754 105.85L106.87 110.925L106.556 110.843L106.275 111.884C106.06 111.702 105.862 111.521 105.663 111.322C104.209 109.867 103.167 107.966 102.77 105.85M94.0409 112.992C89.9242 117.737 82.8978 108.693 76.9294 107.404C75.6895 107.139 74.962 108.71 73.6394 108.71C73.7717 107.735 74.2842 106.214 73.3253 106.379C69.7707 106.974 71.7216 109.834 70.3328 111.554C70.1344 111.802 69.8699 112.066 69.5723 112.314C68.8614 112.149 68.3654 111.537 68.1505 110.925C67.9356 110.297 67.9025 109.487 68.134 108.528C68.1836 108.33 68.0678 108.148 67.8694 108.098C67.6876 108.049 67.4892 108.164 67.4396 108.363C67.1751 109.454 67.2081 110.396 67.4727 111.157C67.7372 111.934 68.2497 112.496 68.8945 112.81C68.663 112.959 68.4316 113.091 68.2001 113.207C67.2081 112.992 66.4146 112.364 66.2327 111.719C66.0343 110.975 66.15 109.933 66.5468 108.545C66.5964 108.363 66.4807 108.164 66.2988 108.098C66.117 108.049 65.9186 108.164 65.8524 108.346C65.4226 109.867 65.3069 111.041 65.5383 111.901C65.7532 112.711 66.2658 113.257 67.1089 113.604C67.0428 113.604 66.9932 113.62 66.9271 113.637C64.8274 113.951 63.8189 111.603 64.4306 107.95C65.0423 104.296 68.0844 101.336 76.1524 102.163L86.8657 103.271C87.3286 104.974 88.3206 106.875 89.5936 108.594C90.8831 110.363 92.4703 111.95 94.074 112.975L94.0409 112.992ZM68.5969 113.372C68.9606 113.455 69.2251 113.455 69.4566 113.372C69.6219 113.323 69.7542 113.24 69.903 113.124L69.2747 112.942C69.1425 113.042 69.0102 113.124 68.8614 113.207C68.7622 113.257 68.6795 113.323 68.5804 113.372H68.5969ZM69.936 112.43C70.2171 112.48 70.432 112.463 70.6304 112.413C70.7958 112.364 70.9445 112.281 71.0768 112.165L70.4155 111.967C70.2667 112.132 70.1179 112.281 69.936 112.446V112.43ZM67.1255 113.951C67.2412 113.984 67.3569 114.017 67.4727 114.017C67.7702 114.05 68.0678 114.001 68.3158 113.901L67.9686 113.686C67.6876 113.802 67.39 113.901 67.1255 113.951ZM86.6507 69.7587L86.7169 69.4115C86.9483 68.2211 87.4939 67.4771 88.056 67.1961C88.304 67.0638 88.5685 67.0308 88.8165 67.0638C89.0645 67.1134 89.3125 67.2292 89.4944 67.4606C89.9077 67.907 90.1226 68.7832 89.8912 70.0728L89.825 70.4365L86.6342 69.7587H86.6507ZM80.0211 72.7842L80.5171 73.1644C81.6248 72.6519 82.2034 73.3794 82.8812 73.3298C83.5591 73.2636 83.7906 72.3543 85.6753 72.5858C84.3857 71.6104 83.7244 70.9821 82.5506 71.1144C81.3768 71.2466 81.2445 72.3709 80.0211 72.8007V72.7842ZM83.5756 80.505C83.3772 80.4885 83.245 80.3066 83.2615 80.1082C83.278 79.9098 83.4599 79.761 83.6583 79.7941C86.8822 80.1248 88.7669 80.0752 89.8581 79.48C90.8831 78.9179 91.1973 77.7936 91.3295 75.9585C91.3295 75.7601 91.5114 75.6113 91.7098 75.6278C91.9082 75.6278 92.057 75.8097 92.0404 76.0081C91.8916 78.0912 91.4949 79.3973 90.1888 80.1082C88.9653 80.7861 86.9649 80.8522 83.5756 80.505ZM105.895 115.803C107.962 115.885 110.193 115.654 112.244 115.24C112.458 115.191 112.657 115.158 112.855 115.108C110.557 115.059 108.408 114.315 106.655 113.075L105.895 115.819V115.803ZM98.7858 100.923L98.8354 100.692L98.1907 100.559C97.8269 102.361 97.3309 103.816 96.8184 105.255C96.091 107.371 95.3635 109.487 95.0163 112.744C94.8345 112.645 94.6526 112.529 94.4708 112.413L94.4212 112.364H94.4046L94.355 112.314L94.3054 112.281H94.2889L94.2558 112.248H94.2228L94.1732 112.198H94.1401L94.0905 112.149L94.0244 112.099L93.9582 112.05L93.8921 112L93.826 111.95H93.8095L93.7599 111.901H93.7268L93.6772 111.851L93.6441 111.818L93.6111 111.785L93.5615 111.752H93.5284L93.4788 111.686H93.4623L93.3961 111.62L93.33 111.554L93.2639 111.488L93.1977 111.421H93.1812L93.1316 111.355L93.0655 111.289L93.0324 111.256L92.9993 111.223L92.9497 111.19L92.9167 111.157L92.8671 111.107H92.8505L92.8009 111.041L92.7348 110.975L92.6687 110.909L92.6026 110.843L92.553 110.777H92.5364L92.4868 110.71L92.4538 110.677L92.4207 110.644L92.3876 110.611L92.3546 110.578L92.305 110.529H92.2884L92.2388 110.446L92.1727 110.363L92.1066 110.281L92.0404 110.215L91.9908 110.148H91.9743L91.8916 110.049L91.842 110L91.809 109.967L91.7759 109.933L91.7428 109.884L91.7098 109.851L91.6602 109.801H91.6436L91.5941 109.719L91.5279 109.636L91.4618 109.553L91.3957 109.471L91.3461 109.388V109.355L91.2634 109.272L91.2303 109.223L91.1973 109.173L91.1642 109.14L91.1146 109.09V109.057L91.0485 108.991L90.9823 108.908L90.9162 108.826L90.8501 108.743L90.8005 108.66H90.7839L90.7178 108.545L90.6847 108.495L90.6517 108.445L90.5855 108.363V108.33L90.5194 108.264L90.4698 108.181L90.4037 108.098L90.3541 108.016V107.983L90.3045 107.933L90.2714 107.883L90.2218 107.784L90.1722 107.702L90.1226 107.619L90.0896 107.553L90.04 107.47L89.9904 107.387L89.9573 107.354L89.9242 107.321L89.8746 107.255L89.825 107.172V107.139L89.7754 107.057V107.024L89.7093 106.958L89.6597 106.875V106.842L89.6101 106.792L89.577 106.743V106.71L89.5109 106.627L89.4448 106.528L89.4117 106.478L89.3787 106.412L89.3291 106.313L89.296 106.23V106.197L89.2464 106.164L89.2133 106.098L89.1637 106.015L89.1141 105.899V105.866L89.0645 105.8L89.0315 105.718V105.685L88.9819 105.585V105.552L88.9323 105.47L88.8992 105.387V105.354L88.8661 105.304L88.8331 105.255L88.8 105.155L88.7504 105.04V104.99L88.7008 104.924L88.6181 104.726L88.5685 104.626L88.5355 104.544L88.5024 104.461V104.411L88.4693 104.378L88.4363 104.312L88.4032 104.23V104.197C88.3701 104.13 88.3536 104.064 88.3206 103.998L88.2875 103.916V103.882L88.2544 103.783L88.2214 103.684L88.1883 103.585V103.535V103.469H88.1552L88.1222 103.386V103.337L88.0891 103.287V103.254L88.056 103.188C87.8907 102.626 87.775 102.097 87.7419 101.601C87.5766 99.7823 87.56 97.8976 87.527 96.0293C87.4443 90.1271 87.3451 84.3572 83.2946 81.2821C82.4514 80.6538 81.2776 81.2325 80.0045 81.8607C79.0291 82.3402 78.0041 82.8527 77.227 82.737C76.9129 82.6874 76.5822 82.522 76.3012 82.1914C76.1028 81.9599 75.954 81.6623 75.8383 81.2821C76.3673 81.1829 76.946 81.0506 77.4585 80.8522C77.9379 80.6703 78.3513 80.4554 78.6654 80.1909C79.0291 79.8768 79.211 79.4965 79.1614 79.0667C79.1614 78.984 79.1283 78.9013 79.0952 78.8021C78.6819 77.6944 76.979 77.8928 75.8052 78.0416C75.4415 78.0912 75.1439 78.1243 75.0116 78.1078C74.681 78.0747 74.1189 77.8598 73.6725 77.3968C73.4906 77.215 73.3418 77.0001 73.2261 76.7355L75.0447 75.8097C75.4745 75.5782 75.3588 74.8673 74.8132 74.9996C74.2842 75.198 73.6229 75.4129 73.0608 75.6113C73.1765 74.8012 73.7717 74.0241 74.6148 73.3463C75.8383 72.3543 77.5411 71.6104 79.0952 71.3458L79.2606 71.3128L79.3432 71.164C80.236 69.6099 81.2445 68.8824 82.2695 68.5683C83.3111 68.2542 84.4023 68.3699 85.4438 68.5022L85.6422 68.5353L85.7745 68.3699C86.4027 67.5433 86.9979 66.8324 87.6427 66.3694C88.2544 65.9396 88.9157 65.7412 89.6928 65.9065C90.3541 66.0388 90.7674 66.5348 91.0319 67.1796C91.3791 68.0558 91.4122 69.18 91.2303 70.1059L91.1642 70.4365L91.4949 70.5192C96.0579 71.5938 97.5459 75.2641 99.3314 79.6618L99.4637 79.976C99.6786 80.5215 99.8935 81.0837 100.108 81.6127C101.53 85.3326 102.456 87.796 107.581 89.1848L107.333 90.2759C106.903 92.2599 106.705 93.1196 106.176 95.2027C105.978 95.368 105.796 95.5499 105.614 95.7152C103.58 97.7488 102.324 100.559 102.324 103.668C102.324 103.982 102.324 104.279 102.357 104.577V104.693V104.709V104.825L102.39 104.957V105.089V105.172L102.407 105.222V105.321H102.423V105.42L102.44 105.47V105.569L102.456 105.585V105.685L102.489 105.718C102.506 105.833 102.539 105.949 102.555 106.065L102.588 106.181L102.621 106.296V106.379L102.655 106.412V106.445L102.688 106.544L102.704 106.627V106.676L102.737 106.743V106.792L102.787 106.875L102.82 106.991L102.853 107.106V107.139C102.853 107.139 102.919 107.272 102.936 107.354L102.985 107.47L103.018 107.569V107.602L103.051 107.668V107.718L103.101 107.768L103.134 107.834L103.167 107.916L103.2 108.032L103.233 108.115L103.266 108.198L103.299 108.264L103.349 108.363L103.398 108.479L103.448 108.594L103.498 108.677V108.71L103.514 108.727V108.76L103.58 108.842V108.875L103.63 108.958L103.663 109.024L103.696 109.074L103.729 109.14L103.762 109.189L103.795 109.239L103.828 109.289L103.861 109.355V109.388L103.928 109.471L103.994 109.57L104.06 109.685L104.126 109.785L104.176 109.884V109.917L104.242 110L104.291 110.082L104.324 110.132L104.357 110.181L104.407 110.248L104.44 110.281L104.49 110.347L104.523 110.38L104.572 110.446V110.479L104.605 110.496L104.672 110.578L104.754 110.677L104.837 110.777L104.903 110.876H104.92L104.936 110.925L105.002 110.992H105.019L105.085 111.091L105.134 111.157L105.201 111.24L105.25 111.306L105.333 111.405L105.399 111.488L105.432 111.521L105.515 111.62V111.653V111.686V111.719L105.548 111.752L105.581 111.785L105.697 111.884L105.73 111.917C105.878 112.05 106.027 112.165 106.176 112.298L105.316 115.406L104.754 117.472C103.944 119.027 103.084 120.465 102.258 121.903C100.472 124.962 98.7362 127.921 97.5459 131.459C97.3475 132.054 97.4467 132.716 97.7443 133.377C97.9757 133.873 98.3394 134.369 98.7858 134.799C98.356 134.882 97.9261 134.881 97.5293 134.815C97.0003 134.733 96.5374 134.518 96.2728 134.187L95.9753 133.807L95.7273 134.22L93.5119 138.023C92.8836 139.114 91.5114 139.097 90.0069 139.081C88.7835 139.081 87.4774 139.064 86.3366 139.61C85.8076 139.858 85.0966 139.891 84.4684 139.759C84.1873 139.693 83.9228 139.61 83.7244 139.478C83.5426 139.362 83.4103 139.246 83.3442 139.097C83.2946 138.998 83.278 138.899 83.3111 138.783C83.4434 138.238 83.8732 137.791 84.4188 137.477C85.0471 137.113 85.8076 136.932 86.4689 136.998C86.6673 137.014 86.8326 136.882 86.8657 136.684C86.8822 136.485 86.7499 136.32 86.5515 136.287C85.758 136.204 84.8156 136.419 84.0716 136.865C83.4268 137.246 82.8978 137.808 82.6994 138.519C82.6333 138.519 82.5671 138.535 82.4845 138.519C82.3687 138.519 82.253 138.486 82.1538 138.42C82.0546 138.37 81.9885 138.271 81.9389 138.155C81.8727 137.973 81.8562 137.725 81.9554 137.361C81.9554 137.345 81.9554 137.328 81.9719 137.295C82.1042 136.733 82.5506 136.254 83.0796 135.94C83.7079 135.576 84.4684 135.394 85.1297 135.46C85.3281 135.477 85.4934 135.344 85.5265 135.146C85.543 134.948 85.4108 134.782 85.2124 134.749C84.4188 134.667 83.4764 134.882 82.7325 135.328C82.0381 135.741 81.4925 136.336 81.3272 137.097V137.13C81.2776 137.18 81.2114 137.213 81.1288 137.246C81.0626 137.262 80.9965 137.279 80.9469 137.262C80.9138 137.262 80.8808 137.262 80.8642 137.246C80.8642 137.246 80.8642 137.213 80.8642 137.18C80.8642 136.303 81.3933 135.394 82.1207 134.65C82.9804 133.79 84.1212 133.146 85.0801 132.997C86.1382 132.815 87.1137 132.931 88.1718 133.03C88.8827 133.112 89.6432 133.179 90.4533 133.179H90.6517L90.7509 132.997C92.2058 130.269 93.1647 127.706 93.8921 125.078C94.6196 122.449 95.1321 119.77 95.6446 116.762V116.728V116.695C95.6446 110.826 96.6366 107.933 97.6285 105.056C98.108 103.668 98.5874 102.279 98.9677 100.543L98.7858 100.923Z" fill="white"/>
<path fill-rule="evenodd" clip-rule="evenodd" d="M87.4771 69.1967L89.2461 69.5604C89.3453 68.7172 89.213 68.1882 88.965 67.9071C88.8823 67.8245 88.7997 67.7583 88.7005 67.7418C88.6013 67.7253 88.4855 67.7418 88.3698 67.8079C88.0226 67.9898 87.692 68.4362 87.4771 69.1802" fill="white"/>
<path fill-rule="evenodd" clip-rule="evenodd" d="M118.625 98.3603C117.204 96.9385 115.253 96.0788 113.103 96.0788C110.954 96.0788 108.987 96.9551 107.581 98.3603C106.16 99.7822 105.3 101.733 105.3 103.882C105.3 106.032 106.176 107.999 107.581 109.404C109.003 110.826 110.954 111.686 113.103 111.686C115.253 111.686 117.22 110.81 118.625 109.404C120.031 107.999 120.907 106.032 120.907 103.882C120.907 101.733 120.031 99.7656 118.625 98.3603ZM113.103 95.3514C115.451 95.3514 117.6 96.3103 119.138 97.8478C120.675 99.4019 121.634 101.518 121.634 103.882C121.634 106.247 120.675 108.379 119.138 109.917C117.6 111.454 115.468 112.413 113.103 112.413C110.739 112.413 108.607 111.454 107.069 109.917C105.531 108.379 104.572 106.247 104.572 103.882C104.572 101.518 105.531 99.3854 107.069 97.8478C108.607 96.3103 110.739 95.3514 113.103 95.3514ZM117.749 99.2366C116.559 98.0462 114.922 97.3188 113.103 97.3188C111.285 97.3188 109.648 98.0628 108.458 99.2366C107.267 100.427 106.54 102.064 106.54 103.882C106.54 105.701 107.267 107.338 108.458 108.528C109.648 109.718 111.285 110.446 113.103 110.446C114.922 110.446 116.559 109.718 117.749 108.528C118.94 107.338 119.667 105.701 119.667 103.882C119.667 102.064 118.94 100.427 117.749 99.2366ZM113.103 96.6244C115.104 96.6244 116.923 97.4345 118.245 98.7571C119.551 100.063 120.378 101.882 120.378 103.899C120.378 105.916 119.568 107.718 118.245 109.041C116.939 110.347 115.12 111.173 113.103 111.173C111.086 111.173 109.284 110.363 107.962 109.041C106.656 107.734 105.829 105.916 105.829 103.899C105.829 101.882 106.639 100.08 107.962 98.7571C109.268 97.451 111.086 96.6244 113.103 96.6244ZM111.83 105.155C111.649 104.973 110.905 105.255 110.194 105.717C109.929 105.883 109.681 106.081 109.466 106.28C109.251 106.478 109.069 106.693 108.937 106.891C108.689 107.288 108.64 107.685 108.97 108.016C109.301 108.346 109.698 108.297 110.094 108.049C110.309 107.916 110.508 107.734 110.706 107.52C110.905 107.305 111.103 107.057 111.268 106.792C111.731 106.081 112.012 105.337 111.83 105.155ZM113.103 105.684C112.839 105.684 112.525 106.412 112.343 107.238C112.277 107.536 112.244 107.85 112.227 108.148C112.227 108.445 112.227 108.71 112.293 108.958C112.393 109.404 112.641 109.735 113.103 109.735C113.566 109.735 113.814 109.421 113.914 108.958C113.963 108.726 113.98 108.445 113.98 108.148C113.98 107.85 113.93 107.536 113.864 107.238C113.682 106.395 113.368 105.684 113.103 105.684ZM116.013 105.717C115.302 105.255 114.558 104.973 114.376 105.155C114.195 105.337 114.476 106.081 114.939 106.792C115.104 107.057 115.302 107.305 115.501 107.52C115.699 107.734 115.914 107.916 116.112 108.049C116.509 108.297 116.906 108.346 117.237 108.016C117.567 107.685 117.518 107.288 117.27 106.891C117.137 106.676 116.956 106.478 116.741 106.28C116.526 106.081 116.278 105.883 116.013 105.717ZM116.46 103.122C115.633 103.304 114.906 103.618 114.906 103.882C114.906 104.147 115.633 104.461 116.46 104.643C116.757 104.709 117.071 104.742 117.369 104.759C117.666 104.759 117.948 104.759 118.179 104.692C118.625 104.593 118.956 104.345 118.956 103.882C118.956 103.419 118.642 103.171 118.179 103.072C117.931 103.023 117.666 102.99 117.369 103.006C117.071 103.006 116.757 103.056 116.46 103.122ZM114.939 100.973C114.476 101.683 114.195 102.427 114.376 102.609C114.558 102.791 115.302 102.51 116.013 102.047C116.278 101.882 116.526 101.683 116.741 101.485C116.956 101.287 117.137 101.072 117.27 100.873C117.518 100.477 117.567 100.08 117.237 99.7491C116.906 99.4184 116.509 99.468 116.112 99.716C115.897 99.8483 115.699 100.03 115.501 100.245C115.302 100.46 115.104 100.708 114.939 100.973ZM112.343 100.526C112.525 101.369 112.839 102.08 113.103 102.08C113.368 102.08 113.682 101.353 113.864 100.526C113.93 100.229 113.963 99.9144 113.98 99.6168C113.98 99.3192 113.98 99.0547 113.914 98.8067C113.814 98.3603 113.566 98.0297 113.103 98.0297C112.641 98.0297 112.393 98.3438 112.293 98.8067C112.244 99.0382 112.227 99.3192 112.227 99.6168C112.227 99.9144 112.277 100.229 112.343 100.526ZM112.426 102.262C112.492 102.626 112.459 102.923 112.293 103.089C112.128 103.254 111.83 103.287 111.467 103.221C111.764 103.436 111.963 103.667 111.963 103.882C111.963 104.097 111.781 104.345 111.467 104.56C111.83 104.494 112.128 104.527 112.293 104.676C112.459 104.841 112.492 105.139 112.426 105.503C112.641 105.205 112.872 105.007 113.103 105.007C113.335 105.007 113.566 105.188 113.765 105.503C113.699 105.139 113.732 104.841 113.88 104.676C114.046 104.511 114.343 104.477 114.707 104.56C114.41 104.345 114.211 104.114 114.211 103.882C114.211 103.651 114.393 103.419 114.707 103.221C114.343 103.287 114.046 103.254 113.88 103.089C113.715 102.923 113.682 102.626 113.748 102.262C113.533 102.576 113.302 102.758 113.087 102.758C112.872 102.758 112.624 102.576 112.409 102.262H112.426ZM111.748 100.725C111.748 100.725 111.83 100.84 111.863 100.906C111.847 100.84 111.83 100.774 111.814 100.691C111.748 100.344 111.698 99.9806 111.682 99.6334C111.682 99.2696 111.682 98.9225 111.764 98.6083C111.93 97.8644 112.343 97.3518 113.087 97.3518C113.831 97.3518 114.244 97.8809 114.41 98.6083C114.476 98.9225 114.509 99.2696 114.492 99.6334C114.492 99.9806 114.426 100.344 114.36 100.691C114.36 100.758 114.327 100.84 114.31 100.906C114.343 100.84 114.393 100.791 114.426 100.725C114.624 100.427 114.839 100.146 115.087 99.8814C115.335 99.6168 115.6 99.3854 115.881 99.22C116.526 98.8233 117.171 98.7406 117.716 99.2697C118.245 99.7987 118.162 100.46 117.766 101.105C117.6 101.386 117.369 101.65 117.104 101.898C116.84 102.146 116.559 102.361 116.261 102.56C116.195 102.593 116.145 102.642 116.079 102.675C116.145 102.659 116.212 102.642 116.294 102.626C116.641 102.56 117.005 102.51 117.352 102.494C117.716 102.494 118.063 102.494 118.377 102.576C119.105 102.742 119.634 103.155 119.634 103.899C119.634 104.643 119.105 105.056 118.377 105.221C118.063 105.288 117.716 105.321 117.352 105.304C117.005 105.304 116.641 105.238 116.294 105.172C116.228 105.172 116.145 105.139 116.079 105.122C116.145 105.155 116.195 105.205 116.261 105.238C116.559 105.436 116.84 105.651 117.104 105.899C117.369 106.147 117.6 106.412 117.766 106.693C118.162 107.338 118.245 107.982 117.716 108.528C117.187 109.057 116.526 108.974 115.881 108.578C115.6 108.412 115.335 108.181 115.087 107.916C114.856 107.652 114.624 107.371 114.426 107.073C114.393 107.007 114.343 106.957 114.31 106.891C114.327 106.957 114.343 107.024 114.36 107.106C114.426 107.453 114.476 107.817 114.492 108.164C114.492 108.528 114.492 108.875 114.41 109.189C114.244 109.917 113.831 110.446 113.087 110.446C112.343 110.446 111.93 109.917 111.764 109.189C111.698 108.875 111.665 108.528 111.682 108.164C111.682 107.817 111.748 107.453 111.814 107.106C111.814 107.04 111.847 106.957 111.863 106.891C111.83 106.957 111.781 107.007 111.748 107.073C111.549 107.371 111.334 107.652 111.086 107.916C110.838 108.181 110.574 108.412 110.293 108.578C109.648 108.974 109.003 109.057 108.458 108.528C107.929 107.999 108.011 107.338 108.408 106.693C108.573 106.412 108.805 106.147 109.069 105.899C109.334 105.651 109.615 105.436 109.913 105.238C109.979 105.205 110.028 105.155 110.094 105.122C110.028 105.139 109.962 105.155 109.88 105.172C109.532 105.238 109.169 105.288 108.821 105.304C108.458 105.304 108.111 105.304 107.796 105.221C107.052 105.056 106.54 104.643 106.54 103.899C106.54 103.155 107.069 102.742 107.796 102.576C108.111 102.51 108.458 102.477 108.821 102.494C109.169 102.494 109.532 102.56 109.88 102.626C109.946 102.626 110.028 102.659 110.094 102.675C110.028 102.642 109.979 102.593 109.913 102.56C109.615 102.361 109.334 102.146 109.069 101.898C108.805 101.65 108.573 101.386 108.408 101.105C108.011 100.46 107.929 99.8152 108.458 99.2697C108.987 98.7406 109.648 98.8233 110.293 99.22C110.574 99.3854 110.838 99.6168 111.086 99.8814C111.318 100.146 111.549 100.427 111.748 100.725ZM111.814 102.609C111.996 102.427 111.715 101.683 111.252 100.973C111.086 100.708 110.888 100.46 110.69 100.245C110.491 100.03 110.276 99.8483 110.078 99.716C109.681 99.468 109.284 99.4184 108.954 99.7491C108.623 100.08 108.673 100.477 108.921 100.873C109.053 101.088 109.235 101.287 109.45 101.485C109.665 101.683 109.913 101.882 110.177 102.047C110.888 102.51 111.632 102.791 111.814 102.609ZM111.285 103.882C111.285 103.618 110.557 103.304 109.731 103.122C109.433 103.056 109.119 103.023 108.821 103.006C108.524 103.006 108.243 103.006 108.011 103.072C107.565 103.171 107.234 103.419 107.234 103.882C107.234 104.345 107.548 104.593 108.011 104.692C108.243 104.742 108.524 104.775 108.821 104.759C109.119 104.759 109.433 104.709 109.731 104.643C110.557 104.461 111.285 104.147 111.285 103.882ZM120.527 96.4425C118.625 94.5413 115.997 93.3674 113.087 93.3674C110.177 93.3674 107.548 94.5413 105.647 96.4425C103.746 98.3438 102.572 100.973 102.572 103.882C102.572 106.792 103.746 109.421 105.647 111.322C107.548 113.223 110.177 114.397 113.087 114.397C115.997 114.397 118.625 113.223 120.527 111.322C122.428 109.421 123.602 106.792 123.602 103.882C123.602 100.973 122.428 98.3438 120.527 96.4425Z" fill="white"/>
<path fill-rule="evenodd" clip-rule="evenodd" d="M113.086 96.6246C115.087 96.6246 116.905 97.4347 118.228 98.7573C119.534 100.08 120.361 101.882 120.361 103.899C120.361 105.916 119.551 107.718 118.228 109.041C116.922 110.347 115.103 111.173 113.086 111.173C111.069 111.173 109.267 110.363 107.945 109.041C106.638 107.735 105.812 105.916 105.812 103.899C105.812 101.882 106.622 100.08 107.945 98.7573C109.251 97.4512 111.069 96.6246 113.086 96.6246ZM118.608 98.3605C117.186 96.9387 115.236 96.079 113.086 96.079C110.937 96.079 108.97 96.9552 107.564 98.3605C106.142 99.7823 105.266 101.733 105.266 103.882C105.266 106.032 106.142 107.999 107.564 109.404C108.986 110.826 110.937 111.686 113.086 111.686C115.236 111.686 117.203 110.81 118.608 109.404C120.03 107.983 120.89 106.032 120.89 103.882C120.89 101.733 120.014 99.7658 118.608 98.3605Z" fill="white"/>
<path fill-rule="evenodd" clip-rule="evenodd" d="M111.813 105.155C111.631 104.973 110.887 105.255 110.176 105.717C109.912 105.883 109.664 106.081 109.449 106.28C109.234 106.478 109.052 106.693 108.92 106.891C108.672 107.288 108.622 107.685 108.953 108.015C109.284 108.346 109.681 108.297 110.077 108.049C110.292 107.916 110.491 107.734 110.689 107.52C110.887 107.305 111.086 107.057 111.251 106.792C111.714 106.081 111.995 105.337 111.813 105.155ZM113.086 105.684C112.822 105.684 112.508 106.412 112.326 107.238C112.26 107.536 112.227 107.85 112.21 108.148C112.21 108.445 112.21 108.71 112.276 108.958C112.375 109.404 112.623 109.735 113.086 109.735C113.549 109.735 113.797 109.421 113.896 108.958C113.946 108.726 113.963 108.445 113.963 108.148C113.963 107.85 113.913 107.536 113.847 107.238C113.665 106.412 113.351 105.684 113.086 105.684ZM115.996 105.717C115.285 105.255 114.541 104.973 114.359 105.155C114.177 105.337 114.458 106.081 114.921 106.792C115.087 107.057 115.285 107.305 115.484 107.52C115.682 107.734 115.897 107.916 116.095 108.049C116.492 108.297 116.889 108.346 117.219 108.015C117.55 107.685 117.501 107.288 117.253 106.891C117.12 106.676 116.938 106.478 116.723 106.28C116.509 106.081 116.261 105.883 115.996 105.717ZM116.442 103.122C115.599 103.304 114.888 103.618 114.888 103.882C114.888 104.147 115.616 104.461 116.442 104.643C116.74 104.709 117.054 104.742 117.352 104.759C117.649 104.759 117.914 104.759 118.162 104.692C118.608 104.593 118.939 104.345 118.939 103.882C118.939 103.419 118.625 103.171 118.162 103.072C117.93 103.023 117.649 102.99 117.352 103.006C117.054 103.006 116.74 103.056 116.442 103.122ZM114.921 100.973C114.458 101.683 114.177 102.427 114.359 102.609C114.541 102.791 115.285 102.51 115.996 102.047C116.261 101.882 116.509 101.683 116.723 101.485C116.938 101.287 117.12 101.072 117.253 100.873C117.501 100.477 117.55 100.08 117.219 99.7491C116.889 99.4184 116.492 99.468 116.095 99.716C115.88 99.8483 115.682 100.03 115.484 100.245C115.285 100.46 115.087 100.708 114.921 100.973ZM112.326 100.526C112.508 101.369 112.822 102.08 113.086 102.08C113.351 102.08 113.665 101.369 113.847 100.526C113.913 100.229 113.946 99.9144 113.963 99.6168C113.963 99.3192 113.963 99.0547 113.896 98.8067C113.797 98.3603 113.549 98.0297 113.086 98.0297C112.623 98.0297 112.375 98.3438 112.276 98.8067C112.227 99.0382 112.21 99.3192 112.21 99.6168C112.21 99.9144 112.26 100.229 112.326 100.526ZM111.813 102.609C111.995 102.427 111.714 101.683 111.251 100.973C111.086 100.708 110.887 100.46 110.689 100.245C110.491 100.03 110.276 99.8483 110.077 99.716C109.681 99.468 109.284 99.4184 108.953 99.7491C108.622 100.08 108.672 100.477 108.92 100.873C109.052 101.088 109.234 101.287 109.449 101.485C109.664 101.683 109.912 101.882 110.176 102.047C110.887 102.51 111.631 102.791 111.813 102.609ZM111.284 103.882C111.284 103.618 110.557 103.304 109.73 103.122C109.433 103.056 109.118 103.023 108.821 103.006C108.523 103.006 108.259 103.006 108.011 103.072C107.564 103.171 107.234 103.419 107.234 103.882C107.234 104.345 107.548 104.593 108.011 104.692C108.242 104.742 108.523 104.759 108.821 104.759C109.118 104.759 109.433 104.709 109.73 104.643C110.573 104.461 111.284 104.147 111.284 103.882Z" fill="white"/>
</g>
</g>
</svg>
