<svg width="120" height="120" viewBox="0 0 120 120" fill="none" xmlns="http://www.w3.org/2000/svg">
<path d="M60 120C93.1371 120 120 93.1371 120 60C120 26.8629 93.1371 0 60 0C26.8629 0 0 26.8629 0 60C0 93.1371 26.8629 120 60 120Z" fill="#272B63"/>
<path d="M101.914 66.1055C98.9453 86.5775 81.2829 102.357 59.9996 102.357C38.7162 102.357 21.0539 86.5793 18.0851 66.1055H5C6.36026 78.5768 11.873 90.1303 20.872 99.1276C31.324 109.578 45.2185 115.335 59.9996 115.335C74.7806 115.335 88.6751 109.58 99.1271 99.1276C108.126 90.1286 113.639 78.5768 114.999 66.1055H101.914Z" fill="#E72061"/>
<path d="M102.105 64.5967C99.8092 85.7996 81.8006 102.357 59.998 102.357C38.1954 102.357 20.1868 85.7996 17.8912 64.5967H4.85156C5.91809 77.645 11.5112 89.7685 20.8704 99.1294C31.3207 109.58 45.217 115.335 59.998 115.335C74.779 115.335 88.6753 109.58 99.1255 99.1294C108.485 89.7702 114.078 77.6468 115.144 64.5967H102.105Z" fill="#E72061"/>
<path d="M60 2.76598C67.728 2.76598 75.2234 4.27835 82.2764 7.26287C89.0917 10.146 95.2129 14.2722 100.47 19.5297C105.728 24.7871 109.854 30.9083 112.737 37.7236C115.722 44.7784 117.234 52.2738 117.234 60C117.234 67.7262 115.722 75.2234 112.737 82.2764C109.854 89.0917 105.728 95.2129 100.47 100.47C95.2129 105.728 89.0917 109.854 82.2764 112.737C75.2216 115.722 67.7262 117.234 60 117.234C52.2738 117.234 44.7766 115.722 37.7236 112.737C30.9083 109.854 24.7871 105.728 19.5297 100.47C14.2722 95.2129 10.146 89.0917 7.26287 82.2764C4.27835 75.2216 2.76598 67.7262 2.76598 60C2.76598 52.2738 4.27835 44.7766 7.26287 37.7236C10.146 30.9083 14.2722 24.7871 19.5297 19.5297C24.7871 14.2722 30.9083 10.146 37.7236 7.26287C44.7784 4.27835 52.2738 2.76598 60 2.76598ZM60 0C26.8625 0 0 26.8625 0 60C0 93.1375 26.8625 120 60 120C93.1375 120 120 93.1375 120 60C120 26.8625 93.1375 0 60 0Z" fill="white"/>
<path d="M60.0022 97.5959C80.7659 97.5959 97.5981 80.7637 97.5981 60C97.5981 39.2363 80.7659 22.4041 60.0022 22.4041C39.2385 22.4041 22.4062 39.2363 22.4062 60C22.4062 80.7637 39.2385 97.5959 60.0022 97.5959Z" fill="#272B63"/>
<path d="M59.9997 94.0309C78.7945 94.0309 94.0306 78.7947 94.0306 59.9999C94.0306 41.2052 78.7945 25.969 59.9997 25.969C41.2049 25.969 25.9688 41.2052 25.9688 59.9999C25.9688 78.7947 41.2049 94.0309 59.9997 94.0309Z" fill="#64B65F"/>
<path d="M59.9992 22.3917C70.0455 22.3917 79.4886 26.3029 86.5924 33.4067C93.6962 40.5104 97.6073 49.9536 97.6073 59.9999C97.6073 70.0462 93.6962 79.4893 86.5924 86.5931C79.4886 93.6969 70.0455 97.6081 59.9992 97.6081C49.9528 97.6081 40.5097 93.6969 33.4059 86.5931C26.3022 79.4893 22.391 70.0462 22.391 59.9999C22.391 49.9536 26.3022 40.5104 33.4059 33.4067C40.5097 26.3029 49.9528 22.3917 59.9992 22.3917ZM59.9992 19.6257C37.7018 19.6257 19.625 37.7025 19.625 59.9999C19.625 82.2973 37.7018 100.374 59.9992 100.374C82.2966 100.374 100.373 82.2973 100.373 59.9999C100.373 37.7025 82.2966 19.6257 59.9992 19.6257Z" fill="white"/>
<path d="M13.3906 72.349C13.3906 72.349 13.3941 72.3613 13.3959 72.3665C13.3959 72.3578 13.3976 72.3508 13.3994 72.342L13.3906 72.3473V72.349Z" fill="white"/>
<path d="M13.3906 72.3367C13.3906 72.3367 13.3906 72.3461 13.3906 72.3498L13.4 72.3442C13.3963 72.3423 13.3944 72.3385 13.3906 72.3367Z" fill="white"/>
<path d="M106.461 72.3438C106.461 72.3438 106.463 72.3595 106.464 72.3682C106.464 72.363 106.468 72.356 106.47 72.3507L106.461 72.3455V72.3438Z" fill="white"/>
<path d="M106.461 72.3442L106.47 72.3498C106.47 72.3461 106.47 72.3404 106.47 72.3367C106.467 72.3385 106.465 72.3423 106.461 72.3442Z" fill="white"/>
<path d="M17.6425 60C17.6425 60.9022 17.6704 61.8009 17.7281 62.6873H4.727C4.68504 61.7957 4.66406 60.9005 4.66406 60C4.66406 58.666 4.71127 57.3407 4.80393 56.0242H17.8278C17.7037 57.332 17.6425 58.6608 17.6425 60Z" fill="white"/>
<path d="M115.336 60C115.336 60.9005 115.315 61.7957 115.271 62.6873H102.272C102.329 61.8009 102.357 60.9022 102.357 60C102.357 58.659 102.296 57.332 102.172 56.0242H115.196C115.29 57.3407 115.336 58.666 115.336 60Z" fill="white"/>
<path d="M79.4 87.9274C82.9336 83.1839 83.1643 76.3984 83.1748 76.0644C83.1818 75.8197 83.0734 75.5871 82.8846 75.4333C82.7832 75.3511 82.6643 75.2969 82.5402 75.2724C82.4318 75.2514 82.3181 75.2532 82.208 75.2794L78.1202 76.2498C79.8686 74.2863 80.526 72.2634 80.7008 71.6217L83.4878 68.3277C83.5455 68.2578 83.5927 68.1791 83.6242 68.0952C87.0476 58.9021 82.5786 52.0781 82.1783 51.4959C80.6134 48.8121 76.9628 46.4028 74.1723 44.8537C74.0989 44.8135 67.8571 41.9723 69.5478 42.6419C69.5897 38.4388 48.9358 50.8559 49.338 50.8822C48.9236 51.5745 48.7872 52.2599 48.7453 52.683C48.4428 52.9995 49.303 53.1988 49.2715 53.4488C49.2488 53.6219 48.9551 53.6149 48.4043 54.073C47.8955 54.4734 47.3675 55.1605 47.5546 55.8948C47.427 55.956 47.4724 56.1274 47.392 56.248C46.002 58.3618 45.0876 61.5142 44.6715 65.6177C44.5788 65.6509 44.4914 65.7016 44.4145 65.7698L38.872 70.7108C38.5591 70.9906 38.5206 71.4679 38.7846 71.7931L41.402 75.0101C41.5209 75.157 41.6852 75.2514 41.86 75.2846C42.0139 75.3144 42.1783 75.2986 42.3286 75.2322C47.7154 72.8474 50.8206 70.6951 52.6057 69.0673C51.3329 71.0238 50.9325 73.5992 50.8084 74.9227L50.7437 75.6431C50.7332 75.762 50.7507 75.8809 50.7909 75.991C49.9849 76.1658 49.4219 76.3844 49.2278 76.4666C49.1981 76.4788 49.1719 76.491 49.1387 76.5068C46.2013 77.9107 44.2204 80.5438 43.0752 82.5073C41.9684 84.4043 42.2832 86.8101 43.8392 88.361C44.5351 89.0533 45.2817 89.7247 45.974 90.2755L45.6383 90.9381C44.5316 93.1131 44.1295 94.942 44.0753 95.2007L45.238 95.1115L45.0334 95.5941C44.5491 96.7393 44.7606 98.0279 45.5876 98.9563C46.058 99.4843 46.6682 99.834 47.3535 99.9686C47.8501 100.067 48.3711 100.042 48.8642 99.8987L79.3284 91.0133C80.1833 90.7633 80.6781 89.8646 80.4281 89.0079C80.2795 88.4973 79.8948 88.1005 79.4018 87.9309L79.4 87.9274Z" fill="#272B63"/>
<path d="M73.8165 45.3834C77.0493 47.1772 80.2139 49.4589 81.5409 51.7598C81.5409 51.7598 86.3158 58.5314 82.9152 67.6633L80.0111 71.0954C80.0111 71.0954 78.6963 77.0715 71.9614 79.0297C73.7431 75.6675 72.3268 73.0781 72.3059 73.0431C69.6658 68.3784 64.5517 69.2281 63.2264 69.5393C60.0181 64.469 55.224 66.651 55.189 66.6685C55.189 66.6685 55.4687 64.114 53.549 62.231C53.549 62.231 54.5631 63.6122 54.2431 65.6264C54.2431 65.6264 54.2938 70.3768 42.0392 74.3562L39.4219 71.1391L44.9643 66.1981C45.7371 66.7559 47.0624 66.9062 47.0624 66.9062C45.8175 66.2191 45.4766 65.5565 45.4766 65.5565C45.9644 60.7221 47.0921 58.0139 48.073 56.519C48.073 56.519 47.7198 55.4962 49.421 54.5503C51.0348 53.6516 54.2396 55.8039 58.754 53.6953C61.9256 52.2144 65.4137 45.1876 69.8983 44.1945C70.9334 43.9654 72.7674 44.9463 73.813 45.3799L73.8165 45.3834Z" fill="#64B65F"/>
<path d="M62.2838 69.8751C59.4811 65.6352 55.5595 67.3941 55.3899 67.4745C52.4858 68.7036 51.7812 73.0274 51.6116 74.8353L51.5469 75.5556C53.7604 75.2479 55.8025 75.7252 57.2502 76.4491C58.0684 71.9119 60.9935 70.4783 62.2856 69.8751H62.2838Z" fill="#64B65F"/>
<path d="M62.2302 85.3449C67.0156 83.5825 68.3881 80.1661 68.4965 79.7063C68.4982 79.6923 68.8672 77.6047 67.9143 76.3913C67.9143 76.3913 69.2308 77.1956 69.2763 79.5752C69.7728 79.5175 70.2484 79.4423 70.7012 79.3496C72.8483 76.0661 71.4618 73.5345 71.4426 73.5012C68.8252 68.8784 63.4471 70.3384 63.0432 70.4555C62.3019 70.7318 58.882 72.2459 58.0078 76.8442C61.1147 79.1433 62.3369 82.1891 62.2302 85.3449Z" fill="#64B65F"/>
<mask id="mask0_1632_41231" style="mask-type:luminance" maskUnits="userSpaceOnUse" x="51" y="67" width="12" height="10">
<path d="M62.2838 69.8751C59.4811 65.6352 55.5595 67.3941 55.3899 67.4745C52.4858 68.7036 51.7812 73.0274 51.6116 74.8353L51.5469 75.5556C53.7604 75.2479 55.8025 75.7252 57.2502 76.4491C58.0684 71.9119 60.9935 70.4783 62.2856 69.8751H62.2838Z" fill="white"/>
</mask>
<g mask="url(#mask0_1632_41231)">
<path d="M55.1328 76.1379C55.1328 76.1379 62.4027 70.7406 59.1192 67.256C59.1192 67.256 61.7645 68.0795 62.4849 70.0744C62.4849 70.0744 58.2065 73.1603 57.3708 77.325L55.1328 76.1379Z" fill="#272B63"/>
<path d="M52.2672 71.5274C52.2672 71.5274 51.685 74.1779 51.5469 75.5574C51.5469 75.5574 54.2954 75.1291 57.2502 76.4509C57.2502 76.4509 57.717 74.2514 58.5825 72.9383C58.5825 72.9383 55.5822 70.6339 52.2672 71.5274Z" fill="white"/>
</g>
<mask id="mask1_1632_41231" style="mask-type:luminance" maskUnits="userSpaceOnUse" x="39" y="43" width="46" height="37">
<path d="M71.7971 44.469C75.4635 45.9115 80.1719 49.4258 81.5409 51.7616C81.5409 51.7616 86.3158 58.5332 82.9152 67.6651L80.0111 71.0972C80.0111 71.0972 78.6963 77.0733 71.9614 79.0315C73.7431 75.6693 72.3268 73.0799 72.3059 73.045C69.6658 68.3802 64.5517 69.2299 63.2264 69.5412C60.0181 64.4708 55.224 66.6528 55.189 66.6703C55.189 66.6703 55.4687 64.1159 53.549 62.2328C53.549 62.2328 54.5631 63.6141 54.2431 65.6282C54.2431 65.6282 54.2938 70.3786 42.0392 74.358L39.4219 71.1409L44.9643 66.2C45.7371 66.7577 47.0624 66.9081 47.0624 66.9081C45.8175 66.2209 45.4766 65.5583 45.4766 65.5583C45.9644 60.724 47.0921 58.0157 48.073 56.5208C48.073 56.5208 47.7198 55.498 49.421 54.5521C51.0348 53.6534 54.2396 55.8057 58.754 53.6971C62.6564 51.8753 63.688 40.425 71.7936 44.4655L71.7971 44.469Z" fill="white"/>
</mask>
<g mask="url(#mask1_1632_41231)">
<path d="M86.718 57.0173C85.8053 55.7602 79.5006 47.0776 79.4796 47.0619C79.4586 47.0444 72.3548 41.4757 72.187 43.4986C71.9824 45.9709 68.6797 48.5602 68.6797 48.5602C68.6797 48.5602 70.9037 49.5603 75.8184 52.4872C78.2225 53.9191 82.6355 60.0647 84.5709 59.5157L86.718 57.0173Z" fill="#272B63"/>
<path d="M53.6858 62.3709C53.6858 62.3709 54.1421 65.1211 51.3674 67.3591C51.3674 67.3591 49.0752 69.3575 44.7969 70.9433L44.97 73.9943C44.97 73.9943 51.4338 70.5027 51.5964 70.3926C51.759 70.2824 54.3729 67.1475 54.3921 67.0566C54.4096 66.9657 55.06 63.5266 53.6858 62.3691V62.3709Z" fill="#272B63"/>
<path d="M43.8331 66.6458L42.1406 68.0794C42.1406 68.0794 43.5848 71.2738 42.7456 74.816L46.0238 73.2128C46.0238 73.2128 47.3194 69.0393 43.8348 66.6458H43.8331Z" fill="white"/>
<path d="M72.4292 56.3494C72.4292 56.3494 73.3034 62.1541 65.9531 64.9568C65.9531 64.9568 69.7961 63.864 68.5198 66.7559C67.8187 68.3434 72.5359 66.2803 72.9258 66.9657C73.1198 67.3066 70.2192 68.1074 70.4413 69.2019C70.6389 70.1722 73.0132 68.8714 72.9905 70.2439C72.9817 70.7912 68.8677 75.073 71.8697 79.5385C71.8697 79.5385 74.3699 78.5873 75.2459 78.2062C75.2459 78.2062 77.4139 79.9476 78.1185 76.2497L76.8964 67.2454C76.8964 67.2454 76.6743 57.7516 72.431 56.3511L72.4292 56.3494Z" fill="#272B63"/>
<path d="M54.424 65.8117L54.7579 64.2224C54.7579 64.2224 56.1549 66.2838 59.003 65.6526C59.003 65.6526 58.6184 65.8974 58.6883 66.3904L55.0481 67.1283L54.375 66.5967L54.424 65.8135V65.8117Z" fill="#272B63"/>
</g>
<mask id="mask2_1632_41231" style="mask-type:luminance" maskUnits="userSpaceOnUse" x="58" y="70" width="14" height="16">
<path d="M71.4426 73.5014C68.8252 68.8786 63.4471 70.3385 63.0432 70.4556C62.3019 70.7319 58.882 72.246 58.0078 76.8443C61.1147 79.1435 62.3369 82.1892 62.2302 85.345C67.0156 83.5827 68.3881 80.1663 68.4965 79.7064C68.4982 79.6925 68.8672 77.6049 67.9143 76.3915C67.9143 76.3915 69.2308 77.1957 69.2763 79.5753C69.7728 79.5176 70.2484 79.4424 70.7012 79.3498C72.8483 76.0663 71.4618 73.5346 71.4426 73.5014Z" fill="white"/>
</mask>
<g mask="url(#mask2_1632_41231)">
<path d="M67.4844 70.0483C67.4844 70.0483 72.2977 73.045 68.9128 78.1469L68.9268 79.967L71.3064 79.6208C71.3064 79.6208 75.5061 72.7478 67.4844 70.0465V70.0483Z" fill="#272B63"/>
<path d="M67.934 76.4195C67.934 76.4195 67.163 81.4217 61.8828 82.9882L62.0367 85.6948C62.0367 85.6948 67.3221 83.1298 68.205 81.2363C68.205 81.2363 69.7611 78.1469 67.934 76.4177V76.4195Z" fill="#272B63"/>
<path d="M59.5667 73.1604C59.5667 73.1604 58.2275 75.0032 57.8516 76.7953C57.8516 76.7953 60.2242 77.8898 62.2261 85.345C62.2261 85.345 66.3785 83.9988 67.793 81.1244C67.793 81.1244 68.2004 74.8529 59.5667 73.1622V73.1604Z" fill="white"/>
</g>
<path d="M66.9073 52.8859C67.285 53.0537 61.1394 55.7515 60.5379 63.9061C60.5379 63.9061 56.1109 56.2638 50.0859 56.2079C51.0266 56.0418 55.3521 52.2792 58.8052 51.6375C62.6937 50.9154 65.7534 53.2968 66.9073 52.8876V52.8859Z" fill="#272B63"/>
<path d="M65.033 50.1549C65.3932 50.2843 59.8945 53.1779 59.8717 60.745C59.8717 60.745 55.2857 53.9786 49.7188 54.3178C50.5755 54.1028 54.324 50.3472 57.4712 49.529C61.0134 48.6093 63.9945 50.6077 65.033 50.1549Z" fill="white"/>
<path d="M39.0157 77.311L38.0978 78.0891C37.6467 78.4702 37.0557 78.6241 36.477 78.5122C36.0487 78.4283 35.657 78.1992 35.3755 77.8653C35.2007 77.6607 35.0748 77.4247 34.9996 77.1747C34.7688 77.2026 34.5328 77.1974 34.2985 77.1519C33.809 77.0558 33.3614 76.7935 33.0379 76.4124C32.7319 76.0504 32.5623 75.6186 32.5256 75.178C32.4697 75.171 32.4137 75.1657 32.3578 75.1553C31.8245 75.0504 31.3367 74.7654 30.9853 74.3492C30.5692 73.8579 30.3698 73.2355 30.4223 72.5938C30.4748 71.9522 30.7737 71.37 31.265 70.9538L32.5641 69.8523C33.1148 69.3855 33.8352 69.1932 34.545 69.3208C34.3632 68.8418 34.309 68.3872 34.3894 67.9658C34.5293 67.235 35.0119 66.8905 35.1063 66.8294C35.1185 66.8224 35.129 66.8154 35.1412 66.8084C35.6518 66.5129 36.2742 66.4342 36.9893 66.5741C37.8425 66.7419 38.652 67.1948 39.0384 67.4361C39.1416 67.0357 39.3217 66.7052 39.486 66.4989C39.9231 65.9149 40.5613 65.6387 41.2869 65.7191C41.8429 65.7803 42.2677 66.0321 42.3464 66.081C42.3691 66.095 42.3919 66.1108 42.4146 66.1282C44.6753 67.9046 43.9952 73.3317 43.364 74.7304C43.0738 75.3756 41.8883 75.6815 41.8883 75.6815C41.8883 75.6815 40.0945 75.9962 39.0192 77.311H39.0157Z" fill="#272B63"/>
<path d="M52.4148 79.5053C50.3027 79.7011 48.6785 81.3603 47.6626 82.7538L47.3986 83.1297C46.9406 83.8028 46.6433 84.3693 46.5209 84.5983C46.4842 84.6683 46.4965 84.754 46.5524 84.8099L48.0805 86.3205C48.1312 86.3712 48.2134 86.3503 48.2396 86.2821C48.5036 85.6019 48.8236 84.9358 49.168 84.3011C48.9705 84.0738 48.5561 83.7067 47.9127 83.6665C47.9127 83.6665 48.4914 83.4112 49.516 83.6822C50.6961 81.661 52.0406 80.0647 52.4743 79.6084C52.5162 79.5647 52.476 79.4965 52.4166 79.5018L52.4148 79.5053Z" fill="#272B63"/>
<path d="M57.9544 85.9395C57.5051 84.7436 56.2043 84.511 56.2043 84.511C57.1519 84.3782 57.7534 84.7541 58.0226 84.9814C57.9772 83.1927 56.9981 81.8272 56.6047 81.3517C56.5207 81.2503 56.3669 81.245 56.2795 81.3429C55.2287 82.4986 54.1989 84.275 53.3491 85.9168C55.101 86.1982 55.6938 87.9659 55.6938 87.9659C54.9367 87.041 53.6429 86.6476 52.8823 86.8364C52.4435 87.7176 52.1148 88.4397 51.9592 88.7859C51.9032 88.91 51.9592 89.0516 52.0868 89.1023C52.7092 89.3541 54.4629 90.05 55.456 90.3017C56.0417 90.4504 56.6519 90.1654 56.8932 89.6129C57.568 88.0655 57.9335 86.0863 57.9335 86.0863C57.9439 86.0374 57.9474 85.9902 57.9562 85.9412L57.9544 85.9395Z" fill="#272B63"/>
<path d="M41.4803 79.792C41.0414 79.7064 40.7897 79.4196 40.6393 79.25L22.6762 58.7919C22.3143 58.3793 22.1517 57.8356 22.2304 57.3023C22.358 56.4368 22.5538 55.5364 22.8108 54.6255C23.8476 50.9591 25.638 47.9833 26.3601 46.8731C26.6468 46.4325 27.1102 46.1317 27.6294 46.0496C28.3743 45.9307 29.1436 45.9464 29.9111 46.0968C31.4235 46.3923 32.6753 47.1598 33.4586 47.7508C33.9027 48.0847 34.172 48.5952 34.2017 49.1477C34.2297 49.6932 34.0181 50.2195 33.6177 50.5919C30.5318 53.468 29.2799 56.5348 28.8848 57.7184C28.8551 57.8058 28.8708 57.9003 28.925 57.9772L43.1116 77.7184C43.1325 77.7481 43.1518 77.7779 43.1675 77.8093C43.3896 78.229 43.3511 78.7185 43.0626 79.1171C42.7164 79.5962 42.0485 79.8899 41.51 79.799C41.503 79.799 41.4838 79.7938 41.4768 79.7938L41.4803 79.792Z" fill="#272B63"/>
<path d="M32.9891 48.3784C31.8911 47.5497 29.9731 46.4709 27.7561 46.8258C27.4554 46.8748 27.1879 47.0461 27.0218 47.3032C26.3644 48.3137 24.5863 51.2441 23.5704 54.8405C23.3362 55.6693 23.1421 56.533 23.011 57.4177C22.9655 57.7271 23.0634 58.0401 23.2697 58.2744L41.2328 78.7325C41.3552 78.8706 41.4636 78.9947 41.6454 79.0245C42.0144 79.0874 42.7277 78.6503 42.4777 78.1782L28.2911 58.437C28.0901 58.1573 28.0341 57.7988 28.1425 57.4719C28.5586 56.227 29.8682 53.0169 33.087 50.0184C33.5748 49.5638 33.5206 48.7806 32.9891 48.3802V48.3784Z" fill="#95969B"/>
<mask id="mask3_1632_41231" style="mask-type:luminance" maskUnits="userSpaceOnUse" x="23" y="46" width="20" height="34">
<path d="M32.9891 48.3784C31.8911 47.5497 29.9731 46.4709 27.7561 46.8258C27.4554 46.8748 27.1879 47.0461 27.0218 47.3032C26.3644 48.3137 24.5863 51.2441 23.5704 54.8405C23.3362 55.6693 23.1421 56.533 23.011 57.4177C22.9655 57.7271 23.0634 58.0401 23.2697 58.2744L41.2328 78.7325C41.3552 78.8706 41.4636 78.9947 41.6454 79.0245C42.0144 79.0874 42.7277 78.6503 42.4777 78.1782L28.2911 58.437C28.0901 58.1573 28.0341 57.7988 28.1425 57.4719C28.5586 56.227 29.8682 53.0169 33.087 50.0184C33.5748 49.5638 33.5206 48.7806 32.9891 48.3802V48.3784Z" fill="white"/>
</mask>
<g mask="url(#mask3_1632_41231)">
<path d="M29.6045 45.5774C29.6045 45.5774 24.3453 51.9329 23.9677 57.2043C23.9537 57.4001 24.0271 57.5907 24.153 57.7411L42.6843 79.7255H41.2646L22.6406 58.0628C22.6406 58.0628 24.7667 47.9832 27.6341 46.0495L29.6045 45.5757V45.5774Z" fill="#CFCECE"/>
</g>
<path d="M25.3172 55.3983C27.0219 56.3407 28.3349 55.9595 28.842 55.741C28.9486 55.5207 29.0623 55.3039 29.1777 55.0906C28.0674 55.1815 26.1389 53.8265 26.1389 53.8265C27.9241 54.8143 29.2861 54.3475 29.7337 54.1377C29.8648 53.9279 29.9942 53.7268 30.1236 53.5345C28.9976 53.4855 27.2614 52.2652 27.2614 52.2652C28.9504 53.2005 30.2582 52.8316 30.774 52.6131C31.3474 51.8403 31.7775 51.356 31.7775 51.356C27.7685 51.6113 26.1389 48.7614 26.1389 48.7614C25.9396 49.1163 25.7543 49.4625 25.5812 49.8034C25.847 50.3279 26.6023 51.4119 28.4346 51.8071C28.4346 51.8071 25.7823 51.5273 25.1878 50.6007C25.0514 50.8874 24.9273 51.1637 24.8102 51.4312C25.1091 51.9784 25.8749 52.9785 27.6198 53.3544C27.6198 53.3544 25.1913 53.0991 24.457 52.2669C24.3573 52.5117 24.2681 52.7442 24.1877 52.9628C24.4412 53.4768 25.1896 54.5905 27.0534 54.9927C27.0534 54.9927 24.5654 54.7322 23.8643 53.8772C23.6387 54.5521 23.5391 54.949 23.5391 54.949C24.7927 57.0505 28.3647 56.8617 28.3647 56.8617C28.3891 56.7935 28.4189 56.7271 28.4451 56.6606C27.3506 56.8302 25.3224 55.4018 25.3224 55.4018L25.3172 55.3983Z" fill="white"/>
<path d="M65.7543 88.2421L63.1474 89.0446C61.663 89.48 60.4146 89.8541 60.4251 89.8261C63.8572 80.7851 56.6678 77.1904 56.6678 77.1904C56.0244 76.8757 55.3775 76.6729 54.7516 76.5505C52.1412 76.04 49.8805 76.9352 49.613 77.0471C49.5955 77.054 49.578 77.0628 49.5605 77.0698C46.8313 78.3758 44.9605 80.8323 43.838 82.7573C42.9131 84.3414 43.1771 86.3643 44.4779 87.6581C48.3699 91.5326 52.2811 92.9838 54.9666 93.51C55.0698 93.531 55.1712 93.5485 55.2708 93.566C55.9038 93.6779 56.5332 93.6394 57.1241 93.4786C57.2325 93.4576 60.2992 92.6446 66.0113 90.8227C81.8763 95.2917 82.4008 75.8861 82.4008 75.8861L77.9966 76.9317L76.4632 77.8443C75.4422 78.7902 73.8249 79.4494 72.3842 79.8847C68.522 81.0299 67.125 84.7593 65.756 88.2421H65.7543ZM46.0427 86.088C45.4535 85.5023 45.3346 84.5932 45.7543 83.8763C46.6827 82.2835 48.258 80.1645 50.4942 79.0839C50.7232 78.993 52.3999 78.3636 54.2917 78.722C53.0556 80.0998 50.5956 83.2469 48.6251 88.2945C47.7772 87.6791 46.9117 86.9518 46.0445 86.088H46.0427ZM57.834 90.258C57.4476 91.078 56.5524 91.5413 55.6572 91.384C55.5716 91.3682 55.4824 91.3525 55.3932 91.335C54.0819 91.078 52.3912 90.557 50.5309 89.5167C52.7566 83.6158 55.7516 80.369 56.4283 79.6871C56.9336 80.0823 57.6014 80.7117 58.1452 81.5929C59.5649 83.8956 59.46 86.8101 57.8322 90.2597L57.834 90.258Z" fill="#CFCECE"/>
<path d="M42.4118 66.1266C42.3908 66.1091 42.3681 66.0933 42.3454 66.0794C42.2824 66.0391 41.9433 65.8381 41.4817 65.7472C40.6861 65.5916 39.9588 65.8643 39.485 66.4972C39.3067 66.7245 39.1056 67.0969 39.0094 67.548C38.8136 67.4046 37.8502 66.7298 36.7977 66.5235C36.1648 66.3993 35.6053 66.4658 35.1367 66.7175C35.1245 66.7245 35.114 66.7298 35.1017 66.7368C35.0091 66.7927 34.537 67.1092 34.3832 67.805C34.273 68.3068 34.3604 68.8611 34.6402 69.4573C34.5772 69.4398 34.5143 69.4241 34.4496 69.4118C33.7432 69.2737 33.0246 69.4608 32.4756 69.9258L31.222 70.9889C30.743 71.3945 30.451 71.9645 30.3985 72.5904C30.3478 73.2163 30.5419 73.8248 30.9493 74.3039C31.2937 74.7095 31.7693 74.9892 32.2903 75.0906C32.3707 75.1064 32.4529 75.1169 32.5333 75.1239C32.5701 75.6012 32.7484 76.0435 33.0544 76.4037C33.3831 76.7918 33.8376 77.0593 34.3359 77.1555C34.5615 77.1992 34.7888 77.2062 35.0108 77.1817C35.0878 77.4352 35.2101 77.6643 35.378 77.8619C35.6595 78.194 36.0511 78.4248 36.4795 78.5088C37.06 78.6224 37.6509 78.4685 38.1003 78.0856L39.0182 77.3076C39.8312 76.6187 39.9308 75.3983 39.242 74.5853C39.0059 74.3056 38.693 74.101 38.338 73.9909C38.3118 73.9821 38.2838 73.9752 38.2576 73.9699C38.2349 73.9647 38.2122 73.9647 38.1894 73.9629C38.1929 73.4454 38.0181 72.9488 37.6911 72.545C37.789 72.5764 37.8887 72.6062 37.9866 72.6271C39.0007 72.8264 39.7385 72.2914 40.0235 71.9365C40.0707 71.8788 40.1966 71.7145 40.3225 71.4662C40.4484 71.9208 40.4833 72.2302 40.4833 72.2302C40.4833 72.2302 40.6232 73.8195 40.6389 74.0031C40.6792 75.0697 41.2561 75.561 41.7859 75.6659C42.4206 75.79 43.0552 75.4141 43.363 74.7305C43.9941 73.3317 44.6743 67.9029 42.4136 66.1283L42.4118 66.1266ZM36.3466 71.7599C36.3466 71.7459 36.3466 71.7319 36.3466 71.718C36.3641 71.7337 36.3798 71.7494 36.3973 71.7652C36.3798 71.7634 36.3623 71.7599 36.3449 71.7599H36.3466Z" fill="#272B63"/>
<path d="M33.7593 73.9786L35.013 72.9155C35.6721 72.3561 35.7543 71.3682 35.1948 70.7073C34.6353 70.0482 33.6474 69.966 32.9866 70.5255L31.7329 71.5885C31.0738 72.148 30.9916 73.1358 31.5511 73.7967C32.1106 74.4576 33.0985 74.5381 33.7593 73.9786Z" fill="#272B63"/>
<path d="M37.0558 73.0118C36.8513 72.7705 36.5838 72.6149 36.2988 72.5432C36.1746 72.781 36.005 72.9995 35.7882 73.1831L34.0748 74.6361C33.844 74.8319 33.5853 74.9682 33.3125 75.0504C33.3317 75.3511 33.4419 75.6501 33.6517 75.8984C34.1745 76.5156 35.0976 76.5908 35.7148 76.068L36.8862 75.0749C37.5034 74.5521 37.5786 73.629 37.0558 73.0118Z" fill="#272B63"/>
<path d="M38.6375 75.0958C38.4907 74.9227 38.3036 74.8073 38.1008 74.7444C37.9854 74.9804 37.8228 75.1955 37.6112 75.3756L36.0534 76.6956C35.9555 76.7795 35.8506 76.8495 35.7422 76.9107C35.7841 77.0698 35.8576 77.2219 35.9712 77.3548C36.3804 77.8373 37.1042 77.8968 37.5868 77.4876L38.5047 76.7096C38.9872 76.3005 39.0467 75.5766 38.6375 75.0941V75.0958Z" fill="#272B63"/>
<path d="M41.9276 66.7454C41.9276 66.7454 40.8017 66.0373 40.1075 66.978C40.1075 66.978 39.2893 67.9955 40.0761 69.1023C40.6198 69.8663 40.9643 71.1759 41.1688 72.2424C41.3507 73.1953 41.4224 73.9558 41.4224 73.9611C41.4573 75.122 42.3158 75.1395 42.6462 74.4087C43.2459 73.0764 43.7512 68.1791 41.9276 66.7472V66.7454Z" fill="#272B63"/>
<path d="M39.4142 71.4434C39.4142 71.4434 40.8182 69.7911 38.5662 68.1966C38.5662 68.1966 36.6779 66.7804 35.5117 67.4098C35.5117 67.4098 34.5396 67.999 35.6778 69.695C38.0364 73.2093 39.4142 71.4434 39.4142 71.4434Z" fill="#272B63"/>
<path d="M75.7941 67.8295C76.6141 61.9514 75.5983 60.5177 75.037 59.3585C73.8079 56.8216 70.2656 55.8757 70.2656 55.8757C72.4494 55.776 75.1944 58.0192 75.1944 58.0192C75.9147 57.1747 76.7592 56.8583 76.7592 56.8583C75.829 57.9685 75.8046 58.5944 75.8046 58.5944C78.1474 61.8552 77.5198 68.1704 77.5198 68.1704L75.7941 67.8313V67.8295Z" fill="#272B63"/>
<path d="M47.5023 99.1941C46.9987 99.0962 46.5319 98.8339 46.1735 98.43C45.551 97.7307 45.3902 96.7586 45.7556 95.8966L46.7365 93.5782C46.9148 93.1551 47.4026 92.9575 47.8257 93.1359C48.2488 93.3142 48.4464 93.802 48.268 94.2251L47.2872 96.5435C47.1176 96.9439 47.3431 97.2411 47.4148 97.3233C47.4883 97.4055 47.7575 97.6642 48.1754 97.5419L78.6378 88.6565C79.0784 88.5288 79.54 88.7806 79.6694 89.2212C79.797 89.6618 79.5453 90.1234 79.1047 90.2528L48.6422 99.1382C48.2611 99.2483 47.8729 99.264 47.5023 99.1924V99.1941Z" fill="#95969B"/>
<mask id="mask4_1632_41231" style="mask-type:luminance" maskUnits="userSpaceOnUse" x="43" y="75" width="40" height="19">
<path d="M65.7543 88.2421L63.1474 89.0446C61.663 89.48 60.4146 89.8541 60.4251 89.8261C63.8572 80.7851 56.6678 77.1904 56.6678 77.1904C56.0244 76.8757 55.3775 76.6729 54.7516 76.5505C52.1412 76.04 49.8805 76.9352 49.613 77.0471C49.5955 77.054 49.578 77.0628 49.5605 77.0698C46.8313 78.3758 44.9605 80.8323 43.838 82.7573C42.9131 84.3414 43.1771 86.3643 44.4779 87.6581C48.3699 91.5326 52.2811 92.9838 54.9666 93.51C55.0698 93.531 55.1712 93.5485 55.2708 93.566C55.9038 93.6779 56.5332 93.6394 57.1241 93.4786C57.2325 93.4576 60.2992 92.6446 66.0113 90.8227C81.8763 95.2917 82.4008 75.8861 82.4008 75.8861L77.9966 76.9317L76.4632 77.8443C75.4422 78.7902 73.8249 79.4494 72.3842 79.8847C68.522 81.0299 67.125 84.7593 65.756 88.2421H65.7543ZM46.0427 86.088C45.4535 85.5023 45.3346 84.5932 45.7543 83.8763C46.6827 82.2835 48.258 80.1645 50.4942 79.0839C50.7232 78.993 52.3999 78.3636 54.2917 78.722C53.0556 80.0998 50.5956 83.2469 48.6251 88.2945C47.7772 87.6791 46.9117 86.9518 46.0445 86.088H46.0427ZM57.834 90.258C57.4476 91.078 56.5524 91.5413 55.6572 91.384C55.5716 91.3682 55.4824 91.3525 55.3932 91.335C54.0819 91.078 52.3912 90.557 50.5309 89.5167C52.7566 83.6158 55.7516 80.369 56.4283 79.6871C56.9336 80.0823 57.6014 80.7117 58.1452 81.5929C59.5649 83.8956 59.46 86.8101 57.8322 90.2597L57.834 90.258Z" fill="white"/>
</mask>
<g mask="url(#mask4_1632_41231)">
<path d="M83.2624 74.7322C83.2624 74.7322 83.8865 93.3527 67.5547 91.6655C67.5547 91.6655 80.9684 91.2564 78.0556 75.7183L83.2624 74.7305V74.7322Z" fill="#95969B"/>
</g>
<path d="M76.0108 73.5956C75.822 72.4085 76.9392 71.5535 76.9322 71.1059C76.9252 70.5691 76.406 70.3908 75.8797 70.494C74.7677 70.7125 74.21 72.648 74.21 72.648C73.9599 73.5956 74.0124 74.9856 74.0124 74.9856C74.3726 75.8388 76.0021 76.0294 76.0021 76.0294C76.5808 75.3982 76.2276 74.9594 76.0108 73.5939V73.5956Z" fill="#272B63"/>
<path d="M92.8915 85.8258C92.1274 85.7524 91.519 85.1212 91.4438 84.3222C91.1361 81.0737 89.9542 78.7937 89.4594 77.9633C89.4471 77.9423 89.4349 77.9335 89.4314 77.9318L72.3233 76.1082L72.2673 76.0942C71.8687 75.9911 71.5644 75.6763 71.4526 75.2532C71.3407 74.8266 71.4228 74.2077 71.7952 73.8493C72.1187 73.5398 72.4946 73.5398 72.6764 73.5398L91.7393 73.5293C91.7865 73.5293 91.8337 73.531 91.8809 73.5363C92.2883 73.5748 92.6625 73.7741 92.9317 74.0975C93.3671 74.6203 93.7937 75.1973 94.1958 75.8145C95.8218 78.3042 96.7362 80.8761 97.0544 81.8657C97.1891 82.2853 97.1576 82.7469 96.9653 83.1298C96.2974 84.4638 95.0175 85.4115 93.3601 85.7979C93.2044 85.8346 93.0471 85.8451 92.888 85.8293L92.8915 85.8258Z" fill="#272B63"/>
<path d="M93.1829 85.0286C94.1113 84.8118 95.5275 84.2471 96.2636 82.7732C96.3633 82.5721 96.3807 82.3291 96.3073 82.1018C96.0188 81.2031 95.1254 78.6696 93.5378 76.2411C93.1724 75.6816 92.7685 75.1274 92.3279 74.5994C92.1741 74.4158 91.9573 74.3126 91.7387 74.3126L72.6759 74.3231C72.5465 74.3231 72.4311 74.3231 72.3367 74.414C72.1461 74.5959 72.0902 75.2358 72.4608 75.3302L89.527 77.152C89.77 77.1783 89.9938 77.3286 90.1319 77.5594C90.6547 78.4371 91.9013 80.8394 92.223 84.2471C92.272 84.7628 92.7336 85.1318 93.1829 85.0286Z" fill="#95969B"/>
<mask id="mask5_1632_41231" style="mask-type:luminance" maskUnits="userSpaceOnUse" x="72" y="74" width="25" height="12">
<path d="M93.1829 85.0286C94.1113 84.8118 95.5275 84.2471 96.2636 82.7732C96.3633 82.5721 96.3807 82.3291 96.3073 82.1018C96.0188 81.2031 95.1254 78.6696 93.5378 76.2411C93.1724 75.6816 92.7685 75.1274 92.3279 74.5994C92.1741 74.4158 91.9573 74.3126 91.7387 74.3126L72.6759 74.3231C72.5465 74.3231 72.4311 74.3231 72.3367 74.414C72.1461 74.5959 72.0902 75.2358 72.4608 75.3302L89.527 77.152C89.77 77.1783 89.9938 77.3286 90.1319 77.5594C90.6547 78.4371 91.9013 80.8394 92.223 84.2471C92.272 84.7628 92.7336 85.1318 93.1829 85.0286Z" fill="white"/>
</mask>
<g mask="url(#mask5_1632_41231)">
<path d="M71.9766 74.8162L90.7562 74.9246C91.2405 74.9281 91.6968 75.1519 91.9905 75.5366C92.9172 76.7482 94.8912 79.6943 95.6605 83.6544L96.3196 83.4901L96.8144 82.3728C96.8144 82.3728 94.0344 75.096 92.3997 74.1466L72.2948 74.1099L71.9766 74.8162Z" fill="#CFCECE"/>
</g>
<path d="M93.3907 76.0121C93.3907 76.0121 92.2018 77.6906 90.5391 78.299L90.8171 78.8795L93.3295 78.2063L91.0583 79.4407C91.0583 79.4407 91.415 80.3481 91.5689 80.8866L93.0375 81.002L91.8014 81.7381L92.0742 83.0634C92.0742 83.0634 94.5097 82.371 95.8927 80.9146L95.3821 79.6715L92.2945 79.981L94.9311 78.6994L94.1233 77.1818L93.0463 77.3356L93.6757 76.4457L93.3924 76.0138L93.3907 76.0121Z" fill="white"/>
<path d="M82.5393 75.0486C82.0463 75.0067 81.6232 75.3808 81.5934 75.8739C81.5602 76.4491 81.4221 77.2376 80.9955 78.0576C80.9098 78.2237 80.9011 78.43 81.0095 78.5822C81.1074 78.722 81.3015 78.8252 81.6791 78.7185C82.0043 78.6276 82.2876 78.4265 82.5026 78.1678C82.882 77.7097 83.4642 76.8215 83.3296 75.7934C83.2772 75.3913 82.9432 75.0836 82.5393 75.0486Z" fill="#272B63"/>
<path d="M81.4687 75.4106C81.4075 74.8773 80.9634 74.4699 80.4301 74.4087H80.4231C79.7605 74.3318 79.1625 74.8144 79.1048 75.4788C79.0961 75.5767 79.0856 75.6798 79.0716 75.7847C79.0821 75.5889 79.0786 75.3861 79.0541 75.1815C78.9929 74.6483 78.5856 74.2304 78.075 74.101C79.4388 74.1832 81.2869 74.4053 82.6331 74.9945C83.1279 75.2095 83.6996 74.9105 83.7801 74.3773C83.9147 73.4838 83.7713 72.267 82.266 71.6498C82.266 71.6498 76.7025 69.0621 76.2497 73.1429C76.1955 73.6255 76.5697 74.0503 77.0557 74.0591C77.2043 74.0626 77.3722 74.0678 77.5505 74.0748C76.9595 74.1587 76.4752 74.6325 76.4228 75.2567C76.3476 76.1309 76.1046 77.3286 75.4175 78.563C75.2793 78.8112 75.2566 79.1224 75.414 79.3602C75.5556 79.5735 75.8388 79.7379 76.4053 79.6015C76.9106 79.4809 77.3547 79.1871 77.6991 78.7972C78.0593 78.3864 78.5401 77.7377 78.8268 76.9439C78.687 77.4212 78.4877 77.9318 78.1992 78.4511C78.075 78.6749 78.0558 78.9546 78.1957 79.1679C78.3268 79.3672 78.5961 79.5176 79.1398 79.3725C79.5752 79.2553 79.9563 78.9966 80.2535 78.6574C80.7938 78.0402 81.6295 76.8355 81.4652 75.4141L81.4687 75.4106Z" fill="#272B63"/>
<path d="M78.7336 69.5551C78.7336 69.5551 78.3262 70.3174 77.8996 70.3716C76.1005 70.5937 75.4378 67.7071 75.1476 66.6178C75.0654 66.3083 75.1511 65.9691 75.3889 65.7523C76.5708 64.6718 77.8401 64.9114 78.3926 65.0949C78.5815 65.1579 78.786 65.1561 78.9731 65.0844C80.961 64.3221 82.2706 65.2121 82.7601 65.6544C82.9088 65.7891 83.1028 65.8625 83.3039 65.873C84.832 65.9464 85.4125 67.1983 85.5751 67.6651C85.6118 67.77 85.6188 67.8854 85.5908 67.9938C85.0261 70.1933 83.9193 71.3193 83.1535 71.5623C83.1535 71.5623 81.7793 71.9732 81.5258 70.1985C81.5258 70.1985 80.6184 70.9171 79.8805 70.7668C79.8805 70.7668 78.8332 70.6199 78.7318 69.5586" fill="#272B63"/>
<path d="M84.738 66.7332L85.3849 68.0095C85.3849 68.0095 83.9547 72.3648 81.8828 71.1706C81.8828 71.1706 83.9512 71.1112 84.738 66.7314V66.7332Z" fill="#E72061"/>
<path d="M81.5658 65.303L82.3806 65.6037C82.3806 65.6037 82.4942 69.0306 80.8245 70.3978L80.1094 70.4887C80.1094 70.4887 81.8001 68.4711 81.5658 65.303Z" fill="#E72061"/>
<path d="M77.1016 65.2225L78.2975 65.2453C78.2975 65.2453 79.0318 68.1319 78.1786 70.1653L77.5911 70.1793C77.5911 70.1793 78.6541 67.0933 77.1033 65.2243L77.1016 65.2225Z" fill="#E72061"/>
<path d="M81.5952 71.5081C81.5952 71.5081 83.9696 72.5431 83.7353 73.7862C83.7353 73.7862 84.0447 75.629 81.5078 74.4803C81.5078 74.4803 82.9363 73.5397 81.5952 71.5081Z" fill="white"/>
<path d="M82.5499 75.2811C82.5499 75.2811 83.0307 75.6221 83.0202 76.0347C83.0098 76.4473 82.4013 78.6573 81.375 78.5367C81.375 78.5367 82.9346 77.0155 82.5517 75.2811H82.5499Z" fill="white"/>
<path d="M80.5457 74.6972L81.2468 75.178C81.2468 75.178 81.2573 78.0034 80.0072 78.5716C80.0072 78.5716 79.3236 79.3112 78.7344 79.0804C78.7344 79.0804 80.3936 78.7605 80.5457 74.6954V74.6972Z" fill="white"/>
<path d="M77.8806 74.2898C77.8806 74.2898 78.6324 74.358 78.8003 75.0871C78.8003 75.0871 78.809 78.2045 77.2687 78.9003C77.2687 78.9003 76.5938 79.3235 76.0938 79.3147C76.0938 79.3147 77.9488 78.6276 77.8806 74.2898Z" fill="white"/>
<path d="M75.8086 76.4228C75.6635 77.0138 75.4327 77.6782 75.0551 78.3583C74.8295 78.7639 74.8348 79.2342 75.0691 79.5874C75.1757 79.7483 75.3838 79.9651 75.7579 80.0385C75.9573 80.077 76.202 80.0752 76.5045 80.0035C76.9783 79.8899 77.4189 79.6451 77.7948 79.2919C77.8123 79.3269 77.8298 79.3619 77.8525 79.3933C77.9539 79.5455 78.1498 79.7483 78.4977 79.8165C78.6953 79.8549 78.9435 79.8514 79.2495 79.7675C79.7461 79.6346 80.2024 79.3426 80.5696 78.9248C80.5993 78.8898 80.6325 78.8531 80.664 78.8129C80.664 78.8146 80.6657 78.8164 80.6675 78.8199C80.7531 78.9405 80.9157 79.1031 81.192 79.1573C81.3511 79.1888 81.5469 79.1835 81.7882 79.1154C82.1833 79.0052 82.54 78.7674 82.8197 78.4282C83.2306 77.9334 83.895 76.9246 83.7377 75.7339C83.7167 75.5801 83.6677 75.435 83.596 75.3021C83.9195 75.115 84.1345 74.7985 84.1905 74.4296C84.3514 73.3614 84.0716 72.4819 83.4055 71.8647C84.2517 71.4906 85.3567 70.3191 85.9319 68.0759C85.9791 67.8906 85.9704 67.6948 85.9057 67.5077C85.7431 67.0444 85.0734 65.5267 83.2621 65.4376C83.1519 65.4323 83.0505 65.3921 82.9771 65.3257C82.4473 64.8484 80.9752 63.8273 78.7634 64.677C78.6708 64.712 78.5624 64.7137 78.4627 64.6805C77.8857 64.4899 76.4066 64.1822 75.0463 65.4253C74.6984 65.7436 74.5585 66.2349 74.6844 66.7052L74.7299 66.8748C74.9397 67.672 75.3278 69.1529 76.1286 70.0446C76.022 70.0464 75.9135 70.0586 75.8017 70.0796C74.4799 70.3401 73.8767 72.3036 73.8102 72.5361C73.7245 72.8578 73.6738 73.2215 73.6406 73.5694L74.0865 73.8876L76.0307 74.1866L76.6426 74.2373C76.6426 74.2373 75.9083 74.5573 75.8086 76.4176V76.4228ZM83.1729 74.594C83.0575 74.6569 82.9229 74.6639 82.8005 74.6115C81.4088 74.003 79.5275 73.7722 78.113 73.6848C78.0571 73.6726 78.0046 73.6586 77.9469 73.6516L77.9434 73.6743C77.9434 73.6743 77.9382 73.6743 77.9347 73.6743V73.6498C77.7931 73.6324 77.6497 73.6358 77.5081 73.6551C77.3507 73.6498 77.2004 73.6446 77.064 73.6411C76.9451 73.6376 76.8402 73.5886 76.7615 73.4995C76.6846 73.4121 76.6496 73.3002 76.6619 73.1848C76.751 72.3822 77.0535 71.8455 77.5868 71.5448C78.2582 71.1671 79.1866 71.2038 80.0275 71.3682C81.129 71.5832 82.0802 72.0186 82.1064 72.0308C83.1082 72.4417 83.5331 73.2075 83.367 74.3107C83.3425 74.4751 83.2324 74.5573 83.1694 74.5922L83.1729 74.594ZM83.1205 66.2611C83.1554 66.2663 83.1887 66.2733 83.2236 66.2751C84.4825 66.3345 84.9703 67.3538 85.1224 67.7874C85.1329 67.8189 85.1346 67.8486 85.1294 67.8749C84.5559 70.1058 83.4667 70.9923 82.9806 71.1461C82.9771 71.1461 82.6222 71.2423 82.3337 71.0535C82.1204 70.9136 81.9753 70.6426 81.9018 70.2474C82.7498 68.5847 83.1519 67.2699 83.1222 66.2593L83.1205 66.2611ZM82.2148 65.782C82.4683 66.6352 82.1099 68.02 81.1413 69.9065C80.893 70.0848 80.3143 70.424 79.8859 70.3384H79.8807C79.8492 70.3314 79.1568 70.2282 79.0869 69.5009V69.4781C79.4348 67.6948 79.4418 66.3625 79.1009 65.4446C80.6255 64.8763 81.6885 65.3904 82.2148 65.7803V65.782ZM75.5341 66.6702L75.4887 66.4971C75.445 66.3293 75.4904 66.1527 75.6076 66.046C76.6059 65.1334 77.6602 65.2977 78.2005 65.476C78.2005 65.476 78.204 65.476 78.2057 65.476C78.6183 66.2226 78.6288 67.5584 78.2407 69.4572C78.0886 69.7019 77.8823 69.9275 77.7878 69.945C76.4346 70.1128 75.8051 67.7 75.5341 66.6702ZM74.4711 73.6201C74.4991 73.3264 74.5428 73.0257 74.611 72.7651C74.7369 72.3263 75.2579 71.0412 75.9608 70.9031C76.1968 70.8559 76.3804 70.8978 76.4573 70.9608C76.487 70.9835 76.5167 71.0202 76.5185 71.0954C76.5045 71.1671 76.3699 71.3664 76.2737 71.5115C75.9468 72.0011 75.4817 72.9662 75.6286 73.8894L74.4694 73.6219L74.4711 73.6201ZM77.3875 78.5209C77.085 78.8653 76.7108 79.0979 76.3087 79.1958C76.1111 79.243 75.8559 79.271 75.7614 79.1293C75.6933 79.0262 75.7212 78.8706 75.7807 78.7639C76.522 77.4316 76.765 76.1396 76.8367 75.2898C76.8577 75.0486 76.9731 74.83 77.1619 74.6761C77.2825 74.5782 77.4242 74.517 77.5728 74.4908C77.7092 74.4961 77.856 74.5048 78.0046 74.5135C78.3438 74.6132 78.6008 74.893 78.6393 75.2304C78.6585 75.4035 78.6638 75.5748 78.655 75.7427C78.6148 76.0591 78.5432 76.4263 78.426 76.8249C78.1568 77.5558 77.7092 78.1555 77.384 78.5244L77.3875 78.5209ZM79.9436 78.3793C79.6849 78.673 79.3701 78.8776 79.0345 78.9667C78.8858 79.0069 78.6236 79.0559 78.5449 78.9353C78.4994 78.8671 78.5082 78.7534 78.5641 78.6503C78.8666 78.1065 79.0747 77.5715 79.2198 77.0767C79.3597 76.6921 79.4576 76.2724 79.4838 75.8284C79.4978 75.7165 79.51 75.6098 79.517 75.5119C79.5345 75.3056 79.6324 75.1202 79.7933 74.9891C79.9576 74.8562 80.1622 74.795 80.3755 74.8195H80.3807C80.7304 74.8615 81.0136 75.129 81.0521 75.4577C81.199 76.7305 80.4192 77.8338 79.9401 78.3793H79.9436ZM82.1816 77.9037C82.0102 78.1118 81.7969 78.2551 81.5644 78.3198C81.4123 78.3635 81.3511 78.3443 81.3476 78.3443C81.3476 78.3443 81.3388 78.2971 81.3633 78.2499C81.8354 77.3407 81.9735 76.47 82.0067 75.8983C82.0137 75.7707 82.0714 75.6553 82.1658 75.5713C82.2585 75.4909 82.3774 75.4524 82.5015 75.4629C82.7131 75.4804 82.8879 75.643 82.9159 75.8476C83.0313 76.727 82.505 77.5121 82.1816 77.9037Z" fill="#272B63"/>
<mask id="mask6_1632_41231" style="mask-type:luminance" maskUnits="userSpaceOnUse" x="35" y="74" width="4" height="4">
<path d="M38.6375 75.0958C38.4907 74.9227 38.3036 74.8073 38.1008 74.7444C37.9854 74.9804 37.8228 75.1955 37.6112 75.3756L36.0534 76.6956C35.9555 76.7795 35.8506 76.8495 35.7422 76.9107C35.7841 77.0698 35.8576 77.2219 35.9712 77.3548C36.3804 77.8373 37.1042 77.8968 37.5868 77.4876L38.5047 76.7096C38.9872 76.3005 39.0467 75.5766 38.6375 75.0941V75.0958Z" fill="white"/>
</mask>
<g mask="url(#mask6_1632_41231)">
<path d="M36.8438 74.8493C36.8438 74.8493 38.1078 74.2426 38.6953 74.9559C38.6953 74.9559 39.6989 76.1186 38.8667 77.005C38.8667 77.005 38.5922 75.0398 36.8455 74.8493H36.8438Z" fill="white"/>
</g>
<mask id="mask7_1632_41231" style="mask-type:luminance" maskUnits="userSpaceOnUse" x="33" y="72" width="5" height="5">
<path d="M37.0558 73.0118C36.8513 72.7705 36.5838 72.6149 36.2988 72.5432C36.1746 72.781 36.005 72.9995 35.7882 73.1831L34.0748 74.6361C33.844 74.8319 33.5853 74.9682 33.3125 75.0504C33.3317 75.3511 33.4419 75.6501 33.6517 75.8984C34.1745 76.5156 35.0976 76.5908 35.7148 76.068L36.8862 75.0749C37.5034 74.5521 37.5786 73.629 37.0558 73.0118Z" fill="white"/>
</mask>
<g mask="url(#mask7_1632_41231)">
<path d="M35.0564 72.7285C35.0564 72.7285 36.401 72.0711 37.0339 72.8282C37.0339 72.8282 38.1161 74.0625 37.2315 75.0154C37.2315 75.0154 36.9237 72.9173 35.0547 72.7285H35.0564Z" fill="white"/>
</g>
<mask id="mask8_1632_41231" style="mask-type:luminance" maskUnits="userSpaceOnUse" x="31" y="70" width="5" height="5">
<path d="M33.7593 73.9786L35.013 72.9155C35.6721 72.3561 35.7543 71.3682 35.1948 70.7073C34.6353 70.0482 33.6474 69.966 32.9866 70.5255L31.7329 71.5885C31.0738 72.148 30.9916 73.1358 31.5511 73.7967C32.1106 74.4576 33.0985 74.5381 33.7593 73.9786Z" fill="white"/>
</mask>
<g mask="url(#mask8_1632_41231)">
<path d="M32.9844 70.1723C32.9844 70.1723 34.5789 69.5236 35.2451 70.4416C35.2451 70.4416 36.3903 71.9417 35.301 72.968C35.301 72.968 35.1122 70.5377 32.9844 70.174V70.1723Z" fill="white"/>
</g>
<mask id="mask9_1632_41231" style="mask-type:luminance" maskUnits="userSpaceOnUse" x="35" y="67" width="5" height="5">
<path d="M39.4142 71.4434C39.4142 71.4434 40.8182 69.7911 38.5662 68.1966C38.5662 68.1966 36.6779 66.7804 35.5117 67.4098C35.5117 67.4098 34.5396 67.999 35.6778 69.695C38.0364 73.2093 39.4142 71.4434 39.4142 71.4434Z" fill="white"/>
</mask>
<g mask="url(#mask9_1632_41231)">
<path d="M38.329 67.4377C38.329 67.4377 41.6842 69.305 39.7994 71.779L39.0843 72.1514C39.0843 72.1514 39.5266 68.9676 36.2344 67.2157L38.329 67.4395V67.4377Z" fill="white"/>
</g>
<mask id="mask10_1632_41231" style="mask-type:luminance" maskUnits="userSpaceOnUse" x="39" y="66" width="5" height="9">
<path d="M41.9276 66.7454C41.9276 66.7454 40.8017 66.0373 40.1075 66.978C40.1075 66.978 39.2893 67.9955 40.0761 69.1023C40.6198 69.8663 40.9643 71.1759 41.1688 72.2424C41.3507 73.1953 41.4224 73.9558 41.4224 73.9611C41.4573 75.122 42.3158 75.1395 42.6462 74.4087C43.2459 73.0764 43.7512 68.1791 41.9276 66.7472V66.7454Z" fill="white"/>
</mask>
<g mask="url(#mask10_1632_41231)">
<path d="M40.5156 66.3591C40.5156 66.3591 43.3148 65.039 43.5106 71.0745C43.5106 71.0745 43.4984 72.9383 43.0089 73.6377C43.0089 73.6377 42.841 68.8138 40.5156 66.3591Z" fill="#E72061"/>
</g>
<path d="M68.3921 41.7712C69.1265 41.7712 69.5548 42.0317 69.5478 42.6402C69.3695 42.5702 69.2803 42.5388 69.2611 42.5388C69.102 42.5388 74.1077 44.8169 74.1724 44.8519C76.9646 46.401 80.6152 48.8103 82.1783 51.4941C82.5437 52.0256 86.2853 57.7429 84.3533 65.7121C85.3604 66.1877 85.7853 67.1598 85.9094 67.5147C85.9741 67.7018 85.9846 67.8976 85.9356 68.083C85.3586 70.3262 84.2554 71.4976 83.4092 71.8718C83.876 72.3036 84.1488 72.8666 84.2169 73.531L91.7438 73.5275C91.791 73.5275 91.8382 73.5292 91.8854 73.5345C92.2928 73.5729 92.667 73.7723 92.9362 74.0957C93.3716 74.6185 93.7964 75.1955 94.2003 75.8127C95.8263 78.3024 96.7408 80.8743 97.059 81.8639C97.1936 82.2835 97.1621 82.7451 96.9698 83.128C96.3019 84.462 95.0221 85.4096 93.3646 85.796C93.2544 85.8223 93.1425 85.8345 93.0306 85.8345C92.9852 85.8345 92.938 85.8328 92.8925 85.8275C92.1285 85.7541 91.52 85.1229 91.4448 84.3239C91.1371 81.0754 89.9552 78.7954 89.4604 77.9649C89.4482 77.944 89.4359 77.9352 89.4324 77.9335L83.5123 77.3023C83.376 77.631 83.2064 77.916 83.042 78.1468C82.8742 79.3899 82.5839 80.8603 82.0856 82.3692C81.5261 84.2207 80.6799 86.2104 79.3983 87.9291C79.8931 88.0987 80.276 88.4956 80.4246 89.0061C80.6747 89.8628 80.1816 90.7615 79.3249 91.0115L48.8607 99.8969C48.567 99.9826 48.261 100.026 47.9568 100.026C47.7522 100.026 47.5494 100.007 47.3501 99.9686C46.6647 99.834 46.0545 99.4843 45.5859 98.9563C44.7589 98.0279 44.5474 96.7393 45.0317 95.5941L45.2363 95.1115L44.0736 95.2007C44.1278 94.9419 44.5299 93.1131 45.6366 90.9381L45.9723 90.2755C45.2817 89.7265 44.5351 89.0551 43.8375 88.361C42.2815 86.8119 41.9667 84.4043 43.0735 82.5073C44.2187 80.5456 46.1996 77.9125 49.1369 76.5068C49.1702 76.491 49.1964 76.4788 49.2261 76.4666C49.4202 76.3844 49.9849 76.1658 50.7892 75.991C50.7472 75.8808 50.7315 75.762 50.742 75.6431L50.8067 74.9227C50.9186 73.7233 51.2613 71.4906 52.2736 69.6268C51.9134 70.0482 51.6372 70.3629 51.5865 70.3961C51.5025 70.452 49.7699 71.3927 48.0984 72.3001C47.1857 72.8404 46.1524 73.4034 44.9845 73.9838C44.9687 73.9926 44.96 73.9978 44.96 73.9978C44.4442 74.2531 43.904 74.5136 43.334 74.7776C43.0595 75.3458 42.5577 75.6868 42.0227 75.6868C41.9807 75.6868 41.9388 75.685 41.8968 75.6798C41.8881 75.6815 41.8828 75.6833 41.8828 75.6833C41.8828 75.6833 41.8059 75.6973 41.6783 75.7287L43.1102 77.7202C43.1312 77.7499 43.1504 77.7796 43.1661 77.8111C43.3882 78.2307 43.3497 78.7202 43.0612 79.1189C42.757 79.5403 42.2063 79.8165 41.7115 79.8165C41.6433 79.8165 41.5751 79.8113 41.5087 79.8008C41.5017 79.8008 41.4824 79.7955 41.4754 79.7955C41.0366 79.7099 40.7848 79.4231 40.6345 79.2535L38.9665 77.353C38.8336 77.4666 38.5032 77.7464 38.2864 77.9282L38.094 78.0908C38.0381 78.138 37.9786 78.1835 37.9192 78.2237C37.601 78.437 37.2303 78.5489 36.8492 78.5489C36.802 78.5489 36.7547 78.5489 36.7075 78.5437C36.6289 78.5384 36.5502 78.5279 36.4733 78.5139C36.0449 78.43 35.6532 78.201 35.3718 77.867C35.2004 77.6642 35.0763 77.4334 35.0011 77.1869C34.9189 77.1956 34.835 77.2009 34.7528 77.2009C34.613 77.2009 34.4731 77.1887 34.3315 77.1607C34.3262 77.1607 34.321 77.1572 34.314 77.1554C34.307 77.1554 34.3017 77.1554 34.2947 77.1537C33.8052 77.0575 33.3576 76.7953 33.0341 76.4141C32.7282 76.0522 32.5603 75.6203 32.5219 75.1797C32.4659 75.1727 32.41 75.1675 32.354 75.157C31.8207 75.0521 31.3329 74.7671 30.9815 74.351C30.9745 74.3422 30.9675 74.3335 30.9605 74.3248C30.9553 74.3195 30.95 74.3143 30.9448 74.309C30.5392 73.83 30.3433 73.2215 30.3941 72.5956C30.4465 71.9697 30.7385 71.4014 31.2175 70.9941L31.256 70.9626C31.256 70.9626 31.2595 70.9591 31.2613 70.9573L32.4607 69.9415L22.6748 58.7954C22.3129 58.3828 22.1503 57.8391 22.229 57.3058C22.3566 56.4403 22.5525 55.5399 22.8095 54.629C23.8463 50.9626 25.6366 47.9868 26.3587 46.8766C26.6455 46.436 27.1088 46.1352 27.6281 46.0531C27.9585 46.0006 28.2925 45.9744 28.6282 45.9744C29.053 45.9744 29.4814 46.0163 29.9097 46.1003C31.4221 46.3958 32.674 47.1633 33.4573 47.7543C33.9013 48.0882 34.1706 48.5987 34.2003 49.1512C34.2283 49.6967 34.0167 50.223 33.6164 50.5954C30.5304 53.4715 29.2786 56.5382 28.8834 57.7219C28.8537 57.8093 28.8694 57.9037 28.9236 57.9807L35.1882 66.6982C35.4941 66.5444 35.8333 66.4657 36.2075 66.4657C36.3946 66.4657 36.5904 66.4849 36.795 66.5251C36.9278 66.5514 37.059 66.5846 37.1883 66.623C37.9646 66.8154 38.6797 67.214 39.0347 67.4361C39.0434 67.4046 39.0539 67.3766 39.0626 67.3469C39.0801 67.2874 39.0976 67.2297 39.1168 67.1738C39.1308 67.1336 39.1466 67.0986 39.1623 67.0601C39.1833 67.0077 39.2043 66.9552 39.2287 66.908C39.2497 66.8661 39.2707 66.8294 39.2917 66.7909C39.3127 66.7542 39.3319 66.714 39.3529 66.6807C39.3913 66.6195 39.4298 66.5636 39.4683 66.5146C39.4718 66.5094 39.477 66.5007 39.4805 66.4954C39.484 66.4919 39.4875 66.4884 39.4893 66.4849C39.5452 66.4115 39.6029 66.3433 39.6641 66.2804C39.6763 66.2681 39.6903 66.2576 39.7026 66.2454C39.7568 66.1912 39.8145 66.1405 39.8722 66.095C39.8844 66.0863 39.8966 66.0775 39.9089 66.0688C39.9701 66.0233 40.0348 65.9814 40.0994 65.9447C40.1117 65.9377 40.1239 65.9324 40.1362 65.9254C40.2026 65.8905 40.2708 65.8572 40.3407 65.831C40.3565 65.8258 40.3704 65.8205 40.3862 65.8153C40.4544 65.7908 40.5226 65.7716 40.5925 65.7541C40.6135 65.7488 40.6345 65.7453 40.6554 65.7401C40.7201 65.7279 40.7848 65.7191 40.8495 65.7121C40.8792 65.7086 40.9072 65.7069 40.9369 65.7051C40.9667 65.7051 40.9981 65.7034 41.0278 65.7034C41.0558 65.7034 41.0838 65.7034 41.1135 65.7034C41.1502 65.7034 41.187 65.7051 41.2254 65.7086C41.2429 65.7086 41.2621 65.7086 41.2796 65.7121C41.3443 65.7191 41.4055 65.7296 41.4667 65.7401C41.4702 65.7401 41.4737 65.7401 41.4754 65.7401C41.4754 65.7401 41.4772 65.7401 41.4789 65.7401C41.4912 65.7418 41.5034 65.7453 41.5174 65.7488C41.5646 65.7593 41.6118 65.7698 41.6555 65.7821C41.6817 65.7891 41.7045 65.796 41.7307 65.8048C41.7604 65.8135 41.7884 65.8223 41.8164 65.831C41.8426 65.8398 41.8671 65.8485 41.8933 65.859C41.916 65.8677 41.9388 65.8765 41.9597 65.8835C41.9842 65.894 42.0087 65.9027 42.0314 65.9132C42.0489 65.9202 42.0664 65.9289 42.0839 65.9359C42.1066 65.9464 42.1276 65.9552 42.1468 65.9656C42.1608 65.9726 42.1748 65.9796 42.187 65.9866C42.2045 65.9954 42.222 66.0041 42.236 66.0128C42.2482 66.0198 42.257 66.0251 42.2675 66.0303C42.2797 66.0373 42.2919 66.0443 42.3007 66.0496C42.3112 66.0566 42.3182 66.0601 42.3252 66.0653C42.3287 66.067 42.3357 66.0723 42.3391 66.074C42.3619 66.088 42.3846 66.1038 42.4073 66.1212C42.6836 66.3381 42.9144 66.6091 43.1084 66.922L44.4075 65.7628C44.4844 65.6946 44.5719 65.6439 44.6645 65.6107C45.0806 61.5072 45.9951 58.3548 47.385 56.241C47.4655 56.1186 47.42 55.9473 47.5476 55.8878C47.3606 55.1518 47.8886 54.4646 48.3974 54.066C48.9464 53.6097 49.2418 53.6167 49.2646 53.4418C49.2961 53.1918 48.4376 52.9925 48.7383 52.676C48.7803 52.2512 48.9166 51.5658 49.331 50.8752C48.9866 50.8524 64.0456 41.766 68.3834 41.766M68.3834 40.9757C66.4392 40.9757 62.5682 42.509 56.8771 45.5355C54.3734 46.8661 52.3068 48.0725 51.298 48.6739C48.9778 50.0552 48.6159 50.3122 48.5512 50.6461C48.1928 51.3035 48.0389 51.9364 47.9743 52.4085C47.8991 52.5676 47.8694 52.739 47.8903 52.9138C47.9096 53.0817 47.9655 53.2198 48.0424 53.3369C47.9952 53.3736 47.9445 53.4138 47.8938 53.4558C47.0948 54.0835 46.6717 54.9087 46.7241 55.713C46.6997 55.7812 46.6839 55.8406 46.6752 55.8861C45.2887 58.0366 44.3638 61.147 43.9215 65.1404C43.9092 65.1509 43.8952 65.1614 43.883 65.1736L43.2081 65.7768C43.1084 65.6772 43.0053 65.5862 42.8969 65.5006C42.8532 65.4656 42.8077 65.4341 42.7605 65.4044L42.7028 65.3694C42.7028 65.3694 42.6696 65.3502 42.6626 65.3467L42.6119 65.3187L42.556 65.289L42.4948 65.2575L42.4143 65.2191L42.3461 65.1894L42.2552 65.1509L42.1783 65.1212C42.1381 65.1054 42.1066 65.0949 42.0716 65.0827C42.0402 65.0722 42.0087 65.0617 41.9755 65.0512L41.7132 65.7978L41.9475 65.0425C41.9213 65.0337 41.8933 65.0267 41.8653 65.018C41.8094 65.0023 41.7482 64.9883 41.687 64.976H41.6765C41.6643 64.9708 41.6503 64.9673 41.638 64.9656C41.6258 64.9638 41.6136 64.9603 41.5996 64.9586C41.5244 64.9446 41.4492 64.9323 41.3723 64.9236C41.3391 64.9201 41.3076 64.9183 41.2761 64.9166C41.2464 64.9131 41.1957 64.9114 41.1467 64.9096C41.1118 64.9096 41.0733 64.9079 41.0366 64.9079C40.9929 64.9079 40.9492 64.9079 40.9072 64.9114C40.8652 64.9131 40.8233 64.9166 40.7831 64.9201C40.6922 64.9288 40.6012 64.9411 40.5121 64.9586C40.4754 64.9656 40.4491 64.9708 40.4212 64.9778C40.3232 65.0005 40.2253 65.0302 40.1292 65.0635L40.0645 65.0862C39.9683 65.1229 39.8687 65.1684 39.7725 65.2208C39.7585 65.2278 39.7393 65.2383 39.7218 65.247C39.6291 65.2995 39.54 65.3572 39.449 65.4254C39.4403 65.4306 39.4193 65.4446 39.4001 65.4604C39.3162 65.525 39.2375 65.5967 39.1606 65.6719C39.1518 65.6789 39.1308 65.6981 39.1098 65.7191C39.0294 65.8013 38.9542 65.8887 38.8843 65.9796C38.8756 65.9919 38.8651 66.0024 38.8581 66.0128C38.8528 66.0198 38.8458 66.0303 38.8388 66.0391C38.7899 66.1038 38.7409 66.1737 38.692 66.2541C38.6815 66.2716 38.6692 66.2908 38.6588 66.3101C38.2951 66.1352 37.865 65.9621 37.4086 65.8467C37.2548 65.8013 37.1044 65.7628 36.9576 65.7349C36.7058 65.6859 36.4558 65.6597 36.218 65.6597C35.9802 65.6597 35.7267 65.6859 35.4959 65.7401L29.7279 57.7132C30.1825 56.4491 31.4064 53.7286 34.1671 51.1567C34.7371 50.6251 35.0413 49.8733 35.0011 49.0935C34.9609 48.305 34.5762 47.5812 33.9451 47.1056C33.0953 46.4639 31.7333 45.6317 30.0741 45.3065C29.5968 45.2138 29.1142 45.1649 28.6404 45.1649C28.2627 45.1649 27.8833 45.1946 27.5144 45.254C26.7749 45.3729 26.1157 45.7995 25.7066 46.4272C24.9653 47.5672 23.1242 50.6269 22.0594 54.3947C21.7936 55.3371 21.5908 56.2707 21.458 57.1712C21.3443 57.9352 21.5768 58.7115 22.0926 59.299L31.3487 69.8401L30.763 70.3367C30.763 70.3367 30.7525 70.3454 30.7455 70.3506L30.7193 70.3734C30.0793 70.9154 29.6877 71.6759 29.6195 72.5117C29.5513 73.3492 29.8118 74.1622 30.3538 74.8021C30.3608 74.8091 30.3678 74.8178 30.3748 74.8266C30.3801 74.8335 30.3871 74.8405 30.3906 74.8458C30.777 75.3021 31.2892 75.6413 31.8575 75.8231C31.9746 76.22 32.1722 76.5872 32.4432 76.9072C32.882 77.4247 33.4905 77.7814 34.1549 77.9107C34.1619 77.9107 34.1671 77.9125 34.1741 77.9142C34.1793 77.9142 34.1846 77.916 34.1898 77.9177C34.293 77.937 34.3961 77.9527 34.5011 77.9614C34.5815 78.1013 34.6759 78.2359 34.7808 78.3601C35.1777 78.8287 35.7302 79.1539 36.3334 79.271C36.4383 79.292 36.5467 79.306 36.6638 79.3147C36.7303 79.32 36.7967 79.3217 36.8614 79.3217C37.4017 79.3217 37.9244 79.1626 38.372 78.8619C38.4559 78.8042 38.5381 78.743 38.6185 78.6765L38.8109 78.5139L38.8965 78.4405L40.0522 79.7571C40.2393 79.9704 40.631 80.4162 41.3356 80.5543L41.4003 80.5648C41.4964 80.5806 41.6101 80.591 41.7237 80.591C42.4825 80.591 43.2641 80.1889 43.7134 79.5665C44.175 78.9283 44.2379 78.1083 43.876 77.4264C43.8428 77.3635 43.8043 77.3023 43.7641 77.2446L43.021 76.2113C43.3725 76.0225 43.6802 75.7357 43.911 75.3703C44.369 75.157 44.8219 74.9385 45.287 74.7077C45.3079 74.6989 45.3272 74.6884 45.3464 74.6779C45.3464 74.6779 45.3551 74.6727 45.3621 74.6692C46.4881 74.108 47.5442 73.538 48.5005 72.9715C49.4027 72.4837 50.0706 72.12 50.5671 71.849C50.2437 73.0292 50.0968 74.1202 50.0304 74.8318L49.9832 75.3616C49.4621 75.5067 49.095 75.6501 48.9324 75.7182C48.8939 75.734 48.8572 75.7515 48.81 75.7724C45.6891 77.2656 43.6032 80.0298 42.4021 82.0877C41.1135 84.2942 41.4789 87.0969 43.292 88.8995C43.8515 89.4555 44.4302 89.987 44.9915 90.4608L44.9425 90.5569C43.8026 92.7949 43.3829 94.6657 43.3095 95.0189C43.2588 95.2619 43.327 95.5154 43.4913 95.7008C43.6417 95.8721 43.8585 95.9683 44.0841 95.9683H44.0876C43.8148 97.2009 44.14 98.4877 45.0037 99.4581C45.5894 100.117 46.3517 100.553 47.2085 100.72C47.4567 100.769 47.7102 100.794 47.9655 100.794C48.3467 100.794 48.7243 100.74 49.0915 100.633L79.5557 91.7476C80.8303 91.3752 81.5646 90.0359 81.1922 88.7613C81.0698 88.3417 80.839 87.9711 80.5296 87.6808C81.4824 86.2349 82.2622 84.5215 82.8497 82.5737C83.2745 81.2869 83.598 79.8829 83.8061 78.4143C83.869 78.3181 83.9284 78.222 83.9844 78.124L88.9639 78.6556C89.4901 79.6154 90.4045 81.6261 90.665 84.3763C90.7752 85.5513 91.6844 86.4849 92.8261 86.5933C92.8978 86.6003 92.9695 86.6038 93.0394 86.6038C93.2107 86.6038 93.3838 86.5846 93.5517 86.5444C95.4417 86.1038 96.9104 85.0093 97.6849 83.4602C97.9681 82.8937 98.0171 82.2153 97.8195 81.5999C97.4926 80.5788 96.5484 77.9282 94.87 75.3581C94.4504 74.7147 94.0062 74.1132 93.5499 73.5677C93.1443 73.0834 92.5831 72.7844 91.9659 72.725C91.8942 72.718 91.8207 72.7145 91.7491 72.7145L84.8638 72.718C84.7904 72.4802 84.6908 72.2564 84.5701 72.0448C85.5125 71.2563 86.2818 69.9118 86.7067 68.2578C86.7941 67.9221 86.7784 67.5672 86.6612 67.2315C86.5213 66.8294 86.1279 65.9377 85.2572 65.3047C86.9357 57.4264 83.3567 51.7913 82.8532 51.0483C81.1904 48.2176 77.4279 45.7296 74.5622 44.1386C74.5354 44.1234 74.2877 44.0086 73.8192 43.7941C73.0271 43.4305 71.2368 42.6087 70.2891 42.1559C70.207 41.8412 70.0496 41.6209 69.908 41.4792C69.5671 41.1348 69.0583 40.96 68.3974 40.96L68.3834 40.9757Z" fill="#272B63"/>
<g style="mix-blend-mode:multiply" opacity="0.3">
<path d="M70.7862 45.4026C70.7862 45.4026 70.2669 49.7614 60.656 54.358C59.0107 56.4316 57.925 57.8548 56.9284 58.11C54.7236 56.4928 53.2672 55.1517 50.1725 55.0119C46.8471 54.8615 59.9758 51.5535 59.9758 51.5535L70.788 45.4009L70.7862 45.4026Z" fill="#272B63"/>
</g>
<mask id="mask11_1632_41231" style="mask-type:luminance" maskUnits="userSpaceOnUse" x="24" y="18" width="62" height="50">
<path d="M85.3813 46.7804C85.3813 46.7804 83.1678 21.6715 81.7201 20.6522C80.2724 19.6346 31.964 18.3303 31.964 18.3303L24.3672 46.2961C24.3672 46.2961 38.7076 60.5421 39.3353 60.6977C39.963 60.8533 48.4112 67.6983 48.4112 67.6983L51.2874 65.2872L52.6878 62.8937L55.0185 58.2447L57.1096 60.3934C57.1096 60.3934 59.2216 59.5105 60.449 57.9317C62.5366 60.6609 63.194 62.4076 63.194 62.4076C64.7973 60.1766 67.072 56.4263 67.5598 54.5643C69.9743 56.1903 72.2507 57.2481 72.2507 57.2481C72.2035 52.9225 72.541 51.4888 73.055 51.265C73.931 51.9644 76.9155 57.9072 77.1008 58.5296C77.4033 59.4738 85.383 46.7769 85.383 46.7769L85.3813 46.7804Z" fill="white"/>
</mask>
<g mask="url(#mask11_1632_41231)">
<path d="M62.6756 68.9572C59.6578 66.8328 57.2433 64.2382 56.0841 62.8972C55.7327 63.413 55.3096 64.2382 55.0421 65.4551L54.6294 67.3259L53.3548 65.8957C49.1797 61.2117 47.9785 55.5679 47.6341 52.6218C47.6288 52.5781 47.6253 52.5449 47.6218 52.5204C47.2774 50.9678 47.5834 49.4922 48.5048 48.2543C50.2951 45.8485 54.3322 44.4131 60.4988 43.9882C61.714 43.7976 62.9466 43.6997 64.16 43.6997C70.3878 43.6997 74.9179 46.1038 74.9581 49.4205C74.9599 49.445 74.9651 49.4782 74.9686 49.5219C75.2921 52.4714 75.3847 58.2394 72.3635 63.7399L71.4421 65.4184L70.6221 63.6875C70.0888 62.5632 69.4926 61.8551 69.0328 61.4285C68.2041 62.9951 66.4312 66.0635 63.9659 68.8085L63.3854 69.4555L62.6738 68.9554L62.6756 68.9572Z" fill="#BDBCC0"/>
<path d="M64.1651 44.6788C69.6026 44.6788 73.9789 46.7069 73.9841 49.4589C73.9841 49.7229 75.1031 56.7271 71.5102 63.2696C70.281 60.6767 68.6742 59.9773 68.6742 59.9773C68.6742 59.9773 66.6024 64.4148 63.242 68.1581C59.1297 65.2628 56.1155 61.4005 56.1155 61.4005C56.1155 61.4005 54.7062 62.4426 54.0891 65.2435C49.1236 59.6714 48.6463 52.5956 48.5886 52.3368C47.8857 49.2439 50.045 45.6789 60.6141 44.962C61.824 44.7697 63.0182 44.6788 64.1651 44.6788ZM64.1651 42.7206C62.9132 42.7206 61.6457 42.8185 60.3938 43.0143C57.1348 43.2416 54.416 43.7521 52.3127 44.5337C50.2443 45.303 48.6987 46.3573 47.7231 47.6703C46.6356 49.1302 46.2684 50.8629 46.6601 52.683C46.6618 52.6987 46.6636 52.7162 46.6653 52.7354C47.0238 55.7969 48.2739 61.661 52.6274 66.5478L55.1748 69.4082L56.0001 65.6684C56.0892 65.2663 56.1959 64.9166 56.3095 64.6124C57.6575 66.0635 59.6979 68.0585 62.1142 69.7597L63.5357 70.7615L64.6984 69.4677C66.6723 67.2682 68.2162 64.8676 69.204 63.1524C69.3823 63.4234 69.5659 63.7399 69.7408 64.1123L71.3825 67.5724L73.2253 64.2155C76.3742 58.479 76.2816 52.4837 75.9459 49.4205C75.9441 49.3995 75.9424 49.382 75.9406 49.3663C75.8952 47.2927 74.4842 45.4883 71.9577 44.2767C69.8736 43.2766 67.1059 42.7258 64.1651 42.7258V42.7206Z" fill="#272B63"/>
<path d="M56.7822 58.937C54.8607 57.0277 53.357 55.129 53.2941 55.0485L52.7031 54.2985L53.4812 53.7425C53.7609 53.5414 56.2821 51.786 58.4274 51.786C59.8576 51.786 60.8699 52.5518 61.2808 53.9435L61.3507 54.1796L61.2913 54.4191C61.2581 54.552 60.4538 57.7044 57.8539 59.0926L57.2595 59.4091L56.7822 58.9352V58.937Z" fill="#BDBCC0"/>
<path d="M58.4305 52.697C59.317 52.697 60.0793 53.0799 60.4097 54.2006C60.4097 54.2006 59.6999 57.075 57.4269 58.2901C55.5229 56.3983 54.0123 54.4838 54.0123 54.4838C54.0123 54.4838 56.5125 52.697 58.4288 52.697M58.4288 50.8751C55.9985 50.8751 53.257 52.7844 52.9528 53.0029L51.3984 54.1132L52.5821 55.6133C52.6468 55.6955 54.1819 57.6362 56.1436 59.5839L57.0982 60.5333L58.2854 59.8986C61.1895 58.3478 62.0864 55.0136 62.1774 54.6394L62.2962 54.1604L62.1564 53.6866C61.6371 51.9259 60.2436 50.8751 58.4288 50.8751Z" fill="#272B63"/>
<path d="M51.0951 60.9372C50.8643 60.6592 50.6335 60.3934 50.4079 60.1329C48.9655 58.4684 47.4829 56.7567 47.7101 53.8491L46.822 54.6062L46.481 52.9382C45.9705 50.4398 46.9251 48.1721 49.3904 46.046C47.6717 45.3169 46.1873 44.3448 45.2834 43.7521C45.2344 43.7206 45.1872 43.6892 45.1435 43.6594C44.591 43.7504 43.9336 43.7976 43.1783 43.7976C42.8251 43.7976 42.0698 43.7783 41.3652 43.7101C41.3704 43.9899 41.3949 44.2189 41.4229 44.3378C41.5016 44.6578 41.4299 44.99 41.2271 45.2487C41.0225 45.5092 40.7165 45.6579 40.3861 45.6579C40.2252 45.6579 40.0644 45.6211 39.9193 45.5512C38.7111 44.9672 37.8229 42.8202 37.9401 40.7641C38.0275 39.2272 38.7443 36.4717 42.5191 35.0538C43.0104 34.5712 43.778 34.052 45.2536 33.8054C46.488 31.7004 47.7504 29.7299 51.9902 28.5655L53.8698 28.0497L53.5481 28.9291C55.0587 28.5655 56.7197 28.3714 58.3772 28.3714C64.7623 28.3714 70.1824 31.0587 73.2491 35.7427L74.4013 37.5033L72.7106 37.3337C74.2911 38.9772 75.4311 40.6399 76.2336 42.4548C77.6061 45.5617 77.9191 48.9938 77.1917 52.9487L76.6585 55.8493L75.3105 53.2267C74.3873 51.4311 73.5341 50.41 73.0271 49.8977C72.4396 50.4293 71.5234 51.6741 71.4587 54.2757L71.4203 55.8493L70.0093 55.1517C68.7347 54.5205 67.9217 53.8317 67.2084 52.8578C66.474 55.9262 64.7606 58.7849 64.1801 59.5857L63.2744 60.834L62.4982 59.5017C60.4158 55.928 58.9227 54.7758 57.6463 54.2303C55.2213 55.5748 54.2002 57.7289 53.1215 60.0035C53.0061 60.2466 52.8907 60.4896 52.7735 60.7326L52.0951 62.1383L51.0968 60.9389L51.0951 60.9372Z" fill="white"/>
<path d="M58.3752 29.375C63.3861 29.375 69.0649 31.1881 72.4061 36.2917C72.1491 36.2655 71.8851 36.2567 71.6333 36.2567C70.8605 36.2567 70.2014 36.3494 70.2014 36.3494C74.3398 39.9214 77.6915 44.6665 76.2019 52.7669C74.5619 49.5761 73.102 48.6337 73.102 48.6337C73.102 48.6337 70.565 49.7002 70.4514 54.2495C68.4722 53.2704 67.7641 52.1287 66.5175 49.639C66.8147 53.3316 64.047 58.0506 63.3634 58.993C60.9943 54.9262 59.2686 53.7233 57.5814 53.1253C54.2682 54.7478 53.1649 57.5995 51.8641 60.292C49.8657 57.8897 47.8725 56.3074 49.0212 52.2511C48.4267 52.3368 47.9617 52.3106 47.4634 52.7354C46.9021 49.9869 48.4862 47.763 51.476 45.7103C48.7852 44.9917 46.2797 43.1786 45.3443 42.5947C44.7341 42.7398 43.9438 42.7922 43.1763 42.7922C41.8772 42.7922 40.6393 42.6419 40.4278 42.5387C40.3176 43.3028 40.3439 44.1647 40.4453 44.5774C40.4558 44.6193 40.4225 44.6543 40.3841 44.6543C40.3753 44.6543 40.3648 44.6525 40.3544 44.6473C38.9504 43.9689 37.0831 38.0156 43.0784 35.9193C43.4543 35.5066 44.0924 34.9349 45.8723 34.7321C47.1591 32.5396 48.1348 30.6653 52.254 29.5323C52.0197 30.1723 52.0477 30.4258 52.0477 30.4258C53.7996 29.7754 56.0131 29.3732 58.3752 29.3732M55.4816 26.5618L51.7207 27.5951C47.369 28.791 45.8513 30.8402 44.617 32.905C43.3022 33.1953 42.5101 33.697 41.9664 34.1901C38.9277 35.4035 37.1023 37.7568 36.9345 40.7064C36.7911 43.2136 37.8856 45.6859 39.4802 46.4552C39.7616 46.5915 40.0729 46.6615 40.3841 46.6615C41.0257 46.6615 41.6202 46.373 42.0153 45.8677C42.2654 45.5495 42.4122 45.1753 42.4489 44.7854C42.7864 44.7977 43.0521 44.7994 43.1763 44.7994C43.8144 44.7994 44.3932 44.7679 44.9089 44.705C45.5891 45.1491 46.5315 45.754 47.6365 46.3258C47.1539 46.845 46.7483 47.3748 46.4196 47.9203C45.4317 49.5516 45.1223 51.3052 45.4947 53.1358L46.1765 56.47L46.8182 55.9245C47.2343 58.0016 48.4897 59.451 49.6471 60.7868C49.8692 61.0438 50.0982 61.3078 50.3203 61.5754L52.3169 63.9742L53.6755 61.1627C53.7926 60.918 53.9097 60.6732 54.0269 60.4267C55.0007 58.3723 55.8575 56.5644 57.6933 55.365C58.7178 55.935 59.94 57.1029 61.6289 60L63.1815 62.6646L64.9929 60.1696C65.4929 59.4808 66.7832 57.3495 67.6644 54.816C68.1924 55.2689 68.8079 55.6745 69.5632 56.0469L72.3851 57.4421L72.4638 54.295C72.497 52.975 72.7698 52.0833 73.074 51.4923C73.4639 52.0116 73.9272 52.7267 74.4185 53.6796L77.1146 58.9248L78.1811 53.1253C78.9469 48.9641 78.6112 45.3397 77.153 42.0422C76.618 40.8323 75.9449 39.6906 75.1056 38.5786L76.3942 38.708L74.0898 35.1867C70.8343 30.2125 65.1083 27.3608 58.3769 27.3608C57.2737 27.3608 56.1687 27.443 55.1021 27.6021L55.4833 26.5601L55.4816 26.5618Z" fill="#272B63"/>
<path d="M43.0487 35.886C43.4246 35.4716 44.0663 34.8981 45.8514 34.6953C45.8654 34.6708 45.8811 34.6464 45.8951 34.6219C46.521 34.7985 47.091 34.9384 47.5526 35.017C50.3116 35.4891 53.4482 36.2706 53.4482 36.2706L55.5481 35.4961L56.3034 33.0326L59.7372 33.162C63.7341 32.9312 67.2781 35.0223 68.1523 35.9996C65.9511 36.1797 64.7849 37.2148 64.7849 37.2148C64.7849 37.2148 70.1612 38.7341 70.9025 45.2802C70.9025 45.2802 67.7851 43.287 65.423 44.1734C66.7466 45.761 66.3672 47.3223 66.5158 49.6424C66.9511 53.0308 63.9859 58.1572 63.3617 58.9964C61.8213 56.5399 60.2093 54.2635 57.5797 53.1288C55.9065 54.0659 54.2158 55.3842 51.8624 60.2955C49.5773 57.9054 47.9268 55.5783 49.0195 52.2546C48.5177 52.314 47.9215 52.3472 47.4617 52.7389C46.9232 49.9222 48.4758 47.7681 51.476 45.7103C48.7765 44.9899 46.2623 43.1716 45.3234 42.5841C43.6746 42.9758 40.7303 42.6943 40.3911 42.5282C40.281 43.294 40.3072 44.1594 40.4086 44.5738C40.4209 44.6263 40.3667 44.6665 40.3177 44.6437C38.9085 43.9636 37.0359 37.9911 43.0505 35.8895L43.0487 35.886Z" fill="#BDBCC0"/>
<path d="M40.3813 45.4988C40.2449 45.4988 40.1086 45.4673 39.9844 45.4078C38.8305 44.8501 37.9825 42.7713 38.0962 40.7746C38.1818 39.2727 38.8864 36.5767 42.6035 35.1937C43.1263 34.6709 43.983 34.0992 45.7751 33.8946L45.8556 33.8859L45.936 33.8929C48.7649 34.1114 51.0501 35.8074 53.2601 37.4474C53.9926 37.9911 54.7515 38.5524 55.519 39.0541L56.6467 39.7902L55.4928 40.4843C54.8896 40.8463 53.8248 41.1033 52.1411 41.2956L52.0117 41.3096C47.1319 41.8586 46.2542 42.6471 46.1021 42.9618L45.9273 43.3238L45.5356 43.4164C44.9202 43.5633 44.1246 43.6367 43.1718 43.6367C42.7067 43.6367 41.8937 43.6087 41.1961 43.5318C41.1943 43.906 41.2223 44.2207 41.2608 44.3763C41.3272 44.6473 41.266 44.9305 41.0947 45.1491C40.9216 45.3694 40.6611 45.497 40.3813 45.497V45.4988Z" fill="#B08E6D"/>
<path d="M45.8718 34.7356C49.3476 35.0048 51.9755 37.7498 55.0579 39.7622C54.5439 40.07 53.4809 40.2955 52.0454 40.4581C50.61 40.6207 46.0676 41.091 45.342 42.5964C44.7318 42.7415 43.9416 42.794 43.174 42.794C41.875 42.794 40.6371 42.6436 40.4255 42.5405C40.3154 43.3045 40.3416 44.1665 40.443 44.5791C40.4535 44.6211 40.4203 44.656 40.3818 44.656C40.3731 44.656 40.3626 44.6543 40.3521 44.649C38.9481 43.9707 37.0808 38.0173 43.0761 35.921C43.452 35.5084 44.0902 34.9366 45.8701 34.7338M45.8403 33.0379L45.6795 33.0554C43.772 33.2722 42.7701 33.8789 42.139 34.4663C39.1894 35.6255 37.4148 37.888 37.2539 40.7239C37.1193 43.0702 38.1578 45.4603 39.6178 46.1649C39.8538 46.2786 40.1178 46.3397 40.3818 46.3397C40.9238 46.3397 41.4256 46.095 41.7596 45.6701C42.0358 45.3187 42.1634 44.8868 42.1267 44.4497C42.6512 44.4759 43.0709 44.4777 43.174 44.4777C44.1916 44.4777 45.0536 44.3955 45.7337 44.2347L46.5152 44.0493L46.8282 43.3989C46.9366 43.3115 47.4384 42.9636 48.998 42.6209C50.1764 42.3621 51.4317 42.2205 52.1066 42.1453L52.236 42.1313C54.0683 41.9233 55.2065 41.6383 55.9269 41.2064L58.2365 39.8199L55.9811 38.346C55.2345 37.8582 54.4862 37.304 53.7641 36.7672C51.458 35.0555 49.0731 33.2862 46.0012 33.0484L45.8403 33.0361V33.0379Z" fill="#272B63"/>
<path d="M52.6953 47.3923C53.1394 45.9394 54.358 44.8379 55.6466 44.1001L56.0208 44.2854C56.8967 44.7033 57.6276 45.3904 58.1836 46.1737C58.3636 46.4272 58.528 46.6895 58.6731 46.9622L57.1992 46.6702C57.451 46.4517 57.6765 46.2069 57.8846 45.9481C58.4948 45.1788 58.9039 44.2382 59.0735 43.2696C59.0752 43.2556 59.0787 43.2294 59.0787 43.2346L60.4827 42.551C61.0317 42.9654 61.5213 43.406 62.0056 43.8868C62.4811 44.3606 62.9235 44.8694 63.3256 45.4096L62.1926 45.6177C62.5301 44.9078 62.7224 44.1368 62.7381 43.3413C62.7539 42.509 62.6 41.6628 62.2713 40.8795C63.5879 42.2101 63.9655 44.2976 63.448 46.0775L63.1665 47.1003C62.2503 46.2034 61.2485 45.2715 60.203 44.5372C59.9949 44.3938 59.6697 44.1578 59.4669 44.0301L60.8709 43.3465C60.8569 43.5843 60.8254 43.8378 60.7834 44.0686C60.4949 45.6352 59.6732 47.1108 58.4441 48.1354L57.5454 48.8994C57.3041 48.4711 56.867 47.6249 56.6257 47.2122C56.276 46.6283 55.8337 46.074 55.3249 45.6369L55.9946 45.6509C54.8231 46.0688 53.6867 46.6125 52.6988 47.3958L52.6953 47.3923Z" fill="#272B63"/>
<path d="M54.1565 32.7022C54.5831 32.7022 54.9887 32.8666 55.2685 33.1935C55.8157 33.8334 55.6776 34.851 54.9573 35.4682C54.6058 35.7707 54.1792 35.921 53.7719 35.921C53.3645 35.921 52.9396 35.7567 52.6599 35.4297C52.1126 34.7898 52.2507 33.7722 52.9711 33.1551C53.3225 32.8526 53.7491 32.7022 54.1565 32.7022ZM54.1565 31.015C53.3295 31.015 52.5183 31.3192 51.8731 31.8735C50.4481 33.0956 50.2261 35.1832 51.3783 36.5277C51.9675 37.2149 52.8382 37.6082 53.7719 37.6082C54.5989 37.6082 55.4101 37.304 56.0553 36.7498C57.4802 35.5276 57.7023 33.4401 56.5501 32.0955C55.9609 31.4084 55.0902 31.015 54.1565 31.015Z" fill="#272B63"/>
<path d="M53.009 35.6081C52.5649 35.6081 52.1488 35.4332 51.8376 35.1168C51.5298 34.8038 51.3637 34.3895 51.3672 33.9523C51.3707 33.5152 51.5456 33.1026 51.8585 32.7949C52.168 32.4907 52.5771 32.3246 53.009 32.3246C53.4408 32.3246 53.8692 32.4994 54.1804 32.8159C54.4881 33.1289 54.656 33.5432 54.6507 33.9803C54.6472 34.4192 54.4724 34.83 54.1594 35.1378C53.85 35.442 53.4426 35.6081 53.009 35.6081Z" fill="#E72061"/>
<path d="M53.0114 32.9365C53.2771 32.9365 53.5429 33.0396 53.744 33.2442C54.1426 33.6498 54.1373 34.3002 53.7317 34.6989C53.5306 34.8964 53.2719 34.9944 53.0114 34.9944C52.7509 34.9944 52.4799 34.8912 52.2788 34.6866C51.8802 34.281 51.8854 33.6306 52.291 33.232C52.4921 33.0344 52.7509 32.9365 53.0114 32.9365ZM53.0114 31.7091C52.4169 31.7091 51.8539 31.9381 51.4308 32.356C50.5444 33.2285 50.5321 34.6587 51.4028 35.5451C51.8312 35.9805 52.4012 36.22 53.0114 36.22C53.6216 36.22 54.1688 35.991 54.5919 35.5731C55.4784 34.7006 55.4906 33.2704 54.6199 32.384C54.1915 31.9486 53.6216 31.7091 53.0114 31.7091Z" fill="#272B63"/>
<path d="M45.3852 38.3251C45.0302 38.3251 44.761 38.0523 44.5826 37.867C44.5214 37.8722 44.4358 37.8985 44.3641 37.9195C44.2522 37.9527 44.135 37.9876 44.0214 37.9876C43.8483 37.9876 43.7452 37.9107 43.6875 37.846C43.5126 37.6467 43.5563 37.2848 43.67 37.0313C43.8273 36.6833 44.1246 36.484 44.483 36.484C44.5721 36.484 44.6648 36.4962 44.7592 36.5207C45.0844 36.6064 45.8992 37.1047 46.0216 37.6047C46.0705 37.8023 46.0146 37.9929 45.8677 38.1258C45.7261 38.2551 45.5583 38.3251 45.3852 38.3251Z" fill="#272B63"/>
<path d="M44.4795 36.7899C44.5407 36.7899 44.6054 36.7987 44.6771 36.8179C45.032 36.9123 45.9971 37.5889 45.6562 37.9002C45.5635 37.9841 45.4709 38.019 45.3799 38.019C45.1387 38.019 44.9184 37.7778 44.768 37.6257C44.7208 37.5785 44.6596 37.561 44.5897 37.561C44.4043 37.561 44.1631 37.6816 44.0162 37.6816C43.9725 37.6816 43.9375 37.6711 43.9148 37.6449C43.7941 37.5068 43.9235 36.7917 44.4795 36.7917M44.4795 36.178C44.0022 36.178 43.5948 36.4507 43.3868 36.9053C43.2399 37.2305 43.1682 37.7236 43.4515 38.0488C43.5913 38.2079 43.7906 38.2953 44.0162 38.2953C44.1753 38.2953 44.3187 38.2516 44.4463 38.2149C44.4568 38.2114 44.4673 38.2079 44.4778 38.2061C44.6841 38.4037 44.9813 38.6345 45.3782 38.6345C45.63 38.6345 45.8678 38.5383 46.0671 38.3565C46.2961 38.1484 46.3888 37.8407 46.3136 37.5347C46.1475 36.8564 45.1736 36.3179 44.831 36.2269C44.7103 36.1955 44.5914 36.1797 44.476 36.1797L44.4795 36.178Z" fill="#272B63"/>
<path d="M59.9651 33.1761C55.7637 33.6516 56.7463 31.8263 53.7443 32.1655C51.8735 32.3771 51.8472 33.9017 49.7806 34.1359C47.9448 34.344 47.9448 32.9313 48.4851 32.2966" fill="white"/>
<path d="M59.9684 33.1761C58.9648 33.7408 57.7741 34.0205 56.6289 33.7425C56.2215 33.6499 55.6673 33.3824 55.3526 33.2932C54.7966 33.1358 54.0465 33.2005 53.5045 33.3299C53.0657 33.4576 52.8069 33.7023 52.3803 34.0188C51.7071 34.566 50.7245 34.9507 49.8364 34.8947C49.2454 34.8755 48.6037 34.7391 48.1771 34.2741C47.6106 33.7023 47.8274 32.6533 48.4883 32.3001C48.3642 32.7005 48.3694 33.1061 48.6177 33.3876C48.9202 33.6341 49.3328 33.4803 49.679 33.3894C50.6109 33.1463 51.0095 32.426 51.7718 31.8228C52.2177 31.4644 52.8436 31.1934 53.4276 31.1077C54.3402 30.9748 55.3228 31.0203 56.1586 31.4731C56.6761 31.7406 57.038 32.127 57.5398 32.3805C58.2951 32.7704 59.0976 32.9068 59.9684 33.1796V33.1761Z" fill="#272B63"/>
<path d="M52.638 39.3969C51.5698 39.841 50.4141 40.0281 49.2846 40.2361C48.1551 40.4337 47.0169 40.5928 45.8857 40.7519C43.8051 41.0404 41.8224 41.3044 41.3014 43.6805L40.2768 43.6595C40.0006 42.2311 40.894 40.8621 42.2053 40.3183C44.0201 39.5403 45.6986 39.7239 47.51 39.6382C48.5118 39.6154 49.942 39.5875 50.9281 39.5333C51.4963 39.4983 52.0646 39.4651 52.6223 39.3514L52.638 39.3969Z" fill="#272B63"/>
<path d="M51.1491 33.9594L51.1701 35.8843L48.9531 34.4244L51.1491 33.9594Z" fill="#272B63"/>
<path d="M42.0692 44.1123C42.0692 44.1123 42.0167 45.2855 42.7738 46.7384C41.3611 46.7559 39.784 46.046 39.3906 45.5215C40.2438 45.2086 42.0674 44.1123 42.0674 44.1123H42.0692Z" fill="#272B63"/>
<path d="M47.5025 54.2285L50.015 61.0508C50.015 61.0508 49.1932 60.2762 48.5271 59.5594C47.2612 58.1974 46.4062 55.7811 46.4062 55.7811L47.5025 54.2285Z" fill="#272B63"/>
<path d="M76.303 54.267L77.1038 56.7584L75.2767 57.6396L74.5703 54.4628L76.303 54.267Z" fill="#272B63"/>
</g>
<path d="M40.6522 100.967L39.3199 107.856L39.0909 108.309L37.659 107.581L37.9964 106.044L35.8808 104.971L34.8405 106.151L33.4453 105.443L33.6744 104.99L38.4545 99.8516L40.654 100.967H40.6522ZM36.8267 103.906L38.3059 104.656L38.944 101.819L38.75 101.721L36.8285 103.906H36.8267Z" fill="white"/>
<path d="M40.8221 108.989L43.1335 102.112L44.7053 102.64L43.7909 105.361L44.5671 105.621L46.8278 103.353L48.3402 103.862L48.1776 104.343L45.7141 106.696L46.3278 110.302L46.1652 110.782L44.6126 110.261L44.1493 106.957L43.3433 106.686L42.3921 109.515L40.8203 108.987L40.8221 108.989Z" fill="white"/>
<path d="M49.4928 111.485L50.5681 105.719L48.6641 105.364L48.9193 103.999L54.3691 105.015L54.1138 106.38L52.2098 106.025L51.1346 111.791L49.4946 111.485H49.4928Z" fill="white"/>
<path d="M58.5174 105.27L60.0438 112.118L60.014 112.625L58.4108 112.531L58.1083 110.987L55.7392 110.847L55.2566 112.344L53.6953 112.251L53.725 111.744L56.0574 105.125L58.5192 105.27H58.5174ZM56.1815 109.492L57.8373 109.59L57.29 106.735L57.0732 106.723L56.1833 109.494L56.1815 109.492Z" fill="white"/>
<path d="M61.8507 112.569L61.2266 105.343L62.8788 105.2L63.1271 108.079L65.2741 107.894L65.0258 105.014L66.6886 104.871L67.3128 112.097L65.65 112.241L65.3965 109.309L63.2495 109.494L63.503 112.426L61.8507 112.569Z" fill="white"/>
<path d="M69.5737 111.809L67.7344 104.792L69.3377 104.371L69.9076 106.546L72.3432 105.908L73.6685 106.674L74.3906 109.429L73.6108 110.748L69.5719 111.807L69.5737 111.809ZM70.8256 110.045L72.3694 109.641L72.6159 109.233L72.219 107.719L71.8012 107.475L70.2573 107.878L70.8256 110.043V110.045ZM75.527 110.247L73.6877 103.231L75.291 102.812L77.1303 109.828L75.527 110.247Z" fill="white"/>
<path d="M79.4078 108.999L76.2188 102.485L77.7084 101.755L80.2873 107.023L81.7297 106.317L79.1508 101.049L80.602 100.338L83.1809 105.605L84.6233 104.899L82.0444 99.6312L83.5341 98.9021L86.7232 105.417L79.4078 108.997V108.999Z" fill="white"/>
<path d="M26.8814 29.174L25.8184 28.0253L26.4111 27.4763L26.4216 27.1825L22.8828 22.8745L26.3866 19.6277L31.3154 24.9498L30.0985 26.0758L26.1139 21.773L24.9739 22.829L28.1123 26.6598L28.0581 28.0795L26.8797 29.1705L26.8814 29.174Z" fill="white"/>
<path d="M31.6203 15.8582L37.0001 20.3603L37.2851 20.7799L35.9563 21.6803L34.7761 20.64L32.8127 21.9723L33.3407 23.455L32.0451 24.3327L31.7601 23.9131L29.5781 17.2411L31.6203 15.8582ZM32.3389 20.6296L33.7114 19.6994L31.5381 17.7674L31.358 17.8898L32.3389 20.6296Z" fill="white"/>
<path d="M40.8729 19.0244L39.962 17.1624L37.8395 18.2009L36.2641 17.6694L34.5 14.0677L35.9896 13.3386L37.4845 16.3913L37.9793 16.5522L39.3378 15.8878L37.6838 12.5098L39.1735 11.7808L42.3626 18.2953L40.8729 19.0244Z" fill="white"/>
<path d="M43.4554 17.7377L41.4062 10.779L42.9973 10.3105L43.632 12.468L46.0483 11.7564L47.3963 12.482L48.2005 15.2147L47.461 16.5558L43.4554 17.7359V17.7377ZM44.653 15.9368L46.1846 15.4857L46.4189 15.0714L45.9766 13.5712L45.5517 13.3404L44.0219 13.7915L44.6548 15.9386L44.653 15.9368ZM49.3597 15.998L47.3106 9.03937L48.9017 8.5708L50.9508 15.5295L49.3597 15.998Z" fill="white"/>
<path d="M52.1767 15.3878L51.3672 8.17912L53.0142 7.99379L53.3376 10.8664L55.4794 10.6251L55.156 7.75251L56.8135 7.56543L57.623 14.7741L55.9655 14.9594L55.6368 12.0344L53.495 12.2756L53.8237 15.2007L52.1767 15.386V15.3878Z" fill="white"/>
<path d="M63.1919 14.8948L62.0781 13.552L62.5222 8.78585L63.8632 7.67212L67.423 8.00257L67.2936 9.38556L64.5906 9.13379L64.1185 9.51669L63.7828 13.1271L64.1762 13.5905L66.8897 13.8422L66.7604 15.2252L63.1901 14.893L63.1919 14.8948Z" fill="white"/>
<path d="M67.5 15.3722L67.8724 13.8528L68.6574 14.0451L68.9075 13.893L70.5527 8.56738L75.193 9.70385L73.4691 16.7499L71.8588 16.3565L73.2522 10.6602L71.7416 10.2913L70.2747 15.0207L69.0596 15.7586L67.5 15.3774V15.3722Z" fill="white"/>
<path d="M74.6658 17.1695L77.3566 10.4329L81.8692 12.2355L81.3535 13.5258L78.3794 12.3386L77.799 13.7915L80.0019 14.6727L79.5246 15.8652L77.3216 14.984L76.7184 16.4946L79.7694 17.7132L79.2536 19.0035L74.6641 17.1695H74.6658Z" fill="white"/>
<path d="M79.1172 20.6434L80.6418 18.0662L81.1943 18.3932L81.9566 18.0015L84.8502 13.7424L88.8995 16.1377L85.9132 21.1854L86.707 21.6557L85.1824 24.2329L83.8099 23.4199L84.6282 22.0369L81.3114 20.0734L80.4932 21.4564L79.1189 20.6434H79.1172ZM82.7381 19.3059L84.4865 20.3409L86.7665 16.4874L85.4639 15.7164L83.2085 19.0418L82.7399 19.3059H82.7381Z" fill="white"/>
<path d="M86.5721 23.1594L86.9078 22.7782L90.228 21.397L91.1756 18.2254L91.5113 17.8442L92.653 18.8531L91.6704 21.8289L92.2072 22.3027L94.1129 20.1434L95.2861 21.1784L93.3804 23.3377L93.9171 23.8115L96.7565 22.474L97.8982 23.4828L97.5625 23.864L94.5325 25.198L93.5657 28.6581L93.23 29.0393L92.0183 27.9692L92.9922 24.8763L92.4484 24.3955L90.4867 26.6177L89.3136 25.5827L91.2753 23.3605L90.7385 22.8866L87.7907 24.2382L86.5703 23.1611L86.5721 23.1594Z" fill="white"/>
</svg>
