<svg width="120" height="120" viewBox="0 0 120 120" fill="none" xmlns="http://www.w3.org/2000/svg">
<g clip-path="url(#clip0_1632_40062)">
<path d="M59.9991 119.998C93.1357 119.998 119.998 93.1357 119.998 59.9991C119.998 26.8625 93.1357 0 59.9991 0C26.8625 0 0 26.8625 0 59.9991C0 93.1357 26.8625 119.998 59.9991 119.998Z" fill="#183051"/>
<path d="M101.914 66.1052C98.9453 86.5786 81.2815 102.356 60.0002 102.356C38.7189 102.356 21.0552 86.5786 18.0869 66.1052H5C6.35972 78.5772 11.8744 90.1294 20.8712 99.1281C31.3216 109.578 45.2182 115.335 59.9984 115.335C74.7786 115.335 88.6752 109.578 99.1256 99.1281C108.124 90.1294 113.637 78.5772 114.997 66.1052H101.912H101.914Z" fill="#E52521"/>
<path d="M102.104 64.5958C99.8085 85.7978 81.8003 102.356 59.9979 102.356C38.1954 102.356 20.1872 85.7978 17.8916 64.5958H4.85156C5.91734 77.6448 11.5113 89.7687 20.8707 99.1281C31.3211 109.578 45.2176 115.335 59.9979 115.335C74.7781 115.335 88.6747 109.58 99.125 99.1281C108.484 89.7687 114.078 77.6448 115.144 64.5958H102.104Z" fill="#E52521"/>
<path d="M59.9991 2.76633C67.7264 2.76633 75.2211 4.27934 82.2758 7.26207C89.0907 10.1438 95.2112 14.2717 100.47 19.5284C105.727 24.7852 109.854 30.9075 112.736 37.7224C115.721 44.7771 117.232 52.2718 117.232 59.9991C117.232 67.7264 115.719 75.2211 112.736 82.2758C109.854 89.0907 105.727 95.2112 100.47 100.47C95.213 105.727 89.0907 109.854 82.2758 112.736C75.2211 115.721 67.7264 117.232 59.9991 117.232C52.2718 117.232 44.7771 115.719 37.7224 112.736C30.9075 109.854 24.787 105.727 19.5284 100.47C14.2717 95.213 10.1438 89.0907 7.26207 82.2758C4.27753 75.2211 2.76633 67.7264 2.76633 59.9991C2.76633 52.2718 4.27934 44.7771 7.26207 37.7224C10.1438 30.9075 14.2717 24.787 19.5284 19.5284C24.7852 14.2717 30.9075 10.1438 37.7224 7.26207C44.7771 4.27753 52.2718 2.76633 59.9991 2.76633ZM59.9991 0C26.8626 0 0 26.8626 0 59.9991C0 93.1356 26.8626 119.998 59.9991 119.998C93.1356 119.998 119.998 93.1356 119.998 59.9991C119.998 26.8626 93.1374 0 59.9991 0Z" fill="white"/>
<path d="M60.0024 97.5952C80.7662 97.5952 97.5985 80.7629 97.5985 59.9991C97.5985 39.2353 80.7662 22.403 60.0024 22.403C39.2386 22.403 22.4062 39.2353 22.4062 59.9991C22.4062 80.7629 39.2386 97.5952 60.0024 97.5952Z" fill="#183051"/>
<path d="M59.9997 94.03C78.7944 94.03 94.0306 78.7938 94.0306 59.9991C94.0306 41.2043 78.7944 25.9681 59.9997 25.9681C41.2049 25.9681 25.9688 41.2043 25.9688 59.9991C25.9688 78.7938 41.2049 94.03 59.9997 94.03Z" fill="#C7C8D0"/>
<path d="M59.9983 22.3922C70.0429 22.3922 79.487 26.3036 86.5904 33.407C93.6938 40.5104 97.6053 49.9545 97.6053 59.9991C97.6053 70.0438 93.6938 79.4879 86.5904 86.5913C79.487 93.6947 70.0429 97.6061 59.9983 97.6061C49.9537 97.6061 40.5095 93.6947 33.4062 86.5913C26.3028 79.4879 22.3913 70.0438 22.3913 59.9991C22.3913 49.9545 26.3028 40.5104 33.4062 33.407C40.5095 26.3036 49.9537 22.3922 59.9983 22.3922ZM59.9983 19.6259C37.6999 19.6259 19.625 37.7026 19.625 59.9991C19.625 82.2957 37.7017 100.372 59.9983 100.372C82.2949 100.372 100.372 82.2957 100.372 59.9991C100.372 37.7026 82.2949 19.6259 59.9983 19.6259Z" fill="white"/>
<path d="M13.3847 72.3485C13.3847 72.3485 13.3883 72.3614 13.3883 72.367C13.3883 72.3596 13.3902 72.3504 13.392 72.343L13.3828 72.3485H13.3847Z" fill="white"/>
<path d="M13.3848 72.3358C13.3848 72.3358 13.3848 72.3456 13.3848 72.3495C13.3848 72.3495 13.3945 72.3436 13.3926 72.3436C13.3887 72.3417 13.3867 72.3378 13.3828 72.3358H13.3848Z" fill="white"/>
<path d="M106.463 72.343C106.463 72.343 106.465 72.3596 106.466 72.367C106.466 72.3614 106.47 72.3541 106.47 72.3485L106.461 72.343H106.463Z" fill="white"/>
<path d="M106.463 72.3436L106.471 72.3495C106.471 72.3456 106.471 72.3397 106.471 72.3358C106.467 72.3378 106.465 72.3417 106.461 72.3436H106.463Z" fill="white"/>
<path d="M17.6409 59.9991C17.6409 60.9008 17.668 61.7988 17.7257 62.6861H4.72718C4.6839 61.7952 4.66406 60.8989 4.66406 59.9991C4.66406 58.6646 4.71095 57.3391 4.80472 56.0227H17.8285C17.7059 57.3319 17.6427 58.6592 17.6427 59.9991H17.6409Z" fill="white"/>
<path d="M115.336 59.9991C115.336 60.8989 115.315 61.7952 115.273 62.6861H102.273C102.331 61.7988 102.358 60.9008 102.358 59.9991C102.358 58.6592 102.296 57.3301 102.172 56.0227H115.196C115.289 57.3391 115.336 58.6646 115.336 59.9991Z" fill="white"/>
<path d="M79.3952 87.9257C82.928 83.1811 83.1606 76.3951 83.1696 76.0615C83.1768 75.8181 83.0686 75.5854 82.8793 75.4303C82.7783 75.3474 82.6593 75.2933 82.5348 75.2698C82.4266 75.2482 82.313 75.25 82.203 75.277L78.1148 76.2472C79.8641 74.2834 80.5205 72.2619 80.6954 71.6199L83.4816 68.3252C83.5393 68.2566 83.5862 68.1773 83.6186 68.0925C87.0432 58.8991 82.5727 52.0752 82.1724 51.4927C80.6089 48.8076 76.9571 46.4001 74.1655 44.851C74.0934 44.8113 67.8502 41.9711 69.5417 42.6401C69.5832 38.4365 48.9295 50.8543 49.3334 50.8796C48.9205 51.5703 48.7834 52.2573 48.7419 52.6811C48.4408 52.9985 49.2992 53.1969 49.2667 53.4476C49.2451 53.6207 48.9493 53.6135 48.4011 54.0715C47.8908 54.4719 47.3642 55.1589 47.5517 55.8947C47.4237 55.956 47.4706 56.1273 47.3894 56.2482C46.0009 58.3617 45.0848 61.5139 44.67 65.6183C44.578 65.6508 44.4897 65.7031 44.4139 65.7716L38.8722 70.7128C38.5585 70.9923 38.5206 71.4684 38.7857 71.7948L41.4023 75.012C41.5213 75.158 41.6855 75.2518 41.8604 75.2879C42.0155 75.3185 42.1778 75.3023 42.3292 75.2356C47.7158 72.8497 50.8212 70.6984 52.6065 69.0717C51.3333 71.0266 50.933 73.6035 50.8104 74.9254L50.7455 75.6467C50.7346 75.7658 50.7527 75.8848 50.7923 75.9948C49.9863 76.1697 49.4236 76.3879 49.2288 76.4691C49.2 76.4817 49.1729 76.4925 49.1405 76.5087C46.2046 77.9135 44.2228 80.5464 43.0776 82.5085C41.9704 84.4056 42.2842 86.8112 43.8423 88.3621C44.5383 89.0546 45.2849 89.7255 45.9756 90.2755L45.6402 90.9373C44.5329 93.1121 44.1308 94.9425 44.0767 95.2004L45.238 95.1102L45.0343 95.5935C44.5492 96.7387 44.762 98.0262 45.5879 98.955C46.0586 99.4833 46.6681 99.8332 47.3534 99.9667C47.8493 100.064 48.3723 100.039 48.8628 99.8963L79.3267 91.0094C80.1815 90.7606 80.6756 89.8607 80.4267 89.0041C80.277 88.4938 79.8929 88.097 79.3988 87.9275L79.3952 87.9257Z" fill="#273959"/>
<path d="M73.8135 45.3829C77.0469 47.1773 80.2117 49.4585 81.5372 51.7596C81.5372 51.7596 86.3125 58.5311 82.9113 67.6633L80.008 71.0968C80.008 71.0968 78.6933 77.0731 71.9578 79.0316C73.7395 75.6701 72.3221 73.0805 72.3023 73.0445C69.6622 68.3792 64.5479 69.2286 63.2242 69.5406C60.0161 64.4695 55.221 66.6534 55.1867 66.6696C55.1867 66.6696 55.468 64.1143 53.5475 62.2334C53.5475 62.2334 54.561 63.6148 54.2418 65.6291C54.2418 65.6291 54.2923 70.3791 42.0385 74.3591L39.4219 71.1419L44.9636 66.2008C45.7372 66.758 47.0627 66.9095 47.0627 66.9095C45.8183 66.2224 45.4775 65.5606 45.4775 65.5606C45.9644 60.7276 47.0933 58.019 48.0743 56.524C48.0743 56.524 47.7209 55.5015 49.4214 54.5548C51.0354 53.6567 54.24 55.8081 58.7555 53.7C61.9258 52.2194 65.4153 45.1936 69.9002 44.2C70.9353 43.9709 72.7693 44.9519 73.8153 45.3847L73.8135 45.3829Z" fill="#273959"/>
<path d="M62.284 69.876C59.4798 65.6363 55.5593 67.3946 55.3898 67.4739C52.4864 68.702 51.7813 73.0264 51.6118 74.8352L51.5469 75.5565C53.7614 75.2482 55.8028 75.726 57.2491 76.4492C58.0678 71.912 60.991 70.4783 62.284 69.8742V69.876Z" fill="#303F5F"/>
<path d="M62.2294 85.3451C67.0155 83.5833 68.3861 80.1659 68.4961 79.7061C68.4979 79.6916 68.8676 77.6052 67.9136 76.3915C67.9136 76.3915 69.23 77.1958 69.2751 79.5744C69.771 79.5167 70.2471 79.441 70.7016 79.3472C72.8493 76.0633 71.4626 73.5314 71.4427 73.4989C68.8261 68.8752 63.4467 70.3359 63.0427 70.4531C62.3016 70.7308 58.8824 72.2438 58.0078 76.8423C61.115 79.1416 62.3376 82.1875 62.2312 85.3433L62.2294 85.3451Z" fill="#303F5F"/>
<mask id="mask0_1632_40062" style="mask-type:luminance" maskUnits="userSpaceOnUse" x="51" y="67" width="12" height="10">
<path d="M62.284 69.8761C59.4798 65.6365 55.5593 67.3947 55.3898 67.4741C52.4864 68.7021 51.7813 73.0266 51.6118 74.8353L51.5469 75.5567C53.7614 75.2483 55.8028 75.7262 57.2491 76.4493C58.0678 71.9121 60.991 70.4784 62.284 69.8743V69.8761Z" fill="white"/>
</mask>
<g mask="url(#mask0_1632_40062)">
<path d="M55.1328 76.1373C55.1328 76.1373 62.4021 70.7399 59.1182 67.2559C59.1182 67.2559 61.7637 68.08 62.485 70.0745C62.485 70.0745 58.2057 73.16 57.3726 77.3257L55.1346 76.1391L55.1328 76.1373Z" fill="#183051"/>
<path d="M52.2682 71.5262C52.2682 71.5262 51.6875 74.1771 51.5469 75.5548C51.5469 75.5548 54.2952 75.1256 57.2491 76.4475C57.2491 76.4475 57.7161 74.2474 58.5817 72.9346C58.5817 72.9346 55.5828 70.6299 52.2664 71.5243L52.2682 71.5262Z" fill="white"/>
</g>
<mask id="mask1_1632_40062" style="mask-type:luminance" maskUnits="userSpaceOnUse" x="39" y="43" width="46" height="37">
<path d="M71.7937 44.4688C75.4599 45.9096 80.1685 49.4243 81.5372 51.7615C81.5372 51.7615 86.3125 58.533 82.9113 67.6652L80.008 71.0988C80.008 71.0988 78.6933 77.075 71.9578 79.0335C73.7395 75.672 72.3221 73.0824 72.3023 73.0464C69.6622 68.3811 64.5479 69.2305 63.2242 69.5425C60.0161 64.4715 55.221 66.6553 55.1867 66.6715C55.1867 66.6715 55.468 64.1162 53.5475 62.2353C53.5475 62.2353 54.561 63.6167 54.2418 65.631C54.2418 65.631 54.2923 70.381 42.0385 74.361L39.4219 71.1438L44.9636 66.2027C45.7372 66.7599 47.0627 66.9114 47.0627 66.9114C45.8183 66.2243 45.4775 65.5625 45.4775 65.5625C45.9644 60.7295 47.0933 58.0209 48.0743 56.5259C48.0743 56.5259 47.7209 55.5034 49.4214 54.5567C51.0354 53.6586 54.24 55.81 58.7555 53.7019C62.658 51.8805 63.6895 40.4311 71.7955 44.4706L71.7937 44.4688Z" fill="white"/>
</mask>
<g mask="url(#mask1_1632_40062)">
<path d="M86.7107 57.0164C85.7982 55.7595 79.4919 47.0764 79.4721 47.062C79.4505 47.0457 72.3471 41.4752 72.1794 43.4986C71.9756 45.9709 68.6719 48.5605 68.6719 48.5605C68.6719 48.5605 70.8954 49.5614 75.8095 52.4882C78.2134 53.9201 82.6262 60.0659 84.563 59.5159L86.7107 57.0182V57.0164Z" fill="white"/>
<path d="M53.6796 62.3706C53.6796 62.3706 54.1358 65.1207 51.3605 67.3587C51.3605 67.3587 49.0684 69.3568 44.7891 70.9437L44.9622 73.995C44.9622 73.995 51.4272 70.5019 51.5895 70.3937C51.7518 70.2837 54.3666 67.1495 54.3847 67.0575C54.4027 66.9655 55.0519 63.5265 53.6778 62.3706H53.6796Z" fill="#183051"/>
<path d="M43.8262 66.6445L42.1328 68.0782C42.1328 68.0782 43.5773 71.2719 42.7369 74.8155L46.0154 73.2123C46.0154 73.2123 47.3102 69.0394 43.8262 66.6445Z" fill="white"/>
<path d="M72.4229 56.3492C72.4229 56.3492 73.2976 62.1542 65.9453 64.9566C65.9453 64.9566 69.7882 63.8638 68.5115 66.7563C67.8118 68.3433 72.5275 66.2803 72.917 66.9655C73.11 67.3064 70.2102 68.1071 70.4338 69.2017C70.6322 70.1719 73.0054 68.8699 72.9838 70.244C72.9748 70.7922 68.8613 75.0734 71.8621 79.5385C71.8621 79.5385 74.3615 78.5881 75.2398 78.2058C75.2398 78.2058 77.4074 79.946 78.1125 76.2492L76.8898 67.2451C76.8898 67.2451 76.668 57.7522 72.4229 56.351V56.3492Z" fill="#183051"/>
<path d="M54.4159 65.8131L54.7495 64.2244C54.7495 64.2244 56.1453 66.2856 58.9946 65.6544C58.9946 65.6544 58.6105 65.8979 58.6808 66.392L55.0398 67.1296L54.3672 66.5976L54.4159 65.8131Z" fill="#183051"/>
</g>
<mask id="mask2_1632_40062" style="mask-type:luminance" maskUnits="userSpaceOnUse" x="58" y="70" width="14" height="16">
<path d="M71.4427 73.5008C68.8261 68.877 63.4467 70.3377 63.0427 70.4549C62.3016 70.7326 58.8824 72.2456 58.0078 76.8442C61.115 79.1434 62.3376 82.1893 62.2312 85.3452C67.0173 83.5833 68.3879 80.1659 68.4979 79.7061C68.4997 79.6917 68.8694 77.6052 67.9154 76.3915C67.9154 76.3915 69.2318 77.1958 69.2769 79.5744C69.7728 79.5167 70.2489 79.441 70.7034 79.3472C72.8511 76.0633 71.4644 73.5314 71.4445 73.499L71.4427 73.5008Z" fill="white"/>
</mask>
<g mask="url(#mask2_1632_40062)">
<path d="M67.4922 70.0474C67.4922 70.0474 72.3053 73.0445 68.9204 78.1462L68.9349 79.9676L71.3153 79.6213C71.3153 79.6213 75.5153 72.7488 67.4922 70.0474Z" fill="#183051"/>
<path d="M67.9348 76.4204C67.9348 76.4204 67.163 81.4229 61.8828 82.99L62.0361 85.6968C62.0361 85.6968 67.3217 83.1307 68.2035 81.2389C68.2035 81.2389 69.7598 78.1498 67.933 76.4204H67.9348Z" fill="#183051"/>
<path d="M59.5665 73.1599C59.5665 73.1599 58.2285 75.0029 57.8516 76.7955C57.8516 76.7955 60.2248 77.8901 62.2265 85.3451C62.2265 85.3451 66.3796 83.998 67.7934 81.1235C67.7934 81.1235 68.201 74.8515 59.5665 73.1617V73.1599Z" fill="white"/>
</g>
<path d="M66.9075 52.8849C67.2844 53.0526 61.1386 55.7504 60.5381 63.9051C60.5381 63.9051 56.1109 56.2643 50.0859 56.2066C51.0255 56.0407 55.3517 52.2771 58.8051 51.637C62.6931 50.9156 65.7534 53.296 66.9075 52.8867V52.8849Z" fill="#183051"/>
<path d="M65.0406 50.1546C65.3994 50.2845 59.901 53.177 59.8794 60.7439C59.8794 60.7439 55.2935 53.9777 49.7266 54.3168C50.5832 54.1022 54.3323 50.3458 57.4791 49.5289C61.0227 48.6092 64.0018 50.6073 65.0424 50.1546H65.0406Z" fill="white"/>
<path d="M39.0175 77.3112C38.8913 77.4194 38.0996 78.0884 38.0996 78.0884C37.6487 78.4707 37.0572 78.624 36.4784 78.5104C36.051 78.4257 35.6597 78.1966 35.3765 77.863C35.2016 77.6574 35.0772 77.423 35.0014 77.1723C34.7706 77.2012 34.5344 77.1958 34.2999 77.1489C33.8112 77.0533 33.3622 76.79 33.0394 76.4095C32.7328 76.0471 32.5651 75.6161 32.5254 75.176C32.4695 75.1688 32.4136 75.1634 32.3577 75.1526C31.8239 75.048 31.337 74.7613 30.9854 74.3465C30.5688 73.856 30.3686 73.232 30.4227 72.5918C30.475 71.9517 30.7744 71.3692 31.2649 70.9526L32.5633 69.8508C33.1133 69.3837 33.8347 69.1925 34.5434 69.3188C34.3612 68.8391 34.3071 68.3864 34.3865 67.9645C34.5254 67.2341 35.0086 66.8897 35.1042 66.8284C35.115 66.8211 35.1277 66.8139 35.1385 66.8067C35.6506 66.511 36.271 66.4334 36.9869 66.5723C37.8399 66.74 38.6496 67.1926 39.0355 67.4343C39.1383 67.0339 39.3186 66.7039 39.4827 66.4965C39.9192 65.9141 40.5575 65.6363 41.2843 65.7157C41.8397 65.777 42.2635 66.0277 42.3429 66.0782C42.3663 66.0926 42.3879 66.1088 42.4096 66.125C44.671 67.9013 43.9893 73.3294 43.3599 74.727C43.0696 75.3726 41.8848 75.6792 41.8848 75.6792C41.8848 75.6792 40.0905 75.9948 39.0157 77.3076L39.0175 77.3112Z" fill="#273959"/>
<path d="M52.4084 79.5059C50.2967 79.7025 48.6719 81.3615 47.6566 82.7537L47.3915 83.1306C46.9335 83.8051 46.6359 84.3695 46.5133 84.5985C46.4754 84.6689 46.4899 84.7536 46.5458 84.8095L48.0732 86.3207C48.1237 86.3712 48.2048 86.3496 48.2319 86.2829C48.4952 85.603 48.8162 84.9376 49.1588 84.3028C48.9604 84.0756 48.5457 83.7095 47.9037 83.668C47.9037 83.668 48.4825 83.4119 49.5068 83.6842C50.6862 81.6627 52.0315 80.0667 52.4643 79.6105C52.5058 79.5672 52.4661 79.4987 52.4066 79.5041L52.4084 79.5059Z" fill="#183051"/>
<path d="M57.9553 85.9384C57.5062 84.7428 56.206 84.5102 56.206 84.5102C57.1546 84.3767 57.7551 84.7536 58.0238 84.9809C57.9787 83.1919 56.9995 81.8268 56.6064 81.3507C56.5234 81.2497 56.3683 81.2443 56.2799 81.3417C55.2286 82.4977 54.1989 84.2739 53.3495 85.9168C55.1006 86.1981 55.6939 87.9654 55.6939 87.9654C54.9365 87.0403 53.6416 86.6471 52.8824 86.8347C52.4442 87.7165 52.1142 88.4379 51.9591 88.7841C51.9032 88.9085 51.9591 89.0492 52.0872 89.0997C52.7093 89.3522 54.4622 90.0483 55.4576 90.2989C56.0437 90.4468 56.6532 90.1619 56.8949 89.61C57.5693 88.0628 57.9354 86.0827 57.9354 86.0827C57.9444 86.034 57.9498 85.9871 57.9571 85.9384H57.9553Z" fill="#183051"/>
<path d="M41.4796 79.7926C41.0396 79.706 40.7889 79.4211 40.6392 79.2498L22.6761 58.7909C22.3136 58.3779 22.1513 57.8351 22.2307 57.3013C22.3587 56.4357 22.5535 55.534 22.8113 54.6251C23.8483 50.9589 25.639 47.9834 26.3603 46.8725C26.6471 46.4325 27.1105 46.1314 27.6299 46.0484C28.3765 45.9294 29.1429 45.9438 29.9129 46.0953C31.4259 46.391 32.6774 47.1593 33.4601 47.749C33.9037 48.0826 34.1742 48.5929 34.2031 49.1466C34.2319 49.693 34.0191 50.2196 33.6206 50.591C30.5351 53.4674 29.2817 56.5331 28.8868 57.7179C28.858 57.8062 28.8724 57.9 28.9265 57.9775L43.1134 77.7188C43.135 77.7476 43.1531 77.7783 43.1693 77.8107C43.3911 78.2309 43.3514 78.7196 43.0647 79.1182C42.7185 79.5979 42.0512 79.89 41.512 79.7998C41.5048 79.7998 41.4868 79.7944 41.4796 79.7944V79.7926Z" fill="#183051"/>
<path d="M32.9827 48.3783C31.8845 47.5488 29.9675 46.4704 27.7494 46.8256C27.4483 46.8743 27.1814 47.0474 27.0137 47.3017C26.3572 48.3116 24.5791 51.242 23.5621 54.8379C23.3276 55.6674 23.1329 56.5312 23.003 57.4149C22.9579 57.7232 23.0553 58.037 23.2627 58.2714L41.2258 78.7304C41.3484 78.8693 41.4566 78.9919 41.6388 79.0225C42.0067 79.0857 42.7208 78.6493 42.4701 78.1768L28.2832 58.4356C28.0812 58.1542 28.0253 57.7972 28.1353 57.469C28.5501 56.2246 29.8611 53.0147 33.0783 50.0157C33.5652 49.5613 33.5129 48.7768 32.9809 48.3765L32.9827 48.3783Z" fill="#95969B"/>
<mask id="mask3_1632_40062" style="mask-type:luminance" maskUnits="userSpaceOnUse" x="22" y="46" width="21" height="34">
<path d="M32.9827 48.3783C31.8845 47.5488 29.9675 46.4704 27.7494 46.8256C27.4483 46.8743 27.1814 47.0474 27.0137 47.3017C26.3572 48.3116 24.5791 51.242 23.5621 54.8379C23.3276 55.6674 23.1329 56.5312 23.003 57.4149C22.9579 57.7232 23.0553 58.037 23.2627 58.2714L41.2258 78.7304C41.3484 78.8693 41.4566 78.9919 41.6388 79.0225C42.0067 79.0857 42.7208 78.6493 42.4701 78.1768L28.2832 58.4356C28.0812 58.1542 28.0253 57.7972 28.1353 57.469C28.5501 56.2246 29.8611 53.0147 33.0783 50.0157C33.5652 49.5613 33.5129 48.7768 32.9809 48.3765L32.9827 48.3783Z" fill="white"/>
</mask>
<g mask="url(#mask3_1632_40062)">
<path d="M29.5973 45.5778C29.5973 45.5778 24.337 51.9345 23.9601 57.2057C23.9456 57.4005 24.0196 57.5916 24.1458 57.7431L42.677 79.7277H41.2578L22.6328 58.0641C22.6328 58.0641 24.759 47.9834 27.6263 46.052L29.5955 45.5796L29.5973 45.5778Z" fill="#CFCECE"/>
</g>
<path d="M25.3208 55.3987C27.0249 56.3419 28.3396 55.9596 28.8445 55.7414C28.9509 55.5214 29.0645 55.305 29.1799 55.0922C28.0691 55.1823 26.1413 53.828 26.1413 53.828C27.9266 54.8162 29.2881 54.3492 29.7372 54.1382C29.867 53.929 29.9986 53.727 30.1267 53.5341C28.9996 53.4854 27.2648 52.2645 27.2648 52.2645C28.9545 53.2005 30.2619 52.8326 30.7759 52.6126C31.3493 51.8389 31.7803 51.3538 31.7803 51.3538C27.7715 51.6099 26.1413 48.7606 26.1413 48.7606C25.9411 49.1159 25.7572 49.4621 25.5841 49.803C25.8491 50.3277 26.6047 51.4115 28.4369 51.8065C28.4369 51.8065 25.786 51.5269 25.1891 50.6C25.0521 50.8868 24.9276 51.1627 24.8104 51.4314C25.108 51.9796 25.8744 52.9786 27.62 53.3555C27.62 53.3555 25.1909 53.0995 24.457 52.2681C24.3578 52.5134 24.2694 52.7442 24.1865 52.9624C24.4389 53.4764 25.1873 54.5908 27.052 54.9912C27.052 54.9912 24.5652 54.7315 23.8637 53.8749C23.6382 54.5494 23.5391 54.9461 23.5391 54.9461C24.7942 57.047 28.363 56.8594 28.363 56.8594C28.3883 56.7927 28.4171 56.726 28.4442 56.6575C27.3495 56.827 25.3208 55.3987 25.3208 55.3987Z" fill="white"/>
<path d="M65.7557 88.2413L63.1499 89.0438C61.6657 89.4784 60.4178 89.8535 60.4268 89.8265C63.8586 80.7863 56.6686 77.1922 56.6686 77.1922C56.0248 76.8785 55.3792 76.6747 54.7535 76.5521C52.144 76.0417 49.8826 76.9362 49.6139 77.0498C49.5959 77.057 49.5797 77.0642 49.5616 77.0732C46.8332 78.3788 44.9613 80.835 43.8378 82.761C42.9127 84.3461 43.1778 86.3677 44.478 87.6625C48.3696 91.5379 52.2811 92.9877 54.9663 93.5143C55.0691 93.5342 55.1719 93.554 55.271 93.5702C55.904 93.682 56.5334 93.6442 57.1231 93.4819C57.2313 93.4602 60.2988 92.6487 66.01 90.8255C81.8758 95.2942 82.4006 75.8884 82.4006 75.8884L77.9968 76.9344L76.4622 77.8469C75.4397 78.7936 73.8239 79.4518 72.383 79.8882C68.5202 81.0334 67.1244 84.7627 65.7539 88.2449L65.7557 88.2413ZM46.0433 86.0863C45.4554 85.5003 45.3364 84.5914 45.7548 83.8736C46.6835 82.2813 48.2596 80.1605 50.494 79.0803C50.723 78.9884 52.4001 78.359 54.2918 78.7179C53.0547 80.0956 50.595 83.2443 48.6257 88.29C47.7781 87.6751 46.9125 86.9483 46.0451 86.0845L46.0433 86.0863ZM57.8336 90.2575C57.4459 91.078 56.5514 91.5415 55.657 91.3828C55.5704 91.3683 55.482 91.3503 55.3937 91.3341C54.0826 91.078 52.3911 90.555 50.5318 89.5145C52.7572 83.614 55.7525 80.3679 56.4288 79.6845C56.9337 80.0794 57.6028 80.7106 58.1456 81.5906C59.5666 83.8935 59.4602 86.8095 57.8336 90.2575Z" fill="#CFCECE"/>
<path d="M42.4128 66.1269C42.3912 66.1107 42.3695 66.0944 42.3461 66.08C42.283 66.0403 41.9439 65.8383 41.4823 65.7482C40.6852 65.5931 39.9584 65.8654 39.4842 66.4984C39.3056 66.7256 39.1055 67.0971 39.0099 67.5479C38.8133 67.4055 37.8521 66.7292 36.799 66.5236C36.166 66.3992 35.607 66.4659 35.1381 66.7184C35.1273 66.7238 35.1147 66.731 35.1038 66.7382C35.0101 66.7941 34.5394 67.1115 34.3861 67.8076C34.2761 68.3089 34.3627 68.8626 34.6422 69.4595C34.5791 69.4414 34.5159 69.427 34.451 69.4144C33.7441 69.2755 33.0246 69.4631 32.4764 69.9283L31.223 70.9923C30.7434 71.3981 30.4512 71.9679 30.3989 72.5937C30.3466 73.2194 30.5432 73.829 30.9489 74.3087C31.2934 74.7144 31.7695 74.9939 32.2906 75.0949C32.3718 75.1112 32.4529 75.122 32.5341 75.1292C32.5701 75.6071 32.7487 76.0489 33.0552 76.4096C33.3834 76.7973 33.8397 77.0642 34.3374 77.1616C34.5628 77.2066 34.7901 77.212 35.0119 77.1886C35.0894 77.4411 35.212 77.6719 35.3779 77.8685C35.6611 78.2021 36.0506 78.4311 36.4798 78.5159C37.0605 78.6295 37.6502 78.4762 38.101 78.0939L39.0189 77.3166C39.8304 76.6278 39.9314 75.4069 39.2425 74.5936C39.0063 74.3141 38.6925 74.1085 38.339 73.9985C38.312 73.9895 38.2849 73.9841 38.2579 73.9787C38.2344 73.975 38.2128 73.9732 38.1894 73.9714C38.1912 73.4539 38.018 72.958 37.6916 72.5522C37.7908 72.5847 37.8882 72.6135 37.9874 72.6334C39.0027 72.8317 39.7402 72.2979 40.0234 71.9427C40.0703 71.885 40.1965 71.7191 40.3227 71.472C40.449 71.9264 40.4832 72.2348 40.4832 72.2366C40.4832 72.2366 40.6221 73.8254 40.6383 74.0093C40.678 75.0769 41.2551 75.5674 41.7852 75.672C42.42 75.7964 43.0548 75.4195 43.3632 74.7361C43.9943 73.3367 44.6742 67.9086 42.4128 66.1323V66.1269ZM36.3481 71.7605C36.3481 71.7461 36.3481 71.7335 36.3481 71.7191C36.3644 71.7353 36.3824 71.7515 36.3986 71.7659C36.3806 71.7641 36.3644 71.7605 36.3463 71.7605H36.3481Z" fill="#273959"/>
<path d="M33.7584 73.9786L35.0117 72.9146C35.6717 72.3556 35.7529 71.3674 35.1938 70.7073C34.6348 70.0473 33.6466 69.9662 32.9866 70.5252L31.7332 71.5892C31.0732 72.1482 30.9921 73.1365 31.5511 73.7965C32.1101 74.4565 33.0984 74.5377 33.7584 73.9786Z" fill="#303F5F"/>
<path d="M37.0562 73.0121C36.8507 72.7704 36.5856 72.6153 36.2988 72.5432C36.1744 72.7813 36.0049 72.9995 35.7885 73.1834L34.0753 74.6351C33.8445 74.8299 33.5848 74.9669 33.3125 75.0499C33.3323 75.351 33.4405 75.6486 33.6515 75.8974C34.1745 76.5142 35.0978 76.5899 35.7146 76.067L36.8867 75.0733C37.5035 74.5503 37.5792 73.627 37.0562 73.0103V73.0121Z" fill="#303F5F"/>
<path d="M38.6444 75.0968C38.4983 74.9236 38.3108 74.8082 38.1088 74.7451C37.9934 74.9796 37.8311 75.196 37.6183 75.3763L36.0602 76.6963C35.9628 76.7793 35.8582 76.8514 35.75 76.9109C35.7933 77.0696 35.8654 77.2211 35.979 77.3546C36.3884 77.8379 37.1115 77.8974 37.5948 77.488L38.5127 76.7108C38.996 76.3014 39.0555 75.5783 38.6462 75.095L38.6444 75.0968Z" fill="#303F5F"/>
<path d="M41.9271 66.7454C41.9271 66.7454 40.8 66.0385 40.1075 66.978C40.1075 66.978 39.2888 67.9951 40.0768 69.1023C40.6197 69.867 40.9659 71.1744 41.1697 72.242C41.3518 73.1959 41.4221 73.9551 41.4239 73.9606C41.4582 75.1219 42.3184 75.1399 42.6466 74.4078C43.2471 73.0769 43.7521 68.179 41.9271 66.7454Z" fill="#303F5F"/>
<path d="M39.4142 71.4431C39.4142 71.4431 40.819 69.7912 38.5666 68.1971C38.5666 68.1971 36.6785 66.7814 35.5117 67.4108C35.5117 67.4108 34.5397 68.0005 35.6776 69.6956C38.0364 73.2104 39.4142 71.4431 39.4142 71.4431Z" fill="#303F5F"/>
<path d="M75.7947 67.8293C76.6152 61.9522 75.5999 60.5167 75.0373 59.359C73.8074 56.8217 70.2656 55.8749 70.2656 55.8749C72.4495 55.7757 75.1942 58.0191 75.1942 58.0191C75.9137 57.1751 76.7577 56.8577 76.7577 56.8577C75.8289 57.9686 75.8037 58.5943 75.8037 58.5943C78.1462 61.8548 77.5187 68.1701 77.5187 68.1701L75.7947 67.8311V67.8293Z" fill="#273959"/>
<path d="M47.5018 99.1948C46.9987 99.0957 46.5316 98.8342 46.1728 98.432C45.5506 97.7323 45.3901 96.7621 45.7562 95.8983L46.7372 93.581C46.9157 93.159 47.4026 92.9607 47.8264 93.1392C48.2484 93.3177 48.4468 93.8064 48.2683 94.2284L47.2872 96.5457C47.1177 96.9461 47.3431 97.2436 47.4153 97.3248C47.4874 97.4059 47.7579 97.6656 48.1745 97.543L78.6384 88.6561C79.0784 88.5281 79.5401 88.7805 79.6699 89.2223C79.7979 89.6624 79.5455 90.124 79.1036 90.2539L48.6397 99.1407C48.2592 99.2525 47.8697 99.267 47.5 99.1948H47.5018Z" fill="#95969B"/>
<mask id="mask4_1632_40062" style="mask-type:luminance" maskUnits="userSpaceOnUse" x="43" y="75" width="40" height="19">
<path d="M65.7557 88.2413L63.1499 89.0438C61.6657 89.4784 60.4178 89.8535 60.4268 89.8265C63.8586 80.7863 56.6686 77.1922 56.6686 77.1922C56.0248 76.8785 55.3792 76.6747 54.7535 76.5521C52.144 76.0417 49.8826 76.9362 49.6139 77.0498C49.5959 77.057 49.5797 77.0642 49.5616 77.0732C46.8332 78.3788 44.9613 80.835 43.8378 82.761C42.9127 84.3461 43.1778 86.3677 44.478 87.6625C48.3696 91.5379 52.2811 92.9877 54.9663 93.5143C55.0691 93.5342 55.1719 93.554 55.271 93.5702C55.904 93.682 56.5334 93.6442 57.1231 93.4819C57.2313 93.4602 60.2988 92.6487 66.01 90.8255C81.8758 95.2942 82.4006 75.8884 82.4006 75.8884L77.9968 76.9344L76.4622 77.8469C75.4397 78.7936 73.8239 79.4518 72.383 79.8882C68.5202 81.0334 67.1244 84.7627 65.7539 88.2449L65.7557 88.2413ZM46.0433 86.0863C45.4554 85.5003 45.3364 84.5914 45.7548 83.8736C46.6835 82.2813 48.2596 80.1605 50.494 79.0803C50.723 78.9884 52.4001 78.359 54.2918 78.7179C53.0547 80.0956 50.595 83.2443 48.6257 88.29C47.7781 87.6751 46.9125 86.9483 46.0451 86.0845L46.0433 86.0863ZM57.8336 90.2575C57.4459 91.078 56.5514 91.5415 55.657 91.3828C55.5704 91.3683 55.482 91.3503 55.3937 91.3341C54.0826 91.078 52.3911 90.555 50.5318 89.5145C52.7572 83.614 55.7525 80.3679 56.4288 79.6845C56.9337 80.0794 57.6028 80.7106 58.1456 81.5906C59.5666 83.8935 59.4602 86.8095 57.8336 90.2575Z" fill="white"/>
</mask>
<g mask="url(#mask4_1632_40062)">
<path d="M83.2618 74.7325C83.2618 74.7325 83.8858 93.3521 67.5547 91.6659C67.5547 91.6659 80.968 91.2566 78.0556 75.7189L83.2618 74.7307V74.7325Z" fill="#95969B"/>
</g>
<path d="M76.0123 73.5963C75.8229 72.4097 76.941 71.5531 76.9338 71.1059C76.9265 70.5703 76.4072 70.39 75.8806 70.4928C74.7697 70.711 74.2107 72.6478 74.2107 72.6478C73.96 73.5945 74.0123 74.9849 74.0123 74.9849C74.3712 75.8379 76.0014 76.0291 76.0014 76.0291C76.5803 75.3979 76.2287 74.9579 76.0105 73.5945L76.0123 73.5963Z" fill="#303F5F"/>
<path d="M92.8887 85.8248C92.1241 85.7527 91.5164 85.1197 91.4406 84.3208C91.134 81.073 89.9511 78.7918 89.4569 77.9622C89.4443 77.9406 89.4317 77.9316 89.4281 77.9298L72.3216 76.1048L72.2656 76.0904C71.8671 75.9876 71.5623 75.672 71.4523 75.25C71.3405 74.8226 71.4235 74.2041 71.7968 73.847C72.1196 73.5386 72.4965 73.5368 72.6786 73.5368L91.7418 73.526C91.7887 73.526 91.8356 73.5278 91.8842 73.5332C92.2918 73.5711 92.6651 73.7713 92.9356 74.0941C93.372 74.617 93.7958 75.1941 94.1997 75.8108C95.8264 78.2995 96.7406 80.871 97.058 81.8611C97.1933 82.2812 97.1608 82.7411 96.9697 83.1252C96.3024 84.4597 95.0221 85.4082 93.3648 85.7942C93.2097 85.8302 93.051 85.841 92.8923 85.8266L92.8887 85.8248Z" fill="#183051"/>
<path d="M93.1821 85.0277C94.1108 84.8113 95.5265 84.2451 96.264 82.7735C96.365 82.5734 96.3795 82.3299 96.3073 82.1009C96.0188 81.2028 95.1261 78.6691 93.5392 76.24C93.1731 75.6792 92.771 75.1255 92.3291 74.5972C92.1759 74.4132 91.9576 74.3104 91.7394 74.3104L72.6763 74.3212C72.5464 74.3212 72.4328 74.3212 72.3373 74.4132C72.1461 74.5954 72.0902 75.2337 72.4599 75.3293L89.5249 77.1507C89.7666 77.1759 89.992 77.3274 90.1291 77.5582C90.652 78.4365 91.8981 80.8385 92.2209 84.2451C92.2696 84.7608 92.7313 85.1305 93.1821 85.0259V85.0277Z" fill="#95969B"/>
<mask id="mask5_1632_40062" style="mask-type:luminance" maskUnits="userSpaceOnUse" x="72" y="74" width="25" height="12">
<path d="M93.1821 85.0277C94.1108 84.8113 95.5265 84.2451 96.264 82.7735C96.365 82.5734 96.3795 82.3299 96.3073 82.1009C96.0188 81.2028 95.1261 78.6691 93.5392 76.24C93.1731 75.6792 92.771 75.1255 92.3291 74.5972C92.1759 74.4132 91.9576 74.3104 91.7394 74.3104L72.6763 74.3212C72.5464 74.3212 72.4328 74.3212 72.3373 74.4132C72.1461 74.5954 72.0902 75.2337 72.4599 75.3293L89.5249 77.1507C89.7666 77.1759 89.992 77.3274 90.1291 77.5582C90.652 78.4365 91.8981 80.8385 92.2209 84.2451C92.2696 84.7608 92.7313 85.1305 93.1821 85.0259V85.0277Z" fill="white"/>
</mask>
<g mask="url(#mask5_1632_40062)">
<path d="M71.9766 74.8153L90.7566 74.9235C91.2399 74.9271 91.6979 75.1507 91.9919 75.5348C92.9188 76.7467 94.8917 79.6934 95.6617 83.6517L96.3199 83.4876L96.814 82.3713C96.814 82.3713 94.0333 75.0948 92.3995 74.1463L72.2958 74.1084L71.9766 74.8153Z" fill="#CFCECE"/>
</g>
<path d="M93.3841 76.011C93.3841 76.011 92.1957 77.6881 90.5312 78.2976L90.809 78.8783L93.321 78.2057L91.0506 79.4409C91.0506 79.4409 91.4077 80.3498 91.561 80.8872L93.0289 81.0026L91.7936 81.7384L92.0659 83.0639C92.0659 83.0639 94.5004 82.3714 95.8854 80.9161L95.375 79.6736L92.2877 79.982L94.9242 78.6998L94.1163 77.1832L93.0397 77.3364L93.6691 76.4456L93.3859 76.0128L93.3841 76.011Z" fill="white"/>
<path d="M82.5376 75.0481C82.0453 75.0066 81.6215 75.3799 81.5927 75.874C81.5584 76.4493 81.4213 77.2391 80.9958 78.0579C80.9092 78.2238 80.902 78.4293 81.0084 78.5826C81.1076 78.7215 81.3005 78.8261 81.6792 78.7197C82.0038 78.6277 82.2869 78.4275 82.5033 78.1679C82.882 77.7098 83.4645 76.8208 83.3293 75.7929C83.277 75.3907 82.9434 75.0823 82.5394 75.0481H82.5376Z" fill="#303F5F"/>
<path d="M81.4696 75.4086C81.4083 74.8767 80.9647 74.4673 80.4309 74.406H80.4237C79.7619 74.3284 79.1631 74.8099 79.1054 75.4754C79.0964 75.5728 79.0856 75.6755 79.073 75.7819C79.0838 75.5854 79.0802 75.3834 79.0549 75.1778C78.9936 74.6458 78.5879 74.2275 78.0757 74.0976C79.4391 74.1806 81.2875 74.4024 82.6346 74.9903C83.1287 75.2067 83.7022 74.9055 83.7815 74.3717C83.915 73.4791 83.7725 72.26 82.2667 71.6451C82.2667 71.6451 76.7034 69.0573 76.2507 73.1382C76.1966 73.6197 76.5717 74.0453 77.0568 74.0543C77.2047 74.0579 77.3724 74.0633 77.551 74.0706C76.9595 74.1553 76.4762 74.6296 76.4239 75.2518C76.3499 76.1246 76.1047 77.3238 75.4176 78.5591C75.2787 78.808 75.2571 79.1199 75.414 79.3562C75.5565 79.5708 75.8396 79.7349 76.4058 79.5978C76.9108 79.477 77.3562 79.183 77.6988 78.7935C78.0595 78.3842 78.5392 77.735 78.8277 76.9397C78.6889 77.4176 78.4887 77.9279 78.2002 78.4473C78.0757 78.6709 78.0559 78.9504 78.1966 79.1632C78.3282 79.3616 78.5969 79.5131 79.1415 79.367C79.5761 79.2498 79.9584 78.9901 80.256 78.6529C80.797 78.0361 81.6319 76.8315 81.4678 75.4086H81.4696Z" fill="#303F5F"/>
<path d="M78.7348 69.5551C78.7348 69.5551 78.3272 70.3179 77.8998 70.3702C76.1019 70.592 75.4383 67.7048 75.1479 66.6156C75.065 66.3054 75.1515 65.9664 75.3878 65.75C76.569 64.6698 77.8403 64.9097 78.3921 65.0936C78.5815 65.1567 78.7853 65.1549 78.9728 65.0828C80.9619 64.32 82.2693 65.2108 82.7598 65.6526C82.9095 65.7879 83.1025 65.86 83.3027 65.8708C84.8319 65.9448 85.4108 67.1945 85.5749 67.6616C85.6109 67.7662 85.62 67.8816 85.5911 67.9898C85.0267 70.188 83.9194 71.3151 83.1548 71.5586C83.1548 71.5586 81.7806 71.9697 81.5264 70.1953C81.5264 70.1953 80.6175 70.9148 79.8817 70.7633C79.8817 70.7633 78.834 70.6172 78.733 69.5551" fill="#303F5F"/>
<path d="M84.7375 66.7328L85.3849 68.0096C85.3849 68.0096 83.9549 72.3664 81.8828 71.1708C81.8828 71.1708 83.9513 71.1113 84.7375 66.7328Z" fill="#E52521"/>
<path d="M81.5647 65.3027L82.3798 65.6039C82.3798 65.6039 82.4934 69.0303 80.8235 70.399L80.1094 70.4892C80.1094 70.4892 81.8009 68.4712 81.5665 65.3027H81.5647Z" fill="#E52521"/>
<path d="M77.1016 65.2216L78.2972 65.2432C78.2972 65.2432 79.0311 68.1304 78.1782 70.1627L77.5903 70.1771C77.5903 70.1771 78.6542 67.0898 77.1016 65.2216Z" fill="#E52521"/>
<path d="M81.5962 71.508C81.5962 71.508 83.9694 72.5432 83.7349 73.7857C83.7349 73.7857 84.0451 75.6287 81.5078 74.4781C81.5078 74.4781 82.9361 73.5368 81.5962 71.5062V71.508Z" fill="white"/>
<path d="M82.5508 75.2806C82.5508 75.2806 83.0305 75.6215 83.0215 76.0344C83.0106 76.4474 82.4011 78.6583 81.375 78.5357C81.375 78.5357 82.9349 77.0137 82.5508 75.2806Z" fill="white"/>
<path d="M80.5467 74.6964L81.2464 75.1779C81.2464 75.1779 81.2573 78.0038 80.0075 78.5718C80.0075 78.5718 79.3241 79.3112 78.7344 79.0821C78.7344 79.0821 80.3935 78.763 80.5467 74.6982V74.6964Z" fill="white"/>
<path d="M77.8809 74.2906C77.8809 74.2906 78.6329 74.3592 78.8006 75.0877C78.8006 75.0877 78.8096 78.2039 77.2695 78.9C77.2695 78.9 76.5951 79.3238 76.0938 79.3148C76.0938 79.3148 77.9494 78.6277 77.8809 74.2906Z" fill="white"/>
<path d="M75.8082 76.424C75.664 77.0155 75.4332 77.6791 75.0545 78.359C74.829 78.7647 74.8344 79.2354 75.0689 79.587C75.1753 79.7475 75.3845 79.9657 75.7578 80.0379C75.9561 80.0775 76.2014 80.0757 76.5043 80.0018C76.9786 79.8882 77.4186 79.6429 77.7937 79.2913C77.8118 79.3256 77.8298 79.3598 77.8514 79.3941C77.9524 79.5456 78.1472 79.7493 78.497 79.8179C78.6954 79.8557 78.9425 79.8521 79.249 79.7692C79.7449 79.6357 80.2012 79.3454 80.5691 78.927C80.5997 78.8928 80.6322 78.8549 80.6647 78.8152C80.6647 78.817 80.6665 78.8188 80.6683 78.8206C80.753 78.9414 80.9171 79.1037 81.193 79.1596C81.3517 79.1903 81.5483 79.1867 81.7899 79.1182C82.1849 79.0064 82.5419 78.7701 82.8215 78.4311C83.2308 77.937 83.8962 76.9289 83.7394 75.7369C83.7195 75.5818 83.669 75.4375 83.5969 75.3059C83.9197 75.1183 84.1361 74.8028 84.192 74.4349C84.3525 73.3673 84.073 72.4873 83.4057 71.8705C84.2533 71.4972 85.357 70.3251 85.9322 68.0817C85.9809 67.896 85.9701 67.6994 85.9052 67.5136C85.7429 67.0502 85.0738 65.5336 83.2615 65.4452C83.1515 65.4398 83.0505 65.4001 82.9765 65.3334C82.4464 64.8555 80.9748 63.8348 78.7621 64.6842C78.6684 64.7203 78.562 64.7221 78.461 64.6878C77.8839 64.4966 76.4052 64.1901 75.0454 65.4326C74.6974 65.7518 74.5585 66.2423 74.683 66.7112L74.728 66.8807C74.9372 67.6777 75.3268 69.1601 76.1274 70.051C76.021 70.0528 75.9128 70.0636 75.801 70.0852C74.4792 70.3449 73.8769 72.3087 73.8101 72.5414C73.7254 72.8624 73.6731 73.2266 73.6406 73.5747L74.0861 73.8921L76.0301 74.1914L76.6414 74.2419C76.6414 74.2419 75.9056 74.5611 75.8082 76.4222V76.424ZM83.1713 74.5936C83.0559 74.6567 82.9206 74.6639 82.798 74.6098C81.4058 74.0021 79.5249 73.7694 78.1111 73.6847C78.0552 73.6721 78.0029 73.6576 77.9452 73.6504V73.6739C77.9452 73.6739 77.938 73.6739 77.9344 73.6739V73.6504C77.7919 73.6342 77.6495 73.6378 77.5088 73.6558C77.3519 73.6504 77.2004 73.645 77.0634 73.6432C76.9444 73.6396 76.838 73.5909 76.7622 73.5026C76.6847 73.4142 76.6504 73.3024 76.663 73.1888C76.7514 72.3863 77.0544 71.8489 77.5882 71.5477C78.259 71.169 79.1877 71.2069 80.0281 71.371C81.1299 71.5874 82.0803 72.022 82.1073 72.0346C83.11 72.444 83.5338 73.2122 83.3679 74.3159C83.3426 74.48 83.2326 74.5629 83.1695 74.5972L83.1713 74.5936ZM83.119 66.2603C83.1533 66.2639 83.1875 66.2729 83.2218 66.2747C84.4805 66.3343 84.9692 67.3531 85.1207 67.7877C85.1315 67.8184 85.1333 67.8491 85.1279 67.8761C84.5545 70.1069 83.4653 70.9941 82.9784 71.1474C82.9747 71.1474 82.6213 71.2448 82.3309 71.0536C82.1182 70.9148 81.9739 70.6424 81.8981 70.2475C82.7475 68.5848 83.1479 67.2684 83.1172 66.2603H83.119ZM82.2137 65.7806C82.468 66.6336 82.1091 68.0186 81.1407 69.9049C80.8919 70.0834 80.3148 70.4224 79.8856 70.3377H79.8802C79.8477 70.3305 79.1571 70.2277 79.0867 69.5009V69.4775C79.4348 67.694 79.4402 66.3631 79.1012 65.4452C80.625 64.8772 81.6872 65.3911 82.2137 65.7806ZM75.5341 66.6679L75.4891 66.4948C75.444 66.327 75.4909 66.1503 75.6081 66.0439C76.6053 65.1314 77.6621 65.2955 78.2013 65.4741C78.2013 65.4741 78.2049 65.4741 78.2067 65.4741C78.6197 66.2206 78.6305 67.5569 78.241 69.454C78.0895 69.6975 77.8821 69.9247 77.7883 69.9409C76.4358 70.1087 75.8046 67.6958 75.5341 66.6661V66.6679ZM74.472 73.618C74.499 73.324 74.5441 73.0229 74.6126 72.7632C74.7389 72.325 75.2582 71.0392 75.9633 70.9003C76.1996 70.8534 76.3835 70.8949 76.4611 70.958C76.4899 70.9815 76.5188 71.0175 76.5224 71.0915C76.5079 71.1618 76.3745 71.362 76.2771 71.5062C75.9507 71.9968 75.4836 72.9597 75.6315 73.8849L74.4738 73.618H74.472ZM77.388 78.5195C77.085 78.8639 76.7117 79.0965 76.3096 79.1939C76.1112 79.2426 75.8551 79.2696 75.7614 79.1272C75.6928 79.0226 75.7217 78.8693 75.7812 78.7629C76.5224 77.4302 76.7658 76.1372 76.838 75.2897C76.8596 75.048 76.9732 74.8298 77.1626 74.6747C77.2834 74.5755 77.424 74.516 77.5737 74.489C77.7108 74.4944 77.8569 74.5016 78.0065 74.5106C78.3456 74.6098 78.6034 74.8893 78.6413 75.2265C78.6611 75.3997 78.6647 75.571 78.6575 75.7387C78.6161 76.0543 78.5457 76.4222 78.4285 76.8207C78.1598 77.5529 77.7126 78.1516 77.3862 78.5213L77.388 78.5195ZM79.9433 78.3788C79.6854 78.6727 79.3699 78.8765 79.0344 78.9667C78.8866 79.0064 78.6233 79.055 78.5439 78.9342C78.4988 78.8657 78.5061 78.7521 78.5638 78.6493C78.8667 78.1047 79.0741 77.5709 79.2202 77.075C79.359 76.6891 79.4582 76.2707 79.4853 75.8271C79.4997 75.7153 79.5105 75.6089 79.5195 75.5097C79.5376 75.3041 79.6349 75.1184 79.7954 74.9867C79.9595 74.8533 80.1651 74.7937 80.3779 74.8172H80.3833C80.7332 74.8587 81.0163 75.1274 81.0542 75.4556C81.2021 76.7287 80.4212 77.8324 79.9433 78.377V78.3788ZM82.1813 77.9027C82.01 78.1101 81.7954 78.2544 81.5645 78.3193C81.4112 78.3626 81.3517 78.3445 81.3463 78.3427C81.3463 78.3427 81.3391 78.2958 81.3626 78.249C81.8332 77.3401 81.9721 76.4691 82.0063 75.8974C82.0136 75.7694 82.0713 75.6539 82.1668 75.571C82.2606 75.4898 82.3796 75.452 82.5023 75.4628C82.7151 75.4808 82.89 75.6431 82.917 75.8469C83.0324 76.7251 82.5059 77.5114 82.1831 77.9027H82.1813Z" fill="#273959"/>
<mask id="mask6_1632_40062" style="mask-type:luminance" maskUnits="userSpaceOnUse" x="35" y="74" width="4" height="4">
<path d="M38.6444 75.0968C38.4983 74.9236 38.3108 74.8082 38.1088 74.7451C37.9934 74.9796 37.8311 75.196 37.6183 75.3763L36.0602 76.6963C35.9628 76.7793 35.8582 76.8514 35.75 76.9109C35.7933 77.0696 35.8654 77.2211 35.979 77.3546C36.3884 77.8379 37.1115 77.8974 37.5948 77.488L38.5127 76.7108C38.996 76.3014 39.0555 75.5783 38.6462 75.095L38.6444 75.0968Z" fill="white"/>
</mask>
<g mask="url(#mask6_1632_40062)">
<path d="M36.8516 74.8497C36.8516 74.8497 38.1139 74.2438 38.7018 74.9561C38.7018 74.9561 39.7063 76.1193 38.8731 77.0065C38.8731 77.0065 38.599 75.0409 36.8516 74.8497Z" fill="white"/>
</g>
<mask id="mask7_1632_40062" style="mask-type:luminance" maskUnits="userSpaceOnUse" x="33" y="72" width="5" height="5">
<path d="M37.0562 73.0121C36.8507 72.7704 36.5856 72.6153 36.2988 72.5432C36.1744 72.7813 36.0049 72.9995 35.7885 73.1834L34.0753 74.6351C33.8445 74.8299 33.5848 74.9669 33.3125 75.0499C33.3323 75.351 33.4405 75.6486 33.6515 75.8974C34.1745 76.5142 35.0978 76.5899 35.7146 76.067L36.8867 75.0733C37.5035 74.5503 37.5792 73.627 37.0562 73.0103V73.0121Z" fill="white"/>
</mask>
<g mask="url(#mask7_1632_40062)">
<path d="M35.0625 72.729C35.0625 72.729 36.406 72.0708 37.0408 72.8282C37.0408 72.8282 38.1228 74.0616 37.2391 75.0156C37.2391 75.0156 36.9308 72.9183 35.0625 72.729Z" fill="white"/>
</g>
<mask id="mask8_1632_40062" style="mask-type:luminance" maskUnits="userSpaceOnUse" x="31" y="70" width="5" height="5">
<path d="M33.7584 73.9786L35.0117 72.9146C35.6717 72.3556 35.7529 71.3674 35.1938 70.7073C34.6348 70.0473 33.6466 69.9662 32.9866 70.5252L31.7332 71.5892C31.0732 72.1482 30.9921 73.1365 31.5511 73.7965C32.1101 74.4565 33.0984 74.5377 33.7584 73.9786Z" fill="white"/>
</mask>
<g mask="url(#mask8_1632_40062)">
<path d="M32.9844 70.1736C32.9844 70.1736 34.5785 69.5244 35.2458 70.4423C35.2458 70.4423 36.3909 71.9427 35.3017 72.9688C35.3017 72.9688 35.1123 70.5379 32.9844 70.1736Z" fill="white"/>
</g>
<mask id="mask9_1632_40062" style="mask-type:luminance" maskUnits="userSpaceOnUse" x="35" y="67" width="5" height="5">
<path d="M39.4142 71.4431C39.4142 71.4431 40.819 69.7912 38.5666 68.1971C38.5666 68.1971 36.6785 66.7814 35.5117 67.4108C35.5117 67.4108 34.5397 68.0005 35.6776 69.6956C38.0364 73.2104 39.4142 71.4431 39.4142 71.4431Z" fill="white"/>
</mask>
<g mask="url(#mask9_1632_40062)">
<path d="M38.3359 67.4378C38.3359 67.4378 41.6919 69.3043 39.8074 71.7785L39.0933 72.15C39.0933 72.15 39.5351 68.9671 36.2422 67.2142L38.3377 67.4378H38.3359Z" fill="white"/>
</g>
<mask id="mask10_1632_40062" style="mask-type:luminance" maskUnits="userSpaceOnUse" x="39" y="66" width="5" height="9">
<path d="M41.9271 66.7454C41.9271 66.7454 40.8 66.0385 40.1075 66.978C40.1075 66.978 39.2888 67.9951 40.0768 69.1023C40.6197 69.867 40.9659 71.1744 41.1697 72.242C41.3518 73.1959 41.4221 73.9551 41.4239 73.9606C41.4582 75.1219 42.3184 75.1399 42.6466 74.4078C43.2471 73.0769 43.7521 68.179 41.9271 66.7454Z" fill="white"/>
</mask>
<g mask="url(#mask10_1632_40062)">
<path d="M40.5156 66.3577C40.5156 66.3577 43.3162 65.0377 43.511 71.0735C43.511 71.0735 43.4984 72.9381 43.0097 73.636C43.0097 73.636 42.8419 68.8121 40.5174 66.3577H40.5156Z" fill="#E52521"/>
</g>
<path d="M68.3859 41.7709C69.1199 41.7709 69.5473 42.0306 69.5419 42.6401C69.3633 42.5698 69.2732 42.5373 69.2551 42.5373C69.0964 42.5373 74.1007 44.815 74.1656 44.851C76.9572 46.4001 80.6072 48.8094 82.1725 51.4927C82.5368 52.0247 86.2805 57.7413 84.3473 65.7103C85.3536 66.1864 85.7792 67.1584 85.9036 67.5137C85.9685 67.7012 85.9775 67.8978 85.9307 68.0817C85.3536 70.3251 84.2517 71.4973 83.4042 71.8706C83.8712 72.3016 84.1435 72.866 84.2121 73.5296L91.7392 73.526C91.7861 73.526 91.833 73.5278 91.8817 73.5332C92.2893 73.5711 92.6625 73.7713 92.933 74.0941C93.3695 74.617 93.7932 75.1941 94.1972 75.8109C95.8238 78.2995 96.7381 80.871 97.0555 81.8611C97.1908 82.2813 97.1583 82.7411 96.9671 83.1252C96.2999 84.4597 95.0195 85.4083 93.3622 85.7942C93.2522 85.8194 93.1404 85.8321 93.0286 85.8321C92.9817 85.8321 92.9367 85.8302 92.8898 85.8248C92.1251 85.7527 91.5174 85.1197 91.4417 84.3208C91.1351 81.073 89.9521 78.7918 89.458 77.9623C89.4454 77.9424 89.4328 77.9316 89.4292 77.9298L83.5088 77.2986C83.3735 77.6286 83.2022 77.9118 83.0399 78.1426C82.8722 79.3851 82.5818 80.8566 82.0841 82.366C81.5251 84.2181 80.6793 86.2071 79.3971 87.9275C79.8913 88.097 80.2754 88.4938 80.425 89.0041C80.6739 89.8607 80.1816 90.7588 79.325 91.0095L48.8611 99.8963C48.5671 99.9829 48.2606 100.026 47.9576 100.026C47.7538 100.026 47.5501 100.006 47.3517 99.9685C46.6664 99.835 46.0569 99.4834 45.5862 98.9568C44.7603 98.0281 44.5475 96.7405 45.0326 95.5954L45.2364 95.1121L44.075 95.2022C44.1291 94.9444 44.5313 93.114 45.6385 90.9391L45.9739 90.2773C45.2833 89.7273 44.5367 89.0564 43.8406 88.3639C42.2843 86.8149 41.9687 84.4074 43.076 82.5103C44.2211 80.5482 46.203 77.9154 49.1388 76.5106C49.1731 76.4943 49.1983 76.4835 49.2272 76.4709C49.4219 76.3897 49.9846 76.1697 50.7907 75.9966C50.7492 75.8866 50.733 75.7676 50.7438 75.6486L50.8087 74.9272C50.9205 73.728 51.2631 71.4955 52.2766 69.6308C51.916 70.0528 51.64 70.3666 51.5896 70.399C51.5066 70.4549 49.7736 71.3963 48.1001 72.3034C47.1876 72.8426 46.1543 73.407 44.9875 73.9877C44.9731 73.9967 44.9623 74.0003 44.9623 74.0003C44.4465 74.2564 43.9055 74.5161 43.3356 74.7794C43.0615 75.3474 42.5602 75.6882 42.0246 75.6882C41.9831 75.6882 41.9399 75.6864 41.8984 75.681C41.8894 75.6828 41.884 75.6846 41.884 75.6846C41.884 75.6846 41.8064 75.6991 41.6802 75.7297L43.112 77.7206C43.1337 77.7495 43.1517 77.7801 43.1679 77.8126C43.3897 78.2327 43.3501 78.7215 43.0633 79.12C42.7586 79.5402 42.2086 79.8179 41.7144 79.8179C41.6459 79.8179 41.5774 79.8125 41.5107 79.8017C41.5034 79.8017 41.4854 79.7963 41.4782 79.7963C41.0382 79.7097 40.7875 79.4248 40.6378 79.2534L38.9697 77.3527C38.8363 77.4663 38.5063 77.7458 38.2899 77.928L38.0969 78.0921C38.041 78.139 37.9815 78.1841 37.922 78.2237C37.6046 78.4365 37.2331 78.5483 36.8526 78.5483C36.8057 78.5483 36.7588 78.5483 36.712 78.5429C36.6344 78.5375 36.5551 78.5285 36.4775 78.5123C36.0501 78.4275 35.6588 78.1985 35.3757 77.8649C35.2044 77.6629 35.0799 77.4321 35.0042 77.185C34.9212 77.194 34.8383 77.1976 34.7553 77.1976C34.6165 77.1976 34.474 77.185 34.3351 77.158C34.3297 77.158 34.3243 77.1544 34.3171 77.1525C34.3099 77.1525 34.3045 77.1525 34.2973 77.1507C33.8086 77.0552 33.3595 76.7919 33.0367 76.4114C32.7302 76.0489 32.5625 75.6161 32.5228 75.1779C32.4669 75.1707 32.411 75.1653 32.3551 75.1544C31.8213 75.0498 31.3344 74.7631 30.9827 74.3483C30.9755 74.3393 30.9701 74.3303 30.9629 74.3213C30.9575 74.3159 30.9521 74.3105 30.9467 74.3051C30.5409 73.8254 30.3443 73.2176 30.3966 72.5901C30.4489 71.9643 30.7411 71.3963 31.2208 70.9887L31.2586 70.9563C31.2586 70.9563 31.2622 70.9527 31.2641 70.9527L32.4633 69.9356L22.6765 58.7891C22.314 58.3761 22.1517 57.8333 22.2311 57.2995C22.3591 56.4339 22.5539 55.5322 22.8118 54.6234C23.8487 50.9572 25.6394 47.9816 26.3608 46.8726C26.6475 46.4326 27.1109 46.1314 27.6303 46.0484C27.9603 45.9962 28.2939 45.9691 28.6312 45.9691C29.055 45.9691 29.4841 46.0106 29.9133 46.0953C31.4264 46.3911 32.6779 47.1593 33.4605 47.749C33.9041 48.0826 34.1746 48.593 34.2035 49.1466C34.2324 49.693 34.0196 50.2196 33.621 50.5911C30.5355 53.4674 29.2822 56.5331 28.8872 57.7179C28.8584 57.8063 28.8728 57.9 28.9269 57.9776L35.1917 66.6949C35.4965 66.5417 35.8373 66.4623 36.2106 66.4623C36.3982 66.4623 36.5947 66.4822 36.7985 66.5218C36.932 66.5471 37.0636 66.5813 37.1916 66.621C37.9689 66.814 38.683 67.2125 39.0383 67.4343C39.0455 67.4037 39.0581 67.3766 39.0671 67.346C39.0852 67.2864 39.1014 67.2287 39.1212 67.1728C39.1357 67.1332 39.1519 67.0971 39.1681 67.0592C39.1898 67.0069 39.2114 66.9546 39.2348 66.9077C39.2547 66.8663 39.2763 66.8302 39.298 66.7905C39.3178 66.7545 39.3376 66.7148 39.3593 66.6805C39.3971 66.6192 39.4368 66.5633 39.4747 66.5146C39.4783 66.5092 39.4837 66.502 39.4873 66.4966C39.4909 66.493 39.4927 66.4894 39.4963 66.4858C39.5522 66.4136 39.6099 66.3451 39.6712 66.282C39.6839 66.2694 39.6965 66.2585 39.7091 66.2477C39.7632 66.1936 39.8209 66.1431 39.8786 66.098C39.8913 66.089 39.9039 66.0818 39.9147 66.0728C39.976 66.0277 40.0391 65.9844 40.1059 65.9484C40.1185 65.9412 40.1311 65.9357 40.1419 65.9285C40.2086 65.8925 40.2772 65.8618 40.3475 65.8329C40.3619 65.8275 40.3782 65.8221 40.3926 65.8167C40.4593 65.7933 40.5278 65.7716 40.5982 65.7554C40.6198 65.75 40.6396 65.7464 40.6613 65.7428C40.7244 65.7302 40.7893 65.7211 40.856 65.7157C40.8849 65.7121 40.9137 65.7103 40.9444 65.7085C40.9751 65.7085 41.0057 65.7067 41.0364 65.7067C41.0652 65.7067 41.0923 65.7067 41.1211 65.7067C41.159 65.7067 41.1951 65.7085 41.2329 65.7121C41.251 65.7121 41.269 65.7121 41.287 65.7139C41.352 65.7211 41.4133 65.732 41.4746 65.7428C41.4782 65.7428 41.48 65.7428 41.4836 65.7428C41.4836 65.7428 41.4854 65.7428 41.4872 65.7428C41.4998 65.7446 41.5125 65.7482 41.5251 65.7518C41.572 65.7626 41.6189 65.7734 41.6639 65.7843C41.6892 65.7915 41.7144 65.7987 41.7379 65.8059C41.7667 65.8149 41.7956 65.8239 41.8244 65.8329C41.8515 65.842 41.8767 65.851 41.9002 65.86C41.9236 65.869 41.9453 65.8762 41.9669 65.8852C41.9921 65.8961 42.0156 65.9051 42.039 65.9159C42.0571 65.9231 42.0733 65.9321 42.0913 65.9393C42.113 65.9502 42.1346 65.9592 42.1545 65.9682C42.1689 65.9754 42.1815 65.9826 42.1959 65.988C42.214 65.9971 42.2302 66.0061 42.2446 66.0133C42.2572 66.0205 42.2663 66.0259 42.2771 66.0313C42.2897 66.0385 42.3005 66.0439 42.3113 66.0512C42.3222 66.0584 42.3294 66.062 42.3366 66.0656C42.3402 66.0674 42.3474 66.071 42.3492 66.0728C42.3727 66.0872 42.3943 66.1035 42.4159 66.1197C42.6918 66.3361 42.9227 66.6084 43.1174 66.9204L44.4177 65.7608C44.4952 65.6923 44.5818 65.6418 44.6737 65.6075C45.0903 61.5049 46.0046 58.3527 47.3932 56.2374C47.4725 56.1165 47.4274 55.9452 47.5555 55.8839C47.3679 55.1481 47.8963 54.4611 48.4048 54.0607C48.9549 53.6045 49.2488 53.6117 49.2705 53.4368C49.3029 53.1861 48.4427 52.9877 48.7457 52.6703C48.7872 52.2465 48.9242 51.5595 49.3372 50.8688C48.9927 50.8471 64.0507 41.7601 68.3895 41.7601M68.3895 40.9684C66.4455 40.9684 62.5737 42.5031 56.8842 45.5273C54.3811 46.8582 52.3145 48.0646 51.3046 48.6651C48.9837 50.0465 48.623 50.3043 48.5581 50.638C48.2011 51.2944 48.046 51.9274 47.9811 52.4016C47.9071 52.5603 47.8765 52.7316 47.8963 52.9084C47.9143 53.0761 47.972 53.2149 48.0496 53.3322C48.0009 53.3682 47.9522 53.4079 47.8999 53.4512C47.101 54.0787 46.6772 54.9029 46.7295 55.7072C46.7043 55.7757 46.6899 55.8352 46.6808 55.8803C45.2941 58.0299 44.369 61.1424 43.9271 65.1351C43.9145 65.1459 43.9019 65.1567 43.8893 65.1675L43.213 65.7698C43.1138 65.6706 43.011 65.5787 42.9028 65.4939C42.8596 65.4597 42.8127 65.4272 42.7658 65.3983L42.7081 65.3641C42.7081 65.3641 42.6738 65.3442 42.6684 65.3424L42.6179 65.3136L42.562 65.2847L42.5007 65.2541L42.4195 65.2162L42.3528 65.1855L42.2627 65.1477L42.1851 65.1188C42.1454 65.1044 42.113 65.0918 42.0787 65.081C42.0481 65.0701 42.0156 65.0611 41.9813 65.0503L41.718 65.7969L41.9525 65.0413C41.9254 65.0323 41.8984 65.0251 41.8695 65.0178C41.8136 65.0016 41.7523 64.989 41.691 64.9746H41.6802C41.6675 64.9691 41.6531 64.9655 41.6405 64.9637C41.6279 64.9619 41.6153 64.9583 41.6026 64.9565C41.5269 64.9421 41.4529 64.9313 41.3754 64.9223C41.3411 64.9187 41.3105 64.9169 41.278 64.9169C41.2492 64.9132 41.1987 64.9114 41.1482 64.9096C41.1121 64.9096 41.0742 64.9078 41.0382 64.9078C40.9949 64.9078 40.9516 64.9078 40.9083 64.9114C40.8651 64.9132 40.8254 64.9169 40.7839 64.9205C40.6937 64.9295 40.6018 64.9421 40.5116 64.9601C40.4755 64.9673 40.4485 64.9728 40.4196 64.98C40.3204 65.0034 40.2231 65.0323 40.1275 65.0665L40.0626 65.09C39.9652 65.1278 39.8678 65.1729 39.7704 65.2252C39.756 65.2324 39.738 65.2415 39.7199 65.2523C39.628 65.3046 39.5396 65.3623 39.4476 65.4308C39.4386 65.4362 39.4188 65.4506 39.3989 65.4669C39.3142 65.5318 39.2348 65.6021 39.1591 65.6779C39.1501 65.6851 39.1302 65.7031 39.1086 65.7247C39.0275 65.8077 38.9517 65.8943 38.8832 65.9862C38.8742 65.9971 38.8651 66.0097 38.8561 66.0205C38.8507 66.0277 38.8435 66.0367 38.8363 66.0475C38.7876 66.1107 38.7389 66.1828 38.6884 66.2621C38.6776 66.2802 38.6668 66.2982 38.6542 66.3181C38.2917 66.1431 37.8607 65.97 37.4044 65.8546C37.2512 65.8095 37.0997 65.7716 36.9536 65.7428C36.7011 65.6941 36.4523 65.6688 36.2142 65.6688C35.9762 65.6688 35.7237 65.6959 35.4911 65.75L29.7222 57.7233C30.1766 56.4592 31.4011 53.7397 34.1602 51.1663C34.7301 50.6362 35.0348 49.8842 34.9934 49.1033C34.9519 48.3153 34.5678 47.5903 33.9366 47.116C33.0872 46.474 31.7257 45.6427 30.0648 45.3163C29.5887 45.2225 29.1054 45.1756 28.6312 45.1756C28.2543 45.1756 27.8756 45.2063 27.5059 45.264C26.7665 45.383 26.1065 45.8104 25.6989 46.438C24.9578 47.5777 23.1165 50.6362 22.0508 54.4052C21.7839 55.3483 21.5819 56.2806 21.4502 57.1805C21.3366 57.9451 21.5675 58.7206 22.085 59.3066L31.3398 69.8472L30.7555 70.3431C30.7555 70.3431 30.7447 70.3521 30.7393 70.3575L30.714 70.3792C30.0738 70.922 29.6825 71.6812 29.614 72.518C29.5455 73.3547 29.8069 74.168 30.348 74.8082C30.3552 74.8154 30.3624 74.8244 30.3696 74.8334C30.375 74.8407 30.3804 74.8479 30.3858 74.8533C30.7735 75.3095 31.2839 75.6504 31.8519 75.8307C31.9692 76.2274 32.1675 76.5953 32.438 76.9145C32.8762 77.4321 33.484 77.7891 34.1494 77.919C34.1548 77.919 34.162 77.9208 34.1692 77.9226C34.1747 77.9226 34.1801 77.9244 34.1855 77.9262C34.2883 77.946 34.3911 77.9604 34.4956 77.9695C34.5768 78.1101 34.6706 78.2436 34.7752 78.368C35.1737 78.8369 35.7237 79.1615 36.3278 79.2787C36.4324 79.2985 36.5406 79.313 36.6579 79.322C36.7246 79.3274 36.7895 79.3292 36.8562 79.3292C37.3972 79.3292 37.9184 79.1705 38.3674 78.8693C38.4522 78.8116 38.5351 78.7503 38.6127 78.6836L38.8056 78.5195L38.8922 78.4455L40.0481 79.762C40.2357 79.9766 40.627 80.422 41.3303 80.5591L41.3952 80.5699C41.4926 80.5861 41.6044 80.5951 41.718 80.5951C42.4773 80.5951 43.2581 80.193 43.7089 79.5708C44.1706 78.9324 44.2319 78.1119 43.8712 77.4303C43.8388 77.3671 43.8009 77.3058 43.7576 77.2481L43.0146 76.2148C43.3663 76.0273 43.6729 75.7387 43.9037 75.3745C44.3617 75.1599 44.8144 74.9417 45.2796 74.7108C45.2995 74.7018 45.3193 74.6928 45.3392 74.682C45.3392 74.682 45.3482 74.6784 45.3554 74.6729C46.4807 74.1121 47.5374 73.5404 48.495 72.9742C49.3967 72.4855 50.0657 72.123 50.5616 71.8525C50.2388 73.0337 50.0928 74.1247 50.0261 74.8353L49.9792 75.3654C49.458 75.5115 49.0901 75.654 48.9278 75.7225C48.8899 75.7387 48.8521 75.755 48.8052 75.7766C45.6836 77.2698 43.5989 80.0343 42.3979 82.0919C41.1103 84.2992 41.4746 87.0998 43.287 88.9049C43.846 89.4622 44.4249 89.9942 44.9857 90.4666L44.937 90.5622C43.7973 92.8002 43.3771 94.672 43.305 95.0237C43.2545 95.2672 43.3212 95.5196 43.4853 95.7054C43.6368 95.8767 43.8532 95.9741 44.0786 95.9741H44.0822C43.8081 97.2058 44.1345 98.4933 44.9983 99.4635C45.5844 100.122 46.3454 100.558 47.202 100.726C47.4491 100.775 47.7051 100.8 47.9594 100.8C48.3399 100.8 48.7186 100.746 49.0847 100.639L79.5486 91.7524C80.8236 91.3809 81.5575 90.0411 81.1861 88.7661C81.0634 88.3477 80.8326 87.9762 80.5224 87.6859C81.4764 86.2396 82.2554 84.5264 82.8433 82.5788C83.2689 81.293 83.5917 79.8882 83.8009 78.4185C83.864 78.3229 83.9235 78.2255 83.9776 78.1282L88.9567 78.6583C89.4832 79.6177 90.3975 81.6303 90.6572 84.3786C90.7672 85.5543 91.6761 86.4867 92.8176 86.5949C92.8898 86.6021 92.9601 86.6057 93.0322 86.6057C93.2036 86.6057 93.3767 86.5858 93.5444 86.5462C95.4343 86.1062 96.9022 85.0097 97.6776 83.4625C97.9608 82.8962 98.0095 82.2181 97.8111 81.6032C97.4829 80.5825 96.5397 77.9316 94.8608 75.3618C94.4406 74.718 93.997 74.1157 93.5408 73.5711C93.135 73.086 92.5724 72.7885 91.9574 72.7289C91.8853 72.7217 91.8132 72.7181 91.741 72.7181L84.8559 72.7217C84.7819 72.4837 84.6827 72.2601 84.5619 72.0491C85.5051 71.261 86.2733 69.9157 86.6989 68.2621C86.7854 67.9266 86.7692 67.5714 86.6538 67.236C86.5131 66.8338 86.12 65.9412 85.249 65.31C86.9279 57.4312 83.3501 51.7957 82.8433 51.0527C81.1806 48.2233 77.4189 45.7329 74.5516 44.1423C74.5251 44.1279 74.2774 44.0131 73.8086 43.7979C73.0151 43.4336 71.2262 42.6113 70.2794 42.1586C70.1983 41.843 70.0396 41.6248 69.8989 41.4824C69.5581 41.1379 69.0495 40.963 68.3877 40.963L68.3895 40.9684Z" fill="#183051"/>
<g style="mix-blend-mode:multiply" opacity="0.3">
<path d="M70.7866 45.4028C70.7866 45.4028 70.2672 49.7615 60.6572 54.3582C59.0125 56.4321 57.9251 57.8549 56.9297 58.111C54.7242 56.4934 53.2689 55.1535 50.1725 55.0129C46.8471 54.8632 59.9755 51.5558 59.9755 51.5558L70.7866 45.4028Z" fill="#183051"/>
</g>
<path d="M39.1468 47.4712L41.6732 49.7849L36.3047 55.3049L41.4605 55.0741L48.2518 47.446L43.5163 46.7896L39.1468 47.4712Z" fill="#183051"/>
<path d="M37.6233 56.423C36.8695 56.423 36.3591 56.3472 36.2582 56.331L36.0147 56.2913L35.939 56.1489C35.8921 56.1074 35.8344 56.0497 35.7911 55.9649C35.6649 55.7197 35.6396 55.2021 35.7965 54.928C36.8082 53.1535 39.8071 50.636 41.0136 49.6622L37.5097 47.0023L38.7414 46.8634C40.1408 46.7065 43.1397 46.4018 43.1397 46.4018L43.1866 46.3964L49.6228 46.9897L41.8359 55.4005C41.6484 55.6006 41.4139 55.7557 41.156 55.8477C40.9919 55.9072 40.8044 55.9685 40.5609 56.0352C39.4393 56.3454 38.4005 56.4248 37.6233 56.4248V56.423ZM36.6801 55.3842C37.2608 55.4455 38.6728 55.5231 40.2959 55.0759C40.5105 55.0164 40.6764 54.9623 40.8224 54.91C40.9324 54.8703 41.0298 54.8072 41.1092 54.7224L47.5273 47.7904L43.192 47.39C42.9053 47.4189 41.3869 47.5739 40.0903 47.7128L42.6402 49.6478L42.1281 50.0445C42.0848 50.077 37.8686 53.3519 36.6819 55.377C36.6819 55.3788 36.6819 55.3824 36.6819 55.3842H36.6801Z" fill="#183051"/>
<path d="M45.9073 49.6966C44.4141 49.9797 44.901 48.6849 43.1428 50.3278C43.6405 49.3413 43.1608 49.4063 43.2654 49.0492C38.391 52.4557 38.748 55.1625 38.748 55.1625C38.748 55.1625 38.7047 56.5818 40.2899 55.305C39.6244 54.4015 42.9065 50.665 45.9073 49.6984V49.6966Z" fill="#E52521"/>
<path d="M39.2382 55.9632C39.1444 55.9632 39.0597 55.9433 38.9803 55.9055C38.6124 55.7233 38.6251 55.1823 38.6251 55.1589C38.6106 55.0651 38.3167 52.3565 43.1965 48.9464L43.4869 48.7444L43.3877 49.0834C43.3642 49.1628 43.3823 49.2006 43.4183 49.2782C43.4869 49.4261 43.5392 49.5883 43.4598 49.8823C44.2316 49.2331 44.4949 49.298 44.8772 49.4675C45.1009 49.5667 45.3515 49.6767 45.8871 49.5757L45.9484 49.8156C43.4887 50.609 40.8269 53.3195 40.3905 54.6684C40.3328 54.8469 40.2859 55.0886 40.3905 55.231L40.4609 55.3266L40.3689 55.4005C39.9018 55.7756 39.5303 55.9614 39.2382 55.9614V55.9632ZM43.1514 49.2836C38.607 52.5332 38.8703 55.121 38.8739 55.1481C38.8739 55.2797 38.9064 55.5917 39.0939 55.6837C39.2129 55.7432 39.5015 55.763 40.1326 55.2725C40.0569 55.0994 40.0659 54.8704 40.1543 54.5908C40.5636 53.3195 42.8214 50.8868 45.2 49.8354C45.0215 49.8011 44.8881 49.7434 44.7763 49.6929C44.4499 49.5487 44.2533 49.4621 43.2308 50.4161L42.7223 50.8922L43.036 50.27C43.3336 49.6803 43.256 49.5144 43.1929 49.381C43.1785 49.3503 43.1641 49.3179 43.1514 49.2818V49.2836Z" fill="#183051"/>
<path d="M36.3125 55.4835L36.8499 53.2004L37.2484 53.7847L37.4252 53.3663L37.7588 53.7649L37.9571 53.2167L39.4557 55.5466L36.3125 55.4835Z" fill="white"/>
<path d="M38.0197 53.7721L38.9954 55.2887L36.624 55.24L36.963 53.8028L37.302 54.2969L37.4968 53.8352L37.8466 54.2536L38.0216 53.7703M36.7376 52.5963L36.4797 53.6891L36.1407 55.1264L36 55.7233L36.6131 55.7359L38.9845 55.7846L39.9151 55.8045L39.4119 55.0218L38.4363 53.5052L37.8935 52.6612L37.6699 53.2762L37.3525 52.8957L37.1938 53.2708L36.734 52.5981L36.7376 52.5963Z" fill="#183051"/>
<path d="M41.6245 48.8977L40.5749 49.0113L36.6094 53.792L41.6894 50.0266L41.6245 48.8977Z" fill="#183051"/>
<path d="M33.5859 48.409L38.9004 48.2882L37.73 49.024L37.088 50.463L36.666 49.5722L36.2855 50.454L35.8257 49.9058L35.5317 50.3585L35.1837 49.9581L34.8916 50.5298L33.5859 48.409Z" fill="white"/>
<path d="M38.0048 48.5551L37.5324 48.8526L37.0797 49.8679L36.6541 48.9698L36.2159 49.9851L35.7976 49.4874L35.5 49.9454L35.1285 49.5144L34.8706 50.0212L34.0231 48.6434L38.0066 48.5533M39.792 48.0159L37.9958 48.0573L34.0122 48.1475L33.1484 48.1673L33.6011 48.9031L34.4486 50.2809L34.9121 51.0329L35.2367 50.3963L35.5577 50.7696L35.8498 50.3205L36.353 50.9211L36.6722 50.1817L36.6758 50.1727L37.0942 51.0545L37.5324 50.0699L37.9237 49.1916L38.2699 48.9734L39.7902 48.0159H39.792Z" fill="#183051"/>
<path d="M52.3601 21.7429C52.3601 21.7429 47.5037 24.3018 47.1412 24.7058C46.7788 25.1097 44.75 30.6244 44.75 30.6244L50.7028 26.9095C50.7028 26.9095 51.0689 24.1395 52.3583 21.7411L52.3601 21.7429Z" fill="#183051"/>
<path d="M43.7891 31.8127L44.2886 30.4548C45.0586 28.3611 46.4057 24.7887 46.7754 24.3757C47.1559 23.952 50.649 22.0855 52.1331 21.3046L53.5704 20.5472L52.8004 21.9791C51.5687 24.2711 51.2026 26.9491 51.199 26.9762L51.1684 27.2088L43.7891 31.8145V31.8127ZM51.291 22.8754C49.4389 23.8726 47.733 24.8338 47.5058 25.0466C47.3308 25.2954 46.5356 27.2918 45.7277 29.4323L50.2523 26.6101C50.346 26.0366 50.6364 24.5056 51.291 22.8754Z" fill="#183051"/>
<path d="M34.2535 50.7316C32.7639 48.8741 32.3798 46.7173 32.3636 46.6272L32.3203 46.3729L34.643 46.0699L34.5853 46.4018C34.5817 46.4198 34.2661 48.3007 34.6899 50.5314L34.8757 51.5106L34.2517 50.7334L34.2535 50.7316Z" fill="white"/>
<path d="M34.3413 46.3585C34.3413 46.3585 34.0095 48.2701 34.4477 50.5766C32.9816 48.748 32.6083 46.5858 32.6083 46.5858L34.3413 46.3585ZM34.9455 45.7797L34.2764 45.8662L32.5434 46.0934L32.0312 46.1602L32.1196 46.6687C32.1358 46.7625 32.5308 48.9788 34.06 50.8867L35.3061 52.4412L34.9346 50.4828C34.5181 48.2917 34.8264 46.4613 34.83 46.4433L34.9455 45.7797Z" fill="#183051"/>
<path d="M37.4728 50.9318C36.0428 49.1754 35.6677 46.7318 35.6514 46.629L35.6172 46.3946L37.994 45.9384L37.9291 46.2936C37.9255 46.3134 37.5666 48.3639 37.9092 50.7407L38.0373 51.6279L37.471 50.9318H37.4728Z" fill="white"/>
<path d="M37.6857 46.2485C37.6857 46.2485 37.3106 48.3278 37.6641 50.7749C36.2611 49.0509 35.8968 46.5911 35.8968 46.5911L37.6857 46.2485ZM38.3006 45.6263L37.5919 45.7616L35.803 46.1042L35.3359 46.1944L35.4063 46.6651C35.4225 46.7715 35.8066 49.2799 37.2799 51.0887L38.4124 52.4791L38.1564 50.7046C37.8191 48.3728 38.1708 46.3567 38.1744 46.3369L38.3024 45.6263H38.3006Z" fill="#183051"/>
<path d="M38.948 58.2697L38.7226 58.1308C38.6829 58.1362 38.6432 58.1416 38.5999 58.147C38.3998 58.1741 38.1509 58.2066 37.9057 58.2066C37.5288 58.2066 37.2456 58.1272 37.0419 57.9631L37.0076 57.936L36.9859 57.8982C36.1618 56.5349 35.7939 55.0886 35.8589 53.4728L35.9166 52.0662L36.344 53.4079C36.8453 54.9822 38.324 56.7314 38.9552 57.478L39.085 57.6313C39.1842 57.6547 39.2564 57.7052 39.3014 57.7846C39.3195 57.817 39.3411 57.8711 39.3411 57.9397L39.4962 58.1272L39.3267 58.1236L39.3141 58.1723L39.2437 58.3057H39.186L39.0923 58.4753L38.948 58.2697Z" fill="white"/>
<path d="M36.1053 53.4835C36.6806 55.2887 38.4479 57.2507 38.9546 57.8657C38.9492 57.8657 38.9438 57.8657 38.9366 57.8657C38.7184 57.8657 38.3018 57.9594 37.9051 57.9594C37.6364 57.9594 37.3767 57.9162 37.1963 57.7701C36.4696 56.5673 36.035 55.1823 36.1053 53.4835ZM38.9546 57.8657C39.0736 57.8693 39.1241 57.9035 39.0664 58.0081C39.043 57.9757 39.0051 57.927 38.9546 57.8657ZM39.0664 58.0081C39.0899 58.0424 39.0989 58.0604 39.0862 58.0604C39.079 58.0604 39.0664 58.055 39.0448 58.0406C39.052 58.028 39.0592 58.0172 39.0646 58.0081M35.723 50.6505L35.6094 53.4637C35.5409 55.13 35.9214 56.6214 36.7726 58.028L36.8176 58.1037L36.8862 58.1578C37.135 58.358 37.4686 58.4554 37.9051 58.4554C38.1647 58.4554 38.4244 58.4211 38.6318 58.3941C38.6444 58.3941 38.657 58.3904 38.6715 58.3886L38.7761 58.4572L39.1151 58.9423L39.3297 58.5564H39.3874L39.492 58.3616H39.9897L39.5786 57.8512C39.5659 57.7647 39.5353 57.6998 39.5136 57.6619C39.4686 57.5844 39.3946 57.496 39.272 57.4365L39.0177 57.0722L38.9853 57.1299C38.3018 56.3184 37.0268 54.7423 36.5778 53.3321L35.723 50.6487V50.6505Z" fill="#183051"/>
<path d="M40.8153 57.6961C40.5357 57.6961 40.2021 57.606 39.8234 57.431L39.7783 57.4094L39.7459 57.3733C38.8514 56.4067 38.4348 54.7549 38.4709 52.3222L38.4871 51.2834L38.9416 52.2158C40.2201 54.8378 41.6773 56.7187 41.6917 56.7386L41.7512 56.8143L41.744 56.9099C41.7223 57.1804 41.4987 57.6943 40.8153 57.6943V57.6961Z" fill="white"/>
<path d="M38.7172 52.3258C40.0228 55.0038 41.4943 56.8919 41.4943 56.8919C41.4943 56.8919 41.4493 57.4491 40.8127 57.4491C40.5945 57.4491 40.3059 57.3824 39.9254 57.2056C38.9083 56.1074 38.6883 54.1995 38.7172 52.3258ZM38.2537 50.2429L38.2213 52.3186C38.1816 54.8541 38.609 56.5132 39.5612 57.5429L39.6279 57.615L39.7162 57.6565C40.1346 57.8512 40.4935 57.945 40.8127 57.945C41.6152 57.945 41.956 57.3391 41.9885 56.9333L42.0047 56.7404L41.8857 56.5871C41.8712 56.5691 40.4286 54.7044 39.1626 52.1094L38.2519 50.2429H38.2537Z" fill="#183051"/>
<path d="M63.3446 23.851C63.3446 23.851 67.1245 20.8123 78.4765 22.8591C74.336 27.3963 72.9583 31.434 72.2622 32.7378C79.1329 31.9985 82.1788 33.3348 82.1788 33.3348C79.8849 34.5664 74.969 38.7917 73.878 40.4201C76.821 41.0765 81.2609 41.9529 81.2609 41.9529C79.6451 42.5535 75.1944 45.0294 74.3721 46.4108C77.8075 48.0933 78.114 50.7154 78.114 50.7154C69.9305 50.1221 60.9444 48.3205 57.3034 55.2165C56.014 52.351 52.9862 53.6801 51.457 53.6116C49.4228 55.1119 44.9848 57.5374 42.9398 58.394C41.6738 58.8845 39.3349 58.8359 38.1934 58.3471C37.4757 57.3824 36.6155 56.4645 36.3089 55.9036C36.2494 55.7954 36.3269 55.6674 36.4423 55.6836C37.0843 55.7702 38.729 56.2192 40.4295 55.5556C40.4927 55.552 40.7848 55.4726 41.0337 55.3716C41.1942 55.3049 41.3384 55.2057 41.4574 55.0759L48.5734 47.39L43.1887 46.8923C43.1887 46.8923 38.3972 47.4387 37.4504 47.4802C36.5073 47.5217 33.1314 47.8282 33.1314 47.8282C32.7852 47.7868 32.3019 47.4856 31.9664 46.2178C31.6328 44.9573 31.4615 43.6048 32.1901 43.1053C32.9186 42.6057 41.4574 38.202 41.8001 38.0505C42.9596 35.634 42.7342 31.5242 45.652 28.8192C48.5284 27.6795 53.9745 25.1764 54.8563 24.9636C55.9275 23.0863 56.6128 22.1793 56.6128 22.1793C56.6128 22.1793 64.277 17.7178 65.3752 17.321C64.7621 18.9675 63.4727 23.0863 63.341 23.851H63.3446Z" fill="#CFCECE"/>
<path d="M44.4542 37.3815C44.108 37.6881 44.9808 36.9361 44.2685 37.4699C41.6572 39.4211 35.6575 42.9503 35.6575 42.9503L33.1797 42.7321L44.4542 37.3815Z" fill="#BDBCBB"/>
<path d="M55.209 25.281L54.4101 27.8472C54.4101 27.8472 54.4047 27.849 54.4047 27.8472C54.4011 27.8003 54.2226 25.2107 54.219 25.1656C54.1992 24.3704 55.411 24.511 55.209 25.281Z" fill="#183051"/>
<path d="M63.2581 27.3206L62.2734 27.2016C62.4466 25.7625 62.6413 24.8987 62.7694 24.3271C62.8415 24.0097 62.892 23.7807 62.9046 23.6075L63.8946 23.6815C63.8766 23.9267 63.8171 24.1864 63.7378 24.5435C63.6133 25.0953 63.4258 25.9303 63.2581 27.3188V27.3206Z" fill="#183051"/>
<path d="M32.7827 42.8313C31.8377 43.1144 31.8197 44.4363 32.0091 45.713C32.0541 46.016 32.0415 46.0557 32.1173 46.2685C32.7773 46.2865 35.3272 46.4668 36.0179 46.2595C36.4759 45.3957 36.7158 45.3596 36.961 44.5264C37.0368 44.2686 36.9773 43.9927 36.8186 43.852C36.384 43.4679 36.1946 43.852 35.9097 43.5977C35.7059 43.4174 35.4589 43.338 35.2028 43.3687" fill="#183051"/>
<path d="M34.7309 46.8545C34.1123 46.8545 33.3874 46.8238 32.666 46.7896C32.428 46.7788 32.2314 46.7679 32.1052 46.7661L31.7662 46.7571L31.6526 46.4379C31.5822 46.2378 31.566 46.1404 31.5444 45.9691L31.5191 45.7887C31.4109 45.0566 31.0791 42.8276 32.6408 42.3588L32.9257 43.3091C32.3144 43.4931 32.3577 44.6797 32.5019 45.6427L32.5218 45.7905C32.5831 45.7941 32.6462 45.7959 32.7147 45.7995C33.4397 45.8356 35.0393 45.9132 35.6975 45.8212C35.8417 45.5705 35.9644 45.3938 36.0672 45.2441C36.2511 44.9772 36.3629 44.8167 36.4909 44.3857C36.5162 44.2992 36.4964 44.2288 36.4873 44.2126C36.4405 44.1729 36.4134 44.1639 36.4134 44.1639C36.408 44.1639 36.3647 44.1675 36.3377 44.1711C36.1916 44.191 35.885 44.2324 35.5875 43.9692C35.4901 43.8826 35.3837 43.8465 35.2665 43.861L35.1511 42.8745C35.5298 42.8312 35.8994 42.9412 36.2006 43.1883C36.4423 43.1595 36.7705 43.1414 37.1528 43.4786C37.4557 43.7473 37.573 44.2234 37.4413 44.6652C37.27 45.2477 37.0897 45.5056 36.8823 45.8068C36.7614 45.9799 36.6262 46.1764 36.4603 46.4902L36.3629 46.6724L36.1645 46.7319C35.8688 46.8202 35.3548 46.8509 34.7327 46.8509L34.7309 46.8545Z" fill="#183051"/>
<path d="M60.0539 51.646C64.4739 48.6795 71.5484 50.2393 78.1162 50.7154C78.1162 50.7154 77.7898 48.0789 74.3742 46.4108C75.1966 45.0295 79.6075 42.5733 81.263 41.953C81.263 41.953 76.8232 41.0765 73.8801 40.4201C75.303 38.4689 79.8871 34.5665 82.1809 33.3348C82.1809 33.3348 79.1369 31.9985 72.2643 32.7379C72.9604 31.4323 74.3382 27.3946 78.4787 22.8592C67.1266 20.8142 63.3468 23.851 63.3468 23.851C63.3558 23.8023 63.1268 24.7761 62.7697 27.2629C64.0465 26.7201 67.3159 25.2738 72.3671 25.2269C71.231 26.7814 69.1319 30.5396 66.6649 35.6431C67.0509 35.6665 68.4953 35.5547 72.6016 36.6313C71.1913 37.0587 69.3177 38.2994 67.7469 40.8998C67.7469 40.8998 69.4746 41.1667 72.4699 43.3343C64.0609 43.8988 60.2991 48.6254 58.5986 51.8227C57.8069 53.3104 56.1587 54.1274 54.4924 53.8767C53.6051 53.7432 52.5682 53.635 51.4609 53.6116C52.3536 53.6513 53.7602 53.0544 55.0334 53.1193C56.8187 53.2095 58.5715 52.6432 60.0575 51.646H60.0539Z" fill="#CFCECE"/>
<path d="M62.1719 28.0564L62.2783 27.2016C62.4676 25.685 62.547 25.2954 62.7219 24.4406L62.8607 23.7554L63.8346 23.9483L63.6957 24.639C63.5604 25.299 63.4865 25.6597 63.3747 26.473C65.0248 25.8058 68.0454 24.7725 72.3644 24.731L72.3734 25.7228C67.5458 25.7679 64.4044 27.106 63.0645 27.6776L62.1719 28.0564Z" fill="#183051"/>
<path d="M41.2617 43.4804L45.9089 40.1568L46.1253 40.0035L46.3814 40.0973L52.8013 42.4417C52.8807 42.4687 52.85 42.5986 52.7635 42.5805L46.055 41.2767L46.5275 41.2154L41.3393 43.6084C41.2635 43.6463 41.1914 43.5291 41.2653 43.4804H41.2617Z" fill="#183051"/>
<path d="M51.3445 55.0885C51.0199 55.2022 50.5672 54.9858 50.4951 54.6269C50.3941 54.158 50.7277 53.7955 50.9712 53.4727C52.3579 51.8515 54.1811 50.591 56.1359 49.7921C54.4318 50.9571 52.6447 52.4971 51.6871 54.4249C51.6582 54.4862 51.6492 54.5692 51.6691 54.4988C51.7141 54.259 51.523 53.9759 51.2543 53.9146C51.0812 53.8929 51.1154 53.8893 50.9946 53.9146C51.77 53.6964 52.1127 54.8451 51.3445 55.0885Z" fill="#183051"/>
<path d="M57.6016 53.6044C57.625 53.7252 57.6466 53.8425 57.6683 53.9615C57.8504 54.0444 57.9496 54.0949 57.9496 54.0949C58.707 52.3835 62.3588 44.7283 74.9732 43.9745C71.7127 41.715 69.7832 41.1397 69.7832 41.1397C71.4819 38.4563 73.9074 37.0731 75.4384 36.6367C70.9734 35.5078 69.0781 35.3834 68.6579 35.3582C71.6027 29.5316 74.0589 25.2432 74.9047 24.1377C68.6398 23.7879 65.0404 25.8275 63.6608 26.3847C62.283 27.1638 62.2326 28.3684 62.2326 28.3684C65.5435 27.3116 66.4957 29.0032 66.9808 29.1024C65.7094 30.857 64.2956 34.6783 63.8465 36.882C67.7832 36.8982 67.9492 37.6917 67.9492 37.6917C66.2775 39.5365 66.2342 41.834 66.2342 41.834C66.2342 41.834 67.1809 41.8736 67.6714 42.1514C63.659 43.6536 58.9937 44.9393 57.6016 53.6044Z" fill="#183051"/>
<path d="M56.5938 27.1907C56.7813 26.5253 58.0941 23.649 58.2943 23.3009C58.4945 22.9529 61.8469 21.0071 62.2851 20.7438C61.7531 22.1991 61.4862 23.7337 61.4862 23.7337C61.4862 23.7337 60.9795 23.9123 60.5575 23.4885C60.6314 24.3775 60.7955 25.0285 61.3329 25.7859C60.7036 26.0691 59.1058 27.2124 59.1058 27.2124C59.1058 27.2124 58.5666 27.1745 56.5938 27.1889V27.1907Z" fill="#183051"/>
<path d="M41.4905 51.7848L42.311 51.5937L41.8548 50.5856L42.9296 50.6036L42.8033 49.262L45.301 49.5252L42.1758 53.2636L41.0469 53.5431L41.4905 51.7848Z" fill="white"/>
<path d="M43.0781 49.5397L44.8111 49.7218L42.0358 53.0399L41.3866 53.2004L41.6932 51.9904L42.6598 51.765L42.2396 50.8399L43.2008 50.8561L43.0763 49.5397M42.5263 48.9824L42.584 49.5865L42.6561 50.3512L42.2486 50.344L41.4659 50.3313L41.7887 51.0454L41.9583 51.4205L41.5796 51.5089L41.2856 51.5774L41.2117 51.8696L40.9051 53.0796L40.7031 53.8821L41.5074 53.6819L42.1566 53.5214L42.3135 53.4818L42.4181 53.3573L45.1935 50.0392L45.7904 49.3251L44.8652 49.2277L43.1322 49.0455L42.5299 48.9824H42.5263Z" fill="#183051"/>
<path d="M41.7386 48.7984L40.7901 49.3087L39.25 48.1275L40.5899 48.0464L44.2002 47.9183L42.5844 49.7073L41.7386 48.7984Z" fill="white"/>
<path d="M43.6233 48.1871L42.581 49.3394L41.7893 48.49L40.8137 49.0148L39.9282 48.3368L40.6063 48.2953L43.6251 48.1889M44.7792 47.6515L43.6071 47.693L40.5883 47.7994L39.8976 47.8408L38.5703 47.922L39.6253 48.7299L40.5107 49.408L40.765 49.6027L41.0481 49.4512L41.6865 49.1086L42.2185 49.6785L42.5846 49.7073L42.9506 49.673L43.993 48.5207L44.7792 47.6515Z" fill="#183051"/>
<path d="M57.2674 53.5683C57.2891 53.6837 57.3089 53.7991 57.3287 53.9127C57.4965 53.9921 57.5884 54.0408 57.5884 54.0408C58.2899 52.3817 60.8507 44.1152 72.4714 43.3343C69.4761 41.1667 67.7485 40.8998 67.7485 40.8998C69.321 38.2994 71.1929 37.0587 72.6031 36.6313C68.4969 35.5547 67.0524 35.6665 66.6665 35.643C69.1334 30.5396 71.2325 26.7814 72.3686 25.2269C67.3157 25.2738 64.048 26.7201 62.7712 27.2629C61.4963 28.0221 59.2187 29.8561 59.2187 29.8561C62.2717 28.8282 64.7477 29.1763 65.1949 29.27C64.0173 30.9706 62.2447 35.1435 61.8245 37.2751C65.4528 37.2805 66.0678 37.5744 66.0678 37.5744C64.5223 39.3634 64.4754 41.5851 64.4754 41.5851C64.4754 41.5851 65.3482 41.6193 65.7991 41.8862C62.095 43.3524 58.5622 45.1791 57.2656 53.5683H57.2674Z" fill="#BDBCBB"/>
<path d="M63.4172 27.6651C61.9601 28.1682 60.5661 28.9743 59.228 29.867C59.2136 29.8778 59.1937 29.8562 59.2081 29.8435C60.2865 28.6515 61.4587 27.4992 62.8689 26.5705C63.1539 26.3757 63.5434 26.4533 63.7327 26.7418C63.9564 27.07 63.794 27.5407 63.419 27.6651H63.4172Z" fill="#183051"/>
<path d="M54.3203 24.8194C53.1626 25.2144 47.6245 28.0402 45.6571 28.8193C43.2658 31.0374 44.0142 34.0832 42.4219 37.0137C42.5169 37.1904 42.7501 37.2535 43.1216 37.203C44.4362 33.8758 45.0746 31.4143 46.566 30.1772C50.9012 27.5912 54.5277 25.3117 54.5277 25.3117L54.3185 24.8176L54.3203 24.8194Z" fill="#BDBCBB"/>
<path d="M42.7771 45.4604L53.1049 46.2557L41.2911 55.2184L48.5749 47.3882L42.934 46.8797L33.1328 47.8264L42.7771 45.4604Z" fill="#BDBCBB"/>
<path d="M45.6406 38.3769C45.6406 38.3769 47.343 31.1347 50.0823 30.6658C53.4148 30.0941 54.4987 29.9246 57.9575 30.0851C51.442 32.3105 51.6981 35.0443 46.4052 38.6979C46.2393 38.8133 45.8174 38.2615 45.6406 38.3769Z" fill="#BDBCBB"/>
<path d="M52.9346 32.5396C52.9346 32.5396 54.1122 33.5152 60.5231 35.7351C57.883 36.8441 55.1059 37.762 50.0547 38.7539C53.133 37.8558 56.0526 36.0038 56.0526 36.0038L50.9311 34.5359L52.9346 32.5396Z" fill="#BDBCBB"/>
<path d="M47.1268 38.1281C47.1268 38.1281 48.6055 35.9497 51.1176 34.947C52.7118 35.3239 54.901 36.1138 54.901 36.1138C54.901 36.1138 53.9164 36.5646 52.7857 37.2589C51.1374 38.2688 49.1538 38.5826 47.2675 38.1606C47.1755 38.1407 47.125 38.1299 47.125 38.1299L47.1268 38.1281Z" fill="white"/>
<path d="M48.9358 38.8404C48.3461 38.8404 47.7528 38.7755 47.1631 38.642L46.3047 38.4599L46.7195 37.8486C46.7844 37.7548 48.3136 35.5331 50.9357 34.4853L51.0817 34.4276L51.235 34.4637C52.8382 34.8424 54.9824 35.6142 55.0726 35.6467L56.2123 36.0578L55.1104 36.5646C55.1014 36.5682 54.1384 37.0136 53.0474 37.6808C51.7977 38.4473 50.382 38.8404 48.934 38.8404H48.9358ZM48.0359 37.789C49.6084 37.9928 51.1809 37.661 52.5298 36.8333C52.9284 36.5898 53.3053 36.3752 53.6317 36.2003C52.9158 35.9641 51.9708 35.6665 51.1593 35.4663C49.704 36.0849 48.622 37.1272 48.0359 37.789Z" fill="#183051"/>
<path d="M50.0445 35.8036L50.4448 37.5889L47.6641 36.9686L50.0445 35.8036Z" fill="#183051"/>
<path d="M36.9489 43.6319C39.4051 41.8105 43.3472 39.0081 45.8773 37.2264L45.6537 37.4879L49.2387 30.3647L49.2802 30.2836L49.3271 30.2313C50.9826 28.4153 52.6759 26.6282 54.4991 24.9763L54.7461 25.1909C53.5126 27.0069 51.4027 29.7191 50.3388 30.9021L46.9034 38.0993L46.8276 38.258C45.2696 39.3562 41.4609 42.0414 39.9244 43.0855L37.6522 44.631L36.9453 43.6301L36.9489 43.6319Z" fill="#183051"/>
<path d="M46.9046 37.9946C46.3167 37.8991 45.691 38.0866 44.9263 37.6664C44.9263 37.6664 44.9642 34.3176 46.2392 32.0129C43.5684 34.8604 43.4422 37.0551 43.4422 37.0551C43.2276 37.0659 43.0869 37.0641 42.9354 37.0894C42.0644 36.5393 41.5703 38.7394 41.5703 38.7394C41.5703 38.7394 43.1807 37.8846 44.0589 37.5763C44.5476 37.6394 44.6739 38.496 44.6739 38.496C44.6739 38.496 47.9794 39.1289 50.1001 38.7484C50.652 38.0217 46.9046 37.9964 46.9046 37.9964V37.9946Z" fill="#183051"/>
<path d="M32.6396 42.7519C32.6396 42.7519 36.1056 42.0594 37.7737 43.2983C38.2011 43.6554 38.147 44.0106 37.891 44.9646C37.6349 45.9204 37.1245 47.1755 36.1417 47.5398C35.1625 47.904 32.5891 48.5731 32.0571 47.5235C31.5269 46.4794 31.3232 43.6265 32.6396 42.7519Z" fill="#183051"/>
<path d="M57.2419 56.8288L56.7279 55.6854C56.5656 55.323 56.3745 55.0362 56.1563 54.8126C55.1302 54.58 53.4585 54.277 51.5776 54.2265C51.5271 54.2265 51.4784 54.2265 51.4297 54.2229L51.4694 52.9984C51.5126 52.9984 51.5541 52.9984 51.5974 53.0021H51.6046C51.8697 53.0021 52.1997 52.9696 52.5478 52.9353C53.774 52.8127 55.471 52.645 56.746 53.6909C56.8523 53.7162 56.9515 53.7414 57.0399 53.7649C59.5772 47.4748 64.1739 43.8266 70.7201 42.9015C68.7725 41.7077 67.6634 41.5093 67.649 41.5075L66.7599 41.3578L67.2216 40.586C68.4064 38.6276 69.6904 37.4843 70.7634 36.817C68.3956 36.2868 67.2991 36.2706 66.8357 36.2634C66.7473 36.2634 66.6806 36.2598 66.6283 36.258L65.7158 36.2021L66.1125 35.3798C68.0493 31.3727 69.9104 27.8995 71.1907 25.8797C67.0521 26.107 64.329 27.2665 63.1082 27.7877L62.0081 28.2547L62.1632 27.1799C62.4499 25.1818 62.6014 24.2459 62.7367 23.7861L62.7439 23.75H62.7475C62.8413 23.4452 62.9278 23.3677 63.0486 23.3136C63.6978 22.8555 67.8726 20.329 78.5845 22.2604L79.6755 22.457L78.9289 23.2757C75.6035 26.9185 74.0905 30.2438 73.2772 32.0309C79.4771 31.5242 82.3012 32.7252 82.4256 32.7793L83.5779 33.2843L82.4689 33.8794C80.5086 34.9307 76.6314 38.2272 74.9814 40.0396C77.8054 40.6491 81.34 41.3488 81.3796 41.356L83.495 41.7744L81.477 42.5318C80.0073 43.0837 76.6224 44.9772 75.3204 46.2305C78.3645 48.023 78.7089 50.5333 78.7215 50.6469L78.8135 51.3863L78.0705 51.3322C77.2247 51.2708 76.37 51.1987 75.5134 51.1266C68.3306 50.5225 60.9045 49.8985 57.8262 55.7251L57.2401 56.8342L57.2419 56.8288ZM68.7057 40.5409C69.5425 40.8385 70.9527 41.4823 72.8264 42.8384L74.1987 43.832L72.5072 43.9457C66.3488 44.3586 61.862 47.1213 59.1354 52.1635C63.1478 48.8526 69.4667 49.3827 75.6144 49.9003C76.168 49.9472 76.7216 49.9941 77.2716 50.0374C76.9272 49.2295 76.0886 47.9328 74.1013 46.9608L73.5044 46.6687L73.8453 46.097C74.5504 44.914 77.2626 43.2279 79.295 42.1838C77.7297 41.8664 75.4701 41.4029 73.7443 41.017L72.866 40.8223L73.371 40.0775C74.3773 38.5915 78.1481 35.2734 80.6818 33.5458C79.2337 33.2356 76.5016 32.8984 72.3269 33.3474L71.1763 33.4718L71.7209 32.4511C71.8418 32.2239 71.9842 31.9083 72.1609 31.5206C72.94 29.8092 74.3394 26.7327 77.2879 23.2793C68.4659 21.8835 64.6915 23.741 63.8908 24.2243C63.8277 24.5362 63.7033 25.1927 63.5337 26.2837C65.2307 25.6146 68.1936 24.6553 72.3611 24.6156L73.582 24.6048L72.8624 25.5894C71.7372 27.1276 69.7589 30.7163 67.6273 35.0696C68.5254 35.1363 70.0997 35.3437 72.7579 36.0416L74.8569 36.5916L72.7795 37.2192C72.0744 37.432 70.3486 38.1713 68.7075 40.5427L68.7057 40.5409Z" fill="#183051"/>
<path d="M65.3795 17.3211C64.7663 18.9675 63.4769 23.0864 63.3453 23.851C63.3453 23.851 65.4624 22.1504 71.28 22.1504C73.2384 22.1504 75.6171 22.3434 78.4772 22.8573C74.3367 27.3946 72.9589 31.4322 72.2628 32.7361C73.7506 32.5756 75.0598 32.5124 76.1977 32.5124C80.3112 32.5124 82.1794 33.333 82.1794 33.333C79.8856 34.5647 75.0706 38.7124 73.8786 40.4183C76.8217 41.0747 81.2615 41.9512 81.2615 41.9512C79.6457 42.5517 75.1951 45.0277 74.3727 46.409C77.8081 48.0916 78.1147 50.7136 78.1147 50.7136C74.6703 50.4648 71.0925 49.9472 67.832 49.9472C64.9088 49.9472 62.2416 50.362 60.1534 51.7559C58.6999 52.7261 57.0029 53.2239 55.2609 53.2239C55.1293 53.2239 54.9976 53.2203 54.866 53.2149C54.801 53.2112 54.7379 53.2113 54.673 53.2113C53.5441 53.2113 52.3611 53.6116 51.555 53.6116C51.5208 53.6116 51.4883 53.6116 51.4558 53.6098C49.4217 55.1102 44.9836 57.5357 42.9386 58.3923C42.3363 58.6249 41.4906 58.7367 40.6484 58.7367C39.7197 58.7367 38.7909 58.6014 38.1922 58.3436C37.4745 57.3788 36.6143 56.4609 36.3077 55.9C36.2518 55.7972 36.3168 55.6782 36.4214 55.6782C36.4268 55.6782 36.434 55.6782 36.4412 55.6782C36.8217 55.7305 37.5502 55.9072 38.4339 55.9072C39.047 55.9072 39.7341 55.8225 40.4302 55.5502C40.5745 55.5231 40.8017 55.4456 41.0018 55.3717C41.1786 55.3067 41.3391 55.2003 41.4689 55.0597L48.5759 47.3828L43.009 46.8689C43.009 46.8689 38.4681 47.2205 37.1463 47.4333C36.2031 47.4748 33.1339 47.821 33.1339 47.821C32.7876 47.7796 32.3043 47.4784 31.9689 46.2107C31.6353 44.9501 31.464 43.5976 32.1925 43.0981C32.9211 42.5986 41.4599 38.1948 41.8025 38.0433C42.9621 35.6268 42.7367 31.517 45.6545 28.812C48.5308 27.6723 53.9769 25.1692 54.8588 24.9564C55.9299 23.0792 56.6152 22.1721 56.6152 22.1721C56.6152 22.1721 64.2794 17.7106 65.3777 17.3139M67.4497 15.2653L64.9629 16.1615C63.8178 16.5745 57.2951 20.3579 55.9985 21.1135L55.7857 21.2379L55.6378 21.4345C55.6107 21.4706 54.994 22.2911 54.031 23.9412C53.2574 24.2261 51.9085 24.8086 49.9068 25.6796C48.2152 26.4153 46.4642 27.1746 45.2036 27.6759L44.9908 27.7606L44.8231 27.9157C42.6176 29.9607 41.9919 32.6729 41.4888 34.8514C41.2922 35.699 41.1064 36.5069 40.854 37.1561C39.0254 38.0902 32.2899 41.549 31.5018 42.09C29.9023 43.1865 30.5442 45.612 30.7859 46.5262C31.2944 48.4486 32.2664 48.9535 32.9914 49.0383L33.1321 49.0545L33.2727 49.0383C34.1149 48.9427 36.461 48.6903 37.2022 48.6578L37.2725 48.6542L37.3429 48.6434C38.4934 48.4576 42.3237 48.1529 43.0018 48.0988L45.9917 48.3747L40.5727 54.2265C40.3058 54.3221 40.2156 54.3419 40.2066 54.3438L40.0912 54.3654L39.9866 54.4069C39.5159 54.5908 39.0092 54.681 38.4357 54.681C37.8622 54.681 37.3591 54.5908 36.9858 54.5259C36.8379 54.5006 36.7117 54.4772 36.6071 54.4646L36.5259 54.4538H36.425C35.9489 54.4538 35.5016 54.708 35.2582 55.1174C35.0111 55.5322 35.0021 56.0569 35.2347 56.4843C35.471 56.9207 35.8785 57.4148 36.3474 57.9883C36.6378 58.3418 36.9371 58.706 37.213 59.0757L37.4096 59.3408L37.7125 59.4707C38.4411 59.7826 39.5123 59.963 40.652 59.963C41.2597 59.963 42.4247 59.9071 43.3859 59.5356L43.4021 59.5302L43.4183 59.523C45.494 58.6519 49.6525 56.3869 51.8706 54.8252C52.2601 54.7964 52.6641 54.7206 53.0879 54.6413C53.6253 54.5403 54.1789 54.4375 54.6784 54.4375C54.7253 54.4375 54.7722 54.4375 54.8191 54.4411C54.9688 54.4483 55.1184 54.4501 55.2663 54.4501C57.2716 54.4501 59.1976 53.8713 60.8386 52.7766C62.4761 51.6838 64.6996 51.1735 67.8356 51.1753C69.9167 51.1753 72.2069 51.3989 74.4232 51.6153C75.608 51.7307 76.8325 51.8515 78.0299 51.9381L79.5069 52.0445L79.3338 50.573C79.3193 50.4575 79.0073 48.0663 76.342 46.1584C77.7703 45.0601 80.3923 43.5832 81.6907 43.0999L85.7501 41.5887L81.4996 40.7501C81.4653 40.7429 78.7549 40.2073 76.1905 39.6663C78.0281 37.8467 81.092 35.3094 82.7601 34.415L84.9764 33.2248L82.6735 32.2131C82.459 32.1193 80.4464 31.2898 76.1995 31.2898C75.5756 31.2898 74.93 31.3078 74.27 31.3439C75.1482 29.4882 76.6378 26.6949 79.3842 23.6833L80.8792 22.0458L78.6972 21.6527C76.0192 21.1694 73.5252 20.926 71.2836 20.926C68.5786 20.926 66.6075 21.2758 65.2298 21.6834C65.6554 20.302 66.1838 18.6754 66.53 17.7503L67.4533 15.2743L67.4497 15.2653Z" fill="#183051"/>
<path d="M41.4706 38.7845C42.0368 38.5158 44.0566 37.5727 44.0566 37.5727L44.7364 38.588L44.9672 38.4653L49.7046 38.8044L46.987 37.5709L44.3866 35.6611L42.2225 36.9289L41.4688 38.7827L41.4706 38.7845Z" fill="#183051"/>
<path d="M50.5625 34.6206C50.9304 34.4258 53.006 33.6919 54.2089 33.452C53.1214 34.0796 51.8375 34.8803 51.7112 35.057C51.585 35.2337 50.5625 34.6206 50.5625 34.6206Z" fill="#183051"/>
<path d="M40.0676 49.6604L38.8594 47.8589L40.8557 49.0383L40.0676 49.6604Z" fill="#183051"/>
<path d="M49.1311 35.5656L47.1853 36.0921L46.2422 37.5943L47.133 38.1281L49.1311 35.5656Z" fill="#183051"/>
<path d="M46.8684 36.1805L44.7224 36.3338L43.4276 36.4942L42.7297 35.3654L42.1562 37.0894L46.0479 37.2589L46.8684 36.1805Z" fill="#183051"/>
<path d="M40.1561 54.8505C39.7846 54.9984 39.8027 55.1138 38.7441 55.0669C37.6747 55.0525 36.434 55.2725 35.8984 54.8487C36.2789 55.7991 38.3997 56.2373 40.4753 55.5629C41.3662 55.0796 40.322 54.7838 40.1561 54.8505Z" fill="#183051"/>
<path d="M24.2578 98.5889L28.9068 93.0201L30.18 94.0823L28.328 96.3022L29.9834 97.6836L31.8355 95.4637L33.1158 96.5331L28.4668 102.102L27.1864 101.032L29.0727 98.7728L27.4173 97.3914L25.531 99.651L24.2578 98.5889Z" fill="white"/>
<path d="M30.375 103.487L34.1205 97.2742L35.4875 98.0983L32.7428 102.65L32.9033 102.746L37.1213 99.0811L39.197 100.333L35.4514 106.545L34.0845 105.721L36.8292 101.169L36.6687 101.074L32.4506 104.738L30.375 103.487Z" fill="white"/>
<path d="M37.3906 107.634L37.5692 107.158L40.1804 104.686L39.9369 101.384L40.1155 100.908L41.5419 101.444L41.6844 104.574L42.3534 104.825L43.3651 102.127L44.8294 102.677L43.8177 105.375L44.4868 105.626L46.6634 103.366L48.0899 103.902L47.9113 104.378L45.5562 106.704L45.8862 110.28L45.7077 110.756L44.1946 110.188L44.0035 106.951L43.3236 106.697L42.2831 109.47L40.817 108.92L41.8593 106.145L41.1903 105.894L38.9163 108.206L37.3942 107.634H37.3906Z" fill="white"/>
<path d="M47.8455 111.189L49.1422 104.053L50.7742 104.351L50.2566 107.194L52.3774 107.58L52.8949 104.736L54.536 105.034L53.2376 112.17L51.5965 111.87L52.1231 108.976L50.0024 108.59L49.4758 111.485L47.8438 111.189H47.8455Z" fill="white"/>
<path d="M55.5469 112.392L55.8462 105.144L60.7026 105.344L60.6449 106.731L57.4458 106.599L57.3809 108.163L59.7523 108.26L59.7 109.544L57.3286 109.447L57.2619 111.072L60.5439 111.207L60.4862 112.594L55.5469 112.39V112.392Z" fill="white"/>
<path d="M62.5188 112.532L61.8281 105.312L63.4782 105.155L63.7505 108.011L64.5656 107.934L65.7053 104.942L67.2941 104.791L67.3428 105.295L66.0516 108.448L68.0803 111.492L68.129 111.997L66.4988 112.152L64.7297 109.322L63.8839 109.403L64.1671 112.374L62.517 112.532H62.5188Z" fill="white"/>
<path d="M72.3889 103.581L75.918 109.643L76.0425 110.136L74.4862 110.531L73.7288 109.151L71.4295 109.735L71.4223 111.31L69.9057 111.696L69.7812 111.203L69.9995 104.188L72.3907 103.581H72.3889ZM71.4421 108.311L73.0489 107.903L71.6621 105.348L71.4511 105.402L71.4421 108.313V108.311Z" fill="white"/>
<path d="M78.0861 109.47L75.125 102.848L77.4044 101.829L80.1347 105.319L80.324 105.234L79.5432 100.872L81.7938 99.8656L84.7549 106.487L83.2978 107.138L81.2077 102.466L81.0472 102.538L81.7739 106.776L80.288 107.44L77.6136 104.073L77.4531 104.145L79.5432 108.817L78.0861 109.468V109.47Z" fill="white"/>
<path d="M87.7487 104.623L86.0427 104.262L83.4297 100.25L83.7904 98.5438L86.7857 96.5925L87.5431 97.7557L85.2673 99.238L85.1338 99.8313L87.1121 102.87L87.709 102.989L89.9921 101.501L90.7495 102.664L87.7451 104.621L87.7487 104.623Z" fill="white"/>
<path d="M92.399 101.433L87.6562 95.9452L88.9114 94.8614L90.7887 97.0326L91.4072 96.497L90.6047 93.397L91.813 92.3529L92.1448 92.737L92.9166 96.0552L96.3339 97.3626L96.6658 97.7467L95.4269 98.8179L92.3468 97.5357L91.7048 98.0912L93.656 100.349L92.4009 101.433H92.399Z" fill="white"/>
<path d="M17.7691 43.6049L11.1797 40.5717L11.874 39.0659L14.4996 40.2741L15.4013 38.3157L12.7756 37.1075L13.4735 35.5927L20.063 38.6259L19.3651 40.1407L16.6925 38.9108L15.7908 40.8692L18.4634 42.1009L17.7709 43.6067L17.7691 43.6049Z" fill="white"/>
<path d="M20.7792 37.3887L14.6875 33.4502L17.3258 29.3693L18.4926 30.1231L16.7541 32.8118L18.0688 33.6612L19.3564 31.6685L20.4348 32.3664L19.1472 34.3591L20.5141 35.2428L22.2976 32.4836L23.4644 33.2374L20.781 37.3887H20.7792Z" fill="white"/>
<path d="M26.3064 30.3215L25.7564 29.8183L24.4904 31.2033L22.7484 31.2826L19.7043 28.5001L19.625 26.7581L20.8909 25.3731L20.3409 24.87L21.4247 23.6834L21.9748 24.1865L23.2407 22.8015L24.9827 22.7222L28.0286 25.5047L28.1061 27.2468L26.8402 28.6317L27.3902 29.1349L26.3064 30.3215ZM24.0306 29.647L24.7357 28.8752L21.9207 26.3036L21.2137 27.0754L21.2408 27.6615L23.4427 29.6741L24.0288 29.647H24.0306ZM25.7997 27.712L26.5048 26.9402L26.4777 26.3541L24.274 24.3416L23.6879 24.3686L22.981 25.1405L25.796 27.712H25.7997Z" fill="white"/>
<path d="M31.5117 24.888L27.8978 20.2678L26.3704 21.4616L25.5156 20.3688L29.8815 16.9532L30.7363 18.0461L29.2107 19.2399L32.8246 23.8601L31.5099 24.888H31.5117Z" fill="white"/>
<path d="M35.2365 22.1072L31.5703 15.8478L35.7649 13.3916L36.4664 14.589L33.7037 16.2066L34.4953 17.5573L36.5421 16.3581L37.1913 17.4672L35.1427 18.6664L35.9651 20.0694L38.7999 18.4103L39.5014 19.6077L35.2365 22.1054V22.1072Z" fill="white"/>
<path d="M40.3216 19.1895L40.134 18.7296L40.4713 15.1031L37.8907 12.8868L37.7031 12.4251L39.2107 11.812L41.0483 13.5811L41.2124 13.5143L41.3134 10.9572L42.7723 10.3639L42.9599 10.8255L42.6461 14.1527L45.4431 16.5728L45.6306 17.0327L44.123 17.6458L42.051 15.6585L41.8869 15.7252L41.7805 18.598L40.3216 19.1913V19.1895Z" fill="white"/>
<path d="M46.6957 16.6827L45.0312 9.62263L46.5839 9.25656L47.803 14.4304L47.9851 14.3871L48.4396 8.81834L50.8002 8.26111L52.4646 15.3212L50.912 15.6873L49.6929 10.5135L49.5108 10.5568L49.0563 16.1255L46.6957 16.6809V16.6827Z" fill="white"/>
<path d="M53.8084 15.0688L53.4062 7.82653L55.9003 7.68767L57.2041 11.9219L57.4115 11.9111L58.2392 7.55783L60.7026 7.42078L61.1047 14.663L59.5106 14.7514L59.2274 9.64069L59.0525 9.64971L58.2176 13.8677L56.5928 13.9579L55.2962 9.8571L55.1212 9.86611L55.4044 14.9768L53.8102 15.0652L53.8084 15.0688Z" fill="white"/>
<path d="M62.4609 14.7658L63.3193 7.56323L64.9045 7.75258L64.2751 13.031L64.4609 13.0526L66.798 7.978L69.2055 8.26473L68.3471 15.4673L66.7619 15.2779L67.3913 9.99955L67.2055 9.97791L64.8684 15.0525L62.4609 14.7658Z" fill="white"/>
<path d="M69.7067 15.7667L71.6561 8.78052L73.2521 9.22594L72.4803 11.9905L73.2683 12.2105L75.4071 9.82646L76.9436 10.2557L76.8065 10.7444L74.4694 13.2222L75.2701 16.791L75.133 17.2797L73.5569 16.8397L72.9221 13.5648L72.1034 13.3358L71.3009 16.2103L69.7031 15.7649L69.7067 15.7667Z" fill="white"/>
<path d="M79.7646 19.321L79.2344 17.6601L81.4308 13.406L83.0917 12.8759L86.2692 14.5151L85.6326 15.7486L83.2198 14.5043L82.6391 14.6828L80.9764 17.9054L81.1676 18.4825L83.5895 19.7322L82.9529 20.9657L79.7664 19.321H79.7646Z" fill="white"/>
<path d="M83.6797 21.4418L84.5976 20.174L85.2522 20.6483L85.5407 20.6014L89.0699 16.286L92.9417 19.0848L88.6912 24.9619L87.3477 23.9899L90.7831 19.2363L89.5243 18.3256L86.3847 22.1541L84.9817 22.3795L83.6797 21.4382V21.4418Z" fill="white"/>
<path d="M89.7518 25.8978L94.7885 20.6771L98.2852 24.0512L97.3204 25.0502L95.0158 22.8267L93.9284 23.952L95.6361 25.6003L94.7435 26.5254L93.0357 24.8771L91.9068 26.0475L94.271 28.3287L93.3062 29.3278L89.75 25.896L89.7518 25.8978Z" fill="white"/>
<path d="M92.6328 30.8769L95.0204 29.0699L95.4082 29.5821L96.2611 29.5082L100.553 26.6625L103.393 30.4134L98.7173 33.9534L99.2745 34.6892L96.8869 36.4961L95.9239 35.223L97.2043 34.2528L94.878 31.1799L93.5976 32.1501L92.6346 30.8769H92.6328ZM96.4902 31.0103L97.7164 32.6297L101.285 29.9265L100.371 28.7201L97.024 30.9436L96.4902 31.0103Z" fill="white"/>
<path d="M98.6406 36.1228L99.0969 35.8992L102.693 35.8884L104.779 33.3186L105.235 33.095L105.906 34.4619L103.863 36.8387L104.179 37.4807L106.765 36.2112L107.454 37.616L104.868 38.8855L105.183 39.5275L108.317 39.3742L108.988 40.7412L108.532 40.9648L105.223 41.0423L103.01 43.8718L102.554 44.0954L101.842 42.6437L103.923 40.1569L103.603 39.5059L100.943 40.8115L100.255 39.4067L102.915 38.1011L102.599 37.4591L99.3584 37.5835L98.6424 36.1228H98.6406Z" fill="white"/>
</g>
<defs>
<clipPath id="clip0_1632_40062">
<rect width="120" height="120" fill="white"/>
</clipPath>
</defs>
</svg>
